%TF.GenerationSoftware,KiCad,Pcbnew,9.0.7*%
%TF.CreationDate,2026-03-05T05:57:23-06:00*%
%TF.ProjectId,01-3301 (u Rat),30312d33-3330-4312-9028-752052617429,1.0*%
%TF.SameCoordinates,PX7aeef28PY73aa988*%
%TF.FileFunction,Paste,Top*%
%TF.FilePolarity,Positive*%
%FSLAX46Y46*%
G04 Gerber Fmt 4.6, Leading zero omitted, Abs format (unit mm)*
G04 Created by KiCad (PCBNEW 9.0.7) date 2026-03-05 05:57:23*
%MOMM*%
%LPD*%
G01*
G04 APERTURE LIST*
G04 Aperture macros list*
%AMRoundRect*
0 Rectangle with rounded corners*
0 $1 Rounding radius*
0 $2 $3 $4 $5 $6 $7 $8 $9 X,Y pos of 4 corners*
0 Add a 4 corners polygon primitive as box body*
4,1,4,$2,$3,$4,$5,$6,$7,$8,$9,$2,$3,0*
0 Add four circle primitives for the rounded corners*
1,1,$1+$1,$2,$3*
1,1,$1+$1,$4,$5*
1,1,$1+$1,$6,$7*
1,1,$1+$1,$8,$9*
0 Add four rect primitives between the rounded corners*
20,1,$1+$1,$2,$3,$4,$5,0*
20,1,$1+$1,$4,$5,$6,$7,0*
20,1,$1+$1,$6,$7,$8,$9,0*
20,1,$1+$1,$8,$9,$2,$3,0*%
G04 Aperture macros list end*
%ADD10RoundRect,0.135000X-0.135000X-0.185000X0.135000X-0.185000X0.135000X0.185000X-0.135000X0.185000X0*%
%ADD11RoundRect,0.135000X0.185000X-0.135000X0.185000X0.135000X-0.185000X0.135000X-0.185000X-0.135000X0*%
%ADD12RoundRect,0.250000X-0.750000X0.550000X-0.750000X-0.550000X0.750000X-0.550000X0.750000X0.550000X0*%
%ADD13RoundRect,0.250000X0.400000X0.750000X-0.400000X0.750000X-0.400000X-0.750000X0.400000X-0.750000X0*%
%ADD14RoundRect,0.140000X-0.170000X0.140000X-0.170000X-0.140000X0.170000X-0.140000X0.170000X0.140000X0*%
%ADD15RoundRect,0.140000X0.170000X-0.140000X0.170000X0.140000X-0.170000X0.140000X-0.170000X-0.140000X0*%
%ADD16RoundRect,0.140000X-0.140000X-0.170000X0.140000X-0.170000X0.140000X0.170000X-0.140000X0.170000X0*%
%ADD17RoundRect,0.150000X0.150000X0.475000X-0.150000X0.475000X-0.150000X-0.475000X0.150000X-0.475000X0*%
%ADD18RoundRect,0.135000X-0.185000X0.135000X-0.185000X-0.135000X0.185000X-0.135000X0.185000X0.135000X0*%
%ADD19RoundRect,0.225000X0.225000X0.375000X-0.225000X0.375000X-0.225000X-0.375000X0.225000X-0.375000X0*%
%ADD20RoundRect,0.162500X0.362500X-0.162500X0.362500X0.162500X-0.362500X0.162500X-0.362500X-0.162500X0*%
%ADD21RoundRect,0.250000X-0.325000X-1.100000X0.325000X-1.100000X0.325000X1.100000X-0.325000X1.100000X0*%
%ADD22RoundRect,0.150000X-0.150000X0.587500X-0.150000X-0.587500X0.150000X-0.587500X0.150000X0.587500X0*%
%ADD23RoundRect,0.135000X0.135000X0.185000X-0.135000X0.185000X-0.135000X-0.185000X0.135000X-0.185000X0*%
%ADD24RoundRect,0.225000X0.250000X-0.225000X0.250000X0.225000X-0.250000X0.225000X-0.250000X-0.225000X0*%
%ADD25RoundRect,0.125000X-0.687500X-0.125000X0.687500X-0.125000X0.687500X0.125000X-0.687500X0.125000X0*%
%ADD26RoundRect,0.225000X-0.250000X0.225000X-0.250000X-0.225000X0.250000X-0.225000X0.250000X0.225000X0*%
%ADD27RoundRect,0.225000X-0.225000X-0.250000X0.225000X-0.250000X0.225000X0.250000X-0.225000X0.250000X0*%
%ADD28RoundRect,0.250000X-1.100000X0.325000X-1.100000X-0.325000X1.100000X-0.325000X1.100000X0.325000X0*%
%ADD29RoundRect,0.225000X0.225000X0.250000X-0.225000X0.250000X-0.225000X-0.250000X0.225000X-0.250000X0*%
%ADD30RoundRect,0.140000X0.140000X0.170000X-0.140000X0.170000X-0.140000X-0.170000X0.140000X-0.170000X0*%
%ADD31RoundRect,0.150000X0.150000X-0.512500X0.150000X0.512500X-0.150000X0.512500X-0.150000X-0.512500X0*%
%ADD32RoundRect,0.225000X-0.225000X-0.375000X0.225000X-0.375000X0.225000X0.375000X-0.225000X0.375000X0*%
G04 APERTURE END LIST*
D10*
%TO.C,R16*%
X16158750Y17303750D03*
X17178750Y17303750D03*
%TD*%
D11*
%TO.C,R10*%
X25241250Y11430000D03*
X25241250Y12450000D03*
%TD*%
D12*
%TO.C,J1*%
X3985000Y36920000D03*
X9985000Y28720000D03*
X3985000Y28720000D03*
X9985000Y36420000D03*
D13*
X7985000Y27720000D03*
X5985000Y27720000D03*
%TD*%
D14*
%TO.C,C3*%
X24765000Y8100000D03*
X24765000Y7140000D03*
%TD*%
D15*
%TO.C,C6*%
X26352500Y11460000D03*
X26352500Y12420000D03*
%TD*%
D10*
%TO.C,R4*%
X14571250Y27940000D03*
X15591250Y27940000D03*
%TD*%
D16*
%TO.C,C5*%
X16665000Y27940000D03*
X17625000Y27940000D03*
%TD*%
D17*
%TO.C,U2*%
X25243750Y17708750D03*
X26193750Y17708750D03*
X27143750Y17708750D03*
X27143750Y20208750D03*
X25243750Y20208750D03*
%TD*%
D18*
%TO.C,R12*%
X28733750Y18675000D03*
X28733750Y17655000D03*
%TD*%
D19*
%TO.C,D1*%
X16255000Y24923750D03*
X12955000Y24923750D03*
%TD*%
D20*
%TO.C,SW1*%
X13800000Y3615000D03*
X17950000Y3615000D03*
X13800000Y1465000D03*
X17950000Y1465000D03*
%TD*%
D10*
%TO.C,R2*%
X20127500Y4762500D03*
X21147500Y4762500D03*
%TD*%
D21*
%TO.C,C4*%
X14400000Y30162500D03*
X17350000Y30162500D03*
%TD*%
D18*
%TO.C,R1*%
X16351250Y7336250D03*
X16351250Y6316250D03*
%TD*%
%TO.C,R14*%
X28733750Y21782500D03*
X28733750Y20762500D03*
%TD*%
D22*
%TO.C,Q1*%
X15555000Y19828750D03*
X13655000Y19828750D03*
X14605000Y17953750D03*
%TD*%
D23*
%TO.C,R11*%
X26227500Y14513750D03*
X25207500Y14513750D03*
%TD*%
D11*
%TO.C,R5*%
X15081250Y7427500D03*
X15081250Y8447500D03*
%TD*%
D24*
%TO.C,C8*%
X30162500Y16913750D03*
X30162500Y18463750D03*
%TD*%
D11*
%TO.C,R13*%
X24606250Y21782500D03*
X24606250Y22802500D03*
%TD*%
D16*
%TO.C,C10*%
X25237500Y15625000D03*
X26197500Y15625000D03*
%TD*%
D25*
%TO.C,U1*%
X18525000Y8277500D03*
X18525000Y7627500D03*
X18525000Y6977500D03*
X18525000Y6327500D03*
X22750000Y6327500D03*
X22750000Y6977500D03*
X22750000Y7627500D03*
X22750000Y8277500D03*
%TD*%
D26*
%TO.C,C9*%
X23336250Y23067500D03*
X23336250Y21517500D03*
%TD*%
D15*
%TO.C,C14*%
X16033750Y15236250D03*
X16033750Y16196250D03*
%TD*%
D27*
%TO.C,C12*%
X27143750Y23177500D03*
X28693750Y23177500D03*
%TD*%
D11*
%TO.C,R8*%
X27463750Y11430000D03*
X27463750Y12450000D03*
%TD*%
D18*
%TO.C,R6*%
X28575000Y12450000D03*
X28575000Y11430000D03*
%TD*%
D28*
%TO.C,C2*%
X27305000Y7825000D03*
X27305000Y4875000D03*
%TD*%
D24*
%TO.C,C15*%
X4445000Y21132500D03*
X4445000Y22682500D03*
%TD*%
D19*
%TO.C,D2*%
X16255000Y22383750D03*
X12955000Y22383750D03*
%TD*%
D16*
%TO.C,C11*%
X26183750Y21748750D03*
X27143750Y21748750D03*
%TD*%
D29*
%TO.C,C1*%
X14745000Y6032500D03*
X13195000Y6032500D03*
%TD*%
D23*
%TO.C,R9*%
X28767500Y15625000D03*
X27747500Y15625000D03*
%TD*%
D11*
%TO.C,R15*%
X17303750Y13142500D03*
X17303750Y14162500D03*
%TD*%
D12*
%TO.C,J3*%
X21765000Y36920000D03*
X27765000Y28720000D03*
X21765000Y28720000D03*
X27765000Y36420000D03*
D13*
X25765000Y27720000D03*
X23765000Y27720000D03*
%TD*%
D23*
%TO.C,R7*%
X10511250Y10636250D03*
X9491250Y10636250D03*
%TD*%
D15*
%TO.C,C13*%
X17303750Y15236250D03*
X17303750Y16196250D03*
%TD*%
D30*
%TO.C,C7*%
X28737500Y14513750D03*
X27777500Y14513750D03*
%TD*%
D11*
%TO.C,R17*%
X5873750Y20921250D03*
X5873750Y21941250D03*
%TD*%
D19*
%TO.C,D5*%
X8158750Y10636250D03*
X4858750Y10636250D03*
%TD*%
D31*
%TO.C,D6*%
X12385000Y13626250D03*
X14285000Y13626250D03*
X13335000Y15901250D03*
%TD*%
D32*
%TO.C,D4*%
X10097500Y8413750D03*
X13397500Y8413750D03*
%TD*%
D23*
%TO.C,R3*%
X21147500Y3492500D03*
X20127500Y3492500D03*
%TD*%
M02*
