%TF.GenerationSoftware,KiCad,Pcbnew,9.0.7*%
%TF.CreationDate,2026-03-05T05:57:23-06:00*%
%TF.ProjectId,01-3301 (u Rat),30312d33-3330-4312-9028-752052617429,1.0*%
%TF.SameCoordinates,PX7aeef28PY73aa988*%
%TF.FileFunction,Legend,Top*%
%TF.FilePolarity,Positive*%
%FSLAX46Y46*%
G04 Gerber Fmt 4.6, Leading zero omitted, Abs format (unit mm)*
G04 Created by KiCad (PCBNEW 9.0.7) date 2026-03-05 05:57:23*
%MOMM*%
%LPD*%
G01*
G04 APERTURE LIST*
%ADD10C,0.254000*%
%ADD11C,0.203200*%
%ADD12C,0.120000*%
%ADD13C,0.200000*%
%ADD14C,0.000000*%
G04 APERTURE END LIST*
D10*
G36*
X6224790Y3621742D02*
G01*
X6220944Y3574407D01*
X6211266Y3552446D01*
X6195632Y3543078D01*
X6172678Y3536812D01*
X6144948Y3532656D01*
X6114425Y3531229D01*
X6056907Y3537651D01*
X6013738Y3555175D01*
X5990558Y3573828D01*
X5971597Y3599578D01*
X5956849Y3633963D01*
X5909425Y3586931D01*
X5866647Y3558153D01*
X5821666Y3540749D01*
X5778491Y3535199D01*
X5747772Y3537418D01*
X5722657Y3543574D01*
X5700766Y3554573D01*
X5683449Y3570623D01*
X5687544Y3532594D01*
X5691700Y3491649D01*
X5694864Y3450766D01*
X5695919Y3414350D01*
X5695919Y3326504D01*
X5691762Y3314159D01*
X5677494Y3304853D01*
X5650755Y3299022D01*
X5608508Y3296975D01*
X5566136Y3299084D01*
X5539398Y3304977D01*
X5525191Y3314345D01*
X5521035Y3326753D01*
X5521035Y4190379D01*
X5525191Y4202477D01*
X5539398Y4211162D01*
X5566136Y4216373D01*
X5608508Y4218110D01*
X5650755Y4216373D01*
X5677494Y4211162D01*
X5691762Y4202415D01*
X5695919Y4190255D01*
X5695919Y3813686D01*
X5699221Y3773576D01*
X5708273Y3742011D01*
X5722285Y3717218D01*
X5742169Y3697981D01*
X5767294Y3686273D01*
X5799336Y3682104D01*
X5832393Y3687839D01*
X5866957Y3706237D01*
X5899848Y3734320D01*
X5938114Y3777208D01*
X5938114Y4190317D01*
X5942271Y4202477D01*
X5956105Y4211162D01*
X5982843Y4216373D01*
X6025587Y4218110D01*
X6067525Y4216373D01*
X6094263Y4211162D01*
X6108159Y4202477D01*
X6112316Y4190317D01*
X6112316Y3762195D01*
X6115107Y3722615D01*
X6123421Y3696869D01*
X6138682Y3682663D01*
X6162318Y3678134D01*
X6177890Y3679189D01*
X6189739Y3681298D01*
X6198734Y3683345D01*
X6206737Y3684400D01*
X6214678Y3682291D01*
X6220261Y3673233D01*
X6223735Y3654063D01*
X6224790Y3621742D01*
G37*
G36*
X6997966Y4442997D02*
G01*
X7039655Y4439585D01*
X7091960Y4428999D01*
X7137116Y4413343D01*
X7177693Y4391503D01*
X7210693Y4364581D01*
X7237240Y4331930D01*
X7256849Y4293424D01*
X7268662Y4250442D01*
X7272855Y4199189D01*
X7269878Y4155498D01*
X7261378Y4117299D01*
X7247148Y4082082D01*
X7227753Y4051291D01*
X7203160Y4024416D01*
X7172912Y4000916D01*
X7138545Y3981816D01*
X7098653Y3966361D01*
X7136434Y3942663D01*
X7169748Y3908914D01*
X7199278Y3863689D01*
X7226326Y3806242D01*
X7301950Y3628752D01*
X7315847Y3590103D01*
X7319321Y3570995D01*
X7316529Y3558091D01*
X7303377Y3549406D01*
X7272793Y3544567D01*
X7218013Y3543140D01*
X7171485Y3544567D01*
X7144065Y3549778D01*
X7129858Y3559518D01*
X7122910Y3573849D01*
X7042385Y3775471D01*
X7013909Y3836144D01*
X6998901Y3861011D01*
X6983077Y3880439D01*
X6964714Y3896099D01*
X6943869Y3907301D01*
X6920554Y3913981D01*
X6892502Y3916359D01*
X6835613Y3916359D01*
X6835613Y3572422D01*
X6831084Y3559890D01*
X6816195Y3550771D01*
X6788402Y3545249D01*
X6743983Y3543140D01*
X6699875Y3545249D01*
X6671772Y3550771D01*
X6657193Y3559766D01*
X6653036Y3572236D01*
X6653036Y4051353D01*
X6835613Y4051353D01*
X6928608Y4051353D01*
X6966115Y4053827D01*
X6996601Y4060658D01*
X7023848Y4072204D01*
X7045176Y4086962D01*
X7062235Y4105630D01*
X7074334Y4127473D01*
X7081559Y4151999D01*
X7084074Y4180143D01*
X7078784Y4221890D01*
X7063912Y4254898D01*
X7038507Y4280124D01*
X6998028Y4297829D01*
X6966451Y4303350D01*
X6917503Y4305459D01*
X6835613Y4305459D01*
X6835613Y4051353D01*
X6653036Y4051353D01*
X6653036Y4386853D01*
X6657350Y4414274D01*
X6668608Y4430899D01*
X6685814Y4440952D01*
X6707195Y4444424D01*
X6939712Y4444424D01*
X6997966Y4442997D01*
G37*
G36*
X7766805Y4226159D02*
G01*
X7821268Y4215753D01*
X7869396Y4197200D01*
X7906322Y4172016D01*
X7934835Y4138685D01*
X7954897Y4095958D01*
X7966074Y4046994D01*
X7970158Y3985531D01*
X7970158Y3568824D01*
X7963210Y3553500D01*
X7941311Y3545560D01*
X7897264Y3543140D01*
X7851790Y3545560D01*
X7831690Y3553500D01*
X7825797Y3568824D01*
X7825797Y3618082D01*
X7784762Y3581501D01*
X7738696Y3554183D01*
X7687725Y3537108D01*
X7630068Y3531229D01*
X7582069Y3534559D01*
X7539493Y3544133D01*
X7500548Y3560324D01*
X7467963Y3582348D01*
X7441297Y3610602D01*
X7421125Y3645254D01*
X7408866Y3684825D01*
X7404499Y3732851D01*
X7404990Y3737442D01*
X7575226Y3737442D01*
X7581644Y3702144D01*
X7599855Y3676459D01*
X7628028Y3660257D01*
X7668221Y3654312D01*
X7703615Y3659002D01*
X7735904Y3672985D01*
X7765883Y3695011D01*
X7798748Y3727702D01*
X7798748Y3832980D01*
X7732120Y3832980D01*
X7691316Y3831274D01*
X7659908Y3826714D01*
X7631890Y3818573D01*
X7611332Y3808041D01*
X7594882Y3794018D01*
X7583912Y3777891D01*
X7577480Y3759347D01*
X7575226Y3737442D01*
X7404990Y3737442D01*
X7410032Y3784578D01*
X7425654Y3827025D01*
X7451671Y3863138D01*
X7488808Y3893033D01*
X7534228Y3915106D01*
X7593279Y3931620D01*
X7658301Y3940799D01*
X7738386Y3944152D01*
X7798748Y3944152D01*
X7798748Y3981995D01*
X7792855Y4033486D01*
X7784890Y4054033D01*
X7773437Y4070274D01*
X7758029Y4082824D01*
X7737331Y4091987D01*
X7713327Y4097083D01*
X7681435Y4098998D01*
X7639090Y4096388D01*
X7603392Y4089072D01*
X7542657Y4067234D01*
X7498548Y4045335D01*
X7481369Y4037558D01*
X7469762Y4035471D01*
X7456238Y4040248D01*
X7446498Y4053958D01*
X7440605Y4075920D01*
X7438557Y4104705D01*
X7442031Y4138268D01*
X7455183Y4160539D01*
X7489180Y4182873D01*
X7546131Y4205889D01*
X7617226Y4223259D01*
X7696696Y4230021D01*
X7766805Y4226159D01*
G37*
G36*
X8498037Y3630117D02*
G01*
X8494191Y3583092D01*
X8484140Y3560076D01*
X8465777Y3548289D01*
X8437302Y3539232D01*
X8401879Y3533338D01*
X8363415Y3531229D01*
X8313355Y3534752D01*
X8273150Y3544443D01*
X8237961Y3561433D01*
X8209996Y3585140D01*
X8188655Y3615522D01*
X8173208Y3654374D01*
X8164583Y3698182D01*
X8161420Y3753200D01*
X8161420Y4071205D01*
X8087099Y4071205D01*
X8075941Y4074963D01*
X8066999Y4087645D01*
X8062153Y4106951D01*
X8060051Y4142672D01*
X8061788Y4176979D01*
X8066999Y4199065D01*
X8075684Y4210604D01*
X8087844Y4214140D01*
X8161420Y4214140D01*
X8161420Y4351863D01*
X8165205Y4364271D01*
X8179101Y4373639D01*
X8206150Y4379160D01*
X8248149Y4380897D01*
X8290831Y4379160D01*
X8317569Y4373639D01*
X8331466Y4364271D01*
X8335622Y4351863D01*
X8335622Y4214140D01*
X8470244Y4214140D01*
X8482403Y4210604D01*
X8491089Y4199065D01*
X8496300Y4176979D01*
X8498037Y4142672D01*
X8495934Y4106951D01*
X8491089Y4087645D01*
X8482146Y4074963D01*
X8470989Y4071205D01*
X8335622Y4071205D01*
X8335622Y3779690D01*
X8340185Y3732639D01*
X8351566Y3703507D01*
X8364255Y3689945D01*
X8382552Y3681342D01*
X8408517Y3678134D01*
X8433518Y3680554D01*
X8453246Y3686075D01*
X8467825Y3691658D01*
X8478619Y3694078D01*
X8486560Y3691658D01*
X8492454Y3681918D01*
X8496300Y3662128D01*
X8498037Y3630117D01*
G37*
G36*
X17981904Y36529619D02*
G01*
X18029799Y36513160D01*
X18069849Y36485974D01*
X18100895Y36449571D01*
X18123291Y36405408D01*
X18138738Y36350683D01*
X18146933Y36291251D01*
X18149842Y36222389D01*
X18146901Y36159116D01*
X18138365Y36100982D01*
X18122539Y36046654D01*
X18099158Y36001039D01*
X18067126Y35962692D01*
X18026325Y35933232D01*
X17977584Y35915009D01*
X17913851Y35908354D01*
X17850045Y35914241D01*
X17802121Y35930130D01*
X17762189Y35956861D01*
X17731336Y35993408D01*
X17709237Y36037948D01*
X17693865Y36093351D01*
X17685692Y36153701D01*
X17682761Y36225119D01*
X17685679Y36287101D01*
X17694176Y36344417D01*
X17710035Y36398055D01*
X17733383Y36442995D01*
X17765401Y36480852D01*
X17806278Y36510430D01*
X17855045Y36528932D01*
X17918752Y36535680D01*
X17981904Y36529619D01*
G37*
G36*
X20148023Y35630479D02*
G01*
X17364188Y35630479D01*
X17364188Y36216496D01*
X17491188Y36216496D01*
X17494361Y36137516D01*
X17503282Y36069543D01*
X17517182Y36011213D01*
X17538133Y35955310D01*
X17564227Y35908080D01*
X17595287Y35868402D01*
X17632449Y35834492D01*
X17675555Y35806676D01*
X17725380Y35784837D01*
X17778141Y35770122D01*
X17838745Y35760777D01*
X17908330Y35757479D01*
X17978591Y35761311D01*
X18040577Y35772253D01*
X18095373Y35789676D01*
X18146907Y35814725D01*
X18191906Y35845869D01*
X18231050Y35883291D01*
X18264075Y35926393D01*
X18291621Y35975935D01*
X18313622Y36032740D01*
X18328672Y36092053D01*
X18338118Y36158328D01*
X18341415Y36232439D01*
X18338163Y36309909D01*
X18328998Y36376825D01*
X18314676Y36434496D01*
X18293379Y36489728D01*
X18266965Y36536654D01*
X18235578Y36576314D01*
X18198178Y36610205D01*
X18154923Y36637894D01*
X18137261Y36645548D01*
X18494648Y36645548D01*
X18494648Y36099927D01*
X18501161Y36017314D01*
X18519277Y35949858D01*
X18549723Y35890461D01*
X18590372Y35842719D01*
X18641336Y35805661D01*
X18704211Y35778634D01*
X18774163Y35763014D01*
X18856265Y35757479D01*
X18943371Y35763689D01*
X19015826Y35781053D01*
X19080532Y35810488D01*
X19132457Y35849667D01*
X19173655Y35899356D01*
X19203925Y35959908D01*
X19221900Y36027807D01*
X19228243Y36107557D01*
X19228243Y36594864D01*
X19333894Y36594864D01*
X19335631Y36560122D01*
X19340842Y36536982D01*
X19349155Y36524016D01*
X19360942Y36519798D01*
X19585829Y36519798D01*
X19585829Y35798424D01*
X19590295Y35785954D01*
X19605246Y35776959D01*
X19633349Y35771499D01*
X19677458Y35769390D01*
X19721505Y35771499D01*
X19749670Y35776959D01*
X19764559Y35785954D01*
X19769088Y35798424D01*
X19769088Y36519798D01*
X19993974Y36519798D01*
X20005389Y36524016D01*
X20014075Y36536982D01*
X20019286Y36560122D01*
X20021023Y36594864D01*
X20019286Y36630659D01*
X20014075Y36654172D01*
X20005389Y36666827D01*
X19993974Y36670674D01*
X19360942Y36670674D01*
X19349155Y36666827D01*
X19340842Y36654172D01*
X19335631Y36630659D01*
X19333894Y36594864D01*
X19228243Y36594864D01*
X19228243Y36645548D01*
X19224087Y36657956D01*
X19209508Y36667013D01*
X19182087Y36672535D01*
X19138723Y36674644D01*
X19094676Y36672535D01*
X19066573Y36667013D01*
X19051994Y36658018D01*
X19047838Y36645548D01*
X19047838Y36106317D01*
X19044477Y36060770D01*
X19034996Y36022194D01*
X19019179Y35987665D01*
X18998518Y35959908D01*
X18972527Y35937809D01*
X18940947Y35921506D01*
X18905487Y35911781D01*
X18863896Y35908354D01*
X18822891Y35911664D01*
X18787217Y35921134D01*
X18755169Y35937246D01*
X18728220Y35959598D01*
X18706796Y35987986D01*
X18690377Y36024303D01*
X18680736Y36065415D01*
X18677225Y36116739D01*
X18677225Y36645548D01*
X18672696Y36658018D01*
X18657807Y36667013D01*
X18630014Y36672535D01*
X18586277Y36674644D01*
X18541858Y36672535D01*
X18513693Y36667013D01*
X18498804Y36657956D01*
X18494648Y36645548D01*
X18137261Y36645548D01*
X18105051Y36659507D01*
X18052351Y36674111D01*
X17992643Y36683323D01*
X17924956Y36686555D01*
X17854250Y36682665D01*
X17792051Y36671570D01*
X17737230Y36653923D01*
X17685666Y36628718D01*
X17640666Y36597568D01*
X17601553Y36560309D01*
X17568489Y36517504D01*
X17540929Y36468427D01*
X17518919Y36412287D01*
X17503869Y36353673D01*
X17494460Y36288674D01*
X17491579Y36225119D01*
X17491188Y36216496D01*
X17364188Y36216496D01*
X17364188Y36813555D01*
X20148023Y36813555D01*
X20148023Y35630479D01*
G37*
G36*
X13069514Y35642390D02*
G01*
X11695734Y35642390D01*
X11695734Y36645548D01*
X11822734Y36645548D01*
X11822734Y35798486D01*
X11827201Y35786016D01*
X11842152Y35777021D01*
X11870255Y35771499D01*
X11914364Y35769390D01*
X11958783Y35771499D01*
X11986575Y35777021D01*
X12001464Y35786016D01*
X12005993Y35798486D01*
X12005993Y36605534D01*
X12201908Y36605534D01*
X12201908Y35799230D01*
X12205382Y35786699D01*
X12217852Y35777331D01*
X12242853Y35771499D01*
X12283116Y35769390D01*
X12324060Y35771499D01*
X12349434Y35777331D01*
X12362586Y35786637D01*
X12366432Y35799106D01*
X12366432Y36267056D01*
X12365005Y36368984D01*
X12360849Y36468183D01*
X12362276Y36468183D01*
X12398320Y36384370D01*
X12437900Y36303969D01*
X12661359Y35886517D01*
X12692626Y35829691D01*
X12721412Y35795508D01*
X12737175Y35784799D01*
X12754044Y35778137D01*
X12796043Y35773360D01*
X12873776Y35773360D01*
X12899832Y35777145D01*
X12922042Y35789304D01*
X12936931Y35810087D01*
X12942514Y35838500D01*
X12942514Y36644804D01*
X12939040Y36657273D01*
X12926881Y36667013D01*
X12902252Y36672907D01*
X12862672Y36674644D01*
X12821727Y36672907D01*
X12796043Y36667013D01*
X12782147Y36657335D01*
X12777990Y36644866D01*
X12777990Y36224871D01*
X12779045Y36124494D01*
X12782147Y36023496D01*
X12781464Y36023496D01*
X12755781Y36078710D01*
X12728732Y36135040D01*
X12699885Y36192363D01*
X12669734Y36250740D01*
X12494850Y36577431D01*
X12469105Y36622470D01*
X12442366Y36651256D01*
X12410107Y36666145D01*
X12365750Y36670674D01*
X12267854Y36670674D01*
X12241932Y36666489D01*
X12220954Y36654358D01*
X12207009Y36634874D01*
X12201908Y36605534D01*
X12005993Y36605534D01*
X12005993Y36645548D01*
X12001464Y36657956D01*
X11986575Y36667013D01*
X11958783Y36672535D01*
X11914364Y36674644D01*
X11870627Y36672535D01*
X11842462Y36667013D01*
X11827201Y36657956D01*
X11822734Y36645548D01*
X11695734Y36645548D01*
X11695734Y36801644D01*
X13069514Y36801644D01*
X13069514Y35642390D01*
G37*
D11*
G36*
X20370199Y2080869D02*
G01*
X20418094Y2064410D01*
X20458144Y2037224D01*
X20489190Y2000821D01*
X20511586Y1956658D01*
X20527033Y1901933D01*
X20535228Y1842501D01*
X20538137Y1773639D01*
X20535196Y1710366D01*
X20526660Y1652232D01*
X20510834Y1597904D01*
X20487453Y1552289D01*
X20455421Y1513942D01*
X20414620Y1484482D01*
X20365879Y1466259D01*
X20302146Y1459604D01*
X20238340Y1465491D01*
X20190416Y1481380D01*
X20150484Y1508111D01*
X20119631Y1544658D01*
X20097532Y1589198D01*
X20082160Y1644601D01*
X20073987Y1704951D01*
X20071056Y1776369D01*
X20073974Y1838351D01*
X20082471Y1895667D01*
X20098330Y1949305D01*
X20121678Y1994245D01*
X20153696Y2032102D01*
X20194573Y2061680D01*
X20243340Y2080182D01*
X20307047Y2086930D01*
X20370199Y2080869D01*
G37*
G36*
X22588666Y2080869D02*
G01*
X22636562Y2064410D01*
X22676612Y2037224D01*
X22707657Y2000821D01*
X22730054Y1956658D01*
X22745500Y1901933D01*
X22753695Y1842501D01*
X22756605Y1773639D01*
X22753664Y1710366D01*
X22745128Y1652232D01*
X22729301Y1597904D01*
X22705920Y1552289D01*
X22673889Y1513942D01*
X22633088Y1484482D01*
X22584347Y1466259D01*
X22520614Y1459604D01*
X22456807Y1465491D01*
X22408884Y1481380D01*
X22368951Y1508111D01*
X22338099Y1544658D01*
X22316000Y1589198D01*
X22300628Y1644601D01*
X22292454Y1704951D01*
X22289523Y1776369D01*
X22292442Y1838351D01*
X22300938Y1895667D01*
X22316797Y1949305D01*
X22340146Y1994245D01*
X22372164Y2032102D01*
X22413040Y2061680D01*
X22461808Y2080182D01*
X22525514Y2086930D01*
X22588666Y2080869D01*
G37*
G36*
X24371054Y1195840D02*
G01*
X19766594Y1195840D01*
X19766594Y1767746D01*
X19879483Y1767746D01*
X19882656Y1688766D01*
X19891577Y1620793D01*
X19905477Y1562463D01*
X19926428Y1506560D01*
X19952522Y1459330D01*
X19983582Y1419652D01*
X20020744Y1385742D01*
X20063850Y1357926D01*
X20113675Y1336087D01*
X20166436Y1321372D01*
X20227040Y1312027D01*
X20296625Y1308729D01*
X20366886Y1312561D01*
X20428872Y1323503D01*
X20483668Y1340926D01*
X20535202Y1365975D01*
X20580201Y1397119D01*
X20619345Y1434541D01*
X20652370Y1477643D01*
X20679916Y1527185D01*
X20701917Y1583990D01*
X20716967Y1643303D01*
X20726413Y1709578D01*
X20729710Y1783689D01*
X20726458Y1861159D01*
X20717293Y1928075D01*
X20702971Y1985746D01*
X20681674Y2040978D01*
X20655260Y2087904D01*
X20623873Y2127564D01*
X20591628Y2156784D01*
X20883625Y2156784D01*
X20883625Y1350480D01*
X20887099Y1337949D01*
X20899569Y1328581D01*
X20924570Y1322749D01*
X20964832Y1320640D01*
X21005777Y1322749D01*
X21031151Y1328581D01*
X21044303Y1337887D01*
X21048149Y1350356D01*
X21048149Y1818306D01*
X21046722Y1920234D01*
X21042566Y2019433D01*
X21043993Y2019433D01*
X21080036Y1935620D01*
X21119617Y1855219D01*
X21343076Y1437767D01*
X21374343Y1380941D01*
X21403129Y1346758D01*
X21418892Y1336049D01*
X21435761Y1329387D01*
X21477760Y1324610D01*
X21555493Y1324610D01*
X21581549Y1328395D01*
X21603759Y1340554D01*
X21618648Y1361337D01*
X21624231Y1389750D01*
X21624231Y1767746D01*
X22097951Y1767746D01*
X22101123Y1688766D01*
X22110045Y1620793D01*
X22123945Y1562463D01*
X22144896Y1506560D01*
X22170990Y1459330D01*
X22202050Y1419652D01*
X22239211Y1385742D01*
X22282317Y1357926D01*
X22332143Y1336087D01*
X22384904Y1321372D01*
X22445508Y1312027D01*
X22515092Y1308729D01*
X22585354Y1312561D01*
X22647339Y1323503D01*
X22702136Y1340926D01*
X22753669Y1365975D01*
X22798668Y1397119D01*
X22837812Y1434541D01*
X22870838Y1477643D01*
X22898384Y1527185D01*
X22920384Y1583990D01*
X22935435Y1643303D01*
X22944881Y1709578D01*
X22948177Y1783689D01*
X22944925Y1861159D01*
X22935760Y1928075D01*
X22921439Y1985746D01*
X22900141Y2040978D01*
X22873728Y2087904D01*
X22842341Y2127564D01*
X22804940Y2161455D01*
X22800413Y2164353D01*
X23102093Y2164353D01*
X23102093Y1351163D01*
X23106559Y1337949D01*
X23121511Y1328581D01*
X23149614Y1322749D01*
X23193722Y1320640D01*
X23238141Y1322749D01*
X23266244Y1328581D01*
X23281196Y1337949D01*
X23285352Y1351225D01*
X23285352Y1685918D01*
X23560923Y1685918D01*
X23571966Y1689702D01*
X23580651Y1702606D01*
X23586235Y1725560D01*
X23587972Y1760425D01*
X23586235Y1795228D01*
X23580651Y1817500D01*
X23571966Y1829349D01*
X23560923Y1832823D01*
X23285352Y1832823D01*
X23285352Y2071048D01*
X23578976Y2071048D01*
X23590019Y2075266D01*
X23598704Y2087860D01*
X23604288Y2110690D01*
X23606025Y2146114D01*
X23605140Y2164353D01*
X23754233Y2164353D01*
X23754233Y1351163D01*
X23758700Y1337949D01*
X23773651Y1328581D01*
X23801754Y1322749D01*
X23845863Y1320640D01*
X23890281Y1322749D01*
X23918385Y1328581D01*
X23933336Y1337949D01*
X23937492Y1351225D01*
X23937492Y1685918D01*
X24213064Y1685918D01*
X24224106Y1689702D01*
X24232792Y1702606D01*
X24238375Y1725560D01*
X24240112Y1760425D01*
X24238375Y1795228D01*
X24232792Y1817500D01*
X24224106Y1829349D01*
X24213064Y1832823D01*
X23937492Y1832823D01*
X23937492Y2071048D01*
X24231117Y2071048D01*
X24242159Y2075266D01*
X24250844Y2087860D01*
X24256428Y2110690D01*
X24258165Y2146114D01*
X24256428Y2181909D01*
X24250844Y2205422D01*
X24242159Y2218077D01*
X24231117Y2221924D01*
X23808392Y2221924D01*
X23787010Y2218452D01*
X23769804Y2208399D01*
X23758547Y2191774D01*
X23754233Y2164353D01*
X23605140Y2164353D01*
X23604288Y2181909D01*
X23598704Y2205422D01*
X23590019Y2218077D01*
X23578976Y2221924D01*
X23156252Y2221924D01*
X23134870Y2218452D01*
X23117664Y2208399D01*
X23106407Y2191774D01*
X23102093Y2164353D01*
X22800413Y2164353D01*
X22761686Y2189144D01*
X22711814Y2210757D01*
X22659113Y2225361D01*
X22599405Y2234573D01*
X22531718Y2237805D01*
X22461012Y2233915D01*
X22398814Y2222820D01*
X22343992Y2205173D01*
X22292429Y2179968D01*
X22247429Y2148818D01*
X22208316Y2111559D01*
X22175252Y2068754D01*
X22147692Y2019677D01*
X22125682Y1963537D01*
X22110631Y1904923D01*
X22101223Y1839924D01*
X22098342Y1776369D01*
X22097951Y1767746D01*
X21624231Y1767746D01*
X21624231Y2196054D01*
X21620757Y2208523D01*
X21608598Y2218263D01*
X21583969Y2224157D01*
X21544389Y2225894D01*
X21503444Y2224157D01*
X21477760Y2218263D01*
X21463864Y2208585D01*
X21459707Y2196116D01*
X21459707Y1776121D01*
X21460762Y1675744D01*
X21463864Y1574746D01*
X21463181Y1574746D01*
X21437498Y1629960D01*
X21410449Y1686290D01*
X21381602Y1743613D01*
X21351451Y1801990D01*
X21176567Y2128681D01*
X21150821Y2173720D01*
X21124083Y2202506D01*
X21091824Y2217395D01*
X21047467Y2221924D01*
X20949571Y2221924D01*
X20923649Y2217739D01*
X20902671Y2205608D01*
X20888726Y2186124D01*
X20883625Y2156784D01*
X20591628Y2156784D01*
X20586473Y2161455D01*
X20543218Y2189144D01*
X20493346Y2210757D01*
X20440646Y2225361D01*
X20380938Y2234573D01*
X20313251Y2237805D01*
X20242545Y2233915D01*
X20180346Y2222820D01*
X20125525Y2205173D01*
X20073961Y2179968D01*
X20028961Y2148818D01*
X19989848Y2111559D01*
X19956784Y2068754D01*
X19929224Y2019677D01*
X19907214Y1963537D01*
X19892164Y1904923D01*
X19882755Y1839924D01*
X19879874Y1776369D01*
X19879483Y1767746D01*
X19766594Y1767746D01*
X19766594Y2350694D01*
X24371054Y2350694D01*
X24371054Y1195840D01*
G37*
D10*
G36*
X2954659Y16785134D02*
G01*
X3017814Y16774712D01*
X3053891Y16763587D01*
X3092073Y16744934D01*
X3127258Y16720406D01*
X3156282Y16691209D01*
X3179489Y16657109D01*
X3196917Y16617384D01*
X3207454Y16574051D01*
X3211123Y16524886D01*
X3205377Y16459875D01*
X3188914Y16403540D01*
X3161780Y16353262D01*
X3125387Y16311352D01*
X3080206Y16278039D01*
X3024080Y16252479D01*
X2960781Y16237265D01*
X2880772Y16231696D01*
X2778783Y16231696D01*
X2778783Y15908480D01*
X2775619Y15898740D01*
X2765879Y15892164D01*
X2747826Y15888007D01*
X2719040Y15886270D01*
X2690255Y15888007D01*
X2671892Y15892164D01*
X2662152Y15898740D01*
X2659360Y15908480D01*
X2659360Y16329964D01*
X2778783Y16329964D01*
X2886356Y16329964D01*
X2937887Y16333743D01*
X2976186Y16343798D01*
X3009488Y16360566D01*
X3036239Y16382199D01*
X3057480Y16409047D01*
X3073027Y16441073D01*
X3082307Y16476406D01*
X3085497Y16515518D01*
X3080028Y16567211D01*
X3065024Y16606838D01*
X3041546Y16639493D01*
X3014340Y16661555D01*
X2983379Y16676408D01*
X2951930Y16684447D01*
X2889086Y16689286D01*
X2778783Y16689286D01*
X2778783Y16329964D01*
X2659360Y16329964D01*
X2659360Y16736248D01*
X2663401Y16761028D01*
X2673939Y16775766D01*
X2689464Y16784635D01*
X2706571Y16787554D01*
X2898825Y16787554D01*
X2954659Y16785134D01*
G37*
G36*
X3993542Y16017914D02*
G01*
X3992860Y15998372D01*
X3990441Y15983669D01*
X3985912Y15972502D01*
X3976172Y15960591D01*
X3947076Y15939126D01*
X3891863Y15911023D01*
X3816239Y15887821D01*
X3772433Y15880792D01*
X3722872Y15878329D01*
X3665176Y15881726D01*
X3612783Y15891563D01*
X3564986Y15907487D01*
X3520170Y15930138D01*
X3480295Y15958762D01*
X3444881Y15993657D01*
X3415033Y16033562D01*
X3389549Y16080148D01*
X3368575Y16134297D01*
X3354151Y16190741D01*
X3345036Y16254682D01*
X3341837Y16327110D01*
X3345254Y16401270D01*
X3355039Y16467405D01*
X3370622Y16526437D01*
X3393037Y16583118D01*
X3420046Y16632284D01*
X3451519Y16674769D01*
X3488627Y16712211D01*
X3530009Y16743005D01*
X3576091Y16767515D01*
X3625354Y16785039D01*
X3678683Y16795778D01*
X3736768Y16799465D01*
X3812392Y16792082D01*
X3880386Y16773533D01*
X3935909Y16747663D01*
X3969596Y16723531D01*
X3981755Y16709200D01*
X3986284Y16697785D01*
X3989014Y16682152D01*
X3990068Y16660624D01*
X3988703Y16637050D01*
X3984547Y16620734D01*
X3977909Y16610994D01*
X3968603Y16607892D01*
X3958421Y16610584D01*
X3941493Y16621479D01*
X3896764Y16651567D01*
X3867542Y16666775D01*
X3830135Y16681593D01*
X3788717Y16691578D01*
X3736086Y16695241D01*
X3678485Y16689105D01*
X3627458Y16671233D01*
X3582393Y16641904D01*
X3543769Y16600696D01*
X3513607Y16550345D01*
X3489983Y16487105D01*
X3475963Y16417348D01*
X3470937Y16333810D01*
X3475800Y16251062D01*
X3489300Y16182624D01*
X3512371Y16120990D01*
X3542094Y16072817D01*
X3580459Y16034009D01*
X3626403Y16006127D01*
X3678707Y15989389D01*
X3739560Y15983545D01*
X3791021Y15987120D01*
X3832865Y15997007D01*
X3870998Y16011833D01*
X3900920Y16027220D01*
X3947076Y16057370D01*
X3964669Y16068183D01*
X3975489Y16070894D01*
X3983865Y16068785D01*
X3989386Y16060782D01*
X3992488Y16044342D01*
X3993542Y16017914D01*
G37*
G36*
X4477468Y16783298D02*
G01*
X4532588Y16772230D01*
X4580619Y16752947D01*
X4618262Y16727687D01*
X4648326Y16695225D01*
X4670001Y16655972D01*
X4682859Y16611679D01*
X4687372Y16559937D01*
X4685437Y16528408D01*
X4679741Y16498706D01*
X4670221Y16470462D01*
X4657160Y16444733D01*
X4640423Y16421435D01*
X4619689Y16400562D01*
X4595667Y16382937D01*
X4568011Y16368551D01*
X4603645Y16358770D01*
X4636687Y16343302D01*
X4666609Y16322510D01*
X4692583Y16296649D01*
X4713802Y16266229D01*
X4730364Y16230269D01*
X4740682Y16191014D01*
X4744260Y16146704D01*
X4741477Y16105558D01*
X4733466Y16068909D01*
X4720417Y16034806D01*
X4703316Y16004948D01*
X4681939Y15978409D01*
X4656477Y15955194D01*
X4627582Y15935665D01*
X4594688Y15919274D01*
X4559452Y15906664D01*
X4521111Y15897499D01*
X4480465Y15892172D01*
X4431280Y15890240D01*
X4196654Y15890240D01*
X4181345Y15892848D01*
X4166441Y15900973D01*
X4156198Y15914764D01*
X4152235Y15938754D01*
X4152235Y15988508D01*
X4270230Y15988508D01*
X4443750Y15988508D01*
X4483228Y15991068D01*
X4515217Y15998124D01*
X4544178Y16010247D01*
X4569004Y16026785D01*
X4589655Y16047985D01*
X4605420Y16074058D01*
X4615182Y16103868D01*
X4618634Y16139632D01*
X4615264Y16178088D01*
X4605792Y16209983D01*
X4589944Y16238028D01*
X4568322Y16261040D01*
X4541269Y16278885D01*
X4506532Y16292431D01*
X4466965Y16300207D01*
X4413227Y16303163D01*
X4270230Y16303163D01*
X4270230Y15988508D01*
X4152235Y15988508D01*
X4152235Y16398453D01*
X4270230Y16398453D01*
X4406279Y16398453D01*
X4450244Y16401828D01*
X4481221Y16410613D01*
X4507576Y16425132D01*
X4528431Y16443368D01*
X4544594Y16465534D01*
X4555852Y16491386D01*
X4562359Y16519318D01*
X4564537Y16548212D01*
X4562184Y16579928D01*
X4555480Y16607396D01*
X4543789Y16631987D01*
X4527004Y16652311D01*
X4505262Y16668255D01*
X4476320Y16680539D01*
X4442535Y16687544D01*
X4393810Y16690278D01*
X4270230Y16690278D01*
X4270230Y16398453D01*
X4152235Y16398453D01*
X4152235Y16739040D01*
X4156200Y16763018D01*
X4166441Y16776759D01*
X4181349Y16784933D01*
X4196654Y16787554D01*
X4400696Y16787554D01*
X4477468Y16783298D01*
G37*
G36*
X5081621Y16445044D02*
G01*
X5078519Y16407945D01*
X5066732Y16383502D01*
X5044151Y16370474D01*
X5008789Y16366690D01*
X4972683Y16370474D01*
X4950474Y16383502D01*
X4938997Y16407945D01*
X4935895Y16445044D01*
X4938997Y16483879D01*
X4950474Y16508632D01*
X4972683Y16521722D01*
X5008789Y16525506D01*
X5044151Y16521722D01*
X5066732Y16508632D01*
X5078519Y16483879D01*
X5081621Y16445044D01*
G37*
G36*
X5081621Y15961336D02*
G01*
X5078519Y15923555D01*
X5066732Y15899112D01*
X5044151Y15886084D01*
X5008789Y15882300D01*
X4972683Y15886084D01*
X4950474Y15899112D01*
X4938997Y15923555D01*
X4935895Y15961336D01*
X4938997Y15999489D01*
X4950474Y16023932D01*
X4972683Y16036960D01*
X5008789Y16041116D01*
X5044151Y16036960D01*
X5066732Y16023932D01*
X5073841Y16013725D01*
X5078519Y15999489D01*
X5081621Y15961336D01*
G37*
G36*
X5932425Y16799749D02*
G01*
X5979702Y16789419D01*
X6019445Y16773223D01*
X6055394Y16750052D01*
X6086365Y16720629D01*
X6112750Y16684323D01*
X6142264Y16621065D01*
X6163062Y16539837D01*
X6174030Y16450934D01*
X6178013Y16342992D01*
X6173747Y16241835D01*
X6161697Y16154025D01*
X6139409Y16072866D01*
X6107601Y16007119D01*
X6079548Y15968983D01*
X6046695Y15937467D01*
X6008650Y15912016D01*
X5966666Y15893906D01*
X5916992Y15882416D01*
X5858085Y15878329D01*
X5802265Y15882005D01*
X5755198Y15892325D01*
X5715460Y15908542D01*
X5679508Y15931710D01*
X5648515Y15961133D01*
X5622094Y15997442D01*
X5592610Y16060685D01*
X5571781Y16141865D01*
X5560858Y16230821D01*
X5556892Y16338773D01*
X5557253Y16347148D01*
X5679044Y16347148D01*
X5681871Y16250248D01*
X5689405Y16176048D01*
X5703635Y16109438D01*
X5722347Y16061216D01*
X5748808Y16022062D01*
X5779980Y15996697D01*
X5817624Y15981897D01*
X5865033Y15976597D01*
X5902359Y15979868D01*
X5933337Y15989067D01*
X5960839Y16004312D01*
X5984021Y16024800D01*
X6003140Y16049990D01*
X6019073Y16080634D01*
X6041282Y16152784D01*
X6052759Y16238520D01*
X6055861Y16334616D01*
X6051022Y16455342D01*
X6036816Y16549763D01*
X6025669Y16588942D01*
X6012497Y16620176D01*
X5995770Y16647511D01*
X5976763Y16668689D01*
X5954428Y16685201D01*
X5929180Y16696482D01*
X5901493Y16702901D01*
X5869190Y16705168D01*
X5830743Y16701788D01*
X5799276Y16692339D01*
X5773404Y16677375D01*
X5741030Y16645096D01*
X5715460Y16601068D01*
X5698086Y16549901D01*
X5686675Y16487291D01*
X5681019Y16420875D01*
X5679044Y16347148D01*
X5557253Y16347148D01*
X5561225Y16439299D01*
X5573518Y16527368D01*
X5596072Y16608879D01*
X5627677Y16674583D01*
X5655510Y16712749D01*
X5688216Y16744284D01*
X5726193Y16769749D01*
X5768210Y16787881D01*
X5817697Y16799360D01*
X5876138Y16803435D01*
X5932425Y16799749D01*
G37*
G36*
X6870912Y15937699D02*
G01*
X6868803Y15915366D01*
X6863282Y15900725D01*
X6855279Y15892660D01*
X6845911Y15890240D01*
X6376720Y15890240D01*
X6367725Y15892660D01*
X6359722Y15900725D01*
X6353828Y15915366D01*
X6351781Y15937699D01*
X6353828Y15959288D01*
X6359039Y15974302D01*
X6366670Y15983359D01*
X6376720Y15986523D01*
X6564136Y15986523D01*
X6564136Y16669434D01*
X6390616Y16566203D01*
X6369462Y16557890D01*
X6356620Y16560992D01*
X6350044Y16575943D01*
X6348307Y16602309D01*
X6349299Y16622471D01*
X6352401Y16636368D01*
X6358295Y16646108D01*
X6368407Y16654421D01*
X6575241Y16787181D01*
X6582189Y16790593D01*
X6592549Y16793385D01*
X6607128Y16795122D01*
X6627973Y16795494D01*
X6655766Y16794068D01*
X6673074Y16790283D01*
X6681387Y16784017D01*
X6683496Y16776077D01*
X6683496Y15986523D01*
X6845911Y15986523D01*
X6856333Y15983359D01*
X6864274Y15974302D01*
X6869175Y15959288D01*
X6870912Y15937699D01*
G37*
G36*
X7335450Y16240009D02*
G01*
X7333531Y16215064D01*
X7329185Y16202414D01*
X7321500Y16194575D01*
X7311132Y16191992D01*
X7021043Y16191992D01*
X7010073Y16194693D01*
X7002246Y16202786D01*
X6997919Y16215665D01*
X6996042Y16240009D01*
X6997931Y16264301D01*
X7002246Y16276859D01*
X7010040Y16284655D01*
X7021043Y16287282D01*
X7311132Y16287282D01*
X7321182Y16285172D01*
X7328812Y16277170D01*
X7333713Y16262218D01*
X7335450Y16240009D01*
G37*
G36*
X8017245Y16147573D02*
G01*
X8011685Y16088087D01*
X7995717Y16036463D01*
X7969524Y15990469D01*
X7933990Y15951658D01*
X7889950Y15920966D01*
X7834730Y15897375D01*
X7773436Y15883311D01*
X7701473Y15878329D01*
X7657183Y15880185D01*
X7617163Y15885526D01*
X7547371Y15902648D01*
X7496686Y15923245D01*
X7471375Y15938692D01*
X7463434Y15948308D01*
X7458533Y15959971D01*
X7455431Y15976783D01*
X7454377Y16001164D01*
X7459216Y16035471D01*
X7465318Y16042804D01*
X7473112Y16045087D01*
X7497741Y16034230D01*
X7544952Y16010842D01*
X7612263Y15987454D01*
X7652064Y15979426D01*
X7697999Y15976597D01*
X7742213Y15979700D01*
X7778524Y15988322D01*
X7810927Y16002815D01*
X7836777Y16021574D01*
X7857468Y16045049D01*
X7872200Y16072445D01*
X7880978Y16102799D01*
X7883988Y16136406D01*
X7880141Y16173070D01*
X7869036Y16204896D01*
X7850857Y16233056D01*
X7825362Y16257504D01*
X7794085Y16276655D01*
X7754577Y16291376D01*
X7710964Y16300061D01*
X7659163Y16303163D01*
X7573799Y16303163D01*
X7563005Y16305583D01*
X7553947Y16313524D01*
X7547743Y16328102D01*
X7545324Y16351677D01*
X7547371Y16373514D01*
X7553265Y16387410D01*
X7561950Y16395041D01*
X7573055Y16397461D01*
X7651532Y16397461D01*
X7695901Y16400558D01*
X7733732Y16409310D01*
X7767903Y16424112D01*
X7795522Y16443617D01*
X7817880Y16468174D01*
X7834357Y16497093D01*
X7844442Y16529534D01*
X7847944Y16566699D01*
X7845661Y16594166D01*
X7838886Y16620176D01*
X7827565Y16644161D01*
X7811838Y16664595D01*
X7791675Y16681224D01*
X7765682Y16694311D01*
X7736226Y16702314D01*
X7700790Y16705168D01*
X7661639Y16702039D01*
X7626841Y16693008D01*
X7566851Y16666952D01*
X7523114Y16640896D01*
X7498796Y16628737D01*
X7490110Y16630474D01*
X7483907Y16637360D01*
X7480432Y16651939D01*
X7479378Y16676568D01*
X7480060Y16694931D01*
X7482852Y16708828D01*
X7487691Y16719560D01*
X7497059Y16730975D01*
X7523797Y16750021D01*
X7573427Y16774650D01*
X7641420Y16795122D01*
X7680797Y16801294D01*
X7724365Y16803435D01*
X7784603Y16799183D01*
X7834047Y16787367D01*
X7878064Y16767630D01*
X7912835Y16742080D01*
X7940369Y16709975D01*
X7959984Y16671977D01*
X7971586Y16629732D01*
X7975617Y16581713D01*
X7972769Y16540178D01*
X7964512Y16502614D01*
X7950657Y16467801D01*
X7931881Y16437723D01*
X7908104Y16411716D01*
X7879149Y16389644D01*
X7846038Y16373034D01*
X7806999Y16362099D01*
X7806999Y16360734D01*
X7851949Y16352386D01*
X7891990Y16337532D01*
X7928163Y16316602D01*
X7958247Y16291500D01*
X7982921Y16261584D01*
X8001611Y16226795D01*
X8013290Y16188703D01*
X8017245Y16147573D01*
G37*
G36*
X8737874Y16147573D02*
G01*
X8732315Y16088087D01*
X8716347Y16036463D01*
X8690154Y15990469D01*
X8654620Y15951658D01*
X8610580Y15920966D01*
X8555359Y15897375D01*
X8494066Y15883311D01*
X8422102Y15878329D01*
X8377813Y15880185D01*
X8337793Y15885526D01*
X8268001Y15902648D01*
X8217316Y15923245D01*
X8192005Y15938692D01*
X8184064Y15948308D01*
X8179163Y15959971D01*
X8176061Y15976783D01*
X8175006Y16001164D01*
X8179845Y16035471D01*
X8185948Y16042804D01*
X8193742Y16045087D01*
X8218371Y16034230D01*
X8265581Y16010842D01*
X8332892Y15987454D01*
X8372694Y15979426D01*
X8418628Y15976597D01*
X8462843Y15979700D01*
X8499153Y15988322D01*
X8531556Y16002815D01*
X8557407Y16021574D01*
X8578098Y16045049D01*
X8592830Y16072445D01*
X8601608Y16102799D01*
X8604617Y16136406D01*
X8600770Y16173070D01*
X8589666Y16204896D01*
X8571487Y16233056D01*
X8545992Y16257504D01*
X8514714Y16276655D01*
X8475207Y16291376D01*
X8431594Y16300061D01*
X8379793Y16303163D01*
X8294429Y16303163D01*
X8283634Y16305583D01*
X8274577Y16313524D01*
X8268373Y16328102D01*
X8265954Y16351677D01*
X8268001Y16373514D01*
X8273894Y16387410D01*
X8282580Y16395041D01*
X8293684Y16397461D01*
X8372162Y16397461D01*
X8416531Y16400558D01*
X8454362Y16409310D01*
X8488533Y16424112D01*
X8516152Y16443617D01*
X8538509Y16468174D01*
X8554987Y16497093D01*
X8565072Y16529534D01*
X8568573Y16566699D01*
X8566291Y16594166D01*
X8559516Y16620176D01*
X8548195Y16644161D01*
X8532467Y16664595D01*
X8512304Y16681224D01*
X8486311Y16694311D01*
X8456856Y16702314D01*
X8421420Y16705168D01*
X8382269Y16702039D01*
X8347471Y16693008D01*
X8287481Y16666952D01*
X8243744Y16640896D01*
X8219425Y16628737D01*
X8210740Y16630474D01*
X8204536Y16637360D01*
X8201062Y16651939D01*
X8200008Y16676568D01*
X8200690Y16694931D01*
X8203482Y16708828D01*
X8208321Y16719560D01*
X8217688Y16730975D01*
X8244427Y16750021D01*
X8294057Y16774650D01*
X8362050Y16795122D01*
X8401426Y16801294D01*
X8444994Y16803435D01*
X8505233Y16799183D01*
X8554677Y16787367D01*
X8598694Y16767630D01*
X8633465Y16742080D01*
X8660999Y16709975D01*
X8680613Y16671977D01*
X8692216Y16629732D01*
X8696247Y16581713D01*
X8693398Y16540178D01*
X8685142Y16502614D01*
X8671286Y16467801D01*
X8652510Y16437723D01*
X8628733Y16411716D01*
X8599778Y16389644D01*
X8566667Y16373034D01*
X8527629Y16362099D01*
X8527629Y16360734D01*
X8572579Y16352386D01*
X8612620Y16337532D01*
X8648793Y16316602D01*
X8678876Y16291500D01*
X8703550Y16261584D01*
X8722241Y16226795D01*
X8733920Y16188703D01*
X8737874Y16147573D01*
G37*
G36*
X9249704Y16799749D02*
G01*
X9296981Y16789419D01*
X9336724Y16773223D01*
X9372673Y16750052D01*
X9403644Y16720629D01*
X9430029Y16684323D01*
X9459543Y16621065D01*
X9480341Y16539837D01*
X9491309Y16450934D01*
X9495292Y16342992D01*
X9491026Y16241835D01*
X9478976Y16154025D01*
X9456688Y16072866D01*
X9424880Y16007119D01*
X9396827Y15968983D01*
X9363973Y15937467D01*
X9325929Y15912016D01*
X9283945Y15893906D01*
X9234271Y15882416D01*
X9175364Y15878329D01*
X9119544Y15882005D01*
X9072477Y15892325D01*
X9032739Y15908542D01*
X8996787Y15931710D01*
X8965794Y15961133D01*
X8939373Y15997442D01*
X8909889Y16060685D01*
X8889060Y16141865D01*
X8878137Y16230821D01*
X8874171Y16338773D01*
X8874532Y16347148D01*
X8996323Y16347148D01*
X8999150Y16250248D01*
X9006684Y16176048D01*
X9020914Y16109438D01*
X9039626Y16061216D01*
X9066087Y16022062D01*
X9097259Y15996697D01*
X9134903Y15981897D01*
X9182312Y15976597D01*
X9219638Y15979868D01*
X9250616Y15989067D01*
X9278118Y16004312D01*
X9301300Y16024800D01*
X9320419Y16049990D01*
X9336352Y16080634D01*
X9358561Y16152784D01*
X9370038Y16238520D01*
X9373140Y16334616D01*
X9368301Y16455342D01*
X9354095Y16549763D01*
X9342948Y16588942D01*
X9329776Y16620176D01*
X9313049Y16647511D01*
X9294042Y16668689D01*
X9271707Y16685201D01*
X9246459Y16696482D01*
X9218772Y16702901D01*
X9186469Y16705168D01*
X9148022Y16701788D01*
X9116555Y16692339D01*
X9090683Y16677375D01*
X9058309Y16645096D01*
X9032739Y16601068D01*
X9015365Y16549901D01*
X9003954Y16487291D01*
X8998298Y16420875D01*
X8996323Y16347148D01*
X8874532Y16347148D01*
X8878504Y16439299D01*
X8890797Y16527368D01*
X8913351Y16608879D01*
X8944956Y16674583D01*
X8972789Y16712749D01*
X9005495Y16744284D01*
X9043472Y16769749D01*
X9085489Y16787881D01*
X9134976Y16799360D01*
X9193417Y16803435D01*
X9249704Y16799749D01*
G37*
G36*
X10188191Y15937699D02*
G01*
X10186082Y15915366D01*
X10180561Y15900725D01*
X10172558Y15892660D01*
X10163190Y15890240D01*
X9693999Y15890240D01*
X9685004Y15892660D01*
X9677001Y15900725D01*
X9671107Y15915366D01*
X9669060Y15937699D01*
X9671107Y15959288D01*
X9676318Y15974302D01*
X9683949Y15983359D01*
X9693999Y15986523D01*
X9881415Y15986523D01*
X9881415Y16669434D01*
X9707895Y16566203D01*
X9686741Y16557890D01*
X9673899Y16560992D01*
X9667323Y16575943D01*
X9665586Y16602309D01*
X9666578Y16622471D01*
X9669680Y16636368D01*
X9675574Y16646108D01*
X9685686Y16654421D01*
X9892520Y16787181D01*
X9899468Y16790593D01*
X9909828Y16793385D01*
X9924407Y16795122D01*
X9945252Y16795494D01*
X9973045Y16794068D01*
X9990353Y16790283D01*
X9998666Y16784017D01*
X10000775Y16776077D01*
X10000775Y15986523D01*
X10163190Y15986523D01*
X10173612Y15983359D01*
X10181553Y15974302D01*
X10186454Y15959288D01*
X10188191Y15937699D01*
G37*
G36*
X2954659Y15078254D02*
G01*
X3017814Y15067832D01*
X3053891Y15056707D01*
X3092073Y15038054D01*
X3127258Y15013526D01*
X3156282Y14984329D01*
X3179489Y14950229D01*
X3196917Y14910504D01*
X3207454Y14867171D01*
X3211123Y14818006D01*
X3205377Y14752995D01*
X3188914Y14696660D01*
X3161780Y14646382D01*
X3125387Y14604472D01*
X3080206Y14571159D01*
X3024080Y14545599D01*
X2960781Y14530385D01*
X2880772Y14524816D01*
X2778783Y14524816D01*
X2778783Y14201600D01*
X2775619Y14191860D01*
X2765879Y14185284D01*
X2747826Y14181127D01*
X2719040Y14179390D01*
X2690255Y14181127D01*
X2671892Y14185284D01*
X2662152Y14191860D01*
X2659360Y14201600D01*
X2659360Y14623084D01*
X2778783Y14623084D01*
X2886356Y14623084D01*
X2937887Y14626863D01*
X2976186Y14636918D01*
X3009488Y14653686D01*
X3036239Y14675319D01*
X3057480Y14702167D01*
X3073027Y14734193D01*
X3082307Y14769526D01*
X3085497Y14808638D01*
X3080028Y14860331D01*
X3065024Y14899958D01*
X3041546Y14932613D01*
X3014340Y14954675D01*
X2983379Y14969528D01*
X2951930Y14977567D01*
X2889086Y14982406D01*
X2778783Y14982406D01*
X2778783Y14623084D01*
X2659360Y14623084D01*
X2659360Y15029368D01*
X2663401Y15054148D01*
X2673939Y15068886D01*
X2689464Y15077755D01*
X2706571Y15080674D01*
X2898825Y15080674D01*
X2954659Y15078254D01*
G37*
G36*
X3993542Y14311034D02*
G01*
X3992860Y14291492D01*
X3990441Y14276789D01*
X3985912Y14265622D01*
X3976172Y14253711D01*
X3947076Y14232246D01*
X3891863Y14204143D01*
X3816239Y14180941D01*
X3772433Y14173912D01*
X3722872Y14171449D01*
X3665176Y14174846D01*
X3612783Y14184683D01*
X3564986Y14200607D01*
X3520170Y14223258D01*
X3480295Y14251882D01*
X3444881Y14286777D01*
X3415033Y14326682D01*
X3389549Y14373268D01*
X3368575Y14427417D01*
X3354151Y14483861D01*
X3345036Y14547802D01*
X3341837Y14620230D01*
X3345254Y14694390D01*
X3355039Y14760525D01*
X3370622Y14819557D01*
X3393037Y14876238D01*
X3420046Y14925404D01*
X3451519Y14967889D01*
X3488627Y15005331D01*
X3530009Y15036125D01*
X3576091Y15060635D01*
X3625354Y15078159D01*
X3678683Y15088898D01*
X3736768Y15092585D01*
X3812392Y15085202D01*
X3880386Y15066653D01*
X3935909Y15040783D01*
X3969596Y15016651D01*
X3981755Y15002320D01*
X3986284Y14990905D01*
X3989014Y14975272D01*
X3990068Y14953744D01*
X3988703Y14930170D01*
X3984547Y14913854D01*
X3977909Y14904114D01*
X3968603Y14901012D01*
X3958421Y14903704D01*
X3941493Y14914599D01*
X3896764Y14944687D01*
X3867542Y14959895D01*
X3830135Y14974713D01*
X3788717Y14984698D01*
X3736086Y14988361D01*
X3678485Y14982225D01*
X3627458Y14964353D01*
X3582393Y14935024D01*
X3543769Y14893816D01*
X3513607Y14843465D01*
X3489983Y14780225D01*
X3475963Y14710468D01*
X3470937Y14626930D01*
X3475800Y14544182D01*
X3489300Y14475744D01*
X3512371Y14414110D01*
X3542094Y14365937D01*
X3580459Y14327129D01*
X3626403Y14299247D01*
X3678707Y14282509D01*
X3739560Y14276665D01*
X3791021Y14280240D01*
X3832865Y14290127D01*
X3870998Y14304953D01*
X3900920Y14320340D01*
X3947076Y14350490D01*
X3964669Y14361303D01*
X3975489Y14364014D01*
X3983865Y14361905D01*
X3989386Y14353902D01*
X3992488Y14337462D01*
X3993542Y14311034D01*
G37*
G36*
X4478429Y15083589D02*
G01*
X4502003Y15079805D01*
X4515900Y15071864D01*
X4523592Y15059084D01*
X4824785Y14225608D01*
X4830679Y14201041D01*
X4825468Y14186959D01*
X4807105Y14180755D01*
X4772736Y14179390D01*
X4738367Y14180445D01*
X4718949Y14183857D01*
X4709209Y14190371D01*
X4703316Y14200731D01*
X4626265Y14417615D01*
X4252860Y14417615D01*
X4179345Y14203461D01*
X4173762Y14192790D01*
X4163712Y14185222D01*
X4144976Y14180755D01*
X4113399Y14179390D01*
X4080395Y14181127D01*
X4062342Y14187641D01*
X4057503Y14201786D01*
X4063397Y14226353D01*
X4166977Y14512905D01*
X4282762Y14512905D01*
X4595060Y14512905D01*
X4438229Y14961561D01*
X4437484Y14961561D01*
X4282762Y14512905D01*
X4166977Y14512905D01*
X4364652Y15059767D01*
X4371910Y15072174D01*
X4385124Y15079805D01*
X4407334Y15083589D01*
X4441641Y15084644D01*
X4478429Y15083589D01*
G37*
G36*
X5131251Y14738164D02*
G01*
X5128150Y14701065D01*
X5116362Y14676622D01*
X5093781Y14663594D01*
X5058419Y14659810D01*
X5022313Y14663594D01*
X5000104Y14676622D01*
X4988627Y14701065D01*
X4985525Y14738164D01*
X4988627Y14776999D01*
X5000104Y14801752D01*
X5022313Y14814842D01*
X5058419Y14818626D01*
X5093781Y14814842D01*
X5116362Y14801752D01*
X5128150Y14776999D01*
X5131251Y14738164D01*
G37*
G36*
X5131251Y14254456D02*
G01*
X5128150Y14216675D01*
X5116362Y14192232D01*
X5093781Y14179204D01*
X5058419Y14175420D01*
X5022313Y14179204D01*
X5000104Y14192232D01*
X4988627Y14216675D01*
X4985525Y14254456D01*
X4988627Y14292609D01*
X5000104Y14317052D01*
X5022313Y14330080D01*
X5058419Y14334236D01*
X5093781Y14330080D01*
X5116362Y14317052D01*
X5123471Y14306845D01*
X5128150Y14292609D01*
X5131251Y14254456D01*
G37*
G36*
X6197803Y14234666D02*
G01*
X6196066Y14212456D01*
X6191227Y14196202D01*
X6182914Y14186462D01*
X6171437Y14183360D01*
X5675198Y14183360D01*
X5658200Y14185780D01*
X5645730Y14193721D01*
X5638037Y14209727D01*
X5635618Y14235410D01*
X5636672Y14259667D01*
X5641201Y14278030D01*
X5649887Y14294036D01*
X5663411Y14311034D01*
X5837613Y14496837D01*
X5894111Y14559953D01*
X5934391Y14611421D01*
X5967815Y14661698D01*
X5990660Y14703795D01*
X6007544Y14745001D01*
X6016653Y14779481D01*
X6022919Y14843379D01*
X6020455Y14872785D01*
X6013179Y14900268D01*
X6001242Y14925593D01*
X5985076Y14947355D01*
X5964636Y14965336D01*
X5938920Y14979490D01*
X5909815Y14988242D01*
X5875083Y14991339D01*
X5834109Y14988312D01*
X5799087Y14979738D01*
X5740089Y14954613D01*
X5697780Y14929426D01*
X5672406Y14917887D01*
X5663721Y14920616D01*
X5657517Y14929550D01*
X5653671Y14946052D01*
X5652306Y14970805D01*
X5652988Y14988672D01*
X5655408Y15001700D01*
X5659937Y15011998D01*
X5671041Y15024033D01*
X5699827Y15043637D01*
X5751194Y15068018D01*
X5819187Y15088304D01*
X5856947Y15094456D01*
X5897293Y15096555D01*
X5960079Y15091684D01*
X6011442Y15078130D01*
X6056924Y15055868D01*
X6092649Y15027693D01*
X6120887Y14993060D01*
X6140915Y14953248D01*
X6152815Y14909788D01*
X6156858Y14862859D01*
X6149228Y14776999D01*
X6137860Y14734043D01*
X6116968Y14684625D01*
X6088372Y14634494D01*
X6045811Y14574074D01*
X5994563Y14511926D01*
X5922294Y14434055D01*
X5779980Y14284606D01*
X6170755Y14284606D01*
X6181487Y14281442D01*
X6190483Y14272074D01*
X6196066Y14256503D01*
X6197803Y14234666D01*
G37*
G36*
X6776863Y15089421D02*
G01*
X6825439Y15081108D01*
X6862909Y15069631D01*
X6883010Y15059519D01*
X6890330Y15051206D01*
X6894114Y15041466D01*
X6896224Y15029617D01*
X6896906Y15013301D01*
X6896534Y14991712D01*
X6893804Y14977133D01*
X6887538Y14968820D01*
X6877488Y14966090D01*
X6856644Y14970929D01*
X6824756Y14981723D01*
X6779283Y14992456D01*
X6717183Y14997295D01*
X6655786Y14990432D01*
X6606073Y14971115D01*
X6563817Y14940493D01*
X6530077Y14900950D01*
X6504755Y14854200D01*
X6486403Y14798836D01*
X6475286Y14739818D01*
X6470087Y14676932D01*
X6510659Y14697777D01*
X6559979Y14716512D01*
X6616558Y14730037D01*
X6680394Y14735248D01*
X6749983Y14729899D01*
X6803229Y14715458D01*
X6849146Y14691417D01*
X6884064Y14660678D01*
X6910375Y14622833D01*
X6928111Y14578168D01*
X6937925Y14529410D01*
X6941325Y14475186D01*
X6936795Y14417090D01*
X6923272Y14361098D01*
X6900300Y14309114D01*
X6867748Y14264009D01*
X6825896Y14226696D01*
X6772645Y14196761D01*
X6711762Y14178136D01*
X6636658Y14171449D01*
X6582358Y14175104D01*
X6537398Y14185284D01*
X6496718Y14202302D01*
X6462456Y14224740D01*
X6433357Y14253113D01*
X6409352Y14287708D01*
X6390574Y14326946D01*
X6375355Y14372824D01*
X6364497Y14421871D01*
X6356930Y14477295D01*
X6352185Y14582015D01*
X6472196Y14582015D01*
X6475338Y14496108D01*
X6483611Y14432132D01*
X6498497Y14375409D01*
X6516925Y14335353D01*
X6542050Y14303602D01*
X6571394Y14283303D01*
X6605890Y14271813D01*
X6647763Y14267732D01*
X6690169Y14272093D01*
X6724813Y14284358D01*
X6754776Y14303986D01*
X6778910Y14329087D01*
X6797512Y14358814D01*
X6810487Y14392241D01*
X6818067Y14427691D01*
X6820600Y14464081D01*
X6818511Y14503264D01*
X6812597Y14537223D01*
X6801718Y14568118D01*
X6785859Y14593057D01*
X6764401Y14613063D01*
X6735918Y14628419D01*
X6702603Y14637559D01*
X6658867Y14640950D01*
X6607500Y14636422D01*
X6557870Y14623952D01*
X6512086Y14605217D01*
X6472196Y14582015D01*
X6352185Y14582015D01*
X6351409Y14599137D01*
X6357612Y14715396D01*
X6366349Y14773428D01*
X6379822Y14828863D01*
X6398758Y14882102D01*
X6423248Y14931659D01*
X6454196Y14976750D01*
X6491924Y15015410D01*
X6536611Y15046947D01*
X6590812Y15071802D01*
X6651247Y15087093D01*
X6724813Y15092585D01*
X6776863Y15089421D01*
G37*
G36*
X7385081Y14533129D02*
G01*
X7383162Y14508184D01*
X7378815Y14495534D01*
X7371130Y14487695D01*
X7360762Y14485112D01*
X7070674Y14485112D01*
X7059703Y14487813D01*
X7051876Y14495906D01*
X7047549Y14508785D01*
X7045672Y14533129D01*
X7047561Y14557421D01*
X7051876Y14569979D01*
X7059670Y14577775D01*
X7070674Y14580402D01*
X7360762Y14580402D01*
X7370812Y14578292D01*
X7378442Y14570290D01*
X7383343Y14555338D01*
X7385081Y14533129D01*
G37*
G36*
X8066875Y14440693D02*
G01*
X8061316Y14381207D01*
X8045348Y14329583D01*
X8019154Y14283589D01*
X7983620Y14244778D01*
X7939581Y14214086D01*
X7884360Y14190495D01*
X7823066Y14176431D01*
X7751103Y14171449D01*
X7706813Y14173305D01*
X7666794Y14178646D01*
X7597001Y14195768D01*
X7546316Y14216365D01*
X7521005Y14231812D01*
X7513064Y14241428D01*
X7508163Y14253091D01*
X7505061Y14269903D01*
X7504007Y14294284D01*
X7508846Y14328591D01*
X7514948Y14335924D01*
X7522742Y14338207D01*
X7547371Y14327350D01*
X7594582Y14303962D01*
X7661893Y14280574D01*
X7701695Y14272546D01*
X7747629Y14269717D01*
X7791843Y14272820D01*
X7828154Y14281442D01*
X7860557Y14295935D01*
X7886407Y14314694D01*
X7907098Y14338169D01*
X7921831Y14365565D01*
X7930608Y14395919D01*
X7933618Y14429526D01*
X7929771Y14466190D01*
X7918667Y14498016D01*
X7900487Y14526176D01*
X7874992Y14550624D01*
X7843715Y14569775D01*
X7804207Y14584496D01*
X7760594Y14593181D01*
X7708793Y14596283D01*
X7623429Y14596283D01*
X7612635Y14598703D01*
X7603577Y14606644D01*
X7597373Y14621222D01*
X7594954Y14644797D01*
X7597001Y14666634D01*
X7602895Y14680530D01*
X7611580Y14688161D01*
X7622685Y14690581D01*
X7701163Y14690581D01*
X7745531Y14693678D01*
X7783362Y14702430D01*
X7817533Y14717232D01*
X7845152Y14736737D01*
X7867510Y14761294D01*
X7883988Y14790213D01*
X7894072Y14822654D01*
X7897574Y14859819D01*
X7895291Y14887286D01*
X7888516Y14913296D01*
X7877195Y14937281D01*
X7861468Y14957715D01*
X7841305Y14974344D01*
X7815312Y14987431D01*
X7785856Y14995434D01*
X7750420Y14998288D01*
X7711269Y14995159D01*
X7676472Y14986128D01*
X7616481Y14960072D01*
X7572745Y14934016D01*
X7548426Y14921857D01*
X7539740Y14923594D01*
X7533537Y14930480D01*
X7530063Y14945059D01*
X7529008Y14969688D01*
X7529690Y14988051D01*
X7532482Y15001948D01*
X7537321Y15012680D01*
X7546689Y15024095D01*
X7573427Y15043141D01*
X7623057Y15067770D01*
X7691050Y15088242D01*
X7730427Y15094414D01*
X7773995Y15096555D01*
X7834233Y15092303D01*
X7883677Y15080487D01*
X7927695Y15060750D01*
X7962465Y15035200D01*
X7989999Y15003095D01*
X8009614Y14965097D01*
X8021217Y14922852D01*
X8025247Y14874833D01*
X8022399Y14833298D01*
X8014143Y14795734D01*
X8000287Y14760921D01*
X7981511Y14730843D01*
X7957734Y14704836D01*
X7928779Y14682764D01*
X7895668Y14666154D01*
X7856629Y14655219D01*
X7856629Y14653854D01*
X7901579Y14645506D01*
X7941621Y14630652D01*
X7977793Y14609722D01*
X8007877Y14584620D01*
X8032551Y14554704D01*
X8051241Y14519915D01*
X8062920Y14481823D01*
X8066875Y14440693D01*
G37*
G36*
X8787504Y14440693D02*
G01*
X8781945Y14381207D01*
X8765977Y14329583D01*
X8739784Y14283589D01*
X8704250Y14244778D01*
X8660210Y14214086D01*
X8604990Y14190495D01*
X8543696Y14176431D01*
X8471733Y14171449D01*
X8427443Y14173305D01*
X8387423Y14178646D01*
X8317631Y14195768D01*
X8266946Y14216365D01*
X8241635Y14231812D01*
X8233694Y14241428D01*
X8228793Y14253091D01*
X8225691Y14269903D01*
X8224636Y14294284D01*
X8229475Y14328591D01*
X8235578Y14335924D01*
X8243372Y14338207D01*
X8268001Y14327350D01*
X8315212Y14303962D01*
X8382522Y14280574D01*
X8422324Y14272546D01*
X8468258Y14269717D01*
X8512473Y14272820D01*
X8548783Y14281442D01*
X8581186Y14295935D01*
X8607037Y14314694D01*
X8627728Y14338169D01*
X8642460Y14365565D01*
X8651238Y14395919D01*
X8654247Y14429526D01*
X8650401Y14466190D01*
X8639296Y14498016D01*
X8621117Y14526176D01*
X8595622Y14550624D01*
X8564344Y14569775D01*
X8524837Y14584496D01*
X8481224Y14593181D01*
X8429423Y14596283D01*
X8344059Y14596283D01*
X8333264Y14598703D01*
X8324207Y14606644D01*
X8318003Y14621222D01*
X8315584Y14644797D01*
X8317631Y14666634D01*
X8323525Y14680530D01*
X8332210Y14688161D01*
X8343315Y14690581D01*
X8421792Y14690581D01*
X8466161Y14693678D01*
X8503992Y14702430D01*
X8538163Y14717232D01*
X8565782Y14736737D01*
X8588139Y14761294D01*
X8604617Y14790213D01*
X8614702Y14822654D01*
X8618204Y14859819D01*
X8615921Y14887286D01*
X8609146Y14913296D01*
X8597825Y14937281D01*
X8582098Y14957715D01*
X8561935Y14974344D01*
X8535942Y14987431D01*
X8506486Y14995434D01*
X8471050Y14998288D01*
X8431899Y14995159D01*
X8397101Y14986128D01*
X8337111Y14960072D01*
X8293374Y14934016D01*
X8269055Y14921857D01*
X8260370Y14923594D01*
X8254166Y14930480D01*
X8250692Y14945059D01*
X8249638Y14969688D01*
X8250320Y14988051D01*
X8253112Y15001948D01*
X8257951Y15012680D01*
X8267318Y15024095D01*
X8294057Y15043141D01*
X8343687Y15067770D01*
X8411680Y15088242D01*
X8451057Y15094414D01*
X8494624Y15096555D01*
X8554863Y15092303D01*
X8604307Y15080487D01*
X8648324Y15060750D01*
X8683095Y15035200D01*
X8710629Y15003095D01*
X8730244Y14965097D01*
X8741846Y14922852D01*
X8745877Y14874833D01*
X8743029Y14833298D01*
X8734772Y14795734D01*
X8720916Y14760921D01*
X8702141Y14730843D01*
X8678364Y14704836D01*
X8649409Y14682764D01*
X8616297Y14666154D01*
X8577259Y14655219D01*
X8577259Y14653854D01*
X8622209Y14645506D01*
X8662250Y14630652D01*
X8698423Y14609722D01*
X8728507Y14584620D01*
X8753181Y14554704D01*
X8771871Y14519915D01*
X8783550Y14481823D01*
X8787504Y14440693D01*
G37*
G36*
X9299334Y15092869D02*
G01*
X9346611Y15082539D01*
X9386354Y15066343D01*
X9422303Y15043172D01*
X9453274Y15013749D01*
X9479659Y14977443D01*
X9509173Y14914185D01*
X9529971Y14832957D01*
X9540939Y14744054D01*
X9544922Y14636112D01*
X9540656Y14534955D01*
X9528607Y14447145D01*
X9506318Y14365986D01*
X9474510Y14300239D01*
X9446457Y14262103D01*
X9413604Y14230587D01*
X9375560Y14205136D01*
X9333575Y14187026D01*
X9283901Y14175536D01*
X9224994Y14171449D01*
X9169174Y14175125D01*
X9122107Y14185445D01*
X9082369Y14201662D01*
X9046417Y14224830D01*
X9015424Y14254253D01*
X8989003Y14290562D01*
X8959519Y14353805D01*
X8938690Y14434985D01*
X8927767Y14523941D01*
X8923801Y14631893D01*
X8924162Y14640268D01*
X9045953Y14640268D01*
X9048780Y14543368D01*
X9056314Y14469168D01*
X9070545Y14402558D01*
X9089256Y14354336D01*
X9115717Y14315182D01*
X9146889Y14289817D01*
X9184533Y14275017D01*
X9231942Y14269717D01*
X9269268Y14272988D01*
X9300246Y14282187D01*
X9327748Y14297432D01*
X9350931Y14317920D01*
X9370049Y14343110D01*
X9385982Y14373754D01*
X9408191Y14445904D01*
X9419668Y14531640D01*
X9422770Y14627736D01*
X9417931Y14748462D01*
X9403725Y14842883D01*
X9392578Y14882062D01*
X9379406Y14913296D01*
X9362679Y14940631D01*
X9343672Y14961809D01*
X9321337Y14978321D01*
X9296089Y14989602D01*
X9268403Y14996021D01*
X9236099Y14998288D01*
X9197652Y14994908D01*
X9166185Y14985459D01*
X9140313Y14970495D01*
X9107939Y14938216D01*
X9082369Y14894188D01*
X9064995Y14843021D01*
X9053584Y14780411D01*
X9047928Y14713995D01*
X9045953Y14640268D01*
X8924162Y14640268D01*
X8928134Y14732419D01*
X8940427Y14820488D01*
X8962981Y14901999D01*
X8994586Y14967703D01*
X9022419Y15005869D01*
X9055125Y15037404D01*
X9093102Y15062869D01*
X9135120Y15081001D01*
X9184606Y15092480D01*
X9243047Y15096555D01*
X9299334Y15092869D01*
G37*
G36*
X10237821Y14230819D02*
G01*
X10235712Y14208486D01*
X10230191Y14193845D01*
X10222188Y14185780D01*
X10212820Y14183360D01*
X9743629Y14183360D01*
X9734634Y14185780D01*
X9726631Y14193845D01*
X9720737Y14208486D01*
X9718690Y14230819D01*
X9720737Y14252408D01*
X9725948Y14267422D01*
X9733579Y14276479D01*
X9743629Y14279643D01*
X9931045Y14279643D01*
X9931045Y14962554D01*
X9757526Y14859323D01*
X9736371Y14851010D01*
X9723529Y14854112D01*
X9716953Y14869063D01*
X9715216Y14895429D01*
X9716209Y14915591D01*
X9719310Y14929488D01*
X9725204Y14939228D01*
X9735316Y14947541D01*
X9942150Y15080301D01*
X9949098Y15083713D01*
X9959458Y15086505D01*
X9974037Y15088242D01*
X9994882Y15088614D01*
X10022675Y15087188D01*
X10039983Y15083403D01*
X10048296Y15077137D01*
X10050406Y15069197D01*
X10050406Y14279643D01*
X10212820Y14279643D01*
X10223242Y14276479D01*
X10231183Y14267422D01*
X10236084Y14252408D01*
X10237821Y14230819D01*
G37*
G36*
X2951185Y13372056D02*
G01*
X2991820Y13368272D01*
X3041847Y13356308D01*
X3083760Y13339797D01*
X3120888Y13317477D01*
X3150760Y13290539D01*
X3174394Y13258584D01*
X3191333Y13222173D01*
X3201412Y13182393D01*
X3204919Y13137244D01*
X3201741Y13093578D01*
X3192760Y13056409D01*
X3177803Y13022595D01*
X3157709Y12993316D01*
X3132735Y12967885D01*
X3102867Y12945796D01*
X3069487Y12927466D01*
X3031400Y12911799D01*
X3071662Y12887170D01*
X3105287Y12851498D01*
X3134755Y12803667D01*
X3162548Y12742746D01*
X3243073Y12545280D01*
X3255542Y12510291D01*
X3258334Y12494658D01*
X3256225Y12484980D01*
X3247229Y12478031D01*
X3227749Y12473937D01*
X3194497Y12472510D01*
X3164967Y12473937D01*
X3146604Y12478404D01*
X3135809Y12487027D01*
X3129233Y12500923D01*
X3046661Y12712286D01*
X3016449Y12778418D01*
X2999158Y12806813D01*
X2979350Y12830405D01*
X2956005Y12849748D01*
X2928666Y12864340D01*
X2897726Y12873254D01*
X2858563Y12876499D01*
X2778783Y12876499D01*
X2778783Y12494658D01*
X2775619Y12484980D01*
X2765879Y12478404D01*
X2747826Y12474247D01*
X2719040Y12472510D01*
X2690255Y12474247D01*
X2671892Y12478404D01*
X2662152Y12484980D01*
X2659360Y12494720D01*
X2659360Y12972782D01*
X2778783Y12972782D01*
X2895351Y12972782D01*
X2940746Y12975837D01*
X2976869Y12984197D01*
X3008959Y12998254D01*
X3034130Y13016146D01*
X3054101Y13038584D01*
X3067816Y13064412D01*
X3075852Y13093081D01*
X3078611Y13124836D01*
X3072405Y13174638D01*
X3054974Y13214047D01*
X3036716Y13235201D01*
X3010958Y13252725D01*
X2975876Y13266468D01*
X2936606Y13273417D01*
X2879408Y13275526D01*
X2778783Y13275526D01*
X2778783Y12972782D01*
X2659360Y12972782D01*
X2659360Y13325280D01*
X2663328Y13349313D01*
X2673567Y13363061D01*
X2688470Y13371187D01*
X2703779Y13373794D01*
X2894669Y13373794D01*
X2951185Y13372056D01*
G37*
G36*
X3931319Y12525738D02*
G01*
X3929954Y12503901D01*
X3925115Y12488268D01*
X3917112Y12479272D01*
X3907062Y12476480D01*
X3476024Y12476480D01*
X3460715Y12479088D01*
X3445812Y12487213D01*
X3435568Y12501004D01*
X3431605Y12524994D01*
X3431605Y13325280D01*
X3435571Y13349258D01*
X3445812Y13362999D01*
X3460719Y13371173D01*
X3476024Y13373794D01*
X3902161Y13373794D01*
X3912211Y13371002D01*
X3919531Y13361944D01*
X3924060Y13346373D01*
X3925797Y13323109D01*
X3924060Y13301271D01*
X3919531Y13286010D01*
X3912211Y13277325D01*
X3902161Y13274533D01*
X3551028Y13274533D01*
X3551028Y12993627D01*
X3852221Y12993627D01*
X3862271Y12990525D01*
X3869901Y12981839D01*
X3874430Y12966578D01*
X3875795Y12943748D01*
X3874430Y12922283D01*
X3869901Y12907704D01*
X3862271Y12899764D01*
X3852221Y12897344D01*
X3551028Y12897344D01*
X3551028Y12575741D01*
X3907062Y12575741D01*
X3917112Y12572949D01*
X3925115Y12564264D01*
X3929954Y12549003D01*
X3931319Y12525738D01*
G37*
G36*
X4488417Y12497449D02*
G01*
X4480786Y12484980D01*
X4467262Y12477349D01*
X4445053Y12473565D01*
X4411428Y12472510D01*
X4384628Y12472882D01*
X4364900Y12474619D01*
X4350693Y12477721D01*
X4340581Y12482188D01*
X4334005Y12488764D01*
X4329476Y12498132D01*
X4035914Y13331298D01*
X4030021Y13355927D01*
X4035914Y13370133D01*
X4056014Y13376337D01*
X4093547Y13377764D01*
X4124380Y13376709D01*
X4142061Y13372863D01*
X4151428Y13365605D01*
X4157384Y13354190D01*
X4414840Y12599377D01*
X4415585Y12599377D01*
X4666093Y13352825D01*
X4670932Y13365294D01*
X4680672Y13372863D01*
X4700090Y13376709D01*
X4733466Y13377764D01*
X4767400Y13376027D01*
X4784461Y13369451D01*
X4787935Y13355244D01*
X4781297Y13330615D01*
X4488417Y12497449D01*
G37*
G36*
X5037947Y13031284D02*
G01*
X5034845Y12994185D01*
X5023058Y12969742D01*
X5000476Y12956714D01*
X4965115Y12952930D01*
X4929009Y12956714D01*
X4906799Y12969742D01*
X4895322Y12994185D01*
X4892220Y13031284D01*
X4895322Y13070119D01*
X4906799Y13094872D01*
X4929009Y13107962D01*
X4965115Y13111746D01*
X5000476Y13107962D01*
X5023058Y13094872D01*
X5034845Y13070119D01*
X5037947Y13031284D01*
G37*
G36*
X5037947Y12547576D02*
G01*
X5034845Y12509795D01*
X5023058Y12485352D01*
X5000476Y12472324D01*
X4965115Y12468540D01*
X4929009Y12472324D01*
X4906799Y12485352D01*
X4895322Y12509795D01*
X4892220Y12547576D01*
X4895322Y12585729D01*
X4906799Y12610172D01*
X4929009Y12623200D01*
X4965115Y12627356D01*
X5000476Y12623200D01*
X5023058Y12610172D01*
X5030166Y12599965D01*
X5034845Y12585729D01*
X5037947Y12547576D01*
G37*
G36*
X6106608Y12523939D02*
G01*
X6104499Y12501606D01*
X6098977Y12486965D01*
X6090974Y12478900D01*
X6081607Y12476480D01*
X5612416Y12476480D01*
X5603420Y12478900D01*
X5595417Y12486965D01*
X5589524Y12501606D01*
X5587477Y12523939D01*
X5589524Y12545528D01*
X5594735Y12560542D01*
X5602366Y12569599D01*
X5612416Y12572763D01*
X5799832Y12572763D01*
X5799832Y13255674D01*
X5626312Y13152443D01*
X5605157Y13144130D01*
X5592316Y13147232D01*
X5585740Y13162183D01*
X5584003Y13188549D01*
X5584995Y13208711D01*
X5588097Y13222608D01*
X5593991Y13232348D01*
X5604103Y13240661D01*
X5810936Y13373421D01*
X5817885Y13376833D01*
X5828245Y13379625D01*
X5842824Y13381362D01*
X5863668Y13381734D01*
X5891461Y13380308D01*
X5908770Y13376523D01*
X5917083Y13370257D01*
X5919192Y13362317D01*
X5919192Y12572763D01*
X6081607Y12572763D01*
X6092029Y12569599D01*
X6099970Y12560542D01*
X6104871Y12545528D01*
X6106608Y12523939D01*
G37*
G36*
X6437889Y12550988D02*
G01*
X6432921Y12506321D01*
X6421573Y12484918D01*
X6401029Y12473354D01*
X6362203Y12468540D01*
X6324652Y12473245D01*
X6304570Y12484607D01*
X6293474Y12505491D01*
X6288627Y12548878D01*
X6293597Y12593535D01*
X6304942Y12614887D01*
X6325493Y12626496D01*
X6364312Y12631327D01*
X6401853Y12626619D01*
X6421883Y12615259D01*
X6433025Y12594368D01*
X6437889Y12550988D01*
G37*
G36*
X6967710Y13385989D02*
G01*
X7014987Y13375659D01*
X7054730Y13359463D01*
X7090679Y13336292D01*
X7121650Y13306869D01*
X7148035Y13270563D01*
X7177549Y13207305D01*
X7198347Y13126077D01*
X7209315Y13037174D01*
X7213298Y12929232D01*
X7209032Y12828075D01*
X7196982Y12740265D01*
X7174694Y12659106D01*
X7142885Y12593359D01*
X7114833Y12555223D01*
X7081979Y12523707D01*
X7043935Y12498256D01*
X7001951Y12480146D01*
X6952276Y12468656D01*
X6893370Y12464569D01*
X6837550Y12468245D01*
X6790483Y12478565D01*
X6750745Y12494782D01*
X6714793Y12517950D01*
X6683800Y12547373D01*
X6657378Y12583682D01*
X6627895Y12646925D01*
X6607066Y12728105D01*
X6596143Y12817061D01*
X6592177Y12925013D01*
X6592538Y12933388D01*
X6714329Y12933388D01*
X6717156Y12836488D01*
X6724689Y12762288D01*
X6738920Y12695678D01*
X6757631Y12647456D01*
X6784092Y12608302D01*
X6815264Y12582937D01*
X6852909Y12568137D01*
X6900318Y12562837D01*
X6937644Y12566108D01*
X6968622Y12575307D01*
X6996124Y12590552D01*
X7019306Y12611040D01*
X7038425Y12636230D01*
X7054358Y12666874D01*
X7076567Y12739024D01*
X7088044Y12824760D01*
X7091146Y12920856D01*
X7086307Y13041582D01*
X7072100Y13136003D01*
X7060953Y13175182D01*
X7047782Y13206416D01*
X7031054Y13233751D01*
X7012048Y13254929D01*
X6989713Y13271441D01*
X6964465Y13282722D01*
X6936778Y13289141D01*
X6904475Y13291408D01*
X6866028Y13288028D01*
X6834560Y13278579D01*
X6808688Y13263615D01*
X6776315Y13231336D01*
X6750745Y13187308D01*
X6733371Y13136141D01*
X6721960Y13073531D01*
X6716304Y13007115D01*
X6714329Y12933388D01*
X6592538Y12933388D01*
X6596510Y13025539D01*
X6608803Y13113608D01*
X6631357Y13195119D01*
X6662962Y13260823D01*
X6690795Y13298989D01*
X6723501Y13330524D01*
X6761478Y13355989D01*
X6803495Y13374121D01*
X6852982Y13385600D01*
X6911423Y13389675D01*
X6967710Y13385989D01*
G37*
G36*
X23473287Y19913072D02*
G01*
X23467030Y19834149D01*
X23449341Y19767284D01*
X23419916Y19707623D01*
X23380975Y19658966D01*
X23332209Y19620347D01*
X23272657Y19591779D01*
X23206125Y19574919D01*
X23127613Y19568949D01*
X23055495Y19574499D01*
X22992247Y19590414D01*
X22935104Y19617239D01*
X22887465Y19653755D01*
X22849240Y19700221D01*
X22820154Y19758598D01*
X22802780Y19824606D01*
X22796580Y19904015D01*
X22796580Y20459997D01*
X22799310Y20469674D01*
X22809050Y20476250D01*
X22827103Y20480407D01*
X22856260Y20482144D01*
X22884736Y20480407D01*
X22903099Y20476250D01*
X22912467Y20469674D01*
X22915258Y20459997D01*
X22915258Y19918904D01*
X22919318Y19858893D01*
X22930520Y19810276D01*
X22949561Y19767114D01*
X22974566Y19733101D01*
X23006219Y19706215D01*
X23043986Y19686759D01*
X23086260Y19675228D01*
X23135244Y19671187D01*
X23185493Y19675165D01*
X23227866Y19686387D01*
X23265567Y19705565D01*
X23296604Y19732046D01*
X23321095Y19765517D01*
X23339658Y19807484D01*
X23350637Y19854653D01*
X23354609Y19912700D01*
X23354609Y20459997D01*
X23357339Y20469674D01*
X23367079Y20476250D01*
X23385442Y20480407D01*
X23414289Y20482144D01*
X23442330Y20480407D01*
X23460383Y20476250D01*
X23470123Y20469674D01*
X23473287Y20459997D01*
X23473287Y19913072D01*
G37*
G36*
X24232070Y19632166D02*
G01*
X24230333Y19609956D01*
X24225494Y19593702D01*
X24217181Y19583962D01*
X24205704Y19580860D01*
X23709465Y19580860D01*
X23692466Y19583280D01*
X23679997Y19591221D01*
X23672304Y19607227D01*
X23669885Y19632910D01*
X23670939Y19657167D01*
X23675468Y19675530D01*
X23684153Y19691536D01*
X23697678Y19708534D01*
X23871879Y19894337D01*
X23928378Y19957453D01*
X23968658Y20008921D01*
X24002081Y20059198D01*
X24024926Y20101295D01*
X24041810Y20142501D01*
X24050920Y20176981D01*
X24057186Y20240879D01*
X24054722Y20270285D01*
X24047446Y20297768D01*
X24035508Y20323093D01*
X24019343Y20344855D01*
X23998903Y20362836D01*
X23973187Y20376990D01*
X23944082Y20385742D01*
X23909350Y20388839D01*
X23868376Y20385812D01*
X23833354Y20377238D01*
X23774356Y20352113D01*
X23732046Y20326926D01*
X23706673Y20315387D01*
X23697988Y20318116D01*
X23691784Y20327050D01*
X23687938Y20343552D01*
X23686573Y20368305D01*
X23687255Y20386172D01*
X23689675Y20399200D01*
X23694203Y20409498D01*
X23705308Y20421533D01*
X23734094Y20441137D01*
X23785461Y20465518D01*
X23853454Y20485804D01*
X23891213Y20491956D01*
X23931560Y20494055D01*
X23994346Y20489184D01*
X24045709Y20475630D01*
X24091191Y20453368D01*
X24126916Y20425193D01*
X24155154Y20390560D01*
X24175182Y20350748D01*
X24187082Y20307288D01*
X24191125Y20260359D01*
X24183495Y20174499D01*
X24172127Y20131543D01*
X24151235Y20082125D01*
X24122639Y20031994D01*
X24080078Y19971574D01*
X24028829Y19909426D01*
X23956561Y19831555D01*
X23814246Y19682106D01*
X24205022Y19682106D01*
X24215754Y19678942D01*
X24224750Y19669574D01*
X24230333Y19654003D01*
X24232070Y19632166D01*
G37*
G36*
X20615787Y9594322D02*
G01*
X20609530Y9515399D01*
X20591841Y9448534D01*
X20562416Y9388873D01*
X20523475Y9340216D01*
X20474709Y9301597D01*
X20415157Y9273029D01*
X20348625Y9256169D01*
X20270113Y9250199D01*
X20197995Y9255749D01*
X20134747Y9271664D01*
X20077604Y9298489D01*
X20029965Y9335005D01*
X19991740Y9381471D01*
X19962654Y9439848D01*
X19945280Y9505856D01*
X19939080Y9585265D01*
X19939080Y10141247D01*
X19941810Y10150924D01*
X19951550Y10157500D01*
X19969603Y10161657D01*
X19998760Y10163394D01*
X20027236Y10161657D01*
X20045599Y10157500D01*
X20054967Y10150924D01*
X20057758Y10141247D01*
X20057758Y9600154D01*
X20061818Y9540143D01*
X20073020Y9491526D01*
X20092061Y9448364D01*
X20117066Y9414351D01*
X20148719Y9387465D01*
X20186486Y9368009D01*
X20228760Y9356478D01*
X20277744Y9352437D01*
X20327993Y9356415D01*
X20370366Y9367637D01*
X20408067Y9386815D01*
X20439104Y9413296D01*
X20463595Y9446767D01*
X20482158Y9488734D01*
X20493137Y9535903D01*
X20497109Y9593950D01*
X20497109Y10141247D01*
X20499839Y10150924D01*
X20509579Y10157500D01*
X20527942Y10161657D01*
X20556789Y10163394D01*
X20584830Y10161657D01*
X20602883Y10157500D01*
X20612623Y10150924D01*
X20615787Y10141247D01*
X20615787Y9594322D01*
G37*
G36*
X21376679Y9309569D02*
G01*
X21374570Y9287236D01*
X21369049Y9272595D01*
X21361046Y9264530D01*
X21351678Y9262110D01*
X20882487Y9262110D01*
X20873492Y9264530D01*
X20865489Y9272595D01*
X20859595Y9287236D01*
X20857548Y9309569D01*
X20859595Y9331158D01*
X20864806Y9346172D01*
X20872437Y9355229D01*
X20882487Y9358393D01*
X21069903Y9358393D01*
X21069903Y10041304D01*
X20896384Y9938073D01*
X20875229Y9929760D01*
X20862387Y9932862D01*
X20855811Y9947813D01*
X20854074Y9974179D01*
X20855067Y9994341D01*
X20858168Y10008238D01*
X20864062Y10017978D01*
X20874174Y10026291D01*
X21081008Y10159051D01*
X21087956Y10162463D01*
X21098316Y10165255D01*
X21112895Y10166992D01*
X21133740Y10167364D01*
X21161533Y10165938D01*
X21178841Y10162153D01*
X21187154Y10155887D01*
X21189264Y10147947D01*
X21189264Y9358393D01*
X21351678Y9358393D01*
X21362101Y9355229D01*
X21370041Y9346172D01*
X21374942Y9331158D01*
X21376679Y9309569D01*
G37*
D12*
%TO.C,R16*%
X16515109Y17683750D02*
X16822391Y17683750D01*
X16515109Y16923750D02*
X16822391Y16923750D01*
%TO.C,R10*%
X24861250Y11786359D02*
X24861250Y12093641D01*
X25621250Y11786359D02*
X25621250Y12093641D01*
D13*
%TO.C,J1*%
X3048000Y38020000D02*
X4185000Y38020000D01*
X4185000Y38720000D02*
X4185000Y38020000D01*
X4185000Y35820000D02*
X4185000Y29820000D01*
X4985000Y39720000D02*
X4985000Y38820000D01*
X6185000Y38720000D02*
X4185000Y38720000D01*
X8985000Y39720000D02*
X4985000Y39720000D01*
X8985000Y38720000D02*
X8985000Y39720000D01*
X9785000Y38720000D02*
X7785000Y38720000D01*
X9785000Y37420000D02*
X9785000Y38720000D01*
X9785000Y35420000D02*
X9785000Y29820000D01*
D12*
%TO.C,C3*%
X24405000Y7727836D02*
X24405000Y7512164D01*
X25125000Y7727836D02*
X25125000Y7512164D01*
%TO.C,C6*%
X25992500Y11832164D02*
X25992500Y12047836D01*
X26712500Y11832164D02*
X26712500Y12047836D01*
%TO.C,R4*%
X14927609Y28320000D02*
X15234891Y28320000D01*
X14927609Y27560000D02*
X15234891Y27560000D01*
%TO.C,C5*%
X17037164Y28300000D02*
X17252836Y28300000D01*
X17037164Y27580000D02*
X17252836Y27580000D01*
D13*
%TO.C,U2*%
X24693750Y19233750D02*
X27693750Y19233750D01*
X24693750Y18683750D02*
X24693750Y19233750D01*
X24693750Y17083750D02*
X24693750Y18333750D01*
X27693750Y19233750D02*
X27693750Y18683750D01*
X27693750Y18683750D02*
X24693750Y18683750D01*
D12*
%TO.C,R12*%
X28353750Y18318641D02*
X28353750Y18011359D01*
X29113750Y18318641D02*
X29113750Y18011359D01*
%TO.C,D1*%
X16965000Y25923750D02*
X12955000Y25923750D01*
X16965000Y23923750D02*
X12955000Y23923750D01*
X16965000Y23923750D02*
X16965000Y25923750D01*
D13*
%TO.C,SW1*%
X13416000Y4191000D02*
X14016000Y4191000D01*
X13775000Y2840000D02*
X13775000Y2240000D01*
X14675000Y4140000D02*
X17075000Y4140000D01*
X14675000Y940000D02*
X17075000Y940000D01*
X17975000Y2840000D02*
X17975000Y2240000D01*
D12*
%TO.C,R2*%
X20483859Y5142500D02*
X20791141Y5142500D01*
X20483859Y4382500D02*
X20791141Y4382500D01*
D14*
%TO.C,G\u002A\u002A\u002A*%
G36*
X6840249Y8289109D02*
G01*
X6836855Y8285715D01*
X6833461Y8289109D01*
X6836855Y8292503D01*
X6840249Y8289109D01*
G37*
G36*
X6661433Y8363010D02*
G01*
X6660372Y8360381D01*
X6654272Y8353906D01*
X6653184Y8353593D01*
X6650268Y8358845D01*
X6650190Y8360381D01*
X6655408Y8366908D01*
X6657379Y8367169D01*
X6661433Y8363010D01*
G37*
G36*
X6713543Y5870887D02*
G01*
X6721248Y5858060D01*
X6718301Y5842536D01*
X6706514Y5830295D01*
X6691983Y5831171D01*
X6681234Y5839180D01*
X6675256Y5852838D01*
X6679376Y5866649D01*
X6691283Y5875251D01*
X6697113Y5876041D01*
X6713543Y5870887D01*
G37*
G36*
X4183628Y4656666D02*
G01*
X4189378Y4646427D01*
X4184326Y4634698D01*
X4171467Y4628448D01*
X4155467Y4627664D01*
X4143324Y4632436D01*
X4141909Y4634169D01*
X4141764Y4644973D01*
X4150915Y4655111D01*
X4165452Y4660760D01*
X4169349Y4661022D01*
X4183628Y4656666D01*
G37*
G36*
X5793832Y5351021D02*
G01*
X5794376Y5339801D01*
X5783630Y5326094D01*
X5779840Y5323219D01*
X5761854Y5313821D01*
X5751068Y5315903D01*
X5747412Y5329481D01*
X5747411Y5329790D01*
X5752251Y5345432D01*
X5764950Y5353596D01*
X5783517Y5356653D01*
X5793832Y5351021D01*
G37*
G36*
X7936414Y8364398D02*
G01*
X7952005Y8354290D01*
X7958993Y8335688D01*
X7957328Y8315770D01*
X7948862Y8302382D01*
X7935582Y8298949D01*
X7921818Y8305390D01*
X7913813Y8316580D01*
X7906182Y8340902D01*
X7908267Y8357565D01*
X7919553Y8365475D01*
X7936414Y8364398D01*
G37*
G36*
X4583324Y4944981D02*
G01*
X4592751Y4942160D01*
X4593430Y4941020D01*
X4588028Y4934919D01*
X4574417Y4925335D01*
X4566279Y4920454D01*
X4539180Y4904978D01*
X4539180Y4925545D01*
X4540234Y4938730D01*
X4545991Y4944591D01*
X4560344Y4946077D01*
X4566331Y4946111D01*
X4583324Y4944981D01*
G37*
G36*
X7496297Y8797612D02*
G01*
X7503796Y8785558D01*
X7504119Y8783699D01*
X7501705Y8767387D01*
X7491848Y8755204D01*
X7478296Y8748767D01*
X7464796Y8749691D01*
X7455096Y8759595D01*
X7454141Y8762138D01*
X7454025Y8776641D01*
X7464970Y8789574D01*
X7482537Y8799074D01*
X7496297Y8797612D01*
G37*
G36*
X7778664Y8997169D02*
G01*
X7794642Y8993443D01*
X7800473Y8985008D01*
X7800725Y8981466D01*
X7795811Y8969969D01*
X7783501Y8965882D01*
X7768674Y8966063D01*
X7761441Y8968710D01*
X7757326Y8978955D01*
X7756604Y8986421D01*
X7759205Y8995196D01*
X7769429Y8997715D01*
X7778664Y8997169D01*
G37*
G36*
X8445655Y6568325D02*
G01*
X8455483Y6555632D01*
X8452639Y6546060D01*
X8437963Y6541424D01*
X8433123Y6541247D01*
X8416351Y6542489D01*
X8406278Y6545505D01*
X8405971Y6545772D01*
X8401550Y6556497D01*
X8407025Y6566120D01*
X8418756Y6572570D01*
X8433098Y6573778D01*
X8445655Y6568325D01*
G37*
G36*
X4268284Y4757854D02*
G01*
X4281280Y4749227D01*
X4290671Y4737245D01*
X4289840Y4728079D01*
X4287654Y4725052D01*
X4275028Y4717688D01*
X4257379Y4715323D01*
X4240380Y4717826D01*
X4229702Y4725063D01*
X4229041Y4726429D01*
X4228052Y4742858D01*
X4236670Y4754623D01*
X4251285Y4760147D01*
X4268284Y4757854D01*
G37*
G36*
X5334711Y5433348D02*
G01*
X5345917Y5409970D01*
X5343979Y5387477D01*
X5329310Y5367502D01*
X5315688Y5358023D01*
X5304849Y5358214D01*
X5296062Y5362692D01*
X5288335Y5375891D01*
X5288108Y5395272D01*
X5294622Y5416241D01*
X5307118Y5434207D01*
X5308023Y5435072D01*
X5322794Y5448833D01*
X5334711Y5433348D01*
G37*
G36*
X7751861Y8940951D02*
G01*
X7768918Y8933205D01*
X7780958Y8923592D01*
X7783755Y8917388D01*
X7777858Y8911884D01*
X7763644Y8908451D01*
X7746328Y8908078D01*
X7739634Y8909020D01*
X7724044Y8916038D01*
X7716618Y8926669D01*
X7717890Y8937103D01*
X7728391Y8943532D01*
X7734730Y8944133D01*
X7751861Y8940951D01*
G37*
G36*
X8055318Y8851144D02*
G01*
X8072226Y8844040D01*
X8088085Y8832843D01*
X8099383Y8819428D01*
X8102782Y8808025D01*
X8097989Y8792490D01*
X8084643Y8786725D01*
X8065285Y8791013D01*
X8047670Y8803311D01*
X8035326Y8820842D01*
X8031077Y8838917D01*
X8032400Y8845581D01*
X8040873Y8852282D01*
X8055318Y8851144D01*
G37*
G36*
X4371082Y4842230D02*
G01*
X4389692Y4835582D01*
X4399930Y4825137D01*
X4399290Y4812467D01*
X4388777Y4803242D01*
X4371807Y4798136D01*
X4351797Y4797826D01*
X4332163Y4802987D01*
X4321245Y4809576D01*
X4310881Y4819810D01*
X4310756Y4827965D01*
X4314537Y4833334D01*
X4328603Y4841576D01*
X4349085Y4844384D01*
X4371082Y4842230D01*
G37*
G36*
X5929672Y6675298D02*
G01*
X5936708Y6660734D01*
X5935664Y6643971D01*
X5927140Y6631575D01*
X5925591Y6630666D01*
X5903047Y6621729D01*
X5884568Y6619185D01*
X5873495Y6623365D01*
X5872314Y6625397D01*
X5872585Y6639876D01*
X5881221Y6655293D01*
X5894925Y6668780D01*
X5910402Y6677470D01*
X5924355Y6678497D01*
X5929672Y6675298D01*
G37*
G36*
X5965671Y5566934D02*
G01*
X5968162Y5556343D01*
X5969947Y5538910D01*
X5964001Y5528456D01*
X5947845Y5521862D01*
X5939167Y5519857D01*
X5924170Y5517661D01*
X5918185Y5521706D01*
X5917106Y5534648D01*
X5921460Y5552205D01*
X5936446Y5565510D01*
X5936820Y5565732D01*
X5952937Y5574640D01*
X5961265Y5575426D01*
X5965671Y5566934D01*
G37*
G36*
X7140283Y7976112D02*
G01*
X7148818Y7973567D01*
X7169206Y7961536D01*
X7178165Y7943911D01*
X7174706Y7922870D01*
X7173190Y7919805D01*
X7166091Y7909271D01*
X7157922Y7906734D01*
X7145099Y7912305D01*
X7131432Y7921089D01*
X7112403Y7939198D01*
X7106216Y7955067D01*
X7108220Y7971398D01*
X7119430Y7978350D01*
X7140283Y7976112D01*
G37*
G36*
X7867231Y6682582D02*
G01*
X7871997Y6673325D01*
X7869617Y6659341D01*
X7864009Y6644064D01*
X7857472Y6632843D01*
X7853498Y6630276D01*
X7842940Y6632526D01*
X7836361Y6634168D01*
X7827302Y6642498D01*
X7823868Y6657516D01*
X7825980Y6673592D01*
X7833558Y6685094D01*
X7837101Y6686881D01*
X7853917Y6688152D01*
X7867231Y6682582D01*
G37*
G36*
X5834930Y5886848D02*
G01*
X5836873Y5885119D01*
X5847895Y5868751D01*
X5845428Y5852155D01*
X5829542Y5835796D01*
X5829514Y5835776D01*
X5811293Y5824566D01*
X5799426Y5822335D01*
X5792663Y5826264D01*
X5787993Y5839657D01*
X5792695Y5857777D01*
X5805709Y5876662D01*
X5806327Y5877315D01*
X5818672Y5889148D01*
X5826675Y5891935D01*
X5834930Y5886848D01*
G37*
G36*
X6311585Y7355610D02*
G01*
X6313443Y7351899D01*
X6313169Y7335104D01*
X6302177Y7316961D01*
X6288873Y7305224D01*
X6272639Y7298136D01*
X6253112Y7295001D01*
X6235682Y7296134D01*
X6225914Y7301543D01*
X6224186Y7315906D01*
X6234915Y7331426D01*
X6257202Y7346827D01*
X6258124Y7347319D01*
X6284153Y7359067D01*
X6301515Y7361793D01*
X6311585Y7355610D01*
G37*
G36*
X7918269Y7754315D02*
G01*
X7932009Y7746732D01*
X7942366Y7735737D01*
X7956158Y7714285D01*
X7959866Y7696056D01*
X7953393Y7683211D01*
X7944966Y7679090D01*
X7927897Y7675719D01*
X7915627Y7678174D01*
X7903593Y7688437D01*
X7892419Y7701889D01*
X7877330Y7724672D01*
X7873798Y7740758D01*
X7881903Y7750702D01*
X7899999Y7754925D01*
X7918269Y7754315D01*
G37*
G36*
X8153574Y5743243D02*
G01*
X8170394Y5733553D01*
X8179919Y5720703D01*
X8179962Y5709894D01*
X8174688Y5702946D01*
X8164037Y5700802D01*
X8144892Y5703166D01*
X8133328Y5705484D01*
X8117750Y5711859D01*
X8111365Y5724690D01*
X8110816Y5728438D01*
X8110652Y5740845D01*
X8116549Y5746019D01*
X8132191Y5747072D01*
X8132877Y5747073D01*
X8153574Y5743243D01*
G37*
G36*
X6635148Y5838419D02*
G01*
X6640097Y5835241D01*
X6647374Y5821872D01*
X6650511Y5800822D01*
X6649641Y5777297D01*
X6644898Y5756503D01*
X6637777Y5744731D01*
X6622037Y5734608D01*
X6609599Y5736816D01*
X6604392Y5741982D01*
X6597287Y5757749D01*
X6592616Y5780629D01*
X6591333Y5804243D01*
X6593013Y5817997D01*
X6602509Y5833044D01*
X6618325Y5840500D01*
X6635148Y5838419D01*
G37*
G36*
X4903634Y5318224D02*
G01*
X4905649Y5316135D01*
X4911535Y5300011D01*
X4906478Y5282168D01*
X4892502Y5264897D01*
X4871634Y5250487D01*
X4845898Y5241231D01*
X4838237Y5239894D01*
X4820597Y5238705D01*
X4811647Y5242487D01*
X4807551Y5250769D01*
X4808580Y5267196D01*
X4818556Y5287130D01*
X4835098Y5306592D01*
X4846517Y5315924D01*
X4866498Y5324450D01*
X4887373Y5325223D01*
X4903634Y5318224D01*
G37*
G36*
X6894501Y6573652D02*
G01*
X6903856Y6565308D01*
X6904692Y6548957D01*
X6901656Y6538685D01*
X6889768Y6520336D01*
X6871386Y6504403D01*
X6851641Y6494871D01*
X6843780Y6493732D01*
X6828037Y6498580D01*
X6816184Y6507648D01*
X6809659Y6515812D01*
X6808955Y6522653D01*
X6815480Y6531408D01*
X6830646Y6545316D01*
X6833798Y6548086D01*
X6857624Y6565297D01*
X6878474Y6573733D01*
X6894501Y6573652D01*
G37*
G36*
X7682212Y7687810D02*
G01*
X7696336Y7673636D01*
X7704645Y7651632D01*
X7705347Y7623710D01*
X7704797Y7619814D01*
X7695351Y7588699D01*
X7679052Y7568423D01*
X7656547Y7559712D01*
X7650900Y7559419D01*
X7627635Y7559419D01*
X7627635Y7616959D01*
X7627942Y7645358D01*
X7629370Y7663412D01*
X7632679Y7674346D01*
X7638630Y7681385D01*
X7643689Y7685017D01*
X7664065Y7692242D01*
X7682212Y7687810D01*
G37*
G36*
X8141130Y7555358D02*
G01*
X8163458Y7548611D01*
X8187637Y7534477D01*
X8204281Y7512478D01*
X8205449Y7510240D01*
X8213724Y7490412D01*
X8212666Y7478331D01*
X8201252Y7471006D01*
X8191024Y7468117D01*
X8178543Y7467903D01*
X8164322Y7474390D01*
X8144977Y7489214D01*
X8141812Y7491923D01*
X8120432Y7514254D01*
X8110262Y7533303D01*
X8110714Y7547531D01*
X8121199Y7555396D01*
X8141130Y7555358D01*
G37*
G36*
X6613849Y8312239D02*
G01*
X6637518Y8306989D01*
X6657076Y8298718D01*
X6668795Y8288109D01*
X6670554Y8281860D01*
X6664633Y8274883D01*
X6650057Y8267677D01*
X6631602Y8261977D01*
X6614046Y8259515D01*
X6609463Y8259688D01*
X6595675Y8261251D01*
X6577550Y8263450D01*
X6559496Y8270255D01*
X6550377Y8282922D01*
X6552108Y8298024D01*
X6555431Y8303010D01*
X6569079Y8310934D01*
X6589793Y8313782D01*
X6613849Y8312239D01*
G37*
G36*
X7071432Y7258802D02*
G01*
X7077597Y7247153D01*
X7077823Y7243339D01*
X7073712Y7222174D01*
X7062816Y7200261D01*
X7047287Y7179587D01*
X7029278Y7162142D01*
X7010943Y7149913D01*
X6994434Y7144890D01*
X6981905Y7149061D01*
X6979284Y7152336D01*
X6979434Y7163122D01*
X6986117Y7181078D01*
X6997523Y7202668D01*
X7011839Y7224355D01*
X7023523Y7238695D01*
X7041894Y7254359D01*
X7058697Y7261133D01*
X7071432Y7258802D01*
G37*
G36*
X7380319Y6728408D02*
G01*
X7391604Y6724440D01*
X7395911Y6717343D01*
X7395056Y6702749D01*
X7393965Y6695624D01*
X7386871Y6664939D01*
X7376739Y6638500D01*
X7365000Y6619125D01*
X7353087Y6609630D01*
X7349956Y6609125D01*
X7335943Y6614436D01*
X7330428Y6621004D01*
X7327579Y6634438D01*
X7326810Y6655387D01*
X7327410Y6667912D01*
X7333707Y6698302D01*
X7346297Y6719100D01*
X7364036Y6728998D01*
X7380319Y6728408D01*
G37*
G36*
X5115370Y6409672D02*
G01*
X5126760Y6401025D01*
X5127621Y6399702D01*
X5131071Y6390392D01*
X5129498Y6378542D01*
X5122070Y6360625D01*
X5115149Y6346833D01*
X5093862Y6309839D01*
X5074981Y6285793D01*
X5058619Y6274796D01*
X5044890Y6276946D01*
X5040494Y6281102D01*
X5031316Y6301897D01*
X5031203Y6327678D01*
X5038644Y6354918D01*
X5052129Y6380090D01*
X5070148Y6399667D01*
X5091190Y6410121D01*
X5096050Y6410845D01*
X5115370Y6409672D01*
G37*
G36*
X5286680Y5279902D02*
G01*
X5290577Y5274957D01*
X5296088Y5259034D01*
X5296998Y5236445D01*
X5293711Y5213140D01*
X5286631Y5195072D01*
X5285000Y5192854D01*
X5272691Y5185779D01*
X5256314Y5183760D01*
X5243481Y5187634D01*
X5242850Y5188209D01*
X5239944Y5197355D01*
X5238401Y5214372D01*
X5238325Y5219277D01*
X5241239Y5240884D01*
X5251998Y5258924D01*
X5259501Y5266994D01*
X5272868Y5279731D01*
X5280643Y5283705D01*
X5286680Y5279902D01*
G37*
G36*
X5308241Y6248079D02*
G01*
X5325352Y6242793D01*
X5331930Y6230860D01*
X5327984Y6211671D01*
X5313524Y6184615D01*
X5309273Y6178059D01*
X5290908Y6152189D01*
X5276924Y6137577D01*
X5265663Y6133324D01*
X5255469Y6138528D01*
X5249405Y6145510D01*
X5242779Y6156375D01*
X5241134Y6167283D01*
X5245216Y6181166D01*
X5255768Y6200956D01*
X5268909Y6222281D01*
X5280926Y6239331D01*
X5291284Y6247080D01*
X5304350Y6248391D01*
X5308241Y6248079D01*
G37*
G36*
X6909163Y8411684D02*
G01*
X6923678Y8405996D01*
X6927312Y8395241D01*
X6926260Y8391509D01*
X6918094Y8381215D01*
X6901393Y8373403D01*
X6874321Y8367436D01*
X6846618Y8363843D01*
X6822055Y8361746D01*
X6806881Y8362438D01*
X6797082Y8366565D01*
X6790310Y8372885D01*
X6783859Y8380874D01*
X6784097Y8386160D01*
X6793101Y8390895D01*
X6812949Y8397233D01*
X6814153Y8397597D01*
X6853019Y8407559D01*
X6885150Y8412230D01*
X6909163Y8411684D01*
G37*
G36*
X6262577Y5627077D02*
G01*
X6267881Y5623205D01*
X6273331Y5616326D01*
X6275263Y5607691D01*
X6273635Y5593723D01*
X6268404Y5570844D01*
X6267201Y5566002D01*
X6259904Y5540212D01*
X6252085Y5517891D01*
X6245730Y5504408D01*
X6231425Y5491676D01*
X6215027Y5490544D01*
X6202089Y5499444D01*
X6197391Y5513270D01*
X6196568Y5535222D01*
X6199149Y5560563D01*
X6204661Y5584557D01*
X6212299Y5601970D01*
X6228624Y5619938D01*
X6246442Y5628712D01*
X6262577Y5627077D01*
G37*
G36*
X5480638Y5952983D02*
G01*
X5487086Y5933640D01*
X5487651Y5915836D01*
X5481701Y5895472D01*
X5468606Y5868447D01*
X5467223Y5865859D01*
X5454754Y5843889D01*
X5444985Y5831346D01*
X5434846Y5825372D01*
X5421353Y5823113D01*
X5404056Y5823013D01*
X5393183Y5825420D01*
X5392505Y5825941D01*
X5387822Y5838645D01*
X5391961Y5859270D01*
X5405137Y5888651D01*
X5411515Y5900430D01*
X5426273Y5924213D01*
X5441673Y5944934D01*
X5453894Y5957661D01*
X5472414Y5972229D01*
X5480638Y5952983D01*
G37*
G36*
X6006597Y7639519D02*
G01*
X6018107Y7638866D01*
X6053246Y7635827D01*
X6076324Y7631295D01*
X6088827Y7624689D01*
X6092239Y7615432D01*
X6091230Y7610328D01*
X6083936Y7607323D01*
X6065798Y7604625D01*
X6039549Y7602553D01*
X6016550Y7601612D01*
X5983457Y7601040D01*
X5961548Y7601598D01*
X5948458Y7603552D01*
X5941824Y7607165D01*
X5939980Y7610183D01*
X5940602Y7623535D01*
X5945079Y7631681D01*
X5951500Y7636841D01*
X5962007Y7639682D01*
X5979429Y7640482D01*
X6006597Y7639519D01*
G37*
G36*
X7057470Y7613652D02*
G01*
X7058677Y7613070D01*
X7069479Y7601191D01*
X7068027Y7583915D01*
X7054378Y7561572D01*
X7049033Y7555196D01*
X7028301Y7536208D01*
X7003928Y7520770D01*
X6978907Y7509970D01*
X6956231Y7504891D01*
X6938894Y7506622D01*
X6931482Y7512556D01*
X6929778Y7516825D01*
X6931156Y7521824D01*
X6937139Y7529120D01*
X6949253Y7540280D01*
X6969022Y7556871D01*
X6995890Y7578773D01*
X7020675Y7598233D01*
X7037709Y7609718D01*
X7049228Y7614451D01*
X7057470Y7613652D01*
G37*
G36*
X7524894Y8596403D02*
G01*
X7538639Y8590254D01*
X7549349Y8576373D01*
X7557286Y8560622D01*
X7571108Y8539260D01*
X7585253Y8531299D01*
X7600507Y8523704D01*
X7610582Y8509283D01*
X7611834Y8493485D01*
X7611402Y8492213D01*
X7602006Y8483675D01*
X7585271Y8485064D01*
X7562680Y8495990D01*
X7542788Y8510211D01*
X7510906Y8537392D01*
X7490203Y8559145D01*
X7479868Y8576408D01*
X7478304Y8584757D01*
X7480877Y8593626D01*
X7490949Y8597341D01*
X7503758Y8597851D01*
X7524894Y8596403D01*
G37*
G36*
X7624902Y6560407D02*
G01*
X7631903Y6554813D01*
X7637746Y6541855D01*
X7644344Y6519187D01*
X7650071Y6491264D01*
X7652957Y6462824D01*
X7653019Y6437214D01*
X7650271Y6417779D01*
X7644729Y6407866D01*
X7643836Y6407462D01*
X7635331Y6410686D01*
X7622172Y6421676D01*
X7614533Y6429746D01*
X7594369Y6456457D01*
X7583661Y6481961D01*
X7580163Y6511929D01*
X7580121Y6516574D01*
X7582960Y6541691D01*
X7592387Y6556056D01*
X7609767Y6561451D01*
X7614664Y6561610D01*
X7624902Y6560407D01*
G37*
G36*
X7961679Y6752290D02*
G01*
X7971782Y6743198D01*
X7981698Y6728649D01*
X7989352Y6705894D01*
X7995203Y6675462D01*
X7999059Y6648556D01*
X8000226Y6631441D01*
X7998473Y6620557D01*
X7993570Y6612342D01*
X7990924Y6609281D01*
X7976398Y6596935D01*
X7964372Y6595944D01*
X7953835Y6606963D01*
X7943774Y6630643D01*
X7940162Y6642099D01*
X7929915Y6682429D01*
X7926552Y6712461D01*
X7930091Y6733608D01*
X7940547Y6747283D01*
X7941404Y6747904D01*
X7952828Y6754336D01*
X7961679Y6752290D01*
G37*
G36*
X8182576Y7655738D02*
G01*
X8208395Y7640978D01*
X8233910Y7619560D01*
X8255671Y7594088D01*
X8262108Y7584110D01*
X8274264Y7561698D01*
X8278031Y7548190D01*
X8272862Y7541406D01*
X8258212Y7539168D01*
X8250802Y7539056D01*
X8234889Y7540091D01*
X8221897Y7544647D01*
X8208022Y7554893D01*
X8189462Y7573004D01*
X8187093Y7575444D01*
X8158809Y7606018D01*
X8140910Y7628981D01*
X8133138Y7645149D01*
X8135234Y7655335D01*
X8146941Y7660356D01*
X8159903Y7661236D01*
X8182576Y7655738D01*
G37*
G36*
X5614351Y6862103D02*
G01*
X5617134Y6853131D01*
X5618431Y6836759D01*
X5618443Y6834979D01*
X5616368Y6820089D01*
X5608815Y6804957D01*
X5593787Y6786157D01*
X5583519Y6775020D01*
X5563305Y6754910D01*
X5548098Y6743497D01*
X5534669Y6738686D01*
X5526654Y6738094D01*
X5508646Y6741137D01*
X5496112Y6748456D01*
X5496095Y6748476D01*
X5491297Y6761603D01*
X5496935Y6777976D01*
X5513586Y6798594D01*
X5538368Y6821520D01*
X5565294Y6842623D01*
X5588311Y6856996D01*
X5605493Y6863611D01*
X5614351Y6862103D01*
G37*
G36*
X5939078Y5355698D02*
G01*
X5940315Y5354268D01*
X5937473Y5347140D01*
X5926714Y5333483D01*
X5910405Y5315625D01*
X5890918Y5295893D01*
X5870622Y5276616D01*
X5851886Y5260121D01*
X5837081Y5248736D01*
X5828849Y5244774D01*
X5814612Y5249302D01*
X5809859Y5252920D01*
X5802563Y5266668D01*
X5801714Y5272654D01*
X5806695Y5282942D01*
X5819619Y5298376D01*
X5837450Y5316110D01*
X5857157Y5333299D01*
X5875705Y5347098D01*
X5888599Y5354154D01*
X5908495Y5359105D01*
X5927049Y5359623D01*
X5939078Y5355698D01*
G37*
G36*
X6270810Y7432733D02*
G01*
X6276912Y7426994D01*
X6280461Y7419241D01*
X6276591Y7410096D01*
X6263762Y7396352D01*
X6260870Y7393601D01*
X6230107Y7370110D01*
X6193839Y7351045D01*
X6155410Y7337418D01*
X6118160Y7330244D01*
X6085433Y7330532D01*
X6068135Y7335216D01*
X6055664Y7343818D01*
X6055225Y7353969D01*
X6067093Y7365881D01*
X6091542Y7379763D01*
X6128846Y7395824D01*
X6165333Y7409392D01*
X6203194Y7422545D01*
X6230538Y7431119D01*
X6249497Y7435450D01*
X6262210Y7435876D01*
X6270810Y7432733D01*
G37*
G36*
X7541176Y6893902D02*
G01*
X7549039Y6879457D01*
X7552476Y6854753D01*
X7552970Y6833269D01*
X7552561Y6805712D01*
X7550806Y6788340D01*
X7546910Y6777772D01*
X7540081Y6770628D01*
X7537884Y6769024D01*
X7519922Y6759695D01*
X7507000Y6761853D01*
X7497554Y6773730D01*
X7493507Y6787677D01*
X7490433Y6810662D01*
X7488899Y6838152D01*
X7488830Y6843305D01*
X7488826Y6870253D01*
X7489847Y6886506D01*
X7492813Y6894943D01*
X7498640Y6898444D01*
X7506816Y6899723D01*
X7527547Y6900015D01*
X7541176Y6893902D01*
G37*
G36*
X7579513Y8945133D02*
G01*
X7580121Y8935221D01*
X7575315Y8920296D01*
X7563538Y8904307D01*
X7561454Y8902285D01*
X7538680Y8883521D01*
X7512544Y8865419D01*
X7486496Y8850024D01*
X7463987Y8839380D01*
X7448753Y8835528D01*
X7435883Y8837588D01*
X7431222Y8846573D01*
X7430789Y8855546D01*
X7436222Y8874072D01*
X7452993Y8892284D01*
X7481808Y8910744D01*
X7523376Y8930011D01*
X7526340Y8931224D01*
X7549643Y8940576D01*
X7567575Y8947523D01*
X7576881Y8950812D01*
X7577430Y8950921D01*
X7579513Y8945133D01*
G37*
G36*
X6396279Y5968124D02*
G01*
X6408396Y5961747D01*
X6412491Y5948157D01*
X6412617Y5943393D01*
X6411419Y5921871D01*
X6408277Y5895235D01*
X6403868Y5867403D01*
X6398869Y5842291D01*
X6393957Y5823817D01*
X6390715Y5816648D01*
X6378130Y5810064D01*
X6359634Y5808610D01*
X6342005Y5812579D01*
X6338641Y5814380D01*
X6333485Y5821283D01*
X6331751Y5835133D01*
X6333137Y5858880D01*
X6333596Y5863488D01*
X6339775Y5907525D01*
X6348262Y5939083D01*
X6359651Y5959150D01*
X6374533Y5968714D01*
X6393499Y5968762D01*
X6396279Y5968124D01*
G37*
G36*
X7233296Y8050486D02*
G01*
X7241261Y8041360D01*
X7252599Y8023046D01*
X7265606Y7998944D01*
X7278575Y7972458D01*
X7289804Y7946988D01*
X7297587Y7925936D01*
X7299672Y7918038D01*
X7300999Y7904446D01*
X7294925Y7899446D01*
X7283585Y7898810D01*
X7263846Y7903529D01*
X7247917Y7913470D01*
X7238205Y7926050D01*
X7225793Y7946838D01*
X7212553Y7972036D01*
X7200358Y7997849D01*
X7191078Y8020477D01*
X7186587Y8036123D01*
X7186428Y8038207D01*
X7192249Y8046864D01*
X7206029Y8052521D01*
X7222237Y8053731D01*
X7233296Y8050486D01*
G37*
G36*
X7930691Y8509900D02*
G01*
X7960164Y8491054D01*
X7987364Y8461156D01*
X7987503Y8460964D01*
X8000932Y8439389D01*
X8006326Y8420594D01*
X8006375Y8404740D01*
X8004059Y8387032D01*
X7998500Y8378769D01*
X7986529Y8375820D01*
X7983996Y8375582D01*
X7967011Y8375906D01*
X7956298Y8378976D01*
X7947053Y8388727D01*
X7933800Y8406576D01*
X7918580Y8429267D01*
X7903435Y8453542D01*
X7890405Y8476146D01*
X7881533Y8493822D01*
X7878785Y8502619D01*
X7881561Y8512432D01*
X7892324Y8516167D01*
X7900845Y8516475D01*
X7930691Y8509900D01*
G37*
G36*
X6665067Y5660509D02*
G01*
X6674662Y5648512D01*
X6680833Y5637524D01*
X6681681Y5627762D01*
X6676705Y5614358D01*
X6669727Y5600658D01*
X6655618Y5576611D01*
X6639558Y5553109D01*
X6634307Y5546351D01*
X6617931Y5529465D01*
X6600173Y5515827D01*
X6584390Y5507563D01*
X6573937Y5506799D01*
X6572991Y5507507D01*
X6568992Y5519461D01*
X6569673Y5539003D01*
X6574530Y5561176D01*
X6579818Y5574922D01*
X6589196Y5590632D01*
X6603442Y5610107D01*
X6619986Y5630344D01*
X6636259Y5648341D01*
X6649690Y5661094D01*
X6657451Y5665619D01*
X6665067Y5660509D01*
G37*
G36*
X6797206Y7726109D02*
G01*
X6812609Y7717012D01*
X6819801Y7703544D01*
X6819886Y7701889D01*
X6814176Y7687703D01*
X6798636Y7669794D01*
X6775653Y7650357D01*
X6747614Y7631593D01*
X6737064Y7625600D01*
X6705151Y7611938D01*
X6673288Y7607047D01*
X6666621Y7606934D01*
X6645871Y7607828D01*
X6631393Y7610124D01*
X6627441Y7612090D01*
X6631131Y7618076D01*
X6643619Y7629995D01*
X6662549Y7646041D01*
X6685565Y7664408D01*
X6710313Y7683289D01*
X6734436Y7700877D01*
X6755579Y7715367D01*
X6771386Y7724951D01*
X6778382Y7727844D01*
X6797206Y7726109D01*
G37*
G36*
X6116868Y6184138D02*
G01*
X6140623Y6172774D01*
X6166449Y6153519D01*
X6192129Y6128382D01*
X6215444Y6099376D01*
X6234177Y6068512D01*
X6239702Y6056549D01*
X6246156Y6033769D01*
X6242289Y6018231D01*
X6227345Y6007547D01*
X6223767Y6006086D01*
X6199692Y5997343D01*
X6185186Y5994221D01*
X6177282Y5997122D01*
X6173015Y6006453D01*
X6171411Y6013227D01*
X6159873Y6047266D01*
X6139805Y6085907D01*
X6113281Y6125273D01*
X6107707Y6132483D01*
X6093509Y6151421D01*
X6083521Y6166609D01*
X6080014Y6174376D01*
X6085785Y6180917D01*
X6097401Y6185598D01*
X6116868Y6184138D01*
G37*
G36*
X6138987Y5635765D02*
G01*
X6148721Y5625321D01*
X6156635Y5612439D01*
X6158670Y5597962D01*
X6154443Y5578950D01*
X6143573Y5552464D01*
X6137626Y5539838D01*
X6118422Y5505856D01*
X6096887Y5477496D01*
X6074692Y5456124D01*
X6053512Y5443102D01*
X6035019Y5439796D01*
X6022415Y5445887D01*
X6014091Y5457713D01*
X6012339Y5464166D01*
X6015614Y5472843D01*
X6024402Y5490723D01*
X6037399Y5515274D01*
X6053300Y5543960D01*
X6054787Y5546585D01*
X6078460Y5586049D01*
X6097999Y5613830D01*
X6113084Y5629485D01*
X6116085Y5631433D01*
X6129982Y5637801D01*
X6138987Y5635765D01*
G37*
G36*
X5751010Y5941259D02*
G01*
X5752226Y5939730D01*
X5759302Y5927846D01*
X5760987Y5922394D01*
X5758218Y5912885D01*
X5750801Y5894122D01*
X5740068Y5869039D01*
X5727350Y5840569D01*
X5713981Y5811647D01*
X5701291Y5785207D01*
X5690614Y5764180D01*
X5683584Y5751947D01*
X5669283Y5737124D01*
X5652473Y5728430D01*
X5636827Y5726709D01*
X5626019Y5732806D01*
X5623739Y5738201D01*
X5624485Y5747070D01*
X5629431Y5763096D01*
X5639007Y5787311D01*
X5653640Y5820752D01*
X5673761Y5864453D01*
X5692401Y5903936D01*
X5706949Y5927586D01*
X5722957Y5942521D01*
X5738339Y5947495D01*
X5751010Y5941259D01*
G37*
G36*
X7014490Y8540531D02*
G01*
X7016712Y8532965D01*
X7016732Y8531512D01*
X7013010Y8515925D01*
X7000885Y8501698D01*
X6978918Y8487791D01*
X6945670Y8473160D01*
X6925984Y8465826D01*
X6892351Y8454069D01*
X6868518Y8446791D01*
X6851627Y8443564D01*
X6838820Y8443956D01*
X6827241Y8447539D01*
X6821583Y8450119D01*
X6809902Y8458680D01*
X6806310Y8465674D01*
X6812276Y8471729D01*
X6828353Y8481045D01*
X6851814Y8492478D01*
X6879928Y8504882D01*
X6909967Y8517113D01*
X6939203Y8528027D01*
X6964905Y8536478D01*
X6984345Y8541323D01*
X6987884Y8541834D01*
X7006073Y8543061D01*
X7014490Y8540531D01*
G37*
G36*
X7930512Y9089825D02*
G01*
X7947844Y9080125D01*
X7970577Y9066194D01*
X7995888Y9049863D01*
X8020953Y9032960D01*
X8042950Y9017316D01*
X8059054Y9004760D01*
X8061279Y9002817D01*
X8086499Y8975997D01*
X8104620Y8948295D01*
X8114712Y8922056D01*
X8115846Y8899624D01*
X8108213Y8884400D01*
X8100709Y8878768D01*
X8092296Y8877903D01*
X8081123Y8882860D01*
X8065339Y8894691D01*
X8043095Y8914447D01*
X8024065Y8932254D01*
X7981577Y8973841D01*
X7949728Y9008355D01*
X7927999Y9036456D01*
X7915872Y9058804D01*
X7912724Y9073711D01*
X7915355Y9088322D01*
X7921404Y9093465D01*
X7930512Y9089825D01*
G37*
G36*
X7079637Y6636306D02*
G01*
X7092088Y6623290D01*
X7097003Y6608591D01*
X7093822Y6590898D01*
X7081986Y6568900D01*
X7060933Y6541288D01*
X7030104Y6506752D01*
X7019422Y6495429D01*
X6998968Y6474573D01*
X6984251Y6461919D01*
X6972060Y6455461D01*
X6959185Y6453194D01*
X6951502Y6453005D01*
X6933112Y6453992D01*
X6921131Y6456449D01*
X6919612Y6457359D01*
X6921241Y6464435D01*
X6929879Y6478407D01*
X6941044Y6492995D01*
X6958353Y6514811D01*
X6978931Y6541915D01*
X6998291Y6568398D01*
X7015634Y6592363D01*
X7032112Y6614534D01*
X7044441Y6630499D01*
X7045420Y6631708D01*
X7061087Y6650897D01*
X7079637Y6636306D01*
G37*
G36*
X7789395Y7719241D02*
G01*
X7805541Y7712816D01*
X7818239Y7700712D01*
X7828880Y7680685D01*
X7838853Y7650495D01*
X7843911Y7631338D01*
X7852584Y7594779D01*
X7856899Y7568975D01*
X7856416Y7551683D01*
X7850695Y7540660D01*
X7839296Y7533662D01*
X7823832Y7528956D01*
X7808840Y7528369D01*
X7797704Y7537828D01*
X7795376Y7541206D01*
X7789002Y7554848D01*
X7780790Y7577903D01*
X7772028Y7606576D01*
X7767177Y7624371D01*
X7759448Y7654960D01*
X7755137Y7675487D01*
X7754006Y7688962D01*
X7755814Y7698397D01*
X7760322Y7706802D01*
X7760583Y7707203D01*
X7771743Y7718860D01*
X7786075Y7719945D01*
X7789395Y7719241D01*
G37*
G36*
X8285523Y8773606D02*
G01*
X8301244Y8761993D01*
X8316573Y8739968D01*
X8330746Y8710369D01*
X8342997Y8676036D01*
X8352563Y8639807D01*
X8358679Y8604522D01*
X8360581Y8573019D01*
X8357504Y8548137D01*
X8350053Y8533955D01*
X8336112Y8526560D01*
X8317260Y8523592D01*
X8299332Y8525256D01*
X8288161Y8531757D01*
X8288151Y8531773D01*
X8285893Y8541712D01*
X8284028Y8562054D01*
X8282778Y8589631D01*
X8282368Y8614924D01*
X8281605Y8652938D01*
X8279330Y8681232D01*
X8275044Y8703625D01*
X8268248Y8723935D01*
X8268061Y8724401D01*
X8259280Y8751936D01*
X8259297Y8769215D01*
X8268154Y8776355D01*
X8285523Y8773606D01*
G37*
G36*
X5070004Y5615150D02*
G01*
X5084153Y5609537D01*
X5102156Y5598610D01*
X5126290Y5581220D01*
X5155257Y5558999D01*
X5189658Y5529354D01*
X5215584Y5500932D01*
X5232305Y5474995D01*
X5239089Y5452810D01*
X5235207Y5435641D01*
X5229840Y5429930D01*
X5216226Y5421266D01*
X5204469Y5419870D01*
X5191963Y5426861D01*
X5176105Y5443361D01*
X5163884Y5458308D01*
X5143422Y5482294D01*
X5117076Y5510768D01*
X5089108Y5539198D01*
X5075325Y5552472D01*
X5053434Y5573375D01*
X5035778Y5590824D01*
X5024378Y5602783D01*
X5021115Y5607085D01*
X5027017Y5610603D01*
X5041491Y5614500D01*
X5044158Y5615024D01*
X5057431Y5616596D01*
X5070004Y5615150D01*
G37*
G36*
X5207814Y6376999D02*
G01*
X5214779Y6374834D01*
X5228946Y6368927D01*
X5238009Y6361871D01*
X5241731Y6351887D01*
X5239876Y6337192D01*
X5232207Y6316006D01*
X5218490Y6286548D01*
X5198487Y6247038D01*
X5197598Y6245312D01*
X5170831Y6194964D01*
X5148393Y6156567D01*
X5129701Y6129419D01*
X5114173Y6112814D01*
X5101225Y6106048D01*
X5090276Y6108418D01*
X5086730Y6111352D01*
X5082363Y6122970D01*
X5084026Y6143693D01*
X5091893Y6174297D01*
X5106142Y6215558D01*
X5116175Y6241594D01*
X5133310Y6282227D01*
X5150063Y6317061D01*
X5165063Y6343379D01*
X5173089Y6354471D01*
X5187358Y6370183D01*
X5197572Y6377028D01*
X5207814Y6376999D01*
G37*
G36*
X5862316Y6757157D02*
G01*
X5868532Y6751016D01*
X5869503Y6739790D01*
X5866627Y6728126D01*
X5857347Y6712183D01*
X5840543Y6690366D01*
X5815092Y6661079D01*
X5811090Y6656640D01*
X5787712Y6631391D01*
X5766339Y6609392D01*
X5749236Y6592903D01*
X5738666Y6584184D01*
X5738210Y6583911D01*
X5719961Y6577127D01*
X5702024Y6575703D01*
X5690846Y6579711D01*
X5686678Y6588090D01*
X5688888Y6599925D01*
X5698288Y6616531D01*
X5715689Y6639222D01*
X5741901Y6669310D01*
X5755075Y6683755D01*
X5782240Y6712955D01*
X5802282Y6733457D01*
X5817041Y6746758D01*
X5828356Y6754357D01*
X5838064Y6757754D01*
X5846710Y6758457D01*
X5862316Y6757157D01*
G37*
G36*
X7974291Y8721471D02*
G01*
X7991785Y8708010D01*
X8004333Y8690881D01*
X8007753Y8678071D01*
X8001241Y8665478D01*
X7984946Y8655611D01*
X7963014Y8640040D01*
X7953338Y8624834D01*
X7944333Y8607061D01*
X7934985Y8594034D01*
X7934933Y8593983D01*
X7921293Y8586671D01*
X7904288Y8584427D01*
X7891065Y8588061D01*
X7890098Y8588904D01*
X7887633Y8597676D01*
X7885989Y8615609D01*
X7885572Y8632254D01*
X7885572Y8671079D01*
X7916341Y8675693D01*
X7935038Y8678967D01*
X7943415Y8683514D01*
X7944579Y8692618D01*
X7942737Y8703615D01*
X7940707Y8719214D01*
X7944264Y8725644D01*
X7955765Y8726922D01*
X7956413Y8726923D01*
X7974291Y8721471D01*
G37*
G36*
X6947140Y7269109D02*
G01*
X6952517Y7258929D01*
X6953968Y7247180D01*
X6953482Y7234723D01*
X6949302Y7221186D01*
X6940119Y7203963D01*
X6924628Y7180445D01*
X6910453Y7160406D01*
X6876112Y7114299D01*
X6846785Y7078564D01*
X6822865Y7053623D01*
X6804746Y7039896D01*
X6795654Y7037188D01*
X6778892Y7040067D01*
X6766571Y7044019D01*
X6755410Y7052105D01*
X6754099Y7059569D01*
X6760011Y7069862D01*
X6772528Y7088567D01*
X6789940Y7113363D01*
X6810534Y7141932D01*
X6832601Y7171954D01*
X6854430Y7201110D01*
X6874310Y7227081D01*
X6890531Y7247546D01*
X6901381Y7260187D01*
X6903763Y7262475D01*
X6920900Y7270947D01*
X6935278Y7272657D01*
X6947140Y7269109D01*
G37*
G36*
X6244853Y7523299D02*
G01*
X6249294Y7514016D01*
X6249709Y7505017D01*
X6246371Y7488269D01*
X6234160Y7475315D01*
X6227649Y7471025D01*
X6187696Y7451227D01*
X6135913Y7433278D01*
X6073984Y7417751D01*
X6067606Y7416417D01*
X6029564Y7409036D01*
X6001869Y7405042D01*
X5981732Y7404404D01*
X5966361Y7407091D01*
X5952966Y7413073D01*
X5949509Y7415137D01*
X5932215Y7428971D01*
X5927731Y7440808D01*
X5936026Y7449983D01*
X5947274Y7454112D01*
X5969193Y7460689D01*
X5999279Y7469078D01*
X6035032Y7478641D01*
X6073950Y7488742D01*
X6113531Y7498746D01*
X6151273Y7508014D01*
X6184675Y7515912D01*
X6211235Y7521802D01*
X6228451Y7525048D01*
X6232761Y7525480D01*
X6244853Y7523299D01*
G37*
G36*
X7002027Y7707450D02*
G01*
X7015084Y7703447D01*
X7020903Y7692630D01*
X7022261Y7683192D01*
X7022105Y7670724D01*
X7017705Y7659033D01*
X7007179Y7645029D01*
X6988643Y7625620D01*
X6984928Y7621926D01*
X6947982Y7588956D01*
X6907818Y7559363D01*
X6866417Y7534055D01*
X6825758Y7513943D01*
X6787821Y7499937D01*
X6754587Y7492948D01*
X6728035Y7493885D01*
X6716371Y7498483D01*
X6706181Y7507959D01*
X6707481Y7517531D01*
X6720873Y7527956D01*
X6746958Y7539994D01*
X6750311Y7541324D01*
X6803113Y7566157D01*
X6855741Y7599564D01*
X6910636Y7643167D01*
X6930755Y7661062D01*
X6956568Y7683855D01*
X6975224Y7698254D01*
X6988927Y7705695D01*
X6999884Y7707613D01*
X7002027Y7707450D01*
G37*
G36*
X7254657Y6732010D02*
G01*
X7260797Y6715304D01*
X7261094Y6709035D01*
X7258443Y6689240D01*
X7251309Y6660795D01*
X7240914Y6627365D01*
X7228481Y6592619D01*
X7215236Y6560222D01*
X7202962Y6534863D01*
X7184605Y6506004D01*
X7160771Y6475278D01*
X7134757Y6446433D01*
X7109858Y6423218D01*
X7095578Y6412764D01*
X7073659Y6402108D01*
X7056206Y6399038D01*
X7045749Y6403681D01*
X7043883Y6410159D01*
X7047882Y6420953D01*
X7058387Y6438427D01*
X7073162Y6458879D01*
X7073807Y6459703D01*
X7116961Y6523369D01*
X7156649Y6600107D01*
X7180044Y6655595D01*
X7195299Y6691712D01*
X7208295Y6715811D01*
X7219725Y6729126D01*
X7222119Y6730743D01*
X7241401Y6737359D01*
X7254657Y6732010D01*
G37*
G36*
X6934761Y9013452D02*
G01*
X6949634Y9005319D01*
X6951413Y9002969D01*
X6954916Y8992485D01*
X6948468Y8983453D01*
X6942803Y8979212D01*
X6910710Y8954201D01*
X6890871Y8931510D01*
X6882640Y8909230D01*
X6885370Y8885453D01*
X6898414Y8858272D01*
X6900618Y8854729D01*
X6917447Y8827750D01*
X6927517Y8810171D01*
X6931653Y8800130D01*
X6930679Y8795765D01*
X6927033Y8795099D01*
X6915325Y8797457D01*
X6897357Y8802916D01*
X6892916Y8804460D01*
X6859118Y8819722D01*
X6833845Y8839696D01*
X6814782Y8864045D01*
X6798801Y8896944D01*
X6795956Y8928036D01*
X6806375Y8957942D01*
X6830189Y8987283D01*
X6842795Y8998428D01*
X6862227Y9008964D01*
X6886843Y9015098D01*
X6912426Y9016652D01*
X6934761Y9013452D01*
G37*
G36*
X7789090Y7943658D02*
G01*
X7790880Y7942756D01*
X7806318Y7932492D01*
X7810086Y7921277D01*
X7803647Y7904716D01*
X7803579Y7904589D01*
X7797141Y7896359D01*
X7786921Y7893413D01*
X7768541Y7894700D01*
X7764549Y7895229D01*
X7745394Y7896621D01*
X7727571Y7894243D01*
X7706282Y7887048D01*
X7685332Y7877941D01*
X7640419Y7861816D01*
X7596312Y7853913D01*
X7556384Y7854619D01*
X7532606Y7860487D01*
X7514421Y7870894D01*
X7508849Y7882159D01*
X7510509Y7888242D01*
X7517071Y7892818D01*
X7530903Y7896635D01*
X7554376Y7900442D01*
X7575457Y7903207D01*
X7613123Y7908919D01*
X7641759Y7915934D01*
X7665912Y7925533D01*
X7678869Y7932342D01*
X7718503Y7948947D01*
X7755476Y7952740D01*
X7789090Y7943658D01*
G37*
G36*
X5634797Y6011345D02*
G01*
X5644014Y5996752D01*
X5645594Y5984530D01*
X5641906Y5957614D01*
X5631670Y5922120D01*
X5616128Y5880587D01*
X5596521Y5835556D01*
X5574091Y5789568D01*
X5550079Y5745161D01*
X5525727Y5704877D01*
X5502276Y5671256D01*
X5480969Y5646837D01*
X5480168Y5646078D01*
X5463543Y5630460D01*
X5449357Y5644645D01*
X5438984Y5658676D01*
X5435172Y5670270D01*
X5438403Y5680573D01*
X5447155Y5699634D01*
X5460012Y5724540D01*
X5472476Y5747022D01*
X5490436Y5780564D01*
X5510450Y5821285D01*
X5529866Y5863631D01*
X5543700Y5896215D01*
X5557176Y5928840D01*
X5569752Y5958026D01*
X5580133Y5980851D01*
X5587026Y5994397D01*
X5587669Y5995432D01*
X5603364Y6011298D01*
X5620160Y6016398D01*
X5634797Y6011345D01*
G37*
G36*
X7310272Y8092011D02*
G01*
X7326591Y8082122D01*
X7349005Y8067564D01*
X7371399Y8052402D01*
X7404028Y8030889D01*
X7432254Y8015110D01*
X7461422Y8002529D01*
X7496880Y7990611D01*
X7510138Y7986609D01*
X7539559Y7977450D01*
X7563179Y7969273D01*
X7578557Y7962982D01*
X7583282Y7959523D01*
X7575295Y7955238D01*
X7557958Y7949549D01*
X7535258Y7943587D01*
X7511180Y7938480D01*
X7505455Y7937476D01*
X7487196Y7936834D01*
X7465225Y7939028D01*
X7462917Y7939437D01*
X7442306Y7946624D01*
X7417192Y7960366D01*
X7389715Y7978849D01*
X7362019Y8000257D01*
X7336242Y8022775D01*
X7314527Y8044588D01*
X7299016Y8063882D01*
X7291848Y8078840D01*
X7292104Y8084239D01*
X7298730Y8093962D01*
X7302550Y8095656D01*
X7310272Y8092011D01*
G37*
G36*
X5779038Y6855842D02*
G01*
X5784845Y6843086D01*
X5781185Y6822812D01*
X5768348Y6795829D01*
X5746624Y6762945D01*
X5716300Y6724968D01*
X5714184Y6722511D01*
X5686986Y6692842D01*
X5656261Y6662261D01*
X5623901Y6632351D01*
X5591798Y6604692D01*
X5561845Y6580869D01*
X5535935Y6562463D01*
X5515960Y6551057D01*
X5505519Y6548035D01*
X5495595Y6553385D01*
X5489713Y6561164D01*
X5484745Y6573052D01*
X5484579Y6584126D01*
X5490451Y6596492D01*
X5503599Y6612255D01*
X5525260Y6633521D01*
X5540553Y6647686D01*
X5568266Y6674438D01*
X5600368Y6707510D01*
X5632788Y6742605D01*
X5660219Y6773961D01*
X5687793Y6806227D01*
X5708676Y6829361D01*
X5724640Y6844847D01*
X5737460Y6854168D01*
X5748909Y6858805D01*
X5760759Y6860241D01*
X5763477Y6860274D01*
X5779038Y6855842D01*
G37*
G36*
X8439484Y8989077D02*
G01*
X8507769Y8978250D01*
X8573908Y8959319D01*
X8624693Y8937723D01*
X8662634Y8917262D01*
X8689002Y8899476D01*
X8705212Y8883095D01*
X8712682Y8866846D01*
X8713582Y8857897D01*
X8712485Y8840812D01*
X8708258Y8831340D01*
X8699148Y8829530D01*
X8683405Y8835428D01*
X8659277Y8849081D01*
X8641940Y8859824D01*
X8614822Y8876679D01*
X8590319Y8891559D01*
X8571752Y8902469D01*
X8564354Y8906526D01*
X8544579Y8914230D01*
X8514888Y8922997D01*
X8478813Y8932033D01*
X8439888Y8940546D01*
X8401643Y8947742D01*
X8367611Y8952827D01*
X8350538Y8954547D01*
X8310258Y8958101D01*
X8283382Y8961957D01*
X8269740Y8966245D01*
X8269162Y8971094D01*
X8281477Y8976636D01*
X8306516Y8983001D01*
X8311842Y8984135D01*
X8372894Y8991228D01*
X8439484Y8989077D01*
G37*
G36*
X8271572Y8914960D02*
G01*
X8307401Y8906458D01*
X8349701Y8889538D01*
X8395803Y8865820D01*
X8443033Y8836923D01*
X8488722Y8804463D01*
X8530198Y8770062D01*
X8560960Y8739609D01*
X8595083Y8698551D01*
X8625184Y8655368D01*
X8649937Y8612505D01*
X8668015Y8572408D01*
X8678091Y8537522D01*
X8679747Y8520638D01*
X8673797Y8501118D01*
X8658424Y8487230D01*
X8637345Y8481189D01*
X8617940Y8483800D01*
X8599676Y8496765D01*
X8588056Y8519247D01*
X8584717Y8543282D01*
X8579966Y8566313D01*
X8566767Y8596183D01*
X8546702Y8630583D01*
X8521353Y8667205D01*
X8492302Y8703739D01*
X8461131Y8737876D01*
X8433766Y8763615D01*
X8414226Y8779394D01*
X8386864Y8800045D01*
X8355200Y8822976D01*
X8322749Y8845595D01*
X8320355Y8847224D01*
X8284229Y8872251D01*
X8259212Y8890931D01*
X8244804Y8903960D01*
X8240505Y8912030D01*
X8245817Y8915834D01*
X8260239Y8916067D01*
X8271572Y8914960D01*
G37*
G36*
X6589833Y9011508D02*
G01*
X6600435Y8999299D01*
X6601857Y8981618D01*
X6592278Y8961502D01*
X6584120Y8941166D01*
X6583194Y8915151D01*
X6589529Y8889284D01*
X6591901Y8884189D01*
X6606276Y8863947D01*
X6628842Y8840415D01*
X6655912Y8816881D01*
X6683799Y8796630D01*
X6701894Y8786138D01*
X6723007Y8776737D01*
X6752349Y8765185D01*
X6785171Y8753308D01*
X6802916Y8747321D01*
X6837152Y8736018D01*
X6860067Y8728035D01*
X6873268Y8722544D01*
X6878360Y8718721D01*
X6876950Y8715738D01*
X6870644Y8712771D01*
X6870344Y8712654D01*
X6847032Y8708145D01*
X6814995Y8708260D01*
X6778177Y8712744D01*
X6741826Y8720970D01*
X6687935Y8739493D01*
X6638064Y8762893D01*
X6593557Y8789993D01*
X6555756Y8819616D01*
X6526004Y8850584D01*
X6505646Y8881720D01*
X6496025Y8911847D01*
X6497184Y8935354D01*
X6509180Y8965314D01*
X6527779Y8991555D01*
X6549508Y9009201D01*
X6549969Y9009443D01*
X6572271Y9015727D01*
X6589833Y9011508D01*
G37*
G36*
X6826635Y8203750D02*
G01*
X6826668Y8203022D01*
X6823225Y8189346D01*
X6813898Y8167162D01*
X6800176Y8139361D01*
X6783546Y8108835D01*
X6765496Y8078476D01*
X6751439Y8056846D01*
X6717754Y8007415D01*
X6737955Y8007415D01*
X6756105Y8005205D01*
X6774434Y7999756D01*
X6788188Y7992837D01*
X6792734Y7987014D01*
X6786509Y7975047D01*
X6769956Y7962952D01*
X6746265Y7951895D01*
X6718622Y7943038D01*
X6690215Y7937548D01*
X6664231Y7936587D01*
X6656978Y7937421D01*
X6636629Y7941403D01*
X6627696Y7946055D01*
X6628107Y7953590D01*
X6633395Y7962607D01*
X6640311Y7976662D01*
X6638202Y7988345D01*
X6635378Y7993298D01*
X6630334Y8009024D01*
X6633270Y8016562D01*
X6639974Y8025635D01*
X6652692Y8042862D01*
X6669381Y8065474D01*
X6682107Y8082720D01*
X6709321Y8119301D01*
X6730155Y8146435D01*
X6746046Y8165773D01*
X6758429Y8178968D01*
X6768740Y8187672D01*
X6778403Y8193532D01*
X6804262Y8205029D01*
X6820525Y8208471D01*
X6826635Y8203750D01*
G37*
G36*
X8162763Y8024058D02*
G01*
X8177448Y8014531D01*
X8184423Y8008578D01*
X8189165Y8001781D01*
X8192107Y7991608D01*
X8193676Y7975524D01*
X8194303Y7950995D01*
X8194418Y7915487D01*
X8194418Y7914462D01*
X8194592Y7878081D01*
X8195425Y7852227D01*
X8197383Y7833851D01*
X8200932Y7819907D01*
X8206538Y7807346D01*
X8212381Y7796984D01*
X8225925Y7776270D01*
X8239773Y7758609D01*
X8245318Y7752879D01*
X8267663Y7724269D01*
X8278482Y7690615D01*
X8279266Y7678543D01*
X8278141Y7662415D01*
X8272577Y7655741D01*
X8259838Y7654448D01*
X8249075Y7656474D01*
X8236445Y7663580D01*
X8219939Y7677313D01*
X8197545Y7699218D01*
X8185728Y7711406D01*
X8156099Y7742971D01*
X8135078Y7767821D01*
X8121391Y7788553D01*
X8113767Y7807763D01*
X8110933Y7828046D01*
X8111616Y7852000D01*
X8112385Y7861034D01*
X8116072Y7891970D01*
X8121618Y7928671D01*
X8127885Y7963659D01*
X8128480Y7966638D01*
X8135721Y7998079D01*
X8142980Y8017279D01*
X8151560Y8025514D01*
X8162763Y8024058D01*
G37*
G36*
X6700675Y7913462D02*
G01*
X6708482Y7900075D01*
X6707155Y7885517D01*
X6697565Y7873102D01*
X6679101Y7855537D01*
X6654395Y7834874D01*
X6626082Y7813165D01*
X6596794Y7792464D01*
X6569164Y7774821D01*
X6554679Y7766665D01*
X6491212Y7738214D01*
X6414663Y7712657D01*
X6325223Y7690044D01*
X6223086Y7670427D01*
X6161468Y7660920D01*
X6127663Y7656143D01*
X6098826Y7652134D01*
X6077547Y7649250D01*
X6066419Y7647846D01*
X6065493Y7647767D01*
X6057624Y7651535D01*
X6045695Y7660179D01*
X6035735Y7670116D01*
X6033595Y7678520D01*
X6040382Y7686076D01*
X6057208Y7693467D01*
X6085181Y7701378D01*
X6125413Y7710491D01*
X6128388Y7711122D01*
X6209736Y7728741D01*
X6279477Y7744886D01*
X6339419Y7760171D01*
X6391369Y7775209D01*
X6437134Y7790612D01*
X6478523Y7806994D01*
X6517343Y7824969D01*
X6555401Y7845149D01*
X6594504Y7868147D01*
X6598523Y7870614D01*
X6628116Y7888436D01*
X6654076Y7903319D01*
X6673989Y7913932D01*
X6685444Y7918949D01*
X6686705Y7919173D01*
X6700675Y7913462D01*
G37*
G36*
X7926441Y5517610D02*
G01*
X7935019Y5505351D01*
X7937610Y5492502D01*
X7936374Y5488963D01*
X7927153Y5480021D01*
X7908803Y5466441D01*
X7884142Y5450035D01*
X7855984Y5432618D01*
X7827145Y5416003D01*
X7804482Y5404007D01*
X7751858Y5381868D01*
X7689652Y5363632D01*
X7617073Y5349159D01*
X7533330Y5338307D01*
X7437633Y5330935D01*
X7379672Y5328315D01*
X7336966Y5326929D01*
X7305739Y5326334D01*
X7283914Y5326654D01*
X7269411Y5328014D01*
X7260152Y5330536D01*
X7254058Y5334344D01*
X7252401Y5335890D01*
X7243163Y5349813D01*
X7240730Y5359551D01*
X7240924Y5362971D01*
X7242401Y5365842D01*
X7246507Y5368372D01*
X7254585Y5370767D01*
X7267980Y5373233D01*
X7288036Y5375977D01*
X7316097Y5379207D01*
X7353509Y5383127D01*
X7401615Y5387945D01*
X7461759Y5393868D01*
X7468122Y5394493D01*
X7544825Y5403439D01*
X7611784Y5414650D01*
X7672770Y5429096D01*
X7731552Y5447746D01*
X7791901Y5471569D01*
X7824993Y5486251D01*
X7855967Y5500080D01*
X7883060Y5511540D01*
X7903602Y5519546D01*
X7914923Y5523013D01*
X7915647Y5523075D01*
X7926441Y5517610D01*
G37*
G36*
X7685172Y8878652D02*
G01*
X7706218Y8870900D01*
X7730548Y8858721D01*
X7754376Y8843979D01*
X7771533Y8830713D01*
X7785178Y8824185D01*
X7805815Y8819905D01*
X7814384Y8819224D01*
X7836766Y8816189D01*
X7850453Y8809870D01*
X7851956Y8808087D01*
X7856892Y8791279D01*
X7857881Y8765537D01*
X7855081Y8734867D01*
X7848651Y8703277D01*
X7847687Y8699772D01*
X7840529Y8670936D01*
X7834451Y8640448D01*
X7832495Y8627890D01*
X7827876Y8593340D01*
X7807513Y8599908D01*
X7795119Y8604815D01*
X7781153Y8612523D01*
X7763836Y8624314D01*
X7741390Y8641470D01*
X7712037Y8665272D01*
X7681025Y8691102D01*
X7645754Y8722855D01*
X7621703Y8750073D01*
X7607968Y8774329D01*
X7603647Y8797195D01*
X7603740Y8797728D01*
X7739099Y8797728D01*
X7741611Y8792509D01*
X7747646Y8788731D01*
X7765403Y8783022D01*
X7777906Y8788536D01*
X7782530Y8799961D01*
X7779863Y8811821D01*
X7769213Y8815091D01*
X7753462Y8809324D01*
X7747646Y8805369D01*
X7739099Y8797728D01*
X7603740Y8797728D01*
X7607462Y8819133D01*
X7620331Y8842197D01*
X7640804Y8863291D01*
X7663925Y8877673D01*
X7671195Y8880114D01*
X7685172Y8878652D01*
G37*
G36*
X8068803Y8739436D02*
G01*
X8083342Y8725801D01*
X8091386Y8715044D01*
X8102741Y8696304D01*
X8118044Y8667788D01*
X8135995Y8632240D01*
X8155293Y8592405D01*
X8174638Y8551027D01*
X8192727Y8510850D01*
X8208261Y8474618D01*
X8219938Y8445075D01*
X8221761Y8440028D01*
X8230804Y8412808D01*
X8235975Y8391027D01*
X8237962Y8369288D01*
X8237451Y8342192D01*
X8236454Y8324635D01*
X8233253Y8293718D01*
X8227582Y8258567D01*
X8220088Y8221667D01*
X8211418Y8185501D01*
X8202220Y8152553D01*
X8193141Y8125305D01*
X8184827Y8106242D01*
X8177926Y8097846D01*
X8177319Y8097686D01*
X8164567Y8100223D01*
X8151994Y8106930D01*
X8144546Y8114067D01*
X8139648Y8124417D01*
X8137246Y8139834D01*
X8137287Y8162174D01*
X8139718Y8193291D01*
X8144486Y8235041D01*
X8147619Y8259638D01*
X8151617Y8295282D01*
X8154294Y8329201D01*
X8155401Y8357403D01*
X8154804Y8374998D01*
X8149921Y8395627D01*
X8139991Y8423678D01*
X8126651Y8454753D01*
X8120186Y8468123D01*
X8094645Y8525580D01*
X8074607Y8586390D01*
X8058667Y8654996D01*
X8055094Y8674243D01*
X8051012Y8707555D01*
X8052216Y8729840D01*
X8058287Y8740624D01*
X8068803Y8739436D01*
G37*
G36*
X7613327Y8458795D02*
G01*
X7631729Y8450723D01*
X7646052Y8440383D01*
X7656684Y8432228D01*
X7668204Y8429466D01*
X7685752Y8431325D01*
X7694946Y8433059D01*
X7720157Y8436377D01*
X7734176Y8433991D01*
X7735923Y8432650D01*
X7742652Y8417117D01*
X7739815Y8396639D01*
X7728069Y8375205D01*
X7726059Y8372719D01*
X7715002Y8357110D01*
X7709300Y8344234D01*
X7709089Y8342387D01*
X7713531Y8332937D01*
X7725305Y8317017D01*
X7742086Y8297697D01*
X7746422Y8293082D01*
X7764055Y8273252D01*
X7777197Y8255911D01*
X7783514Y8244212D01*
X7783755Y8242678D01*
X7786128Y8236266D01*
X7795154Y8232807D01*
X7813700Y8231506D01*
X7824482Y8231413D01*
X7865209Y8231413D01*
X7865209Y8190686D01*
X7864902Y8168140D01*
X7863005Y8155984D01*
X7858052Y8151032D01*
X7848578Y8150099D01*
X7846542Y8150110D01*
X7827511Y8154447D01*
X7810906Y8163534D01*
X7794761Y8173100D01*
X7780896Y8176959D01*
X7765610Y8181484D01*
X7755700Y8188110D01*
X7747847Y8196657D01*
X7749657Y8203415D01*
X7758533Y8211246D01*
X7773521Y8223383D01*
X7746396Y8227878D01*
X7709505Y8235630D01*
X7672592Y8246201D01*
X7639701Y8258226D01*
X7614877Y8270342D01*
X7609077Y8274178D01*
X7584005Y8296103D01*
X7563779Y8322507D01*
X7545289Y8357569D01*
X7542533Y8363700D01*
X7533464Y8385269D01*
X7529756Y8399182D01*
X7530928Y8410040D01*
X7536417Y8422277D01*
X7552623Y8441242D01*
X7576056Y8454687D01*
X7601310Y8460046D01*
X7613327Y8458795D01*
G37*
G36*
X7767948Y9240649D02*
G01*
X7803003Y9232986D01*
X7833004Y9219120D01*
X7862197Y9199006D01*
X7886591Y9175897D01*
X7902195Y9153049D01*
X7902834Y9151594D01*
X7907379Y9139030D01*
X7906242Y9130553D01*
X7897349Y9122263D01*
X7881993Y9112357D01*
X7853546Y9096332D01*
X7833273Y9089324D01*
X7819463Y9091047D01*
X7810790Y9100471D01*
X7806663Y9112921D01*
X7810579Y9125218D01*
X7817020Y9134731D01*
X7826503Y9148369D01*
X7831169Y9156673D01*
X7831270Y9157187D01*
X7825470Y9161076D01*
X7810370Y9168024D01*
X7792240Y9175349D01*
X7741066Y9188879D01*
X7692136Y9189129D01*
X7644763Y9176075D01*
X7630853Y9169611D01*
X7578048Y9139184D01*
X7524059Y9100680D01*
X7467191Y9052777D01*
X7405750Y8994157D01*
X7405618Y8994025D01*
X7373549Y8962892D01*
X7339918Y8931961D01*
X7307812Y8903960D01*
X7280319Y8881618D01*
X7268609Y8872959D01*
X7204579Y8822767D01*
X7153181Y8770585D01*
X7113512Y8715494D01*
X7112655Y8714059D01*
X7081350Y8670421D01*
X7045935Y8637046D01*
X7007841Y8614950D01*
X6968500Y8605151D01*
X6958782Y8604742D01*
X6942617Y8605841D01*
X6936464Y8610679D01*
X6936503Y8619494D01*
X6944449Y8632841D01*
X6964207Y8649391D01*
X6978136Y8658524D01*
X7000031Y8673591D01*
X7018417Y8690691D01*
X7036636Y8713380D01*
X7054510Y8739749D01*
X7071441Y8767537D01*
X7086045Y8794540D01*
X7096161Y8816621D01*
X7098879Y8824596D01*
X7105158Y8846350D01*
X7111298Y8865029D01*
X7112459Y8868123D01*
X7124526Y8882771D01*
X7145868Y8894749D01*
X7172202Y8902072D01*
X7188591Y8903406D01*
X7217123Y8906223D01*
X7241336Y8915941D01*
X7264471Y8934463D01*
X7288476Y8962040D01*
X7327244Y9007133D01*
X7372342Y9052532D01*
X7421580Y9096548D01*
X7472773Y9137490D01*
X7523732Y9173671D01*
X7572271Y9203399D01*
X7616201Y9224986D01*
X7639918Y9233469D01*
X7679763Y9241173D01*
X7724394Y9243561D01*
X7767948Y9240649D01*
G37*
G36*
X6513263Y8621728D02*
G01*
X6561726Y8605937D01*
X6575524Y8600477D01*
X6601218Y8590150D01*
X6621311Y8582960D01*
X6639280Y8578339D01*
X6658599Y8575719D01*
X6682744Y8574532D01*
X6715192Y8574211D01*
X6736378Y8574197D01*
X6779159Y8573773D01*
X6809793Y8572420D01*
X6829684Y8570024D01*
X6840237Y8566465D01*
X6841532Y8565430D01*
X6846646Y8556932D01*
X6840192Y8550131D01*
X6817052Y8539510D01*
X6784138Y8530147D01*
X6745251Y8522922D01*
X6704493Y8518731D01*
X6678745Y8517664D01*
X6656694Y8518311D01*
X6635192Y8521329D01*
X6611089Y8527370D01*
X6581236Y8537090D01*
X6542486Y8551144D01*
X6534797Y8554007D01*
X6498851Y8562508D01*
X6455884Y8565150D01*
X6411078Y8562027D01*
X6369614Y8553234D01*
X6362389Y8550877D01*
X6297846Y8522307D01*
X6233402Y8482368D01*
X6171774Y8433014D01*
X6115676Y8376198D01*
X6109292Y8368792D01*
X6091177Y8346722D01*
X6080393Y8330671D01*
X6075069Y8316678D01*
X6073334Y8300781D01*
X6073226Y8292429D01*
X6075373Y8266759D01*
X6082628Y8249836D01*
X6086802Y8244988D01*
X6095820Y8237172D01*
X6105384Y8233132D01*
X6118164Y8233076D01*
X6136828Y8237211D01*
X6164043Y8245746D01*
X6184183Y8252584D01*
X6233967Y8266812D01*
X6276857Y8272024D01*
X6316285Y8268018D01*
X6355682Y8254590D01*
X6382591Y8240888D01*
X6429586Y8214443D01*
X6511040Y8214851D01*
X6549568Y8215634D01*
X6589363Y8217427D01*
X6624980Y8219938D01*
X6645099Y8222043D01*
X6671423Y8225279D01*
X6687068Y8226288D01*
X6694811Y8224625D01*
X6697431Y8219846D01*
X6697705Y8213635D01*
X6693539Y8196581D01*
X6680668Y8182443D01*
X6658528Y8171151D01*
X6626559Y8162636D01*
X6584197Y8156830D01*
X6530881Y8153663D01*
X6466048Y8153066D01*
X6389137Y8154969D01*
X6299584Y8159305D01*
X6270073Y8161076D01*
X6223310Y8164210D01*
X6179679Y8167545D01*
X6141479Y8170873D01*
X6111009Y8173986D01*
X6090569Y8176676D01*
X6084559Y8177866D01*
X6063232Y8186927D01*
X6040872Y8201448D01*
X6034028Y8207197D01*
X6020348Y8220960D01*
X6012583Y8233838D01*
X6008655Y8250852D01*
X6006724Y8273213D01*
X6006187Y8299598D01*
X6009142Y8322212D01*
X6016848Y8344018D01*
X6030562Y8367976D01*
X6051544Y8397048D01*
X6068546Y8418678D01*
X6116596Y8471463D01*
X6171265Y8517111D01*
X6235259Y8557722D01*
X6273467Y8577718D01*
X6330500Y8603625D01*
X6380173Y8620766D01*
X6425309Y8629355D01*
X6468732Y8629605D01*
X6513263Y8621728D01*
G37*
G36*
X8503114Y5863328D02*
G01*
X8503263Y5861953D01*
X8499486Y5850645D01*
X8488937Y5830137D01*
X8472790Y5802236D01*
X8452218Y5768749D01*
X8428394Y5731484D01*
X8402491Y5692248D01*
X8375685Y5652849D01*
X8349146Y5615093D01*
X8324050Y5580788D01*
X8303077Y5553620D01*
X8264583Y5507173D01*
X8217172Y5452802D01*
X8161971Y5391718D01*
X8100106Y5325131D01*
X8032704Y5254252D01*
X7960892Y5180290D01*
X7885796Y5104457D01*
X7873418Y5092098D01*
X7825506Y5044268D01*
X7786433Y5005051D01*
X7755376Y4973522D01*
X7731511Y4948760D01*
X7714014Y4929842D01*
X7702062Y4915843D01*
X7694830Y4905843D01*
X7691494Y4898917D01*
X7691232Y4894143D01*
X7693218Y4890598D01*
X7693382Y4890413D01*
X7700331Y4877580D01*
X7700363Y4869397D01*
X7691972Y4862694D01*
X7672019Y4853560D01*
X7642204Y4842474D01*
X7604227Y4829912D01*
X7559786Y4816353D01*
X7510581Y4802275D01*
X7458310Y4788155D01*
X7404675Y4774472D01*
X7351372Y4761704D01*
X7300102Y4750327D01*
X7252564Y4740821D01*
X7227154Y4736316D01*
X7129331Y4721850D01*
X7018345Y4708916D01*
X6894525Y4697534D01*
X6758199Y4687728D01*
X6609698Y4679516D01*
X6449348Y4672921D01*
X6277480Y4667964D01*
X6117347Y4664978D01*
X6057700Y4664321D01*
X6002359Y4664084D01*
X5952976Y4664248D01*
X5911205Y4664795D01*
X5878699Y4665708D01*
X5857111Y4666968D01*
X5850044Y4667892D01*
X5827554Y4674281D01*
X5808170Y4682431D01*
X5804227Y4684733D01*
X5792690Y4695794D01*
X5788246Y4706991D01*
X5791884Y4714348D01*
X5796623Y4715349D01*
X5806056Y4715763D01*
X5826483Y4716890D01*
X5855347Y4718582D01*
X5890094Y4720689D01*
X5910319Y4721943D01*
X5942663Y4723818D01*
X5986090Y4726119D01*
X6038113Y4728725D01*
X6096252Y4731518D01*
X6158020Y4734375D01*
X6220937Y4737179D01*
X6263285Y4739001D01*
X6412367Y4745859D01*
X6548930Y4753307D01*
X6674020Y4761431D01*
X6788683Y4770312D01*
X6893966Y4780035D01*
X6990915Y4790684D01*
X7080578Y4802342D01*
X7111762Y4806875D01*
X7131181Y4809850D01*
X7150535Y4813000D01*
X7171252Y4816608D01*
X7194757Y4820956D01*
X7222476Y4826327D01*
X7255838Y4833005D01*
X7296267Y4841272D01*
X7345191Y4851411D01*
X7404036Y4863705D01*
X7474229Y4878437D01*
X7502061Y4884289D01*
X7631029Y4911415D01*
X7768984Y5052640D01*
X7847694Y5133522D01*
X7917716Y5206206D01*
X7980131Y5271925D01*
X8036018Y5331910D01*
X8086457Y5387392D01*
X8132527Y5439604D01*
X8175307Y5489776D01*
X8215879Y5539142D01*
X8255321Y5588931D01*
X8294712Y5640377D01*
X8335133Y5694711D01*
X8352027Y5717797D01*
X8379922Y5755597D01*
X8405947Y5789971D01*
X8428821Y5819296D01*
X8447260Y5841947D01*
X8459982Y5856301D01*
X8464773Y5860528D01*
X8482083Y5867423D01*
X8496237Y5868407D01*
X8503114Y5863328D01*
G37*
G36*
X5943432Y7560299D02*
G01*
X5944258Y7546081D01*
X5944258Y7545969D01*
X5943080Y7535448D01*
X5937991Y7526558D01*
X5926659Y7517075D01*
X5906749Y7504774D01*
X5892644Y7496757D01*
X5808491Y7445505D01*
X5727311Y7387590D01*
X5647652Y7321736D01*
X5568059Y7246662D01*
X5487077Y7161092D01*
X5411840Y7074090D01*
X5358759Y7009982D01*
X5313440Y6954188D01*
X5274584Y6904913D01*
X5240894Y6860362D01*
X5211072Y6818738D01*
X5183820Y6778244D01*
X5157842Y6737087D01*
X5131839Y6693468D01*
X5112658Y6660034D01*
X5091968Y6623910D01*
X5069970Y6586163D01*
X5049326Y6551324D01*
X5033026Y6524458D01*
X5011466Y6485814D01*
X4988273Y6437728D01*
X4965027Y6383947D01*
X4943307Y6328221D01*
X4924693Y6274296D01*
X4917099Y6249371D01*
X4899071Y6171766D01*
X4889107Y6090394D01*
X4886850Y6001919D01*
X4887674Y5972183D01*
X4891257Y5915104D01*
X4897681Y5867951D01*
X4907857Y5827212D01*
X4922696Y5789374D01*
X4943110Y5750925D01*
X4946633Y5745014D01*
X4963567Y5714527D01*
X4971568Y5692923D01*
X4970510Y5678752D01*
X4960266Y5670567D01*
X4940709Y5666917D01*
X4939794Y5666849D01*
X4915257Y5663513D01*
X4900791Y5655873D01*
X4892951Y5640925D01*
X4889302Y5622796D01*
X4884784Y5606156D01*
X4875102Y5586093D01*
X4859030Y5560470D01*
X4835341Y5527151D01*
X4831191Y5521539D01*
X4799757Y5481915D01*
X4772180Y5452686D01*
X4748978Y5434215D01*
X4730671Y5426865D01*
X4717779Y5431001D01*
X4712996Y5438782D01*
X4709164Y5457744D01*
X4713286Y5477556D01*
X4726334Y5501109D01*
X4740371Y5520191D01*
X4759332Y5546557D01*
X4777487Y5575360D01*
X4789583Y5597741D01*
X4807299Y5635074D01*
X4808150Y5876041D01*
X4808441Y5941130D01*
X4808865Y5994399D01*
X4809511Y6037601D01*
X4810466Y6072491D01*
X4811818Y6100825D01*
X4813654Y6124356D01*
X4816062Y6144840D01*
X4819131Y6164031D01*
X4822946Y6183683D01*
X4823698Y6187307D01*
X4837907Y6246591D01*
X4855862Y6308130D01*
X4876127Y6367595D01*
X4897266Y6420654D01*
X4910536Y6449143D01*
X4924105Y6474671D01*
X4943562Y6509279D01*
X4967485Y6550608D01*
X4994455Y6596298D01*
X5023048Y6643989D01*
X5051845Y6691322D01*
X5079424Y6735938D01*
X5104363Y6775476D01*
X5125242Y6807577D01*
X5135686Y6822941D01*
X5153074Y6846910D01*
X5177589Y6879412D01*
X5207704Y6918520D01*
X5241891Y6962308D01*
X5278624Y7008850D01*
X5316375Y7056218D01*
X5353616Y7102487D01*
X5388821Y7145730D01*
X5420462Y7184019D01*
X5444495Y7212495D01*
X5485612Y7257340D01*
X5533422Y7304211D01*
X5585446Y7351054D01*
X5639206Y7395818D01*
X5692222Y7436448D01*
X5742016Y7470893D01*
X5786110Y7497098D01*
X5791532Y7499913D01*
X5811912Y7509880D01*
X5837550Y7521851D01*
X5865501Y7534524D01*
X5892821Y7546598D01*
X5916566Y7556770D01*
X5933792Y7563739D01*
X5941465Y7566207D01*
X5943432Y7560299D01*
G37*
G36*
X7489243Y8691683D02*
G01*
X7527727Y8683964D01*
X7566008Y8669080D01*
X7571755Y8666126D01*
X7604030Y8646247D01*
X7636161Y8621736D01*
X7666410Y8594492D01*
X7693040Y8566411D01*
X7714314Y8539391D01*
X7728494Y8515327D01*
X7733843Y8496118D01*
X7733058Y8490016D01*
X7725677Y8478285D01*
X7713717Y8476915D01*
X7696454Y8486228D01*
X7673162Y8506544D01*
X7656006Y8524135D01*
X7616613Y8562857D01*
X7578138Y8594511D01*
X7541782Y8618575D01*
X7508742Y8634526D01*
X7480218Y8641843D01*
X7457407Y8640003D01*
X7441509Y8628485D01*
X7436787Y8619634D01*
X7431602Y8595240D01*
X7430208Y8563050D01*
X7432436Y8528254D01*
X7438120Y8496043D01*
X7441091Y8485745D01*
X7456577Y8444691D01*
X7477113Y8398766D01*
X7501344Y8350308D01*
X7527916Y8301653D01*
X7555472Y8255139D01*
X7582659Y8213103D01*
X7608120Y8177882D01*
X7630501Y8151813D01*
X7639599Y8143363D01*
X7679216Y8116770D01*
X7727223Y8094476D01*
X7775753Y8079493D01*
X7799446Y8074557D01*
X7815796Y8073606D01*
X7830528Y8076943D01*
X7845619Y8083183D01*
X7871350Y8092543D01*
X7898657Y8099407D01*
X7904813Y8100414D01*
X7923069Y8102505D01*
X7930917Y8101077D01*
X7931375Y8094639D01*
X7929499Y8088202D01*
X7913123Y8057692D01*
X7886952Y8033840D01*
X7853962Y8018697D01*
X7822121Y8014203D01*
X7798337Y8011330D01*
X7773923Y8004322D01*
X7771659Y8003392D01*
X7748302Y7996878D01*
X7715609Y7992330D01*
X7677705Y7989989D01*
X7638721Y7990097D01*
X7602783Y7992895D01*
X7599555Y7993327D01*
X7560135Y8002442D01*
X7523434Y8017465D01*
X7493994Y8036368D01*
X7485640Y8044164D01*
X7470135Y8065402D01*
X7460363Y8091331D01*
X7455748Y8124554D01*
X7455715Y8167675D01*
X7456190Y8177408D01*
X7456896Y8222532D01*
X7452582Y8259755D01*
X7441999Y8294220D01*
X7423896Y8331067D01*
X7415175Y8346110D01*
X7397176Y8373548D01*
X7382727Y8388897D01*
X7370802Y8392850D01*
X7360374Y8386100D01*
X7358824Y8384138D01*
X7346035Y8361528D01*
X7342989Y8339402D01*
X7350158Y8315584D01*
X7368010Y8287899D01*
X7383698Y8268922D01*
X7398905Y8251418D01*
X7408795Y8237941D01*
X7413846Y8225251D01*
X7414539Y8210107D01*
X7411351Y8189270D01*
X7404763Y8159499D01*
X7401787Y8146565D01*
X7395568Y8123181D01*
X7389322Y8110188D01*
X7381295Y8104514D01*
X7377286Y8103618D01*
X7357049Y8106765D01*
X7335819Y8119851D01*
X7318242Y8139660D01*
X7312000Y8151077D01*
X7311059Y8161871D01*
X7315482Y8177479D01*
X7318785Y8186335D01*
X7324795Y8205699D01*
X7325185Y8221815D01*
X7318809Y8237991D01*
X7304517Y8257532D01*
X7287281Y8277079D01*
X7271009Y8297121D01*
X7263094Y8314063D01*
X7261094Y8332125D01*
X7265327Y8357956D01*
X7276472Y8387842D01*
X7292199Y8417374D01*
X7310174Y8442142D01*
X7327275Y8457281D01*
X7338473Y8464088D01*
X7345424Y8470480D01*
X7349046Y8479594D01*
X7350260Y8494566D01*
X7349985Y8518530D01*
X7349610Y8533470D01*
X7353727Y8582231D01*
X7368157Y8624409D01*
X7392180Y8658588D01*
X7425076Y8683353D01*
X7426073Y8683874D01*
X7454159Y8691800D01*
X7489243Y8691683D01*
G37*
G36*
X7353483Y6313098D02*
G01*
X7360598Y6279134D01*
X7356119Y6241348D01*
X7340493Y6202667D01*
X7327233Y6182884D01*
X7305409Y6155479D01*
X7276464Y6122007D01*
X7241841Y6084022D01*
X7202981Y6043076D01*
X7161329Y6000725D01*
X7118325Y5958522D01*
X7081389Y5923556D01*
X7051256Y5895011D01*
X7025013Y5869112D01*
X7004150Y5847413D01*
X6990155Y5831472D01*
X6984516Y5822843D01*
X6984483Y5822271D01*
X6991667Y5814491D01*
X7009138Y5804367D01*
X7034070Y5793067D01*
X7063639Y5781759D01*
X7095018Y5771612D01*
X7125382Y5763795D01*
X7126457Y5763564D01*
X7146708Y5759785D01*
X7166088Y5757734D01*
X7187857Y5757415D01*
X7215272Y5758831D01*
X7251592Y5761985D01*
X7269304Y5763731D01*
X7307163Y5767796D01*
X7342822Y5772091D01*
X7372810Y5776166D01*
X7393654Y5779572D01*
X7397153Y5780294D01*
X7450035Y5790531D01*
X7508981Y5798789D01*
X7577164Y5805485D01*
X7604276Y5807571D01*
X7646274Y5811168D01*
X7677804Y5815355D01*
X7701974Y5820694D01*
X7721891Y5827748D01*
X7726059Y5829607D01*
X7743238Y5836689D01*
X7760454Y5841302D01*
X7781296Y5843953D01*
X7809355Y5845148D01*
X7838058Y5845394D01*
X7874248Y5845064D01*
X7901815Y5843448D01*
X7925699Y5839771D01*
X7950842Y5833260D01*
X7982185Y5823140D01*
X7983996Y5822528D01*
X8021247Y5809521D01*
X8046813Y5799285D01*
X8062042Y5790795D01*
X8068283Y5783025D01*
X8066885Y5774951D01*
X8059195Y5765546D01*
X8059090Y5765440D01*
X8053681Y5761911D01*
X8045124Y5760630D01*
X8031243Y5761875D01*
X8009862Y5765926D01*
X7978805Y5773062D01*
X7955576Y5778706D01*
X7906300Y5790275D01*
X7867414Y5797840D01*
X7836346Y5801432D01*
X7810526Y5801086D01*
X7787382Y5796834D01*
X7764342Y5788710D01*
X7748241Y5781386D01*
X7726101Y5771460D01*
X7705653Y5764550D01*
X7682887Y5759771D01*
X7653794Y5756235D01*
X7622965Y5753683D01*
X7590824Y5750752D01*
X7548899Y5746122D01*
X7500814Y5740238D01*
X7450191Y5733544D01*
X7400652Y5726486D01*
X7396850Y5725920D01*
X7349881Y5719019D01*
X7311077Y5713769D01*
X7277431Y5710008D01*
X7245936Y5707575D01*
X7213584Y5706309D01*
X7177367Y5706048D01*
X7134280Y5706631D01*
X7081313Y5707896D01*
X7067641Y5708261D01*
X7050699Y5707011D01*
X7033737Y5701172D01*
X7012868Y5689079D01*
X6996243Y5677697D01*
X6964451Y5654031D01*
X6942445Y5635045D01*
X6930918Y5621408D01*
X6930267Y5614065D01*
X6938349Y5612631D01*
X6958024Y5611571D01*
X6987313Y5610865D01*
X7024241Y5610496D01*
X7066830Y5610443D01*
X7113103Y5610688D01*
X7161082Y5611213D01*
X7208790Y5612000D01*
X7254250Y5613028D01*
X7295484Y5614280D01*
X7330516Y5615737D01*
X7357368Y5617379D01*
X7366432Y5618193D01*
X7424560Y5622111D01*
X7475130Y5620342D01*
X7523049Y5612576D01*
X7545390Y5606951D01*
X7570757Y5601372D01*
X7585500Y5601825D01*
X7589011Y5603916D01*
X7591468Y5613963D01*
X7582183Y5625644D01*
X7562696Y5637798D01*
X7534549Y5649261D01*
X7524734Y5652366D01*
X7496374Y5662482D01*
X7481295Y5672162D01*
X7479225Y5681756D01*
X7489894Y5691618D01*
X7493017Y5693379D01*
X7511578Y5697843D01*
X7538790Y5697697D01*
X7570702Y5693376D01*
X7603362Y5685315D01*
X7620398Y5679372D01*
X7656078Y5669047D01*
X7693260Y5666528D01*
X7735272Y5671883D01*
X7776967Y5682588D01*
X7820537Y5693921D01*
X7855328Y5698705D01*
X7884366Y5697097D01*
X7910377Y5689376D01*
X7935072Y5680885D01*
X7949532Y5680227D01*
X7953451Y5685826D01*
X7946942Y5696032D01*
X7928308Y5707307D01*
X7898884Y5718971D01*
X7872684Y5726975D01*
X7835091Y5738690D01*
X7810199Y5749435D01*
X7798346Y5759052D01*
X7797331Y5762449D01*
X7803448Y5770876D01*
X7820041Y5775980D01*
X7844471Y5777950D01*
X7874101Y5776971D01*
X7906292Y5773233D01*
X7938405Y5766923D01*
X7967803Y5758229D01*
X7989257Y5748795D01*
X8013710Y5732939D01*
X8035773Y5714170D01*
X8052615Y5695356D01*
X8061405Y5679361D01*
X8062056Y5675118D01*
X8058237Y5655018D01*
X8045762Y5643374D01*
X8023100Y5639076D01*
X8012448Y5639103D01*
X7990289Y5639011D01*
X7959598Y5637708D01*
X7922893Y5635421D01*
X7882688Y5632379D01*
X7841502Y5628810D01*
X7801851Y5624943D01*
X7766250Y5621006D01*
X7737217Y5617228D01*
X7717268Y5613837D01*
X7709653Y5611618D01*
X7697371Y5600270D01*
X7686703Y5582958D01*
X7686106Y5581578D01*
X7670342Y5560535D01*
X7644839Y5546071D01*
X7611962Y5538617D01*
X7574076Y5538603D01*
X7533544Y5546459D01*
X7519030Y5551198D01*
X7478630Y5561828D01*
X7431306Y5568053D01*
X7383125Y5569410D01*
X7340153Y5565439D01*
X7337784Y5565004D01*
X7316772Y5562205D01*
X7285701Y5559640D01*
X7246744Y5557351D01*
X7202072Y5555383D01*
X7153859Y5553779D01*
X7104278Y5552584D01*
X7055502Y5551843D01*
X7009703Y5551598D01*
X6969054Y5551894D01*
X6935728Y5552775D01*
X6911897Y5554285D01*
X6900586Y5556142D01*
X6881913Y5565699D01*
X6860834Y5581307D01*
X6850327Y5591059D01*
X6834706Y5605964D01*
X6822365Y5615786D01*
X6817515Y5618104D01*
X6809612Y5613776D01*
X6795205Y5602460D01*
X6778457Y5587559D01*
X6755695Y5568505D01*
X6737546Y5558964D01*
X6725147Y5557014D01*
X6710781Y5559851D01*
X6704914Y5569039D01*
X6707664Y5585595D01*
X6719153Y5610534D01*
X6734570Y5636967D01*
X6754169Y5667855D01*
X6774105Y5697127D01*
X6795501Y5726066D01*
X6819481Y5755956D01*
X6847169Y5788080D01*
X6879690Y5823723D01*
X6918166Y5864168D01*
X6963723Y5910699D01*
X7017484Y5964599D01*
X7047908Y5994828D01*
X7103996Y6050674D01*
X7151062Y6098151D01*
X7189941Y6138230D01*
X7221465Y6171876D01*
X7246469Y6200060D01*
X7265786Y6223749D01*
X7280250Y6243911D01*
X7290696Y6261515D01*
X7297955Y6277529D01*
X7302071Y6289993D01*
X7311444Y6309895D01*
X7325010Y6325564D01*
X7325824Y6326173D01*
X7342873Y6338492D01*
X7353483Y6313098D01*
G37*
G36*
X6508463Y5583367D02*
G01*
X6513187Y5569621D01*
X6506842Y5548836D01*
X6491036Y5523564D01*
X6449341Y5474824D01*
X6399448Y5431680D01*
X6339935Y5393170D01*
X6269383Y5358333D01*
X6214727Y5336380D01*
X6187360Y5325798D01*
X6164654Y5316259D01*
X6149760Y5309127D01*
X6145946Y5306634D01*
X6141694Y5295474D01*
X6150009Y5282666D01*
X6171181Y5267907D01*
X6193617Y5256340D01*
X6239528Y5234593D01*
X6417396Y5236296D01*
X6481603Y5237193D01*
X6533597Y5238577D01*
X6574734Y5240522D01*
X6606370Y5243099D01*
X6629861Y5246380D01*
X6638000Y5248074D01*
X6677558Y5255727D01*
X6710539Y5257583D01*
X6742644Y5253636D01*
X6765801Y5247939D01*
X6793321Y5241372D01*
X6826052Y5235170D01*
X6849452Y5231677D01*
X6903788Y5219163D01*
X6950502Y5196590D01*
X6988303Y5164644D01*
X6997952Y5153018D01*
X7021457Y5116493D01*
X7032522Y5084946D01*
X7031225Y5058104D01*
X7027725Y5049496D01*
X7018351Y5035579D01*
X7004712Y5024416D01*
X6983899Y5014254D01*
X6953003Y5003341D01*
X6948935Y5002042D01*
X6923057Y4991461D01*
X6910597Y4980442D01*
X6911605Y4969097D01*
X6926134Y4957538D01*
X6928069Y4956511D01*
X6944689Y4942522D01*
X6948520Y4924162D01*
X6941827Y4904938D01*
X6932932Y4894351D01*
X6921019Y4893439D01*
X6903594Y4902404D01*
X6894552Y4908778D01*
X6881429Y4917276D01*
X6867788Y4922397D01*
X6849654Y4924979D01*
X6823054Y4925864D01*
X6813476Y4925922D01*
X6775046Y4927468D01*
X6742956Y4932613D01*
X6710193Y4942513D01*
X6707887Y4943343D01*
X6674585Y4955151D01*
X6651091Y4962128D01*
X6634520Y4964257D01*
X6621984Y4961517D01*
X6610597Y4953891D01*
X6598746Y4942633D01*
X6562243Y4913704D01*
X6522227Y4897332D01*
X6477101Y4892541D01*
X6451865Y4893639D01*
X6429789Y4896013D01*
X6419361Y4898150D01*
X6379329Y4915429D01*
X6336408Y4944084D01*
X6317587Y4959365D01*
X6295414Y4977736D01*
X6274091Y4994625D01*
X6259203Y5005678D01*
X6234107Y5018569D01*
X6197182Y5031247D01*
X6150172Y5043375D01*
X6094821Y5054620D01*
X6032875Y5064646D01*
X5966078Y5073119D01*
X5896176Y5079703D01*
X5860530Y5082187D01*
X5792773Y5087177D01*
X5737080Y5093371D01*
X5691958Y5101268D01*
X5655913Y5111364D01*
X5627451Y5124158D01*
X5605079Y5140147D01*
X5587303Y5159829D01*
X5576324Y5176897D01*
X5564098Y5194273D01*
X5551509Y5205882D01*
X5547120Y5207944D01*
X5534669Y5208025D01*
X5512889Y5205249D01*
X5485593Y5200162D01*
X5472505Y5197260D01*
X5434497Y5189509D01*
X5407508Y5186833D01*
X5389945Y5189282D01*
X5380215Y5196905D01*
X5378575Y5200235D01*
X5380492Y5207000D01*
X5391995Y5215352D01*
X5414489Y5226185D01*
X5428735Y5232174D01*
X5453068Y5242556D01*
X5471698Y5251328D01*
X5481730Y5257092D01*
X5482686Y5258233D01*
X5477762Y5264284D01*
X5465152Y5275425D01*
X5454904Y5283585D01*
X5423133Y5312461D01*
X5402724Y5341114D01*
X5394560Y5368257D01*
X5394445Y5371668D01*
X5396300Y5386838D01*
X5400828Y5394018D01*
X5401451Y5394106D01*
X5417032Y5390452D01*
X5438164Y5381251D01*
X5459571Y5369144D01*
X5475898Y5356845D01*
X5494864Y5342119D01*
X5516727Y5332842D01*
X5544707Y5328206D01*
X5582020Y5327404D01*
X5592033Y5327670D01*
X5627312Y5327767D01*
X5650330Y5325058D01*
X5662184Y5319143D01*
X5663973Y5309623D01*
X5661021Y5302626D01*
X5650241Y5290913D01*
X5638257Y5282909D01*
X5627522Y5275567D01*
X5623697Y5266256D01*
X5627149Y5252502D01*
X5638243Y5231829D01*
X5648153Y5215960D01*
X5662653Y5194231D01*
X5675865Y5178225D01*
X5690246Y5166923D01*
X5708249Y5159302D01*
X5732329Y5154343D01*
X5764941Y5151024D01*
X5808541Y5148323D01*
X5811120Y5148183D01*
X5864003Y5144417D01*
X5923035Y5138712D01*
X5985033Y5131501D01*
X6046813Y5123215D01*
X6105191Y5114288D01*
X6156983Y5105150D01*
X6199004Y5096236D01*
X6205588Y5094611D01*
X6270123Y5074149D01*
X6325312Y5047323D01*
X6374586Y5012369D01*
X6388004Y5000691D01*
X6426928Y4970135D01*
X6462116Y4952473D01*
X6493785Y4947611D01*
X6506823Y4949543D01*
X6530102Y4959174D01*
X6540549Y4973196D01*
X6538182Y4991668D01*
X6523762Y5013766D01*
X6500072Y5035420D01*
X6467667Y5053451D01*
X6424267Y5069092D01*
X6418443Y5070800D01*
X6392489Y5080197D01*
X6378277Y5091132D01*
X6373983Y5105721D01*
X6376078Y5119947D01*
X6382845Y5132399D01*
X6391344Y5133345D01*
X6405066Y5130207D01*
X6424955Y5126550D01*
X6429586Y5125795D01*
X6473228Y5116831D01*
X6512002Y5104981D01*
X6542429Y5091409D01*
X6553464Y5084311D01*
X6565885Y5073794D01*
X6572490Y5063241D01*
X6575097Y5047941D01*
X6575524Y5027081D01*
X6575524Y4986562D01*
X6603784Y5000979D01*
X6635146Y5010845D01*
X6672707Y5013482D01*
X6711282Y5009058D01*
X6745687Y4997741D01*
X6748614Y4996281D01*
X6778632Y4982352D01*
X6799286Y4976801D01*
X6811759Y4979457D01*
X6816382Y4986490D01*
X6817328Y5007256D01*
X6810718Y5033131D01*
X6798159Y5059207D01*
X6787830Y5073631D01*
X6766945Y5091570D01*
X6739799Y5106061D01*
X6735071Y5107847D01*
X6710575Y5118776D01*
X6699213Y5129049D01*
X6700541Y5137958D01*
X6714119Y5144793D01*
X6739503Y5148846D01*
X6761163Y5149652D01*
X6795921Y5145814D01*
X6825431Y5132960D01*
X6852768Y5109407D01*
X6868189Y5091026D01*
X6890392Y5063810D01*
X6907423Y5047070D01*
X6920981Y5039578D01*
X6932766Y5040103D01*
X6936328Y5041702D01*
X6946671Y5052894D01*
X6947003Y5070647D01*
X6937199Y5095796D01*
X6925041Y5116968D01*
X6900942Y5148191D01*
X6874183Y5167366D01*
X6842221Y5176024D01*
X6825377Y5176896D01*
X6801375Y5178725D01*
X6772635Y5183401D01*
X6756496Y5187078D01*
X6709116Y5195575D01*
X6665551Y5195975D01*
X6629107Y5188293D01*
X6624518Y5186470D01*
X6614045Y5183053D01*
X6599178Y5180253D01*
X6578355Y5177962D01*
X6550017Y5176075D01*
X6512603Y5174482D01*
X6464552Y5173079D01*
X6411982Y5171911D01*
X6224682Y5168141D01*
X6184590Y5186474D01*
X6158413Y5199497D01*
X6127358Y5216465D01*
X6097878Y5233844D01*
X6096188Y5234893D01*
X6068825Y5251440D01*
X6048611Y5261403D01*
X6031360Y5265670D01*
X6012887Y5265129D01*
X5989007Y5260670D01*
X5982041Y5259123D01*
X5959311Y5254455D01*
X5945938Y5253452D01*
X5938150Y5256310D01*
X5933295Y5261664D01*
X5928346Y5276014D01*
X5934486Y5290938D01*
X5952148Y5306711D01*
X5981763Y5323607D01*
X6023763Y5341901D01*
X6078580Y5361869D01*
X6103817Y5370264D01*
X6171634Y5393346D01*
X6228399Y5415158D01*
X6276408Y5436909D01*
X6317958Y5459808D01*
X6355345Y5485064D01*
X6390863Y5513886D01*
X6410529Y5531785D01*
X6438223Y5557347D01*
X6458428Y5574530D01*
X6473094Y5584708D01*
X6484173Y5589257D01*
X6492659Y5589679D01*
X6508463Y5583367D01*
G37*
G36*
X8104612Y7437833D02*
G01*
X8122146Y7427392D01*
X8142325Y7410626D01*
X8162504Y7389877D01*
X8180036Y7367491D01*
X8187630Y7355258D01*
X8207994Y7318452D01*
X8206448Y7174268D01*
X8205975Y7126544D01*
X8205824Y7090581D01*
X8206157Y7064563D01*
X8207133Y7046676D01*
X8208912Y7035107D01*
X8211655Y7028039D01*
X8215522Y7023659D01*
X8220024Y7020560D01*
X8231747Y7016400D01*
X8254261Y7011117D01*
X8284885Y7005244D01*
X8320934Y6999315D01*
X8343750Y6995993D01*
X8413552Y6984719D01*
X8471016Y6971724D01*
X8517327Y6956518D01*
X8553666Y6938610D01*
X8581216Y6917510D01*
X8601160Y6892727D01*
X8603883Y6888105D01*
X8615304Y6858155D01*
X8618730Y6832199D01*
X8620920Y6807170D01*
X8626349Y6778958D01*
X8629161Y6768639D01*
X8636085Y6729212D01*
X8630818Y6694734D01*
X8613121Y6663712D01*
X8612163Y6662537D01*
X8585465Y6637796D01*
X8551779Y6617766D01*
X8514728Y6603680D01*
X8477935Y6596772D01*
X8445022Y6598275D01*
X8433349Y6601663D01*
X8415330Y6615173D01*
X8407231Y6629450D01*
X8399923Y6643785D01*
X8388229Y6649246D01*
X8377181Y6649852D01*
X8356829Y6654320D01*
X8342279Y6668702D01*
X8332259Y6694461D01*
X8330042Y6704154D01*
X8325535Y6723289D01*
X8320017Y6731752D01*
X8310271Y6730557D01*
X8293081Y6720718D01*
X8287897Y6717440D01*
X8255709Y6701785D01*
X8226781Y6698522D01*
X8199048Y6707553D01*
X8190331Y6712861D01*
X8175743Y6724599D01*
X8168051Y6737972D01*
X8164234Y6758589D01*
X8163873Y6762013D01*
X8159090Y6785719D01*
X8151605Y6797843D01*
X8142837Y6797871D01*
X8134210Y6785285D01*
X8130405Y6774144D01*
X8125199Y6753908D01*
X8123793Y6739742D01*
X8126182Y6724684D01*
X8130377Y6708934D01*
X8139411Y6689530D01*
X8156383Y6664563D01*
X8178455Y6638010D01*
X8200358Y6613306D01*
X8218663Y6591020D01*
X8234986Y6568648D01*
X8250946Y6543683D01*
X8268159Y6513619D01*
X8288243Y6475949D01*
X8308802Y6436036D01*
X8329181Y6397537D01*
X8350747Y6359178D01*
X8371470Y6324424D01*
X8389316Y6296734D01*
X8396395Y6286794D01*
X8413513Y6263542D01*
X8423956Y6246912D01*
X8429293Y6232738D01*
X8431092Y6216856D01*
X8430925Y6195159D01*
X8427468Y6149409D01*
X8419852Y6104597D01*
X8408959Y6064391D01*
X8395668Y6032459D01*
X8389403Y6022140D01*
X8372154Y6002578D01*
X8349451Y5983027D01*
X8337285Y5974625D01*
X8316644Y5963248D01*
X8297076Y5956601D01*
X8273051Y5953208D01*
X8252647Y5952059D01*
X8223512Y5951646D01*
X8203463Y5953665D01*
X8188123Y5958818D01*
X8179145Y5963838D01*
X8163229Y5977739D01*
X8157719Y5994252D01*
X8162665Y6015254D01*
X8178118Y6042622D01*
X8181366Y6047423D01*
X8193735Y6067394D01*
X8199195Y6080777D01*
X8197939Y6085290D01*
X8188610Y6083140D01*
X8172076Y6074969D01*
X8154992Y6064521D01*
X8132739Y6051075D01*
X8111875Y6040593D01*
X8100402Y6036371D01*
X8074210Y6035474D01*
X8048417Y6043822D01*
X8026480Y6059144D01*
X8011859Y6079170D01*
X8007753Y6097195D01*
X8010789Y6110358D01*
X8018856Y6131436D01*
X8030391Y6156478D01*
X8034052Y6163705D01*
X8060351Y6214527D01*
X8032355Y6219161D01*
X8011442Y6223494D01*
X7994054Y6229949D01*
X7976463Y6240589D01*
X7954940Y6257479D01*
X7939875Y6270354D01*
X7916572Y6289737D01*
X7896936Y6302918D01*
X7877588Y6310781D01*
X7855150Y6314207D01*
X7826244Y6314080D01*
X7787491Y6311280D01*
X7784268Y6311003D01*
X7748733Y6307961D01*
X7714214Y6305072D01*
X7685253Y6302714D01*
X7669838Y6301514D01*
X7642380Y6296037D01*
X7619599Y6285211D01*
X7604661Y6271007D01*
X7600484Y6258369D01*
X7599669Y6253291D01*
X7595690Y6250558D01*
X7586245Y6250203D01*
X7569031Y6252259D01*
X7541748Y6256757D01*
X7526611Y6259404D01*
X7499986Y6263548D01*
X7478425Y6265900D01*
X7465436Y6266114D01*
X7463549Y6265612D01*
X7456444Y6257942D01*
X7445686Y6243019D01*
X7440691Y6235353D01*
X7425155Y6216668D01*
X7408221Y6205334D01*
X7392908Y6202700D01*
X7382650Y6209422D01*
X7377706Y6226475D01*
X7376991Y6252613D01*
X7380279Y6284099D01*
X7387347Y6317195D01*
X7389598Y6325019D01*
X7395885Y6348899D01*
X7403248Y6381820D01*
X7410760Y6419396D01*
X7417356Y6456399D01*
X7428726Y6515559D01*
X7441061Y6561554D01*
X7454492Y6594768D01*
X7469155Y6615587D01*
X7473985Y6619594D01*
X7491737Y6627603D01*
X7509106Y6628761D01*
X7521217Y6623051D01*
X7523188Y6619765D01*
X7523589Y6610017D01*
X7522302Y6589319D01*
X7519550Y6560160D01*
X7515558Y6525032D01*
X7512354Y6499794D01*
X7507659Y6461487D01*
X7504100Y6426917D01*
X7501901Y6398758D01*
X7501286Y6379678D01*
X7501812Y6373521D01*
X7505379Y6363970D01*
X7511685Y6356740D01*
X7522237Y6351690D01*
X7538542Y6348679D01*
X7562108Y6347565D01*
X7594441Y6348206D01*
X7637049Y6350462D01*
X7691439Y6354190D01*
X7700570Y6354857D01*
X7761440Y6359169D01*
X7810543Y6362121D01*
X7849632Y6363578D01*
X7880460Y6363405D01*
X7904781Y6361468D01*
X7924348Y6357633D01*
X7940914Y6351765D01*
X7956231Y6343730D01*
X7970997Y6334123D01*
X8008940Y6307990D01*
X8047785Y6316014D01*
X8091962Y6323114D01*
X8126820Y6323589D01*
X8155108Y6317026D01*
X8179576Y6303015D01*
X8189327Y6294854D01*
X8202433Y6277118D01*
X8202406Y6260501D01*
X8189683Y6245738D01*
X8164701Y6233562D01*
X8150297Y6229304D01*
X8125023Y6222733D01*
X8111090Y6218067D01*
X8106685Y6213846D01*
X8109995Y6208612D01*
X8117122Y6202602D01*
X8124584Y6196554D01*
X8128447Y6191261D01*
X8128125Y6183983D01*
X8123032Y6171977D01*
X8112583Y6152502D01*
X8102531Y6134341D01*
X8094848Y6119059D01*
X8091597Y6109757D01*
X8091761Y6108798D01*
X8098713Y6109824D01*
X8113588Y6114967D01*
X8120213Y6117639D01*
X8155759Y6125786D01*
X8178952Y6125512D01*
X8198508Y6124222D01*
X8208092Y6126084D01*
X8211163Y6132292D01*
X8211343Y6136671D01*
X8207643Y6151976D01*
X8198705Y6169931D01*
X8197812Y6171311D01*
X8188060Y6191107D01*
X8184362Y6209666D01*
X8187375Y6222635D01*
X8189737Y6224818D01*
X8199261Y6225419D01*
X8216240Y6222742D01*
X8221979Y6221383D01*
X8247794Y6209369D01*
X8266482Y6189536D01*
X8282551Y6163813D01*
X8289552Y6142258D01*
X8288450Y6119895D01*
X8283538Y6101600D01*
X8274644Y6069155D01*
X8271177Y6044918D01*
X8273284Y6030497D01*
X8276714Y6027381D01*
X8286347Y6029742D01*
X8300779Y6038806D01*
X8304828Y6042047D01*
X8317930Y6056226D01*
X8327465Y6075359D01*
X8335503Y6103660D01*
X8335840Y6105115D01*
X8344646Y6145023D01*
X8349570Y6175026D01*
X8350039Y6198387D01*
X8345479Y6218367D01*
X8335315Y6238229D01*
X8318975Y6261233D01*
X8305290Y6278757D01*
X8293806Y6295516D01*
X8277849Y6321912D01*
X8258875Y6355372D01*
X8238344Y6393322D01*
X8217714Y6433188D01*
X8217237Y6434134D01*
X8195234Y6477295D01*
X8177582Y6510531D01*
X8162784Y6536164D01*
X8149341Y6556523D01*
X8135757Y6573930D01*
X8120534Y6590712D01*
X8108621Y6602815D01*
X8086303Y6626695D01*
X8066461Y6650874D01*
X8052159Y6671497D01*
X8048295Y6678705D01*
X8039852Y6706653D01*
X8035552Y6740717D01*
X8035644Y6775174D01*
X8040380Y6804297D01*
X8042534Y6810621D01*
X8047158Y6824406D01*
X8054217Y6848099D01*
X8054272Y6848295D01*
X8216864Y6848295D01*
X8240711Y6823740D01*
X8255666Y6809881D01*
X8269957Y6801853D01*
X8287792Y6798418D01*
X8313374Y6798344D01*
X8325312Y6798903D01*
X8349049Y6798164D01*
X8367715Y6791879D01*
X8383201Y6778230D01*
X8397399Y6755399D01*
X8412201Y6721566D01*
X8416019Y6711698D01*
X8421870Y6700765D01*
X8426916Y6701794D01*
X8431506Y6715317D01*
X8435987Y6741869D01*
X8436075Y6742513D01*
X8440403Y6764481D01*
X8446092Y6780819D01*
X8450211Y6786524D01*
X8469477Y6791972D01*
X8488371Y6786213D01*
X8504250Y6771428D01*
X8514469Y6749795D01*
X8516839Y6731614D01*
X8518806Y6711825D01*
X8524884Y6704278D01*
X8526144Y6704154D01*
X8532615Y6710369D01*
X8537527Y6726834D01*
X8540581Y6750285D01*
X8541478Y6777455D01*
X8539918Y6805079D01*
X8537095Y6823459D01*
X8528079Y6854469D01*
X8514216Y6877603D01*
X8493008Y6895336D01*
X8461955Y6910142D01*
X8442623Y6917001D01*
X8395188Y6930218D01*
X8355984Y6934872D01*
X8322321Y6930464D01*
X8291509Y6916499D01*
X8260859Y6892478D01*
X8249342Y6881268D01*
X8216864Y6848295D01*
X8054272Y6848295D01*
X8062776Y6878457D01*
X8071900Y6912237D01*
X8072517Y6914577D01*
X8083014Y6952706D01*
X8094515Y6991704D01*
X8105540Y7026696D01*
X8113686Y7050333D01*
X8120695Y7069979D01*
X8125674Y7086872D01*
X8128940Y7103905D01*
X8130806Y7123974D01*
X8131586Y7149973D01*
X8131593Y7184797D01*
X8131337Y7213068D01*
X8130173Y7324894D01*
X8106296Y7373860D01*
X8093141Y7401432D01*
X8085707Y7419373D01*
X8083480Y7430111D01*
X8085947Y7436074D01*
X8092372Y7439605D01*
X8104612Y7437833D01*
G37*
G36*
X4891994Y5465427D02*
G01*
X4901847Y5460128D01*
X4904348Y5451616D01*
X4898880Y5438281D01*
X4884830Y5418511D01*
X4864936Y5394581D01*
X4834476Y5360850D01*
X4808581Y5336473D01*
X4784508Y5319361D01*
X4759516Y5307425D01*
X4743457Y5302033D01*
X4729722Y5297247D01*
X4716658Y5290607D01*
X4702415Y5280599D01*
X4685138Y5265710D01*
X4662976Y5244429D01*
X4634076Y5215242D01*
X4622030Y5202883D01*
X4498169Y5082371D01*
X4363505Y4964666D01*
X4294205Y4908454D01*
X4172531Y4803904D01*
X4056587Y4688107D01*
X3947410Y4562551D01*
X3846036Y4428725D01*
X3753500Y4288119D01*
X3670838Y4142222D01*
X3599085Y3992525D01*
X3539278Y3840516D01*
X3527444Y3805758D01*
X3511780Y3753561D01*
X3495663Y3691259D01*
X3479792Y3622276D01*
X3464867Y3550034D01*
X3451587Y3477955D01*
X3440651Y3409461D01*
X3432758Y3347976D01*
X3431558Y3336331D01*
X3428448Y3282839D01*
X3428274Y3220193D01*
X3430807Y3152440D01*
X3435816Y3083628D01*
X3443073Y3017804D01*
X3452346Y2959016D01*
X3453235Y2954395D01*
X3461117Y2919290D01*
X3472633Y2874784D01*
X3486777Y2824235D01*
X3502543Y2771000D01*
X3518926Y2718438D01*
X3534922Y2669905D01*
X3549523Y2628760D01*
X3555108Y2614212D01*
X3568856Y2583596D01*
X3588996Y2544198D01*
X3614124Y2498348D01*
X3642837Y2448379D01*
X3673729Y2396619D01*
X3705397Y2345402D01*
X3736436Y2297057D01*
X3765442Y2253916D01*
X3791011Y2218310D01*
X3802549Y2203464D01*
X3873047Y2123958D01*
X3953706Y2046566D01*
X4041437Y1973775D01*
X4133153Y1908070D01*
X4225763Y1851936D01*
X4264679Y1831565D01*
X4290820Y1819184D01*
X4327068Y1802885D01*
X4370897Y1783726D01*
X4419785Y1762766D01*
X4471206Y1741063D01*
X4522637Y1719677D01*
X4571554Y1699666D01*
X4615432Y1682087D01*
X4651747Y1668001D01*
X4674936Y1659511D01*
X4721204Y1644466D01*
X4768317Y1631025D01*
X4813286Y1619895D01*
X4853122Y1611783D01*
X4884839Y1607398D01*
X4897351Y1606826D01*
X4936267Y1607147D01*
X4898934Y1626809D01*
X4876575Y1637773D01*
X4846191Y1651587D01*
X4812415Y1666181D01*
X4790329Y1675311D01*
X4746366Y1694138D01*
X4694641Y1717970D01*
X4638229Y1745244D01*
X4580202Y1774401D01*
X4523633Y1803880D01*
X4471595Y1832120D01*
X4427162Y1857559D01*
X4405622Y1870709D01*
X4311244Y1934083D01*
X4221135Y2002048D01*
X4137694Y2072604D01*
X4063318Y2143754D01*
X4014957Y2196270D01*
X3982350Y2236161D01*
X3946327Y2283887D01*
X3908966Y2336383D01*
X3872343Y2390581D01*
X3838534Y2443416D01*
X3809617Y2491822D01*
X3789293Y2529459D01*
X3758295Y2597183D01*
X3729084Y2671967D01*
X3704103Y2747310D01*
X3694016Y2782956D01*
X3672061Y2883142D01*
X3656800Y2990454D01*
X3648213Y3102107D01*
X3646280Y3215313D01*
X3650981Y3327288D01*
X3662297Y3435246D01*
X3680207Y3536401D01*
X3699924Y3612726D01*
X3718733Y3671647D01*
X3740541Y3734581D01*
X3764072Y3798197D01*
X3788051Y3859167D01*
X3811203Y3914158D01*
X3832253Y3959842D01*
X3834942Y3965272D01*
X3871736Y4034917D01*
X3915728Y4111787D01*
X3965068Y4192982D01*
X4017908Y4275607D01*
X4072397Y4356764D01*
X4126687Y4433554D01*
X4175068Y4498115D01*
X4208996Y4539273D01*
X4251948Y4587147D01*
X4302248Y4640092D01*
X4358222Y4696467D01*
X4418197Y4754629D01*
X4480496Y4812934D01*
X4543446Y4869741D01*
X4605372Y4923405D01*
X4627515Y4941991D01*
X4641506Y4954298D01*
X4646017Y4961475D01*
X4642324Y4966682D01*
X4638460Y4969142D01*
X4611686Y4985726D01*
X4594977Y4998255D01*
X4586233Y5008706D01*
X4583357Y5019051D01*
X4583301Y5021047D01*
X4585436Y5032891D01*
X4594579Y5036999D01*
X4603664Y5037151D01*
X4622949Y5034845D01*
X4646923Y5029774D01*
X4655223Y5027538D01*
X4683131Y5021619D01*
X4699835Y5022430D01*
X4705180Y5028809D01*
X4699008Y5039593D01*
X4681162Y5053623D01*
X4660334Y5065418D01*
X4636250Y5080447D01*
X4620763Y5096013D01*
X4615571Y5110123D01*
X4617327Y5115946D01*
X4627591Y5121019D01*
X4647226Y5122178D01*
X4672679Y5119673D01*
X4700399Y5113756D01*
X4715663Y5109018D01*
X4748486Y5098959D01*
X4773650Y5096030D01*
X4795444Y5100913D01*
X4818156Y5114292D01*
X4835795Y5128161D01*
X4863905Y5151462D01*
X4884874Y5167413D01*
X4902266Y5177006D01*
X4919646Y5181235D01*
X4940580Y5181095D01*
X4968634Y5177578D01*
X4997358Y5173191D01*
X5008822Y5171895D01*
X5019170Y5172609D01*
X5030282Y5176456D01*
X5044039Y5184557D01*
X5062323Y5198034D01*
X5087013Y5218008D01*
X5119991Y5245602D01*
X5122932Y5248079D01*
X5144070Y5265084D01*
X5161960Y5278033D01*
X5173639Y5284830D01*
X5175683Y5285368D01*
X5184515Y5279928D01*
X5192214Y5268161D01*
X5195892Y5256145D01*
X5194464Y5243244D01*
X5187103Y5224971D01*
X5182513Y5215556D01*
X5171570Y5192067D01*
X5162612Y5170106D01*
X5159194Y5159927D01*
X5154654Y5149468D01*
X5145904Y5139929D01*
X5130547Y5129510D01*
X5106187Y5116414D01*
X5091345Y5109018D01*
X5064161Y5094586D01*
X5028009Y5073809D01*
X4985083Y5048070D01*
X4937578Y5018751D01*
X4887687Y4987233D01*
X4837605Y4954898D01*
X4789527Y4923128D01*
X4745648Y4893305D01*
X4718274Y4874091D01*
X4640209Y4815735D01*
X4560742Y4751474D01*
X4482471Y4683652D01*
X4407992Y4614609D01*
X4339902Y4546687D01*
X4280800Y4482227D01*
X4271139Y4470964D01*
X4251934Y4447230D01*
X4226602Y4414324D01*
X4196625Y4374311D01*
X4163488Y4329262D01*
X4128674Y4281242D01*
X4093667Y4232319D01*
X4059950Y4184562D01*
X4029008Y4140039D01*
X4002324Y4100816D01*
X3981381Y4068962D01*
X3972556Y4054853D01*
X3933719Y3984857D01*
X3895392Y3904520D01*
X3858656Y3816924D01*
X3824590Y3725148D01*
X3794273Y3632272D01*
X3768785Y3541377D01*
X3749204Y3455542D01*
X3737316Y3383542D01*
X3733330Y3341495D01*
X3730585Y3289867D01*
X3729059Y3231818D01*
X3728729Y3170509D01*
X3729573Y3109103D01*
X3731568Y3050761D01*
X3734692Y2998644D01*
X3738921Y2955915D01*
X3740460Y2945025D01*
X3759579Y2849742D01*
X3787770Y2749079D01*
X3823861Y2646563D01*
X3866679Y2545721D01*
X3887787Y2501912D01*
X3925748Y2431181D01*
X3966556Y2365740D01*
X4012374Y2302636D01*
X4065362Y2238916D01*
X4127682Y2171625D01*
X4135025Y2164059D01*
X4195957Y2103620D01*
X4255021Y2049798D01*
X4314248Y2001240D01*
X4375669Y1956592D01*
X4441318Y1914499D01*
X4513225Y1873609D01*
X4593423Y1832569D01*
X4683944Y1790023D01*
X4722451Y1772745D01*
X4796644Y1739332D01*
X4858811Y1710201D01*
X4909656Y1684925D01*
X4949887Y1663076D01*
X4980209Y1644227D01*
X5001327Y1627950D01*
X5013949Y1613818D01*
X5018779Y1601404D01*
X5017983Y1593755D01*
X5006640Y1578410D01*
X4985064Y1565602D01*
X4956545Y1556689D01*
X4924375Y1553029D01*
X4919298Y1553019D01*
X4895242Y1554311D01*
X4863404Y1557310D01*
X4829388Y1561458D01*
X4817480Y1563156D01*
X4778815Y1570240D01*
X4731021Y1581025D01*
X4677715Y1594536D01*
X4622513Y1609796D01*
X4569031Y1625829D01*
X4520885Y1641660D01*
X4503177Y1647994D01*
X4463794Y1662886D01*
X4427390Y1677602D01*
X4392256Y1693042D01*
X4356680Y1710107D01*
X4318951Y1729699D01*
X4277359Y1752718D01*
X4230194Y1780065D01*
X4175744Y1812642D01*
X4112298Y1851348D01*
X4084118Y1868687D01*
X4038082Y1897197D01*
X4001558Y1920306D01*
X3972427Y1939613D01*
X3948569Y1956719D01*
X3927864Y1973223D01*
X3908194Y1990725D01*
X3887439Y2010824D01*
X3863479Y2035121D01*
X3863103Y2035506D01*
X3781345Y2124389D01*
X3705480Y2217825D01*
X3632259Y2319869D01*
X3616877Y2342827D01*
X3583844Y2393858D01*
X3555950Y2440024D01*
X3531822Y2484218D01*
X3510087Y2529332D01*
X3489371Y2578261D01*
X3468300Y2633896D01*
X3445502Y2699131D01*
X3440015Y2715366D01*
X3413406Y2797954D01*
X3392406Y2872043D01*
X3376441Y2941161D01*
X3364934Y3008831D01*
X3357310Y3078581D01*
X3352993Y3153935D01*
X3351408Y3238420D01*
X3351368Y3258361D01*
X3352611Y3338252D01*
X3356601Y3411186D01*
X3363853Y3480365D01*
X3374883Y3548988D01*
X3390203Y3620254D01*
X3410330Y3697364D01*
X3435778Y3783518D01*
X3435893Y3783892D01*
X3450380Y3829798D01*
X3465350Y3875345D01*
X3479757Y3917484D01*
X3492554Y3953164D01*
X3502697Y3979334D01*
X3503920Y3982241D01*
X3533289Y4045778D01*
X3570001Y4116907D01*
X3612445Y4193020D01*
X3659006Y4271506D01*
X3708072Y4349757D01*
X3758031Y4425163D01*
X3807268Y4495114D01*
X3854172Y4557003D01*
X3875119Y4582761D01*
X3911521Y4624862D01*
X3954567Y4672248D01*
X4002139Y4722776D01*
X4052123Y4774304D01*
X4102402Y4824692D01*
X4150860Y4871796D01*
X4195380Y4913475D01*
X4233848Y4947588D01*
X4243748Y4955906D01*
X4269264Y4977812D01*
X4302405Y5007497D01*
X4341204Y5043131D01*
X4383696Y5082885D01*
X4427915Y5124929D01*
X4471895Y5167434D01*
X4488885Y5184062D01*
X4533097Y5227449D01*
X4568814Y5262274D01*
X4597197Y5289516D01*
X4619408Y5310154D01*
X4636611Y5325166D01*
X4649967Y5335530D01*
X4660640Y5342225D01*
X4669790Y5346230D01*
X4678581Y5348523D01*
X4685642Y5349709D01*
X4710483Y5354595D01*
X4730951Y5362181D01*
X4750389Y5374516D01*
X4772140Y5393653D01*
X4794899Y5416753D01*
X4824453Y5444751D01*
X4849594Y5461524D01*
X4872065Y5467946D01*
X4891994Y5465427D01*
G37*
D12*
%TO.C,C4*%
X15163748Y31522500D02*
X16586252Y31522500D01*
X15163748Y28802500D02*
X16586252Y28802500D01*
%TO.C,R1*%
X15971250Y6979891D02*
X15971250Y6672609D01*
X16731250Y6979891D02*
X16731250Y6672609D01*
%TO.C,R14*%
X28353750Y21426141D02*
X28353750Y21118859D01*
X29113750Y21426141D02*
X29113750Y21118859D01*
%TO.C,Q1*%
X13045000Y19651250D02*
X13095000Y19651250D01*
X13045000Y18131250D02*
X13045000Y19651250D01*
X14045000Y18131250D02*
X13045000Y18131250D01*
X14215000Y19651250D02*
X14995000Y19651250D01*
X15316200Y20821650D02*
X15824200Y20821650D01*
X16115000Y19651250D02*
X16165000Y19651250D01*
X16165000Y19651250D02*
X16165000Y18131250D01*
X16165000Y18131250D02*
X15165000Y18131250D01*
%TO.C,R11*%
X25871141Y14893750D02*
X25563859Y14893750D01*
X25871141Y14133750D02*
X25563859Y14133750D01*
%TO.C,R5*%
X14701250Y7783859D02*
X14701250Y8091141D01*
X15461250Y7783859D02*
X15461250Y8091141D01*
%TO.C,C8*%
X29652500Y17548170D02*
X29652500Y17829330D01*
X30672500Y17548170D02*
X30672500Y17829330D01*
%TO.C,R13*%
X24226250Y22138859D02*
X24226250Y22446141D01*
X24986250Y22138859D02*
X24986250Y22446141D01*
%TO.C,C10*%
X25609664Y15985000D02*
X25825336Y15985000D01*
X25609664Y15265000D02*
X25825336Y15265000D01*
%TO.C,U1*%
X19023600Y8775700D02*
X17792700Y8775700D01*
X19027500Y8912500D02*
X22247500Y8912500D01*
X19027500Y8787500D02*
X19027500Y8912500D01*
X19027500Y5692500D02*
X19027500Y5817500D01*
X22247500Y8912500D02*
X22247500Y8787500D01*
X22247500Y5817500D02*
X22247500Y5692500D01*
X22247500Y5692500D02*
X19027500Y5692500D01*
%TO.C,C9*%
X22826250Y22433080D02*
X22826250Y22151920D01*
X23846250Y22433080D02*
X23846250Y22151920D01*
%TO.C,C14*%
X15673750Y15608414D02*
X15673750Y15824086D01*
X16393750Y15608414D02*
X16393750Y15824086D01*
%TO.C,C12*%
X27778170Y23687500D02*
X28059330Y23687500D01*
X27778170Y22667500D02*
X28059330Y22667500D01*
%TO.C,R8*%
X27083750Y11786359D02*
X27083750Y12093641D01*
X27843750Y11786359D02*
X27843750Y12093641D01*
%TO.C,R6*%
X28195000Y12093641D02*
X28195000Y11786359D01*
X28955000Y12093641D02*
X28955000Y11786359D01*
%TO.C,C2*%
X25945000Y7061252D02*
X25945000Y5638748D01*
X28665000Y7061252D02*
X28665000Y5638748D01*
%TO.C,C15*%
X3935000Y21766920D02*
X3935000Y22048080D01*
X4955000Y21766920D02*
X4955000Y22048080D01*
%TO.C,D2*%
X16965000Y23383750D02*
X12955000Y23383750D01*
X16965000Y21383750D02*
X12955000Y21383750D01*
X16965000Y21383750D02*
X16965000Y23383750D01*
%TO.C,C11*%
X26555914Y22108750D02*
X26771586Y22108750D01*
X26555914Y21388750D02*
X26771586Y21388750D01*
%TO.C,C1*%
X14110580Y6542500D02*
X13829420Y6542500D01*
X14110580Y5522500D02*
X13829420Y5522500D01*
%TO.C,R9*%
X28411141Y16005000D02*
X28103859Y16005000D01*
X28411141Y15245000D02*
X28103859Y15245000D01*
%TO.C,R15*%
X16923750Y13498859D02*
X16923750Y13806141D01*
X17683750Y13498859D02*
X17683750Y13806141D01*
D13*
%TO.C,J3*%
X20828000Y38020000D02*
X21965000Y38020000D01*
X21965000Y38720000D02*
X21965000Y38020000D01*
X21965000Y35820000D02*
X21965000Y29820000D01*
X22765000Y39720000D02*
X22765000Y38820000D01*
X23965000Y38720000D02*
X21965000Y38720000D01*
X26765000Y39720000D02*
X22765000Y39720000D01*
X26765000Y38720000D02*
X26765000Y39720000D01*
X27565000Y38720000D02*
X25565000Y38720000D01*
X27565000Y37420000D02*
X27565000Y38720000D01*
X27565000Y35420000D02*
X27565000Y29820000D01*
D12*
%TO.C,R7*%
X10154891Y11016250D02*
X9847609Y11016250D01*
X10154891Y10256250D02*
X9847609Y10256250D01*
%TO.C,C13*%
X16943750Y15608414D02*
X16943750Y15824086D01*
X17663750Y15608414D02*
X17663750Y15824086D01*
%TO.C,C7*%
X28365336Y14873750D02*
X28149664Y14873750D01*
X28365336Y14153750D02*
X28149664Y14153750D01*
%TO.C,R17*%
X5493750Y21277609D02*
X5493750Y21584891D01*
X6253750Y21277609D02*
X6253750Y21584891D01*
%TO.C,D5*%
X8868750Y11636250D02*
X4858750Y11636250D01*
X8868750Y9636250D02*
X4858750Y9636250D01*
X8868750Y9636250D02*
X8868750Y11636250D01*
%TO.C,D6*%
X11775000Y15673750D02*
X12775000Y15673750D01*
X11775000Y13853750D02*
X11775000Y15673750D01*
X11825000Y13853750D02*
X11775000Y13853750D01*
X12623800Y12731750D02*
X12115800Y12731750D01*
X13725000Y13853750D02*
X12945000Y13853750D01*
X13895000Y15673750D02*
X14895000Y15673750D01*
X14895000Y15673750D02*
X14895000Y13853750D01*
X14895000Y13853750D02*
X14845000Y13853750D01*
%TO.C,D4*%
X9387500Y9413750D02*
X9387500Y7413750D01*
X9387500Y9413750D02*
X13397500Y9413750D01*
X9387500Y7413750D02*
X13397500Y7413750D01*
%TO.C,R3*%
X20791141Y3872500D02*
X20483859Y3872500D01*
X20791141Y3112500D02*
X20483859Y3112500D01*
D14*
%TO.C,G\u002A\u002A\u002A*%
G36*
X5259237Y19419712D02*
G01*
X5260674Y18828456D01*
X5757333Y18828456D01*
X6253992Y18828456D01*
X6254326Y18965828D01*
X6445955Y18965828D01*
X6445955Y18828456D01*
X6937402Y18828456D01*
X7023222Y18828465D01*
X7098442Y18828501D01*
X7163754Y18828579D01*
X7219848Y18828712D01*
X7267413Y18828914D01*
X7307140Y18829200D01*
X7339718Y18829582D01*
X7365838Y18830076D01*
X7386191Y18830695D01*
X7401465Y18831453D01*
X7412352Y18832363D01*
X7419541Y18833441D01*
X7423722Y18834700D01*
X7425586Y18836154D01*
X7425822Y18837816D01*
X7425687Y18838334D01*
X7423365Y18845355D01*
X7417787Y18862112D01*
X7409278Y18887633D01*
X7398162Y18920948D01*
X7384761Y18961086D01*
X7369402Y19007075D01*
X7352408Y19057946D01*
X7334102Y19112727D01*
X7316651Y19164940D01*
X7210777Y19481668D01*
X7086600Y19420438D01*
X7055709Y19405192D01*
X7016367Y19385753D01*
X6970236Y19362942D01*
X6918978Y19337582D01*
X6864255Y19310496D01*
X6807729Y19282506D01*
X6751062Y19254434D01*
X6704188Y19231204D01*
X6445955Y19103200D01*
X6445955Y18965828D01*
X6254326Y18965828D01*
X6254660Y19103200D01*
X6255429Y19419712D01*
X6256866Y20010967D01*
X6350000Y20010967D01*
X6443133Y20010967D01*
X6444587Y19665245D01*
X6444912Y19603935D01*
X6445347Y19546105D01*
X6445876Y19492720D01*
X6446485Y19444744D01*
X6447157Y19403142D01*
X6447876Y19368879D01*
X6448627Y19342921D01*
X6449393Y19326231D01*
X6450160Y19319774D01*
X6450232Y19319728D01*
X6455763Y19322183D01*
X6470778Y19329280D01*
X6494621Y19340700D01*
X6526636Y19356125D01*
X6566165Y19375236D01*
X6612553Y19397715D01*
X6665142Y19423244D01*
X6723277Y19451503D01*
X6786300Y19482175D01*
X6853556Y19514942D01*
X6924388Y19549483D01*
X6998139Y19585483D01*
X7007577Y19590092D01*
X7081633Y19626200D01*
X7152864Y19660811D01*
X7220613Y19693612D01*
X7284223Y19724292D01*
X7343038Y19752537D01*
X7396402Y19778035D01*
X7443656Y19800473D01*
X7484146Y19819538D01*
X7517215Y19834917D01*
X7542205Y19846299D01*
X7558460Y19853369D01*
X7565324Y19855816D01*
X7565492Y19855779D01*
X7569390Y19848380D01*
X7575344Y19832691D01*
X7582663Y19811032D01*
X7590656Y19785722D01*
X7598631Y19759084D01*
X7605897Y19733436D01*
X7611763Y19711098D01*
X7615537Y19694393D01*
X7616528Y19685638D01*
X7616353Y19685077D01*
X7610395Y19680986D01*
X7595744Y19672823D01*
X7573898Y19661367D01*
X7546358Y19647399D01*
X7514623Y19631696D01*
X7497794Y19623506D01*
X7464830Y19607461D01*
X7435562Y19593039D01*
X7411424Y19580961D01*
X7393850Y19571948D01*
X7384275Y19566722D01*
X7382933Y19565740D01*
X7384690Y19560165D01*
X7389768Y19544763D01*
X7397874Y19520403D01*
X7408718Y19487956D01*
X7422008Y19448290D01*
X7437453Y19402274D01*
X7454761Y19350778D01*
X7473641Y19294671D01*
X7493802Y19234821D01*
X7507242Y19194954D01*
X7631552Y18826346D01*
X7630009Y18732857D01*
X7628466Y18639367D01*
X7037211Y18637930D01*
X6445955Y18636493D01*
X6445955Y18499330D01*
X6445955Y18362168D01*
X6709436Y18233953D01*
X6760183Y18209374D01*
X6807863Y18186507D01*
X6851517Y18165794D01*
X6890186Y18147681D01*
X6922911Y18132611D01*
X6948733Y18121028D01*
X6966695Y18113378D01*
X6975837Y18110102D01*
X6976789Y18110086D01*
X6980354Y18116402D01*
X6987819Y18131201D01*
X6998327Y18152727D01*
X7011019Y18179226D01*
X7022342Y18203198D01*
X7036257Y18232122D01*
X7048917Y18257118D01*
X7059432Y18276528D01*
X7066908Y18288692D01*
X7070163Y18292098D01*
X7074577Y18287588D01*
X7084474Y18274684D01*
X7099130Y18254421D01*
X7117818Y18227831D01*
X7139811Y18195949D01*
X7164385Y18159808D01*
X7190814Y18120443D01*
X7193154Y18116935D01*
X7310003Y17941635D01*
X7467022Y17864346D01*
X7624041Y17787056D01*
X7598249Y17700978D01*
X7589203Y17671797D01*
X7580892Y17646852D01*
X7573971Y17627966D01*
X7569095Y17616963D01*
X7567370Y17614900D01*
X7561241Y17617260D01*
X7546167Y17623961D01*
X7523370Y17634433D01*
X7494071Y17648107D01*
X7459491Y17664416D01*
X7420852Y17682789D01*
X7391555Y17696808D01*
X7220826Y17778716D01*
X7026713Y17761742D01*
X6980448Y17757734D01*
X6937250Y17754061D01*
X6898538Y17750840D01*
X6865728Y17748186D01*
X6840239Y17746213D01*
X6823488Y17745036D01*
X6817446Y17744746D01*
X6802292Y17744723D01*
X6847247Y17838628D01*
X6861297Y17868512D01*
X6873190Y17894846D01*
X6882221Y17915978D01*
X6887681Y17930252D01*
X6888885Y17935995D01*
X6883249Y17939096D01*
X6868491Y17946547D01*
X6845674Y17957832D01*
X6815858Y17972429D01*
X6780107Y17989822D01*
X6739483Y18009490D01*
X6695047Y18030914D01*
X6667172Y18044313D01*
X6448777Y18149170D01*
X6445955Y17801602D01*
X6443133Y17454034D01*
X6350000Y17454034D01*
X6256866Y17454034D01*
X6255374Y17634191D01*
X6253883Y17814348D01*
X6230974Y17766975D01*
X6192924Y17700125D01*
X6147250Y17641313D01*
X6093803Y17590432D01*
X6032432Y17547379D01*
X5962988Y17512046D01*
X5885321Y17484329D01*
X5801650Y17464557D01*
X5773969Y17460344D01*
X5742276Y17457399D01*
X5704419Y17455589D01*
X5658245Y17454787D01*
X5638800Y17454719D01*
X5588148Y17455273D01*
X5543576Y17457262D01*
X5502085Y17461094D01*
X5460676Y17467174D01*
X5416351Y17475909D01*
X5366111Y17487705D01*
X5332855Y17496169D01*
X5307131Y17502790D01*
X5285608Y17508222D01*
X5270512Y17511910D01*
X5264067Y17513300D01*
X5264042Y17513300D01*
X5262168Y17508209D01*
X5260387Y17495131D01*
X5259506Y17483667D01*
X5257800Y17454034D01*
X5165954Y17452482D01*
X5129720Y17452084D01*
X5103458Y17452350D01*
X5085864Y17453356D01*
X5075636Y17455181D01*
X5071471Y17457903D01*
X5071374Y17458127D01*
X5071124Y17464368D01*
X5070894Y17481390D01*
X5070682Y17508688D01*
X5070490Y17545753D01*
X5070319Y17592079D01*
X5070168Y17647159D01*
X5070039Y17710486D01*
X5069931Y17781552D01*
X5069846Y17859851D01*
X5069783Y17944875D01*
X5069744Y18036118D01*
X5069741Y18052300D01*
X5260622Y18052300D01*
X5260622Y17701031D01*
X5304332Y17685514D01*
X5349520Y17670870D01*
X5398301Y17657439D01*
X5446224Y17646340D01*
X5488841Y17638688D01*
X5493194Y17638081D01*
X5520706Y17635608D01*
X5555299Y17634336D01*
X5594215Y17634184D01*
X5634695Y17635069D01*
X5673982Y17636909D01*
X5709316Y17639622D01*
X5737939Y17643125D01*
X5751688Y17645798D01*
X5825738Y17669001D01*
X5892700Y17700430D01*
X5952006Y17739810D01*
X5961888Y17747774D01*
X6010106Y17794900D01*
X6049258Y17848307D01*
X6078996Y17907108D01*
X6098977Y17970415D01*
X6108853Y18037340D01*
X6108279Y18106998D01*
X6106995Y18120150D01*
X6096651Y18184035D01*
X6080258Y18239961D01*
X6056840Y18290053D01*
X6025419Y18336440D01*
X5988640Y18377633D01*
X5964592Y18401021D01*
X5944328Y18418346D01*
X5924348Y18432168D01*
X5901154Y18445051D01*
X5886880Y18452123D01*
X5831141Y18475721D01*
X5774692Y18492419D01*
X5713609Y18503260D01*
X5681671Y18506674D01*
X5642389Y18508836D01*
X5604044Y18508012D01*
X5565026Y18503848D01*
X5523723Y18495992D01*
X5478524Y18484090D01*
X5427817Y18467790D01*
X5369991Y18446739D01*
X5321300Y18427747D01*
X5260622Y18403568D01*
X5260622Y18052300D01*
X5069741Y18052300D01*
X5069729Y18133072D01*
X5069738Y18235232D01*
X5069772Y18342088D01*
X5069805Y18403568D01*
X5069832Y18453135D01*
X5069917Y18567866D01*
X5069969Y18622434D01*
X5260622Y18622434D01*
X5261262Y18611813D01*
X5262485Y18608323D01*
X5268246Y18610316D01*
X5281457Y18615522D01*
X5297763Y18622195D01*
X5318881Y18630963D01*
X5916374Y18630963D01*
X5919582Y18629022D01*
X5921022Y18628463D01*
X5954324Y18614186D01*
X5991331Y18595129D01*
X6027235Y18573928D01*
X6054799Y18555072D01*
X6093990Y18521828D01*
X6133515Y18481506D01*
X6170943Y18437045D01*
X6203842Y18391381D01*
X6229781Y18347452D01*
X6234472Y18337976D01*
X6242897Y18320695D01*
X6249341Y18308330D01*
X6252426Y18303524D01*
X6252439Y18303523D01*
X6252845Y18308935D01*
X6253212Y18324245D01*
X6253529Y18348062D01*
X6253781Y18378993D01*
X6253956Y18415648D01*
X6254039Y18456635D01*
X6254044Y18470034D01*
X6254044Y18636545D01*
X6077655Y18636147D01*
X6028312Y18635982D01*
X5989311Y18635702D01*
X5959709Y18635261D01*
X5938560Y18634613D01*
X5924918Y18633712D01*
X5917838Y18632510D01*
X5916374Y18630963D01*
X5318881Y18630963D01*
X5331177Y18636068D01*
X5295900Y18636306D01*
X5276652Y18636170D01*
X5266091Y18634748D01*
X5261617Y18631019D01*
X5260630Y18623960D01*
X5260622Y18622434D01*
X5069969Y18622434D01*
X5070029Y18685772D01*
X5070086Y18738145D01*
X5071533Y20010967D01*
X5164666Y20010967D01*
X5257800Y20010967D01*
X5259237Y19419712D01*
G37*
%TD*%
M02*
