M48
; DRILL file {KiCad 9.0.7} date 2026-03-05T05:57:34-0600
; FORMAT={-:-/ absolute / metric / decimal}
; #@! TF.CreationDate,2026-03-05T05:57:34-06:00
; #@! TF.GenerationSoftware,Kicad,Pcbnew,9.0.7
; #@! TF.FileFunction,Plated,1,2,PTH
FMAT,2
METRIC
; #@! TA.AperFunction,Plated,PTH,ViaDrill
T1C0.300
; #@! TA.AperFunction,Plated,PTH,ComponentDrill
T2C1.000
; #@! TA.AperFunction,Plated,PTH,ComponentDrill
T3C1.100
%
G90
G05
T1
X3.285Y35.56
X3.285Y27.305
X4.685Y35.56
X4.685Y27.305
X4.859Y9.366
X5.105Y7.417
X6.667Y21.941
X6.985Y10.643
X7.62Y3.023
X9.285Y35.084
X10.685Y35.084
X11.43Y13.652
X12.065Y6.032
X12.383Y14.922
X12.929Y26.467
X13.335Y17.145
X13.335Y14.605
X15.088Y9.246
X17.145Y8.255
X17.35Y32.067
X17.939Y17.304
X18.098Y16.192
X18.415Y30.162
X18.415Y27.464
X19.367Y3.492
X19.844Y8.255
X19.895Y7.384
X20.32Y28.734
X21.065Y35.56
X21.065Y30.162
X21.107Y6.172
X22.225Y23.067
X22.465Y35.56
X22.465Y30.162
X24.765Y6.35
X26.194Y16.578
X26.255Y3.651
X26.352Y13.21
X27.0Y15.625
X27.065Y35.084
X27.464Y13.21
X28.355Y3.651
X28.465Y35.084
X28.727Y13.513
X29.642Y28.702
X29.769Y20.777
X30.162Y15.942
T2
X4.485Y25.082
X6.985Y25.082
X9.485Y25.082
X13.375Y11.112
X15.875Y11.112
X18.375Y11.112
X22.265Y25.082
X24.765Y25.082
X27.265Y25.082
T3
G00X2.185Y32.932
M15
G01X2.185Y32.233
M16
G05
G00X11.075Y18.962
M15
G01X11.075Y18.262
M16
G05
G00X11.785Y32.932
M15
G01X11.785Y32.233
M16
G05
G00X19.965Y32.932
M15
G01X19.965Y32.233
M16
G05
G00X20.675Y18.962
M15
G01X20.675Y18.262
M16
G05
G00X29.565Y32.932
M15
G01X29.565Y32.233
M16
G05
M30
