%TF.GenerationSoftware,KiCad,Pcbnew,9.0.7*%
%TF.CreationDate,2026-03-05T05:57:23-06:00*%
%TF.ProjectId,01-3301 (u Rat),30312d33-3330-4312-9028-752052617429,1.0*%
%TF.SameCoordinates,PX7aeef28PY73aa988*%
%TF.FileFunction,Copper,L1,Top*%
%TF.FilePolarity,Positive*%
%FSLAX46Y46*%
G04 Gerber Fmt 4.6, Leading zero omitted, Abs format (unit mm)*
G04 Created by KiCad (PCBNEW 9.0.7) date 2026-03-05 05:57:23*
%MOMM*%
%LPD*%
G01*
G04 APERTURE LIST*
G04 Aperture macros list*
%AMRoundRect*
0 Rectangle with rounded corners*
0 $1 Rounding radius*
0 $2 $3 $4 $5 $6 $7 $8 $9 X,Y pos of 4 corners*
0 Add a 4 corners polygon primitive as box body*
4,1,4,$2,$3,$4,$5,$6,$7,$8,$9,$2,$3,0*
0 Add four circle primitives for the rounded corners*
1,1,$1+$1,$2,$3*
1,1,$1+$1,$4,$5*
1,1,$1+$1,$6,$7*
1,1,$1+$1,$8,$9*
0 Add four rect primitives between the rounded corners*
20,1,$1+$1,$2,$3,$4,$5,0*
20,1,$1+$1,$4,$5,$6,$7,0*
20,1,$1+$1,$6,$7,$8,$9,0*
20,1,$1+$1,$8,$9,$2,$3,0*%
G04 Aperture macros list end*
%TA.AperFunction,SMDPad,CuDef*%
%ADD10RoundRect,0.135000X-0.135000X-0.185000X0.135000X-0.185000X0.135000X0.185000X-0.135000X0.185000X0*%
%TD*%
%TA.AperFunction,SMDPad,CuDef*%
%ADD11RoundRect,0.135000X0.185000X-0.135000X0.185000X0.135000X-0.185000X0.135000X-0.185000X-0.135000X0*%
%TD*%
%TA.AperFunction,SMDPad,CuDef*%
%ADD12RoundRect,0.250000X-0.750000X0.550000X-0.750000X-0.550000X0.750000X-0.550000X0.750000X0.550000X0*%
%TD*%
%TA.AperFunction,SMDPad,CuDef*%
%ADD13RoundRect,0.250000X0.400000X0.750000X-0.400000X0.750000X-0.400000X-0.750000X0.400000X-0.750000X0*%
%TD*%
%TA.AperFunction,SMDPad,CuDef*%
%ADD14RoundRect,0.140000X-0.170000X0.140000X-0.170000X-0.140000X0.170000X-0.140000X0.170000X0.140000X0*%
%TD*%
%TA.AperFunction,SMDPad,CuDef*%
%ADD15RoundRect,0.140000X0.170000X-0.140000X0.170000X0.140000X-0.170000X0.140000X-0.170000X-0.140000X0*%
%TD*%
%TA.AperFunction,SMDPad,CuDef*%
%ADD16RoundRect,0.140000X-0.140000X-0.170000X0.140000X-0.170000X0.140000X0.170000X-0.140000X0.170000X0*%
%TD*%
%TA.AperFunction,SMDPad,CuDef*%
%ADD17RoundRect,0.150000X0.150000X0.475000X-0.150000X0.475000X-0.150000X-0.475000X0.150000X-0.475000X0*%
%TD*%
%TA.AperFunction,SMDPad,CuDef*%
%ADD18RoundRect,0.135000X-0.185000X0.135000X-0.185000X-0.135000X0.185000X-0.135000X0.185000X0.135000X0*%
%TD*%
%TA.AperFunction,SMDPad,CuDef*%
%ADD19RoundRect,0.225000X0.225000X0.375000X-0.225000X0.375000X-0.225000X-0.375000X0.225000X-0.375000X0*%
%TD*%
%TA.AperFunction,SMDPad,CuDef*%
%ADD20RoundRect,0.162500X0.362500X-0.162500X0.362500X0.162500X-0.362500X0.162500X-0.362500X-0.162500X0*%
%TD*%
%TA.AperFunction,SMDPad,CuDef*%
%ADD21RoundRect,0.250000X-0.325000X-1.100000X0.325000X-1.100000X0.325000X1.100000X-0.325000X1.100000X0*%
%TD*%
%TA.AperFunction,SMDPad,CuDef*%
%ADD22RoundRect,0.150000X-0.150000X0.587500X-0.150000X-0.587500X0.150000X-0.587500X0.150000X0.587500X0*%
%TD*%
%TA.AperFunction,SMDPad,CuDef*%
%ADD23RoundRect,0.135000X0.135000X0.185000X-0.135000X0.185000X-0.135000X-0.185000X0.135000X-0.185000X0*%
%TD*%
%TA.AperFunction,SMDPad,CuDef*%
%ADD24RoundRect,0.225000X0.250000X-0.225000X0.250000X0.225000X-0.250000X0.225000X-0.250000X-0.225000X0*%
%TD*%
%TA.AperFunction,SMDPad,CuDef*%
%ADD25RoundRect,0.125000X-0.687500X-0.125000X0.687500X-0.125000X0.687500X0.125000X-0.687500X0.125000X0*%
%TD*%
%TA.AperFunction,SMDPad,CuDef*%
%ADD26RoundRect,0.225000X-0.250000X0.225000X-0.250000X-0.225000X0.250000X-0.225000X0.250000X0.225000X0*%
%TD*%
%TA.AperFunction,SMDPad,CuDef*%
%ADD27RoundRect,0.225000X-0.225000X-0.250000X0.225000X-0.250000X0.225000X0.250000X-0.225000X0.250000X0*%
%TD*%
%TA.AperFunction,SMDPad,CuDef*%
%ADD28RoundRect,0.250000X-1.100000X0.325000X-1.100000X-0.325000X1.100000X-0.325000X1.100000X0.325000X0*%
%TD*%
%TA.AperFunction,SMDPad,CuDef*%
%ADD29C,0.500000*%
%TD*%
%TA.AperFunction,SMDPad,CuDef*%
%ADD30RoundRect,0.225000X0.225000X0.250000X-0.225000X0.250000X-0.225000X-0.250000X0.225000X-0.250000X0*%
%TD*%
%TA.AperFunction,SMDPad,CuDef*%
%ADD31RoundRect,0.140000X0.140000X0.170000X-0.140000X0.170000X-0.140000X-0.170000X0.140000X-0.170000X0*%
%TD*%
%TA.AperFunction,SMDPad,CuDef*%
%ADD32RoundRect,0.150000X0.150000X-0.512500X0.150000X0.512500X-0.150000X0.512500X-0.150000X-0.512500X0*%
%TD*%
%TA.AperFunction,SMDPad,CuDef*%
%ADD33RoundRect,0.225000X-0.225000X-0.375000X0.225000X-0.375000X0.225000X0.375000X-0.225000X0.375000X0*%
%TD*%
%TA.AperFunction,ComponentPad*%
%ADD34O,2.720000X3.240000*%
%TD*%
%TA.AperFunction,ComponentPad*%
%ADD35RoundRect,0.250000X0.650000X0.650000X-0.650000X0.650000X-0.650000X-0.650000X0.650000X-0.650000X0*%
%TD*%
%TA.AperFunction,ComponentPad*%
%ADD36C,1.800000*%
%TD*%
%TA.AperFunction,ViaPad*%
%ADD37C,0.600000*%
%TD*%
%TA.AperFunction,Conductor*%
%ADD38C,0.508000*%
%TD*%
%TA.AperFunction,Conductor*%
%ADD39C,0.381000*%
%TD*%
%TA.AperFunction,Conductor*%
%ADD40C,0.254000*%
%TD*%
G04 APERTURE END LIST*
D10*
%TO.P,R16,1*%
%TO.N,Net-(Q1-G)*%
X16158750Y17303750D03*
%TO.P,R16,2*%
%TO.N,GND*%
X17178750Y17303750D03*
%TD*%
D11*
%TO.P,R10,1*%
%TO.N,+4v5*%
X25241250Y11430000D03*
%TO.P,R10,2*%
%TO.N,Net-(C7-Pad2)*%
X25241250Y12450000D03*
%TD*%
D12*
%TO.P,J1,1,SLEEVE*%
%TO.N,GND*%
X3985000Y36920000D03*
%TO.P,J1,2,TIP*%
%TO.N,IN*%
X9985000Y28720000D03*
%TO.P,J1,3,RING1*%
%TO.N,GND*%
X3985000Y28720000D03*
%TO.P,J1,4,RING2*%
X9985000Y36420000D03*
D13*
%TO.P,J1,10,TIP_SWITCH*%
%TO.N,unconnected-(J1-TIP_SWITCH-Pad10)*%
X7985000Y27720000D03*
%TO.P,J1,11,RING_1_SWITCH*%
%TO.N,unconnected-(J1-RING_1_SWITCH-Pad11)*%
X5985000Y27720000D03*
%TD*%
D14*
%TO.P,C3,1*%
%TO.N,+9V_SW*%
X24765000Y8100000D03*
%TO.P,C3,2*%
%TO.N,GND*%
X24765000Y7140000D03*
%TD*%
D15*
%TO.P,C6,1*%
%TO.N,+4v5*%
X26352500Y11460000D03*
%TO.P,C6,2*%
%TO.N,GND*%
X26352500Y12420000D03*
%TD*%
D10*
%TO.P,R4,1*%
%TO.N,Net-(D1-K)*%
X14571250Y27940000D03*
%TO.P,R4,2*%
%TO.N,+9V*%
X15591250Y27940000D03*
%TD*%
D16*
%TO.P,C5,1*%
%TO.N,+9V*%
X16665000Y27940000D03*
%TO.P,C5,2*%
%TO.N,GND*%
X17625000Y27940000D03*
%TD*%
D17*
%TO.P,U2,1,+*%
%TO.N,Net-(U2-+)*%
X25243750Y17708750D03*
%TO.P,U2,2,V-*%
%TO.N,GND*%
X26193750Y17708750D03*
%TO.P,U2,3,-*%
%TO.N,Net-(U2--)*%
X27143750Y17708750D03*
%TO.P,U2,4*%
%TO.N,Net-(C11-Pad2)*%
X27143750Y20208750D03*
%TO.P,U2,5,V+*%
%TO.N,+9V*%
X25243750Y20208750D03*
%TD*%
D18*
%TO.P,R12,1*%
%TO.N,Net-(C8-Pad2)*%
X28733750Y18675000D03*
%TO.P,R12,2*%
%TO.N,Net-(U2--)*%
X28733750Y17655000D03*
%TD*%
D19*
%TO.P,D1,1,K*%
%TO.N,Net-(D1-K)*%
X16255000Y24923750D03*
%TO.P,D1,2,A*%
%TO.N,+9V_CON*%
X12955000Y24923750D03*
%TD*%
D20*
%TO.P,SW1,1,1*%
%TO.N,Net-(C1-Pad1)*%
X13800000Y3615000D03*
%TO.P,SW1,2,2*%
%TO.N,Net-(U1-THRES)*%
X17950000Y3615000D03*
%TO.P,SW1,3*%
%TO.N,N/C*%
X13800000Y1465000D03*
%TO.P,SW1,4*%
X17950000Y1465000D03*
%TD*%
D10*
%TO.P,R2,1*%
%TO.N,+9V_SW*%
X20127500Y4762500D03*
%TO.P,R2,2*%
%TO.N,Net-(U1-THRES)*%
X21147500Y4762500D03*
%TD*%
D21*
%TO.P,C4,1*%
%TO.N,+9V*%
X14400000Y30162500D03*
%TO.P,C4,2*%
%TO.N,GND*%
X17350000Y30162500D03*
%TD*%
D18*
%TO.P,R1,1*%
%TO.N,T5_OUT*%
X16351250Y7336250D03*
%TO.P,R1,2*%
%TO.N,Net-(C1-Pad1)*%
X16351250Y6316250D03*
%TD*%
%TO.P,R14,1*%
%TO.N,Net-(C12-Pad2)*%
X28733750Y21782500D03*
%TO.P,R14,2*%
%TO.N,Net-(D6-common)*%
X28733750Y20762500D03*
%TD*%
D22*
%TO.P,Q1,1,D*%
%TO.N,+9V*%
X15555000Y19828750D03*
%TO.P,Q1,2,S*%
%TO.N,Net-(Q1-S)*%
X13655000Y19828750D03*
%TO.P,Q1,3,G*%
%TO.N,Net-(Q1-G)*%
X14605000Y17953750D03*
%TD*%
D23*
%TO.P,R11,1*%
%TO.N,Net-(C7-Pad2)*%
X26227500Y14513750D03*
%TO.P,R11,2*%
%TO.N,Net-(U2-+)*%
X25207500Y14513750D03*
%TD*%
D11*
%TO.P,R5,1*%
%TO.N,T5_OUT*%
X15081250Y7427500D03*
%TO.P,R5,2*%
%TO.N,Net-(D3-A)*%
X15081250Y8447500D03*
%TD*%
D24*
%TO.P,C8,1*%
%TO.N,GND*%
X30162500Y16913750D03*
%TO.P,C8,2*%
%TO.N,Net-(C8-Pad2)*%
X30162500Y18463750D03*
%TD*%
D11*
%TO.P,R13,1*%
%TO.N,Net-(C9-Pad2)*%
X24606250Y21782500D03*
%TO.P,R13,2*%
%TO.N,Net-(U2--)*%
X24606250Y22802500D03*
%TD*%
D16*
%TO.P,C10,1*%
%TO.N,Net-(U2-+)*%
X25237500Y15625000D03*
%TO.P,C10,2*%
%TO.N,GND*%
X26197500Y15625000D03*
%TD*%
D25*
%TO.P,U1,1,GND*%
%TO.N,GND*%
X18525000Y8277500D03*
%TO.P,U1,2,TRIG*%
%TO.N,Net-(U1-THRES)*%
X18525000Y7627500D03*
%TO.P,U1,3,OUT*%
%TO.N,T5_OUT*%
X18525000Y6977500D03*
%TO.P,U1,4,~{RST}*%
%TO.N,+9V_SW*%
X18525000Y6327500D03*
%TO.P,U1,5,CONT*%
%TO.N,unconnected-(U1-CONT-Pad5)*%
X22750000Y6327500D03*
%TO.P,U1,6,THRES*%
%TO.N,Net-(U1-THRES)*%
X22750000Y6977500D03*
%TO.P,U1,7,DISCH*%
%TO.N,unconnected-(U1-DISCH-Pad7)*%
X22750000Y7627500D03*
%TO.P,U1,8,VCC*%
%TO.N,+9V_SW*%
X22750000Y8277500D03*
%TD*%
D26*
%TO.P,C9,1*%
%TO.N,GND*%
X23336250Y23067500D03*
%TO.P,C9,2*%
%TO.N,Net-(C9-Pad2)*%
X23336250Y21517500D03*
%TD*%
D15*
%TO.P,C14,1*%
%TO.N,Net-(C13-Pad1)*%
X16033750Y15236250D03*
%TO.P,C14,2*%
%TO.N,Net-(Q1-G)*%
X16033750Y16196250D03*
%TD*%
D27*
%TO.P,C12,1*%
%TO.N,Net-(C11-Pad2)*%
X27143750Y23177500D03*
%TO.P,C12,2*%
%TO.N,Net-(C12-Pad2)*%
X28693750Y23177500D03*
%TD*%
D11*
%TO.P,R8,1*%
%TO.N,+4v5*%
X27463750Y11430000D03*
%TO.P,R8,2*%
%TO.N,GND*%
X27463750Y12450000D03*
%TD*%
D18*
%TO.P,R6,1*%
%TO.N,+9V*%
X28575000Y12450000D03*
%TO.P,R6,2*%
%TO.N,+4v5*%
X28575000Y11430000D03*
%TD*%
D28*
%TO.P,C2,1*%
%TO.N,+9V_SW*%
X27305000Y7825000D03*
%TO.P,C2,2*%
%TO.N,GND*%
X27305000Y4875000D03*
%TD*%
D24*
%TO.P,C15,1*%
%TO.N,Net-(Q1-S)*%
X4445000Y21132500D03*
%TO.P,C15,2*%
%TO.N,Net-(C15-Pad2)*%
X4445000Y22682500D03*
%TD*%
D19*
%TO.P,D2,1,K*%
%TO.N,+9V_SW*%
X16255000Y22383750D03*
%TO.P,D2,2,A*%
%TO.N,+9V_CON*%
X12955000Y22383750D03*
%TD*%
D29*
%TO.P,FID2,*%
%TO.N,*%
X30480000Y1270000D03*
%TD*%
D16*
%TO.P,C11,1*%
%TO.N,Net-(U2--)*%
X26183750Y21748750D03*
%TO.P,C11,2*%
%TO.N,Net-(C11-Pad2)*%
X27143750Y21748750D03*
%TD*%
D30*
%TO.P,C1,1*%
%TO.N,Net-(C1-Pad1)*%
X14745000Y6032500D03*
%TO.P,C1,2*%
%TO.N,GND*%
X13195000Y6032500D03*
%TD*%
D23*
%TO.P,R9,1*%
%TO.N,S1_IN*%
X28767500Y15625000D03*
%TO.P,R9,2*%
%TO.N,GND*%
X27747500Y15625000D03*
%TD*%
D11*
%TO.P,R15,1*%
%TO.N,Net-(R15-Pad1)*%
X17303750Y13142500D03*
%TO.P,R15,2*%
%TO.N,Net-(C13-Pad1)*%
X17303750Y14162500D03*
%TD*%
D12*
%TO.P,J3,1,SLEEVE*%
%TO.N,GND*%
X21765000Y36920000D03*
%TO.P,J3,2,TIP*%
%TO.N,/Power IO/OUT*%
X27765000Y28720000D03*
%TO.P,J3,3,RING1*%
%TO.N,GND*%
X21765000Y28720000D03*
%TO.P,J3,4,RING2*%
X27765000Y36420000D03*
D13*
%TO.P,J3,10,TIP_SWITCH*%
%TO.N,unconnected-(J3-TIP_SWITCH-Pad10)*%
X25765000Y27720000D03*
%TO.P,J3,11,RING_1_SWITCH*%
%TO.N,unconnected-(J3-RING_1_SWITCH-Pad11)*%
X23765000Y27720000D03*
%TD*%
D29*
%TO.P,FID1,*%
%TO.N,*%
X1270000Y37782500D03*
%TD*%
D23*
%TO.P,R7,1*%
%TO.N,Net-(D4-K)*%
X10511250Y10636250D03*
%TO.P,R7,2*%
%TO.N,Net-(D5-K)*%
X9491250Y10636250D03*
%TD*%
D15*
%TO.P,C13,1*%
%TO.N,Net-(C13-Pad1)*%
X17303750Y15236250D03*
%TO.P,C13,2*%
%TO.N,GND*%
X17303750Y16196250D03*
%TD*%
D31*
%TO.P,C7,1*%
%TO.N,S1_IN*%
X28737500Y14513750D03*
%TO.P,C7,2*%
%TO.N,Net-(C7-Pad2)*%
X27777500Y14513750D03*
%TD*%
D11*
%TO.P,R17,1*%
%TO.N,Net-(Q1-S)*%
X5873750Y20921250D03*
%TO.P,R17,2*%
%TO.N,GND*%
X5873750Y21941250D03*
%TD*%
D19*
%TO.P,D5,1,K*%
%TO.N,Net-(D5-K)*%
X8158750Y10636250D03*
%TO.P,D5,2,A*%
%TO.N,GND*%
X4858750Y10636250D03*
%TD*%
D32*
%TO.P,D6,1,A*%
%TO.N,GND*%
X12385000Y13626250D03*
%TO.P,D6,2,common*%
%TO.N,Net-(D6-common)*%
X14285000Y13626250D03*
%TO.P,D6,3,K*%
%TO.N,GND*%
X13335000Y15901250D03*
%TD*%
D33*
%TO.P,D4,1,K*%
%TO.N,Net-(D4-K)*%
X10097500Y8413750D03*
%TO.P,D4,2,A*%
%TO.N,T5_OUT*%
X13397500Y8413750D03*
%TD*%
D23*
%TO.P,R3,1*%
%TO.N,Net-(U1-THRES)*%
X21147500Y3492500D03*
%TO.P,R3,2*%
%TO.N,GND*%
X20127500Y3492500D03*
%TD*%
D34*
%TO.P,TONE1,*%
%TO.N,*%
X11075000Y18612500D03*
X20675000Y18612500D03*
D35*
%TO.P,TONE1,1,1*%
%TO.N,Net-(R15-Pad1)*%
X18375000Y11112500D03*
D36*
%TO.P,TONE1,2,2*%
%TO.N,Net-(D6-common)*%
X15875000Y11112500D03*
%TO.P,TONE1,3,3*%
X13375000Y11112500D03*
%TD*%
D34*
%TO.P,VOLUME1,*%
%TO.N,*%
X2185000Y32582500D03*
X11785000Y32582500D03*
D35*
%TO.P,VOLUME1,1,1*%
%TO.N,GND*%
X9485000Y25082500D03*
D36*
%TO.P,VOLUME1,2,2*%
%TO.N,S1_OUT*%
X6985000Y25082500D03*
%TO.P,VOLUME1,3,3*%
%TO.N,Net-(C15-Pad2)*%
X4485000Y25082500D03*
%TD*%
D34*
%TO.P,GAIN1,*%
%TO.N,*%
X19965000Y32582500D03*
X29565000Y32582500D03*
D35*
%TO.P,GAIN1,1,1*%
%TO.N,Net-(C11-Pad2)*%
X27265000Y25082500D03*
D36*
%TO.P,GAIN1,2,2*%
%TO.N,Net-(U2--)*%
X24765000Y25082500D03*
%TO.P,GAIN1,3,3*%
X22265000Y25082500D03*
%TD*%
D37*
%TO.N,GND*%
X4858750Y9366250D03*
X19843750Y8255000D03*
X30162500Y15942500D03*
X12065000Y6032500D03*
X24765000Y6350000D03*
X13335000Y17145000D03*
X21065000Y35560000D03*
X13335000Y14605000D03*
X6667500Y21941250D03*
X22464999Y35560000D03*
X28354999Y3651250D03*
X26193750Y16577500D03*
X17145000Y8255000D03*
X28464999Y35083750D03*
X4684999Y35560000D03*
X26255000Y3651250D03*
X9285000Y35083750D03*
X22225000Y23067500D03*
X12382500Y14922500D03*
X27065000Y35083750D03*
X18415000Y30162500D03*
X3285000Y35560000D03*
X3285000Y27305000D03*
X4684999Y27305000D03*
X19367500Y3492500D03*
X18097500Y16192500D03*
X17938750Y17303750D03*
X18415000Y27463750D03*
X26352500Y13210000D03*
X21065000Y30162500D03*
X20320000Y28733750D03*
X11430000Y13652500D03*
X10684999Y35083750D03*
X17350000Y32067500D03*
X27463750Y13210000D03*
X27000200Y15625000D03*
X22464999Y30162500D03*
%TO.N,IN*%
X5105400Y7416800D03*
X7620000Y3022600D03*
%TO.N,S1_IN*%
X28727400Y13512800D03*
%TO.N,+9V_CON*%
X12928600Y26466800D03*
%TO.N,/Power IO/OUT*%
X29641800Y28702000D03*
%TO.N,Net-(D3-A)*%
X15087600Y9245600D03*
%TO.N,Net-(D5-K)*%
X6985000Y10642600D03*
%TO.N,Net-(D6-common)*%
X29768800Y20777200D03*
%TO.N,Net-(U1-THRES)*%
X19895242Y7384358D03*
X21107400Y6172200D03*
%TD*%
D38*
%TO.N,GND*%
X20320000Y28733750D02*
X21741527Y28733750D01*
X13335000Y15901250D02*
X13335000Y17145000D01*
X3914300Y36920000D02*
X3866300Y36920000D01*
X26195625Y16575625D02*
X26193750Y16577500D01*
X3663666Y36836067D02*
X3516300Y36688700D01*
X18097500Y16192500D02*
X18095625Y16194375D01*
X17178750Y17303750D02*
X17938750Y17303750D01*
X9735675Y36354876D02*
X9542900Y36162100D01*
X22464999Y30162500D02*
X22464999Y29791250D01*
X19367500Y3492500D02*
X20127500Y3492500D01*
X3285000Y27305000D02*
X3285000Y27662500D01*
D39*
X19805340Y8277500D02*
X18525000Y8277500D01*
D38*
X27463750Y13210000D02*
X27463750Y12450000D01*
X18415000Y27463750D02*
X18258125Y27463750D01*
X21758125Y28726875D02*
X21327513Y29157487D01*
X18091098Y16196250D02*
X17392138Y16196250D01*
X26960376Y4875000D02*
X26986600Y4875000D01*
X4684999Y35560000D02*
X4684999Y35966412D01*
X18415000Y30162500D02*
X17350000Y30162500D01*
X26197500Y16571099D02*
X26197500Y15625000D01*
X10684999Y35083750D02*
X10684999Y35440376D01*
X10023500Y36420000D02*
X9946500Y36420000D01*
X21065000Y35560000D02*
X21065000Y35890000D01*
X21065000Y30162500D02*
X21065000Y29791250D01*
X4684999Y27662501D02*
X4684999Y27305000D01*
X12065000Y6032500D02*
X13195000Y6032500D01*
X28464999Y35401876D02*
X28464999Y35083750D01*
X6667500Y21941250D02*
X5873750Y21941250D01*
X11443125Y13639375D02*
X11430000Y13652500D01*
X17625000Y28096875D02*
X17625000Y27940000D01*
X17178750Y16409639D02*
X17178750Y17303750D01*
D39*
X17183409Y8277500D02*
X18525000Y8277500D01*
D38*
X26197500Y15625000D02*
X27000200Y15625000D01*
X27000200Y15625000D02*
X27747500Y15625000D01*
X17350000Y32067500D02*
X17350000Y30162500D01*
X9892900Y36420000D02*
X9946500Y36420000D01*
X24765000Y6350000D02*
X24765000Y7140000D01*
X27415000Y36070001D02*
X27289948Y35944949D01*
X13335000Y14605000D02*
X13335000Y15901250D01*
X30162500Y15942500D02*
X30162500Y16913750D01*
X9285000Y35083750D02*
X9285000Y35539475D01*
X26193750Y16577500D02*
X26193750Y17708750D01*
X28354999Y3651250D02*
X28354999Y4256347D01*
X4432207Y28272793D02*
X4334999Y28370001D01*
X22225000Y23067500D02*
X23336250Y23067500D01*
X17990322Y27574678D02*
X17625000Y27940000D01*
X17350000Y28723205D02*
X17350000Y30162500D01*
X4858750Y9366250D02*
X4858750Y10636250D01*
X22114999Y36570001D02*
X22231653Y36453347D01*
X11474811Y13626250D02*
X12383232Y13626250D01*
X27623400Y4875000D02*
X26986600Y4875000D01*
X28240050Y35944950D02*
X28114999Y36070001D01*
X27623400Y4875000D02*
X27736345Y4875000D01*
X27065000Y35083750D02*
X27065000Y35401875D01*
X21771874Y28726876D02*
X22202485Y29157486D01*
X3285000Y36130293D02*
X3285000Y35560000D01*
X10089223Y36392777D02*
X10432826Y36049174D01*
X4055700Y36920000D02*
X3914300Y36920000D01*
X12382500Y14922500D02*
X12382500Y13630518D01*
X26352500Y13210000D02*
X26352500Y12420000D01*
D39*
X17156250Y8266250D02*
X17145000Y8255000D01*
D38*
X3537790Y28272792D02*
X3635000Y28370001D01*
X4176392Y36870008D02*
X4405699Y36640701D01*
X26255000Y4169624D02*
X26255000Y3651250D01*
X22464999Y35890001D02*
X22464999Y35560000D01*
D39*
X19843750Y8255000D02*
X19832500Y8266250D01*
D38*
X21415000Y36570001D02*
X21298345Y36453346D01*
X17514072Y28364678D02*
X17487500Y28391250D01*
X21758125Y28726875D02*
X21758125Y28726875D01*
X9892900Y36420000D02*
G75*
G03*
X9735686Y36354865I0J-222300D01*
G01*
X27289948Y35944949D02*
G75*
G03*
X27065011Y35401875I543052J-543049D01*
G01*
X3516300Y36688700D02*
G75*
G03*
X3285003Y36130293I558400J-558400D01*
G01*
X17350000Y28723205D02*
G75*
G03*
X17487488Y28391238I469500J-5D01*
G01*
X21758125Y28726875D02*
G75*
G03*
X21771875Y28726875I6875J6925D01*
G01*
X3866300Y36920000D02*
G75*
G03*
X3663660Y36836073I0J-286600D01*
G01*
X17990322Y27574678D02*
G75*
G03*
X18258125Y27463774I267778J267822D01*
G01*
X10432826Y36049174D02*
G75*
G02*
X10684973Y35440376I-608826J-608774D01*
G01*
X22464999Y29791250D02*
G75*
G02*
X22202465Y29157506I-896299J50D01*
G01*
X28240050Y35944950D02*
G75*
G02*
X28464989Y35401876I-543050J-543050D01*
G01*
X4432207Y28272793D02*
G75*
G02*
X4684995Y27662501I-610307J-610293D01*
G01*
X4334999Y28370001D02*
G75*
G03*
X3634999Y28370002I-350000J-349998D01*
G01*
X17241250Y16258750D02*
G75*
G03*
X17392138Y16196266I150850J150850D01*
G01*
D39*
X17183409Y8277500D02*
G75*
G03*
X17156247Y8266253I-9J-38400D01*
G01*
D38*
X21771874Y28726876D02*
G75*
G02*
X21758126Y28726876I-6874J6924D01*
G01*
X4405699Y36640701D02*
G75*
G02*
X4685004Y35966412I-674299J-674301D01*
G01*
X18095625Y16194375D02*
G75*
G03*
X18091098Y16196264I-4525J-4475D01*
G01*
D39*
X19832500Y8266250D02*
G75*
G03*
X19805340Y8277531I-27200J-27150D01*
G01*
D38*
X9542900Y36162100D02*
G75*
G03*
X9285011Y35539475I622600J-622600D01*
G01*
X17514072Y28364678D02*
G75*
G02*
X17624991Y28096875I-267772J-267778D01*
G01*
X10089223Y36392777D02*
G75*
G03*
X10023500Y36420014I-65723J-65677D01*
G01*
X11443125Y13639375D02*
G75*
G03*
X11474811Y13626269I31675J31725D01*
G01*
X17178750Y16409639D02*
G75*
G03*
X17241239Y16258739I213350J-39D01*
G01*
X12383750Y13627500D02*
G75*
G02*
X12383232Y13626257I-550J-500D01*
G01*
X28114999Y36070001D02*
G75*
G03*
X27415001Y36070001I-349999J-349998D01*
G01*
X21298345Y36453346D02*
G75*
G03*
X21065002Y35890000I563355J-563346D01*
G01*
X28173799Y4693801D02*
G75*
G03*
X27736345Y4875018I-437499J-437501D01*
G01*
X3537790Y28272792D02*
G75*
G03*
X3285004Y27662500I610310J-610292D01*
G01*
X26461600Y4668400D02*
G75*
G03*
X26254990Y4169624I498800J-498800D01*
G01*
X21758125Y28726875D02*
G75*
G03*
X21741527Y28733776I-16625J-16575D01*
G01*
X22231653Y36453347D02*
G75*
G02*
X22464997Y35890001I-563353J-563347D01*
G01*
X26960376Y4875000D02*
G75*
G03*
X26461607Y4668393I24J-705400D01*
G01*
X22114999Y36570001D02*
G75*
G03*
X21415001Y36570001I-349999J-349998D01*
G01*
X21065000Y29791250D02*
G75*
G03*
X21327483Y29157457I896300J-50D01*
G01*
X4176392Y36870008D02*
G75*
G03*
X4055700Y36919996I-120692J-120708D01*
G01*
X28173799Y4693801D02*
G75*
G02*
X28355018Y4256347I-437499J-437501D01*
G01*
X26195625Y16575625D02*
G75*
G02*
X26197499Y16571099I-4525J-4525D01*
G01*
X12382500Y13630518D02*
G75*
G03*
X12383734Y13627485I4300J-18D01*
G01*
%TO.N,+9V*%
X15591250Y27940000D02*
X16665000Y27940000D01*
%TO.N,+4v5*%
X27484963Y11430000D02*
X28575000Y11430000D01*
X27412536Y11460000D02*
X26373713Y11460000D01*
X26301286Y11430000D02*
X25241250Y11430000D01*
X27448750Y11445000D02*
G75*
G03*
X27412536Y11460030I-36250J-36200D01*
G01*
X27448750Y11445000D02*
G75*
G03*
X27484963Y11429970I36250J36200D01*
G01*
X26373713Y11460000D02*
G75*
G03*
X26337496Y11445004I-13J-51200D01*
G01*
X26337500Y11445000D02*
G75*
G02*
X26301286Y11430005I-36200J36200D01*
G01*
D40*
%TO.N,IN*%
X2133600Y12489980D02*
X2133600Y28074130D01*
X3619500Y8902700D02*
X5105400Y7416800D01*
X6955461Y5566739D02*
X5105400Y7416800D01*
X7620000Y3022600D02*
X7620000Y3962400D01*
X8852846Y30632400D02*
X4691870Y30632400D01*
X9985000Y29500247D02*
X9985000Y28720000D01*
X9653400Y30300800D02*
G75*
G03*
X8852846Y30632419I-800600J-800600D01*
G01*
X4691870Y30632400D02*
G75*
G03*
X2882909Y29883091I30J-2558300D01*
G01*
X6955461Y5566739D02*
G75*
G02*
X7619994Y3962400I-1604361J-1604339D01*
G01*
X2882900Y29883100D02*
G75*
G03*
X2133588Y28074130I1809000J-1809000D01*
G01*
X9653400Y30300800D02*
G75*
G02*
X9985019Y29500247I-800600J-800600D01*
G01*
X2133600Y12489980D02*
G75*
G03*
X3619506Y8902706I5073200J20D01*
G01*
%TO.N,S1_IN*%
X28752500Y15610000D02*
X28767500Y15625000D01*
X28737500Y15573787D02*
X28737500Y14520892D01*
X28727400Y14496509D02*
X28727400Y13512800D01*
X28732450Y14508700D02*
G75*
G03*
X28727382Y14496509I12150J-12200D01*
G01*
X28737500Y14520892D02*
G75*
G02*
X28732437Y14508713I-17200J8D01*
G01*
X28752500Y15610000D02*
G75*
G03*
X28737505Y15573787I36200J-36200D01*
G01*
%TO.N,Net-(C15-Pad2)*%
X4445000Y25014216D02*
X4445000Y22682500D01*
X4465000Y25062500D02*
X4485000Y25082500D01*
X4465000Y25062500D02*
G75*
G03*
X4444993Y25014216I48300J-48300D01*
G01*
D38*
%TO.N,+9V_CON*%
X12928600Y24968818D02*
X12928600Y26466800D01*
X12955000Y24905083D02*
X12955000Y22383750D01*
X12928600Y24968818D02*
G75*
G03*
X12941784Y24936935I45100J-18D01*
G01*
X12941800Y24936950D02*
G75*
G02*
X12954978Y24905083I-31900J-31850D01*
G01*
D39*
%TO.N,+9V_SW*%
X21851989Y8269000D02*
X21851547Y8269000D01*
X17662773Y18698600D02*
X17662773Y18710027D01*
X16255000Y21911175D02*
X16255000Y22383750D01*
X24283511Y8100000D02*
X24765000Y8100000D01*
X20127500Y5697237D02*
X20127500Y4762500D01*
X21144780Y15216593D02*
X17662773Y18698600D01*
X16728826Y20964774D02*
X16589160Y21104440D01*
X22750000Y8277500D02*
X23854988Y8277500D01*
X19386000Y6327500D02*
X19634200Y6327500D01*
X19634200Y6327500D02*
X19386000Y6327500D01*
X19713300Y6327500D02*
X19634200Y6327500D01*
X21872510Y8277500D02*
X22750000Y8277500D01*
X20060184Y6471185D02*
X21541437Y7952438D01*
X25694254Y7825000D02*
X27305000Y7825000D01*
X19942900Y6142900D02*
X19846051Y6239749D01*
X25030345Y8100000D02*
X24765000Y8100000D01*
X19386000Y6327500D02*
X18525000Y6327500D01*
X21840531Y8264438D02*
X21550562Y7974469D01*
X21156207Y15216593D02*
X21144780Y15216593D01*
X22750000Y8277500D02*
X22750000Y11368837D01*
X25362300Y7962500D02*
G75*
G03*
X25694254Y7824981I332000J332000D01*
G01*
X17662773Y18710027D02*
G75*
G02*
X17195786Y19837400I1127327J1127373D01*
G01*
X21550562Y7974469D02*
G75*
G03*
X21546039Y7963453I11038J-10969D01*
G01*
X22750000Y11368837D02*
G75*
G03*
X21156199Y15216585I-5441600J-37D01*
G01*
X21546000Y7963453D02*
G75*
G02*
X21541418Y7952457I-15600J47D01*
G01*
X16589160Y21104440D02*
G75*
G02*
X16254983Y21911175I806740J806760D01*
G01*
X19942900Y6142900D02*
G75*
G02*
X20127515Y5697237I-445700J-445700D01*
G01*
X21872510Y8277500D02*
G75*
G03*
X21862247Y8273253I-10J-14500D01*
G01*
X19634200Y6327500D02*
X19634200Y6327500D01*
X17195800Y19837400D02*
G75*
G03*
X16728816Y20964764I-1594300J0D01*
G01*
X25362300Y7962500D02*
G75*
G03*
X25030345Y8100019I-332000J-332000D01*
G01*
X24069250Y8188750D02*
G75*
G03*
X24283511Y8100005I214250J214250D01*
G01*
X20060184Y6471185D02*
G75*
G02*
X19713300Y6327510I-346884J346915D01*
G01*
X21851547Y8269000D02*
G75*
G03*
X21840504Y8264465I-47J-15600D01*
G01*
X24069250Y8188750D02*
G75*
G03*
X23854988Y8277495I-214250J-214250D01*
G01*
X19846051Y6239749D02*
G75*
G03*
X19634200Y6327501I-211851J-211849D01*
G01*
X21862250Y8273250D02*
G75*
G02*
X21851989Y8269004I-10250J10250D01*
G01*
D40*
%TO.N,T5_OUT*%
X13749505Y7427500D02*
X15016726Y7427500D01*
X13397500Y7779506D02*
X13397500Y8413750D01*
X15237023Y7336250D02*
X16351250Y7336250D01*
X16857575Y7336250D02*
X16351250Y7336250D01*
X17723674Y6977500D02*
X18525000Y6977500D01*
X17290625Y7156875D02*
G75*
G03*
X17723674Y6977475I433075J433025D01*
G01*
X13500600Y7530600D02*
G75*
G03*
X13749505Y7427502I248900J248900D01*
G01*
X15126875Y7381875D02*
G75*
G03*
X15016726Y7427511I-110175J-110175D01*
G01*
X17290625Y7156875D02*
G75*
G03*
X16857575Y7336225I-433025J-433075D01*
G01*
X15126875Y7381875D02*
G75*
G03*
X15237023Y7336260I110125J110125D01*
G01*
X13397500Y7779506D02*
G75*
G03*
X13500598Y7530598I352000J-6D01*
G01*
%TO.N,/Power IO/OUT*%
X27774000Y28711000D02*
X27765000Y28720000D01*
X27795727Y28702000D02*
X29641800Y28702000D01*
X27774000Y28711000D02*
G75*
G03*
X27795727Y28702012I21700J21700D01*
G01*
%TO.N,Net-(C1-Pad1)*%
X16067291Y6316250D02*
X16351250Y6316250D01*
X14042325Y4542726D02*
X14466718Y4967119D01*
X15138550Y6032500D02*
X15382258Y6032500D01*
X13800000Y3957700D02*
X13800000Y3615000D01*
X16067291Y6316250D02*
G75*
G03*
X15724788Y6174362I9J-484350D01*
G01*
X14042325Y4542726D02*
G75*
G03*
X13799984Y3957700I584975J-585026D01*
G01*
X15138550Y6032500D02*
G75*
G03*
X14745000Y5638950I-50J-393500D01*
G01*
X14745000Y5638950D02*
G75*
G02*
X14466691Y4967146I-950100J50D01*
G01*
X15724775Y6174375D02*
G75*
G02*
X15382258Y6032532I-342475J342525D01*
G01*
%TO.N,Net-(C7-Pad2)*%
X25241250Y12838525D02*
X25241250Y12450000D01*
X25515978Y13501779D02*
X26121274Y14107075D01*
X26377725Y14513750D02*
X27777500Y14513750D01*
X26377725Y14513750D02*
G75*
G03*
X26227450Y14363525I-25J-150250D01*
G01*
X25515978Y13501779D02*
G75*
G03*
X25241222Y12838525I663222J-663279D01*
G01*
X26227500Y14363525D02*
G75*
G02*
X26121292Y14107057I-362700J-25D01*
G01*
%TO.N,Net-(C8-Pad2)*%
X29513826Y18463750D02*
X30162500Y18463750D01*
X29003823Y18675000D02*
X28733750Y18675000D01*
X29258825Y18569375D02*
G75*
G03*
X29513826Y18463776I254975J255025D01*
G01*
X29258825Y18569375D02*
G75*
G03*
X29003823Y18675024I-255025J-254975D01*
G01*
%TO.N,Net-(C9-Pad2)*%
X24408283Y21782500D02*
X24606250Y21782500D01*
X23768516Y21517500D02*
X23336250Y21517500D01*
X24408283Y21782500D02*
G75*
G03*
X24088405Y21649995I17J-452400D01*
G01*
X24088400Y21650000D02*
G75*
G02*
X23768516Y21517493I-319900J319900D01*
G01*
%TO.N,Net-(U2-+)*%
X25243750Y15635670D02*
X25243750Y17708750D01*
X25222500Y14528750D02*
X25207500Y14513750D01*
X25237500Y14564964D02*
X25237500Y15620581D01*
X25237500Y14564964D02*
G75*
G02*
X25222479Y14528771I-51200J36D01*
G01*
X25243750Y15635670D02*
G75*
G02*
X25240606Y15628144I-10650J30D01*
G01*
X25240625Y15628125D02*
G75*
G03*
X25237523Y15620581I7575J-7525D01*
G01*
%TO.N,Net-(C11-Pad2)*%
X27265000Y24023337D02*
X27265000Y25082500D01*
X27143750Y21748750D02*
X27143750Y20208750D01*
X27143750Y23730614D02*
X27143750Y23177500D01*
X27143750Y23177500D02*
X27143750Y21748750D01*
X27204375Y23876975D02*
G75*
G03*
X27143730Y23730614I146325J-146375D01*
G01*
X27265000Y24023337D02*
G75*
G02*
X27204396Y23876954I-207000J-37D01*
G01*
%TO.N,Net-(U2--)*%
X24606250Y22802500D02*
X24606250Y23350997D01*
X24765000Y25082500D02*
X22265000Y25082500D01*
X25996119Y22467081D02*
X25922225Y22540975D01*
X24765000Y25082500D02*
X24765000Y23734254D01*
X27143750Y17746757D02*
X27143750Y18104400D01*
X25290847Y22802500D02*
X24606250Y22802500D01*
X26183750Y20138873D02*
X26183750Y21748750D01*
X26663750Y18980050D02*
X26863983Y18779817D01*
X27235506Y17655000D02*
X28733750Y17655000D01*
X26183750Y22014100D02*
X26183750Y21748750D01*
X25922225Y22540975D02*
G75*
G03*
X25290847Y22802534I-631425J-631375D01*
G01*
X27143750Y17746757D02*
G75*
G03*
X27170648Y17681898I91750J43D01*
G01*
X26863983Y18779817D02*
G75*
G02*
X27143760Y18104400I-675383J-675417D01*
G01*
X27170625Y17681875D02*
G75*
G03*
X27235506Y17655018I64875J64925D01*
G01*
X26183750Y20138873D02*
G75*
G03*
X26663758Y18980058I1638850J27D01*
G01*
X24685625Y23542625D02*
G75*
G03*
X24606237Y23350997I191575J-191625D01*
G01*
X24765000Y23734254D02*
G75*
G02*
X24685601Y23542649I-271000J46D01*
G01*
X25996119Y22467081D02*
G75*
G02*
X26183739Y22014100I-453019J-452981D01*
G01*
%TO.N,Net-(C12-Pad2)*%
X28693750Y21850785D02*
X28693750Y23177500D01*
X28713750Y21802500D02*
X28733750Y21782500D01*
X28693750Y21850785D02*
G75*
G03*
X28713765Y21802515I68250J15D01*
G01*
%TO.N,Net-(C13-Pad1)*%
X17303750Y15236250D02*
X17303750Y14162500D01*
X17303750Y15236250D02*
X16033750Y15236250D01*
%TO.N,Net-(Q1-G)*%
X14835625Y17953750D02*
X14605000Y17953750D01*
X16158750Y16805939D02*
X16158750Y17303750D01*
X15229326Y17790674D02*
X15559802Y17460198D01*
X16033750Y16504162D02*
X16033750Y16196250D01*
X15937500Y17303750D02*
X16158750Y17303750D01*
X15559802Y17460198D02*
G75*
G03*
X15937500Y17303752I377698J377702D01*
G01*
X16096250Y16655050D02*
G75*
G03*
X16033766Y16504162I150850J-150850D01*
G01*
X15229326Y17790674D02*
G75*
G03*
X14835625Y17953776I-393726J-393674D01*
G01*
X16158750Y16805939D02*
G75*
G02*
X16096282Y16655018I-213450J-39D01*
G01*
%TO.N,Net-(Q1-S)*%
X5567926Y20921250D02*
X5873750Y20921250D01*
X13655000Y20475952D02*
X13655000Y19828750D01*
X5057923Y21132500D02*
X4445000Y21132500D01*
X13209701Y20921250D02*
X5873750Y20921250D01*
X5312925Y21026875D02*
G75*
G03*
X5057923Y21132524I-255025J-254975D01*
G01*
X5312925Y21026875D02*
G75*
G03*
X5567926Y20921276I254975J255025D01*
G01*
X13524575Y20790825D02*
G75*
G03*
X13209701Y20921265I-314875J-314825D01*
G01*
X13524575Y20790825D02*
G75*
G02*
X13655036Y20475952I-314875J-314925D01*
G01*
D38*
%TO.N,Net-(D1-K)*%
X14774843Y27160557D02*
X15987483Y25947917D01*
X16255000Y25302075D02*
X16255000Y24923750D01*
X14571250Y27652075D02*
X14571250Y27940000D01*
X15987483Y25947917D02*
G75*
G02*
X16254970Y25302075I-645883J-645817D01*
G01*
X14571250Y27652075D02*
G75*
G03*
X14774848Y27160562I695150J25D01*
G01*
D40*
%TO.N,Net-(D3-A)*%
X15081250Y9234760D02*
X15081250Y8447500D01*
X15087600Y9245600D02*
X15084425Y9242425D01*
X15084425Y9242425D02*
G75*
G03*
X15081281Y9234760I7675J-7625D01*
G01*
%TO.N,Net-(D4-K)*%
X10511250Y10010066D02*
X10511250Y10636250D01*
X10097500Y9011185D02*
X10097500Y8413750D01*
X10304375Y9510625D02*
G75*
G03*
X10097506Y9011185I499425J-499425D01*
G01*
X10511250Y10010066D02*
G75*
G02*
X10304365Y9510635I-706350J34D01*
G01*
%TO.N,Net-(D5-K)*%
X8158750Y10636250D02*
X9491250Y10636250D01*
X6995840Y10636250D02*
X8158750Y10636250D01*
X6985000Y10642600D02*
X6988175Y10639425D01*
X6988175Y10639425D02*
G75*
G03*
X6995840Y10636281I7625J7675D01*
G01*
%TO.N,Net-(D6-common)*%
X14285000Y12665968D02*
X14285000Y13626250D01*
X28741100Y20769850D02*
X28733750Y20762500D01*
X28758844Y20777200D02*
X29768800Y20777200D01*
X14018467Y11112500D02*
X15875000Y11112500D01*
X13830000Y11567500D02*
G75*
G03*
X14018467Y11112421I188500J-188500D01*
G01*
X14285000Y12665968D02*
G75*
G02*
X13829990Y11567510I-1553500J32D01*
G01*
X28758844Y20777200D02*
G75*
G03*
X28741077Y20769873I-44J-25100D01*
G01*
%TO.N,Net-(U1-THRES)*%
X21147500Y3492500D02*
X21147500Y4734146D01*
X17950000Y3012321D02*
X17950000Y3615000D01*
X21107400Y6172200D02*
X21107400Y4830955D01*
X21147500Y3492500D02*
X21147500Y2937379D01*
X19773671Y7505929D02*
X19895242Y7384358D01*
X21294149Y6790751D02*
X21260064Y6756665D01*
X21107400Y6172200D02*
X21107400Y6388100D01*
X21745004Y6977500D02*
X22750000Y6977500D01*
X19480172Y7627500D02*
X18525000Y7627500D01*
X18396920Y2565400D02*
X20775521Y2565400D01*
X21107400Y4830955D02*
G75*
G03*
X21127484Y4782584I68400J45D01*
G01*
X21745004Y6977500D02*
G75*
G03*
X21294149Y6790751I-4J-637600D01*
G01*
X21038550Y2674350D02*
G75*
G02*
X20775521Y2565391I-263050J263050D01*
G01*
X21127450Y4782550D02*
G75*
G02*
X21147519Y4734146I-48450J-48450D01*
G01*
X17950000Y3012321D02*
G75*
G03*
X18080894Y2696294I446900J-21D01*
G01*
X18080900Y2696300D02*
G75*
G03*
X18396920Y2565409I316000J316000D01*
G01*
X19773671Y7505929D02*
G75*
G03*
X19480172Y7627472I-293471J-293529D01*
G01*
X21260064Y6756665D02*
G75*
G03*
X21107391Y6388100I368536J-368565D01*
G01*
X21147500Y2937379D02*
G75*
G02*
X21038544Y2674356I-372000J21D01*
G01*
%TO.N,Net-(R15-Pad1)*%
X17644529Y13142500D02*
X17303750Y13142500D01*
X18375000Y12412030D02*
X18375000Y11112500D01*
X18161050Y12928550D02*
G75*
G03*
X17644529Y13142512I-516550J-516550D01*
G01*
X18161050Y12928550D02*
G75*
G02*
X18375012Y12412030I-516550J-516550D01*
G01*
%TD*%
%TA.AperFunction,Conductor*%
%TO.N,+9V*%
G36*
X6505410Y38832315D02*
G01*
X6551165Y38779511D01*
X6561109Y38710353D01*
X6532084Y38646797D01*
X6494666Y38617515D01*
X6355800Y38546760D01*
X6276351Y38489036D01*
X6202927Y38435690D01*
X6202925Y38435688D01*
X6202924Y38435688D01*
X6069312Y38302076D01*
X6069312Y38302075D01*
X6069310Y38302073D01*
X6021610Y38236421D01*
X5958240Y38149200D01*
X5872454Y37980837D01*
X5814059Y37801119D01*
X5784500Y37614487D01*
X5784500Y37425514D01*
X5814059Y37238882D01*
X5872454Y37059164D01*
X5958240Y36890801D01*
X6069310Y36737927D01*
X6202927Y36604310D01*
X6355801Y36493240D01*
X6435347Y36452710D01*
X6524163Y36407455D01*
X6524165Y36407455D01*
X6524168Y36407453D01*
X6620497Y36376154D01*
X6703881Y36349060D01*
X6890514Y36319500D01*
X6890519Y36319500D01*
X7079486Y36319500D01*
X7266118Y36349060D01*
X7445832Y36407453D01*
X7614199Y36493240D01*
X7767073Y36604310D01*
X7900690Y36737927D01*
X8011760Y36890801D01*
X8077599Y37020017D01*
X8484500Y37020017D01*
X8484500Y35819999D01*
X8484501Y35819982D01*
X8495000Y35717203D01*
X8524204Y35629073D01*
X8524654Y35626285D01*
X8525473Y35625010D01*
X8530498Y35590075D01*
X8530500Y35550668D01*
X8530500Y35378697D01*
X8521062Y35331249D01*
X8515263Y35317247D01*
X8515262Y35317244D01*
X8515260Y35317239D01*
X8484500Y35162597D01*
X8484500Y35004904D01*
X8515261Y34850261D01*
X8515264Y34850249D01*
X8575602Y34704578D01*
X8575609Y34704565D01*
X8663210Y34573462D01*
X8663213Y34573458D01*
X8774707Y34461964D01*
X8774711Y34461961D01*
X8905814Y34374360D01*
X8905827Y34374353D01*
X9002991Y34334107D01*
X9051503Y34314013D01*
X9206153Y34283251D01*
X9206156Y34283250D01*
X9206158Y34283250D01*
X9363844Y34283250D01*
X9363845Y34283251D01*
X9518497Y34314013D01*
X9664179Y34374356D01*
X9795289Y34461961D01*
X9897319Y34563992D01*
X9958640Y34597475D01*
X10028332Y34592491D01*
X10072680Y34563990D01*
X10174706Y34461964D01*
X10174710Y34461961D01*
X10305813Y34374360D01*
X10305826Y34374353D01*
X10402990Y34334107D01*
X10457394Y34290267D01*
X10479459Y34223973D01*
X10462180Y34156273D01*
X10443220Y34131865D01*
X10383198Y34071843D01*
X10234738Y33878365D01*
X10234727Y33878349D01*
X10112791Y33667152D01*
X10112786Y33667141D01*
X10019459Y33441831D01*
X10019456Y33441821D01*
X9956335Y33206247D01*
X9956333Y33206236D01*
X9924500Y32964452D01*
X9924500Y32200549D01*
X9950640Y32002007D01*
X9956334Y31958756D01*
X10016279Y31735037D01*
X10019456Y31723180D01*
X10019459Y31723170D01*
X10112786Y31497860D01*
X10112791Y31497849D01*
X10234727Y31286652D01*
X10234738Y31286636D01*
X10383199Y31093157D01*
X10383205Y31093150D01*
X10555649Y30920706D01*
X10555656Y30920700D01*
X10653514Y30845611D01*
X10749144Y30772232D01*
X10749151Y30772228D01*
X10960348Y30650292D01*
X10960353Y30650290D01*
X10960356Y30650288D01*
X11102437Y30591436D01*
X11163359Y30566201D01*
X11185679Y30556956D01*
X11421256Y30493834D01*
X11663056Y30462000D01*
X11663063Y30462000D01*
X11906937Y30462000D01*
X11906944Y30462000D01*
X12148744Y30493834D01*
X12384321Y30556956D01*
X12609644Y30650288D01*
X12820856Y30772232D01*
X13014345Y30920701D01*
X13060114Y30966470D01*
X13113319Y31019674D01*
X13174642Y31053159D01*
X13244334Y31048175D01*
X13300267Y31006303D01*
X13324684Y30940839D01*
X13325000Y30931993D01*
X13325000Y30412500D01*
X14150000Y30412500D01*
X14650000Y30412500D01*
X15474999Y30412500D01*
X15474999Y31312472D01*
X15474998Y31312487D01*
X15464505Y31415198D01*
X15409358Y31581620D01*
X15409356Y31581625D01*
X15317315Y31730846D01*
X15193345Y31854816D01*
X15044124Y31946857D01*
X15044119Y31946859D01*
X14877697Y32002006D01*
X14877690Y32002007D01*
X14774986Y32012500D01*
X14650000Y32012500D01*
X14650000Y30412500D01*
X14150000Y30412500D01*
X14150000Y32012500D01*
X14025027Y32012500D01*
X14025012Y32012499D01*
X13922302Y32002006D01*
X13793302Y31959259D01*
X13723474Y31956857D01*
X13663432Y31992589D01*
X13632239Y32055109D01*
X13631359Y32093147D01*
X13645500Y32200556D01*
X13645500Y32964444D01*
X13625860Y33113621D01*
X14924500Y33113621D01*
X14924500Y32926380D01*
X14961025Y32742757D01*
X14961027Y32742749D01*
X15032676Y32569772D01*
X15032681Y32569763D01*
X15136697Y32414093D01*
X15136700Y32414089D01*
X15269088Y32281701D01*
X15269092Y32281698D01*
X15424762Y32177682D01*
X15424771Y32177677D01*
X15463956Y32161446D01*
X15597749Y32106027D01*
X15781379Y32069501D01*
X15781383Y32069500D01*
X15781384Y32069500D01*
X15968617Y32069500D01*
X15968618Y32069501D01*
X16152251Y32106027D01*
X16325231Y32177678D01*
X16325236Y32177682D01*
X16325239Y32177683D01*
X16356608Y32198643D01*
X16362164Y32200383D01*
X16366291Y32204493D01*
X16395134Y32210708D01*
X16423285Y32219522D01*
X16428900Y32217982D01*
X16434593Y32219208D01*
X16462217Y32208842D01*
X16490666Y32201038D01*
X16494556Y32196708D01*
X16500009Y32194661D01*
X16517643Y32171006D01*
X16537356Y32149060D01*
X16539191Y32142100D01*
X16541768Y32138643D01*
X16545311Y32118893D01*
X16549201Y32104141D01*
X16549500Y32099840D01*
X16549500Y31988658D01*
X16561380Y31928930D01*
X16561928Y31921057D01*
X16556056Y31894324D01*
X16553616Y31867056D01*
X16548279Y31858913D01*
X16546940Y31852814D01*
X16539288Y31845193D01*
X16525909Y31824777D01*
X16432287Y31731155D01*
X16340187Y31581837D01*
X16340185Y31581832D01*
X16340115Y31581620D01*
X16285001Y31415297D01*
X16285001Y31415296D01*
X16285000Y31415296D01*
X16274500Y31312517D01*
X16274500Y29012499D01*
X16274501Y29012482D01*
X16285000Y28909704D01*
X16285001Y28909700D01*
X16308451Y28838934D01*
X16309506Y28808258D01*
X16312743Y28777739D01*
X16310696Y28773665D01*
X16310853Y28769105D01*
X16295153Y28742726D01*
X16281379Y28715304D01*
X16276504Y28711388D01*
X16275121Y28709063D01*
X16253866Y28693198D01*
X16196515Y28659281D01*
X16128791Y28642098D01*
X16070273Y28659281D01*
X15980441Y28712407D01*
X15980438Y28712409D01*
X15841251Y28752847D01*
X15841250Y28752846D01*
X15841250Y28190000D01*
X16541000Y28190000D01*
X16608039Y28170315D01*
X16653794Y28117511D01*
X16665000Y28066000D01*
X16665000Y27940000D01*
X16720500Y27940000D01*
X16787539Y27920315D01*
X16833294Y27867511D01*
X16844500Y27816000D01*
X16844500Y27705303D01*
X16847356Y27669009D01*
X16847357Y27669003D01*
X16892503Y27513611D01*
X16892505Y27513607D01*
X16892506Y27513605D01*
X16897732Y27504767D01*
X16915000Y27441648D01*
X16915000Y27135497D01*
X17061194Y27177968D01*
X17081384Y27189909D01*
X17149108Y27207094D01*
X17186549Y27199835D01*
X17197556Y27195869D01*
X17228605Y27177506D01*
X17331286Y27147675D01*
X17334959Y27146351D01*
X17349121Y27135993D01*
X17380600Y27117376D01*
X17396209Y27101767D01*
X17396302Y27101664D01*
X17420512Y27077458D01*
X17420554Y27077381D01*
X17519907Y26978046D01*
X17519913Y26978041D01*
X17664226Y26873210D01*
X17725562Y26841964D01*
X17823161Y26792244D01*
X17992808Y26737136D01*
X18115233Y26717755D01*
X18143285Y26709844D01*
X18181503Y26694013D01*
X18336153Y26663251D01*
X18336156Y26663250D01*
X18336158Y26663250D01*
X18493844Y26663250D01*
X18493845Y26663251D01*
X18648497Y26694013D01*
X18794179Y26754356D01*
X18925289Y26841961D01*
X19036789Y26953461D01*
X19124394Y27084571D01*
X19126058Y27088587D01*
X19145488Y27135497D01*
X19184737Y27230253D01*
X19215500Y27384908D01*
X19215500Y27542592D01*
X19215500Y27542595D01*
X19215499Y27542597D01*
X19198822Y27626438D01*
X19184737Y27697247D01*
X19136377Y27814000D01*
X19124397Y27842923D01*
X19124390Y27842936D01*
X19036789Y27974039D01*
X19036786Y27974043D01*
X18925292Y28085537D01*
X18925288Y28085540D01*
X18794185Y28173141D01*
X18794172Y28173148D01*
X18648501Y28233486D01*
X18648489Y28233489D01*
X18493845Y28264250D01*
X18493842Y28264250D01*
X18480272Y28264250D01*
X18462552Y28269454D01*
X18444083Y28269648D01*
X18429721Y28279094D01*
X18413233Y28283935D01*
X18401140Y28297891D01*
X18385707Y28308041D01*
X18374870Y28328209D01*
X18367478Y28336739D01*
X18366940Y28337932D01*
X18363535Y28345600D01*
X18357494Y28366395D01*
X18344690Y28388045D01*
X18341764Y28394636D01*
X18341421Y28397208D01*
X18337165Y28406635D01*
X18296481Y28531866D01*
X18296480Y28531868D01*
X18294617Y28536366D01*
X18296343Y28537082D01*
X18284908Y28597911D01*
X18302752Y28650654D01*
X18359814Y28743166D01*
X18414999Y28909703D01*
X18425500Y29012491D01*
X18425500Y29246642D01*
X18445185Y29313681D01*
X18497989Y29359436D01*
X18525309Y29368259D01*
X18558461Y29374854D01*
X18648497Y29392763D01*
X18794179Y29453106D01*
X18925289Y29540711D01*
X19036789Y29652211D01*
X19124394Y29783321D01*
X19184737Y29929003D01*
X19215500Y30083658D01*
X19215500Y30241342D01*
X19215500Y30241345D01*
X19215499Y30241347D01*
X19207768Y30280211D01*
X19184737Y30395997D01*
X19181343Y30404189D01*
X19173875Y30473658D01*
X19205150Y30536137D01*
X19265239Y30571789D01*
X19335064Y30569295D01*
X19343356Y30566203D01*
X19365679Y30556956D01*
X19601256Y30493834D01*
X19843056Y30462000D01*
X19843063Y30462000D01*
X20086937Y30462000D01*
X20086944Y30462000D01*
X20142784Y30469352D01*
X20211819Y30458587D01*
X20264075Y30412207D01*
X20282961Y30344939D01*
X20280587Y30322222D01*
X20264500Y30241347D01*
X20264500Y30083654D01*
X20290129Y29954813D01*
X20295263Y29929003D01*
X20301055Y29915019D01*
X20301061Y29915006D01*
X20302685Y29906846D01*
X20305469Y29902516D01*
X20310484Y29867658D01*
X20310500Y29867582D01*
X20310500Y29716938D01*
X20310535Y29716756D01*
X20310537Y29710604D01*
X20310535Y29710600D01*
X20310537Y29710575D01*
X20310537Y29683096D01*
X20312703Y29666631D01*
X20301931Y29597597D01*
X20255546Y29545345D01*
X20213954Y29528840D01*
X20086508Y29503489D01*
X20086498Y29503486D01*
X19940827Y29443148D01*
X19940814Y29443141D01*
X19809711Y29355540D01*
X19809707Y29355537D01*
X19698213Y29244043D01*
X19698210Y29244039D01*
X19610609Y29112936D01*
X19610602Y29112923D01*
X19550264Y28967252D01*
X19550261Y28967240D01*
X19519500Y28812597D01*
X19519500Y28654904D01*
X19550261Y28500261D01*
X19550264Y28500249D01*
X19610602Y28354578D01*
X19610609Y28354565D01*
X19698210Y28223462D01*
X19698213Y28223458D01*
X19809707Y28111964D01*
X19809711Y28111961D01*
X19940814Y28024360D01*
X19940827Y28024353D01*
X20080849Y27966355D01*
X20086503Y27964013D01*
X20161340Y27949127D01*
X20236365Y27934203D01*
X20298276Y27901818D01*
X20326522Y27856926D01*
X20327134Y27857211D01*
X20329399Y27852353D01*
X20329880Y27851589D01*
X20330186Y27850666D01*
X20422288Y27701344D01*
X20546344Y27577288D01*
X20695666Y27485186D01*
X20862203Y27430001D01*
X20964991Y27419500D01*
X22490500Y27419501D01*
X22557539Y27399816D01*
X22603294Y27347013D01*
X22614500Y27295501D01*
X22614500Y26919999D01*
X22614501Y26919981D01*
X22625000Y26817204D01*
X22625001Y26817201D01*
X22670601Y26679591D01*
X22680186Y26650666D01*
X22683062Y26646004D01*
X22686072Y26641123D01*
X22704511Y26573730D01*
X22683587Y26507067D01*
X22629944Y26462298D01*
X22561135Y26453555D01*
X22375222Y26483000D01*
X22154778Y26483000D01*
X22088484Y26472500D01*
X21937047Y26448515D01*
X21727396Y26380397D01*
X21727393Y26380396D01*
X21530974Y26280313D01*
X21352641Y26150748D01*
X21352636Y26150744D01*
X21196756Y25994864D01*
X21196752Y25994859D01*
X21067187Y25816526D01*
X20967104Y25620107D01*
X20967103Y25620104D01*
X20898985Y25410453D01*
X20864500Y25192722D01*
X20864500Y24972279D01*
X20898985Y24754548D01*
X20967103Y24544897D01*
X20967104Y24544894D01*
X21015000Y24450896D01*
X21049854Y24382491D01*
X21067187Y24348475D01*
X21196752Y24170142D01*
X21196756Y24170137D01*
X21352636Y24014257D01*
X21352641Y24014253D01*
X21530976Y23884686D01*
X21630066Y23834196D01*
X21680861Y23786222D01*
X21697656Y23718401D01*
X21675118Y23652266D01*
X21661452Y23636031D01*
X21603210Y23577789D01*
X21515609Y23446686D01*
X21515602Y23446673D01*
X21455264Y23301002D01*
X21455261Y23300990D01*
X21424500Y23146347D01*
X21424500Y22988654D01*
X21455261Y22834011D01*
X21455264Y22833999D01*
X21515602Y22688328D01*
X21515609Y22688315D01*
X21603210Y22557212D01*
X21603213Y22557208D01*
X21714707Y22445714D01*
X21714711Y22445711D01*
X21845814Y22358110D01*
X21845827Y22358103D01*
X21962462Y22309792D01*
X21991503Y22297763D01*
X22136340Y22268953D01*
X22146153Y22267001D01*
X22146156Y22267000D01*
X22146158Y22267000D01*
X22303842Y22267000D01*
X22313659Y22268953D01*
X22383248Y22262730D01*
X22438428Y22219870D01*
X22461677Y22153981D01*
X22445613Y22085983D01*
X22443395Y22082242D01*
X22424250Y22051202D01*
X22424246Y22051195D01*
X22370901Y21890210D01*
X22360750Y21790853D01*
X22360750Y21244163D01*
X22360751Y21244145D01*
X22370900Y21144793D01*
X22370901Y21144790D01*
X22424246Y20983806D01*
X22424251Y20983795D01*
X22513279Y20839460D01*
X22513282Y20839456D01*
X22633205Y20719533D01*
X22633209Y20719530D01*
X22777544Y20630502D01*
X22777547Y20630501D01*
X22777553Y20630497D01*
X22938542Y20577151D01*
X23037905Y20567000D01*
X23634594Y20567001D01*
X23634602Y20567002D01*
X23634605Y20567002D01*
X23689010Y20572560D01*
X23733958Y20577151D01*
X23894947Y20630497D01*
X24039294Y20719532D01*
X24159218Y20839456D01*
X24230117Y20954402D01*
X24241296Y20964456D01*
X24248596Y20977602D01*
X24266746Y20987348D01*
X24282063Y21001123D01*
X24297902Y21004075D01*
X24310154Y21010652D01*
X24345376Y21012920D01*
X24349458Y21012599D01*
X24356923Y21012012D01*
X24422211Y20987132D01*
X24463686Y20930904D01*
X24468177Y20861179D01*
X24466277Y20853801D01*
X24446650Y20786243D01*
X24446649Y20786240D01*
X24443750Y20749400D01*
X24443750Y20458750D01*
X25119750Y20458750D01*
X25186789Y20439065D01*
X25232544Y20386261D01*
X25243750Y20334750D01*
X25243750Y20208750D01*
X25369750Y20208750D01*
X25436789Y20189065D01*
X25482544Y20136261D01*
X25493750Y20084750D01*
X25493750Y19086455D01*
X25493751Y19086455D01*
X25496236Y19086650D01*
X25653946Y19132469D01*
X25658717Y19134533D01*
X25660604Y19134767D01*
X25662101Y19135939D01*
X25695131Y19139033D01*
X25728060Y19143101D01*
X25729773Y19142277D01*
X25731667Y19142454D01*
X25761131Y19127197D01*
X25791026Y19112819D01*
X25792558Y19110923D01*
X25793711Y19110325D01*
X25799693Y19102088D01*
X25815478Y19082543D01*
X25817733Y19078620D01*
X25835909Y19040879D01*
X25877345Y18974935D01*
X25878543Y18972851D01*
X25886172Y18941151D01*
X25895037Y18909783D01*
X25894302Y18907372D01*
X25894892Y18904921D01*
X25884174Y18874137D01*
X25874670Y18842947D01*
X25872747Y18841316D01*
X25871919Y18838935D01*
X25846258Y18818831D01*
X25821403Y18797733D01*
X25817515Y18796312D01*
X25816920Y18795845D01*
X25816004Y18795760D01*
X25805640Y18791970D01*
X25783354Y18785495D01*
X25783352Y18785495D01*
X25783352Y18785494D01*
X25781868Y18784617D01*
X25780554Y18784284D01*
X25776196Y18782397D01*
X25775891Y18783101D01*
X25714146Y18767435D01*
X25661516Y18782889D01*
X25661304Y18782397D01*
X25657323Y18784120D01*
X25655631Y18784617D01*
X25654148Y18785494D01*
X25654144Y18785495D01*
X25654143Y18785496D01*
X25496323Y18831348D01*
X25496317Y18831349D01*
X25459451Y18834250D01*
X25459444Y18834250D01*
X25028056Y18834250D01*
X25028048Y18834250D01*
X24991182Y18831349D01*
X24991176Y18831348D01*
X24833356Y18785496D01*
X24833353Y18785495D01*
X24691887Y18701833D01*
X24691879Y18701827D01*
X24575673Y18585621D01*
X24575667Y18585613D01*
X24492005Y18444147D01*
X24492004Y18444144D01*
X24446152Y18286324D01*
X24446151Y18286318D01*
X24443250Y18249452D01*
X24443250Y17168049D01*
X24446151Y17131183D01*
X24446152Y17131177D01*
X24492004Y16973357D01*
X24492005Y16973354D01*
X24564924Y16850053D01*
X24575669Y16831885D01*
X24579928Y16827626D01*
X24613415Y16766306D01*
X24616250Y16739942D01*
X24616250Y16270358D01*
X24596565Y16203319D01*
X24590233Y16194363D01*
X24587385Y16190692D01*
X24505005Y16051394D01*
X24505004Y16051391D01*
X24459857Y15895998D01*
X24459856Y15895992D01*
X24457000Y15859698D01*
X24457000Y15390303D01*
X24459856Y15354009D01*
X24459857Y15354003D01*
X24505004Y15198610D01*
X24505007Y15198603D01*
X24530071Y15156221D01*
X24547254Y15088497D01*
X24530072Y15029981D01*
X24484630Y14953142D01*
X24484629Y14953139D01*
X24439835Y14798959D01*
X24439834Y14798953D01*
X24437000Y14762939D01*
X24437000Y14264581D01*
X24437001Y14264559D01*
X24439835Y14228545D01*
X24484629Y14074362D01*
X24484631Y14074357D01*
X24566363Y13936155D01*
X24566369Y13936147D01*
X24679896Y13822620D01*
X24679907Y13822611D01*
X24767990Y13770520D01*
X24815674Y13719452D01*
X24828178Y13650710D01*
X24812255Y13601784D01*
X24772205Y13532423D01*
X24772199Y13532411D01*
X24693664Y13342830D01*
X24640545Y13144611D01*
X24640542Y13144595D01*
X24634425Y13098143D01*
X24606156Y13034248D01*
X24599170Y13026654D01*
X24550115Y12977599D01*
X24550111Y12977593D01*
X24468381Y12839394D01*
X24468379Y12839389D01*
X24423585Y12685209D01*
X24423584Y12685203D01*
X24420750Y12649189D01*
X24420750Y12250831D01*
X24420751Y12250809D01*
X24423585Y12214795D01*
X24468379Y12060612D01*
X24468382Y12060605D01*
X24502378Y12003119D01*
X24519559Y11935395D01*
X24502378Y11876881D01*
X24468382Y11819396D01*
X24468379Y11819389D01*
X24423585Y11665209D01*
X24423584Y11665203D01*
X24420750Y11629189D01*
X24420750Y11230831D01*
X24420751Y11230809D01*
X24423585Y11194795D01*
X24468379Y11040612D01*
X24468381Y11040607D01*
X24550113Y10902405D01*
X24550119Y10902397D01*
X24663646Y10788870D01*
X24663650Y10788867D01*
X24663652Y10788865D01*
X24801857Y10707131D01*
X24842518Y10695318D01*
X24956041Y10662336D01*
X24956044Y10662336D01*
X24956046Y10662335D01*
X24992069Y10659500D01*
X25490430Y10659501D01*
X25526454Y10662335D01*
X25554820Y10670576D01*
X25589415Y10675500D01*
X26301080Y10675500D01*
X26326452Y10675500D01*
X26364511Y10675491D01*
X26364568Y10675500D01*
X26375598Y10675500D01*
X26383728Y10677118D01*
X26407920Y10679500D01*
X26587182Y10679500D01*
X26587190Y10679500D01*
X26623493Y10682357D01*
X26686203Y10700577D01*
X26720798Y10705500D01*
X27012324Y10705500D01*
X27046919Y10700576D01*
X27178541Y10662336D01*
X27178544Y10662336D01*
X27178546Y10662335D01*
X27214569Y10659500D01*
X27712930Y10659501D01*
X27748954Y10662335D01*
X27777320Y10670576D01*
X27811915Y10675500D01*
X28226835Y10675500D01*
X28261429Y10670577D01*
X28289796Y10662335D01*
X28325819Y10659500D01*
X28824180Y10659501D01*
X28860204Y10662335D01*
X29014393Y10707131D01*
X29152598Y10788865D01*
X29266135Y10902402D01*
X29347869Y11040607D01*
X29392665Y11194796D01*
X29395500Y11230819D01*
X29395499Y11629180D01*
X29392665Y11665204D01*
X29347869Y11819393D01*
X29313581Y11877371D01*
X29296398Y11945095D01*
X29313582Y12003614D01*
X29347404Y12060804D01*
X29347405Y12060806D01*
X29387844Y12200000D01*
X28835409Y12200000D01*
X28834954Y12200001D01*
X28830305Y12200019D01*
X28824181Y12200500D01*
X28698886Y12200500D01*
X28698545Y12200501D01*
X28665216Y12210421D01*
X28631961Y12220185D01*
X28631806Y12220364D01*
X28631579Y12220431D01*
X28608867Y12246837D01*
X28586206Y12272989D01*
X28586149Y12273250D01*
X28586018Y12273402D01*
X28585840Y12274669D01*
X28575000Y12324500D01*
X28575000Y12576000D01*
X28594685Y12643039D01*
X28647489Y12688794D01*
X28699000Y12700000D01*
X29387845Y12700000D01*
X29387844Y12700001D01*
X29347406Y12839192D01*
X29336196Y12858146D01*
X29319012Y12925870D01*
X29341170Y12992133D01*
X29347082Y12999945D01*
X29349179Y13002502D01*
X29349189Y13002511D01*
X29436794Y13133621D01*
X29440353Y13142212D01*
X29460651Y13191217D01*
X29497137Y13279303D01*
X29527900Y13433958D01*
X29527900Y13591642D01*
X29527900Y13591645D01*
X29527899Y13591647D01*
X29519761Y13632561D01*
X29497137Y13746297D01*
X29483974Y13778076D01*
X29436797Y13891973D01*
X29436791Y13891984D01*
X29436457Y13892484D01*
X29436362Y13892787D01*
X29433921Y13897354D01*
X29434786Y13897817D01*
X29415574Y13959160D01*
X29432822Y14024502D01*
X29469994Y14087355D01*
X29515143Y14242757D01*
X29518000Y14279060D01*
X29518000Y14748440D01*
X29515143Y14784743D01*
X29514676Y14786349D01*
X29469995Y14940141D01*
X29469994Y14940144D01*
X29469994Y14940145D01*
X29444927Y14982530D01*
X29443027Y14990018D01*
X29438063Y14995935D01*
X29434557Y15023403D01*
X29427745Y15050253D01*
X29429972Y15059329D01*
X29429218Y15065242D01*
X29436115Y15084353D01*
X29439697Y15098945D01*
X29442087Y15103969D01*
X29490369Y15185607D01*
X29505125Y15236400D01*
X29509438Y15245459D01*
X29526313Y15264321D01*
X29539931Y15285644D01*
X29549211Y15289915D01*
X29556025Y15297530D01*
X29580415Y15304274D01*
X29603403Y15314851D01*
X29613521Y15313426D01*
X29623368Y15316148D01*
X29647531Y15308635D01*
X29672590Y15305105D01*
X29689992Y15295433D01*
X29690087Y15295403D01*
X29690123Y15295360D01*
X29690292Y15295266D01*
X29783314Y15233110D01*
X29783327Y15233103D01*
X29928998Y15172765D01*
X29929003Y15172763D01*
X30083653Y15142001D01*
X30083656Y15142000D01*
X30083658Y15142000D01*
X30241344Y15142000D01*
X30241345Y15142001D01*
X30395997Y15172763D01*
X30541679Y15233106D01*
X30672789Y15320711D01*
X30784289Y15432211D01*
X30871894Y15563321D01*
X30932237Y15709003D01*
X30963000Y15863658D01*
X30963000Y16021342D01*
X30944092Y16116397D01*
X30950319Y16185986D01*
X30978031Y16228270D01*
X30985468Y16235706D01*
X31074503Y16380053D01*
X31127849Y16541042D01*
X31138000Y16640405D01*
X31137999Y17187094D01*
X31127849Y17286458D01*
X31074503Y17447447D01*
X31074499Y17447453D01*
X31074498Y17447456D01*
X30985470Y17591791D01*
X30985467Y17591795D01*
X30976193Y17601069D01*
X30942708Y17662392D01*
X30947692Y17732084D01*
X30976193Y17776431D01*
X30985468Y17785706D01*
X31074503Y17930053D01*
X31127849Y18091042D01*
X31138000Y18190405D01*
X31137999Y18737094D01*
X31134382Y18772498D01*
X31127849Y18836458D01*
X31127848Y18836461D01*
X31120066Y18859946D01*
X31074503Y18997447D01*
X31074499Y18997453D01*
X31074498Y18997456D01*
X30985470Y19141791D01*
X30985467Y19141795D01*
X30865544Y19261718D01*
X30865540Y19261721D01*
X30721205Y19350749D01*
X30721199Y19350752D01*
X30721197Y19350753D01*
X30721194Y19350754D01*
X30560209Y19404099D01*
X30460846Y19414250D01*
X29864162Y19414250D01*
X29864144Y19414249D01*
X29764792Y19404100D01*
X29764789Y19404099D01*
X29603805Y19350754D01*
X29603800Y19350752D01*
X29484956Y19277447D01*
X29417563Y19259007D01*
X29350900Y19279930D01*
X29332181Y19295302D01*
X29311348Y19316135D01*
X29252810Y19350754D01*
X29173143Y19397869D01*
X29173138Y19397871D01*
X29018958Y19442665D01*
X29018952Y19442666D01*
X28982931Y19445500D01*
X28484580Y19445500D01*
X28484558Y19445499D01*
X28448544Y19442665D01*
X28294361Y19397871D01*
X28294356Y19397869D01*
X28156154Y19316137D01*
X28156146Y19316131D01*
X28042619Y19202604D01*
X28042613Y19202596D01*
X27960881Y19064394D01*
X27960879Y19064389D01*
X27916085Y18910209D01*
X27916084Y18910203D01*
X27913250Y18874189D01*
X27913250Y18783559D01*
X27893565Y18716520D01*
X27840761Y18670765D01*
X27771603Y18660821D01*
X27716059Y18683464D01*
X27708331Y18689115D01*
X27695615Y18701831D01*
X27671166Y18716290D01*
X27666291Y18719855D01*
X27648566Y18742986D01*
X27628677Y18764287D01*
X27624921Y18772498D01*
X27620339Y18783559D01*
X27611079Y18805915D01*
X27517591Y18967835D01*
X27501118Y19035732D01*
X27523969Y19101759D01*
X27561853Y19136564D01*
X27695615Y19215669D01*
X27811831Y19331885D01*
X27895494Y19473352D01*
X27941348Y19631181D01*
X27944250Y19668056D01*
X27944250Y20033904D01*
X27963935Y20100943D01*
X28016739Y20146698D01*
X28085897Y20156642D01*
X28149453Y20127617D01*
X28155931Y20121585D01*
X28156146Y20121370D01*
X28156150Y20121367D01*
X28156152Y20121365D01*
X28294357Y20039631D01*
X28335018Y20027818D01*
X28448541Y19994836D01*
X28448544Y19994836D01*
X28448546Y19994835D01*
X28484569Y19992000D01*
X28982930Y19992001D01*
X29018954Y19994835D01*
X29173143Y20039631D01*
X29243200Y20081063D01*
X29310923Y20098247D01*
X29375211Y20077435D01*
X29389621Y20067806D01*
X29535303Y20007463D01*
X29679838Y19978713D01*
X29689953Y19976701D01*
X29689956Y19976700D01*
X29689958Y19976700D01*
X29847644Y19976700D01*
X29847645Y19976701D01*
X30002297Y20007463D01*
X30147979Y20067806D01*
X30279089Y20155411D01*
X30390589Y20266911D01*
X30478194Y20398021D01*
X30538537Y20543703D01*
X30569300Y20698358D01*
X30569300Y20856042D01*
X30569300Y20856045D01*
X30569299Y20856047D01*
X30553727Y20934331D01*
X30538537Y21010697D01*
X30536823Y21014835D01*
X30478197Y21156373D01*
X30478190Y21156386D01*
X30390589Y21287489D01*
X30390586Y21287493D01*
X30279092Y21398987D01*
X30279088Y21398990D01*
X30147985Y21486591D01*
X30147972Y21486598D01*
X30002301Y21546936D01*
X30002289Y21546939D01*
X29847645Y21577700D01*
X29847642Y21577700D01*
X29689958Y21577700D01*
X29683866Y21577700D01*
X29683866Y21578984D01*
X29621753Y21590765D01*
X29571044Y21638832D01*
X29554249Y21701145D01*
X29554249Y21981680D01*
X29551415Y22017704D01*
X29506619Y22171893D01*
X29437603Y22288592D01*
X29420421Y22356315D01*
X29442581Y22422578D01*
X29456656Y22439394D01*
X29468805Y22451543D01*
X29491718Y22474456D01*
X29580753Y22618803D01*
X29634099Y22779792D01*
X29644250Y22879155D01*
X29644249Y23475844D01*
X29643776Y23480471D01*
X29634099Y23575208D01*
X29634098Y23575211D01*
X29613944Y23636031D01*
X29580753Y23736197D01*
X29580749Y23736203D01*
X29580748Y23736206D01*
X29491720Y23880541D01*
X29491717Y23880545D01*
X29371794Y24000468D01*
X29371790Y24000471D01*
X29227455Y24089499D01*
X29227449Y24089502D01*
X29227447Y24089503D01*
X29227444Y24089504D01*
X29066459Y24142849D01*
X28967102Y24153000D01*
X28967095Y24153000D01*
X28779368Y24153000D01*
X28712329Y24172685D01*
X28666574Y24225489D01*
X28656010Y24289603D01*
X28656896Y24298268D01*
X28665500Y24382491D01*
X28665499Y25782508D01*
X28665209Y25785343D01*
X28654999Y25885297D01*
X28654998Y25885300D01*
X28641156Y25927071D01*
X28599814Y26051834D01*
X28507712Y26201156D01*
X28383656Y26325212D01*
X28234334Y26417314D01*
X28067797Y26472499D01*
X28067795Y26472500D01*
X27965016Y26483000D01*
X27965009Y26483000D01*
X26965975Y26483000D01*
X26898936Y26502685D01*
X26853181Y26555489D01*
X26843237Y26624647D01*
X26848269Y26646004D01*
X26853984Y26663251D01*
X26904999Y26817203D01*
X26915500Y26919991D01*
X26915499Y27295502D01*
X26935183Y27362540D01*
X26987987Y27408295D01*
X27039494Y27419501D01*
X28565008Y27419501D01*
X28667797Y27430001D01*
X28834334Y27485186D01*
X28983656Y27577288D01*
X29107712Y27701344D01*
X29199814Y27850666D01*
X29206803Y27871759D01*
X29246571Y27929201D01*
X29311086Y27956026D01*
X29371959Y27947317D01*
X29408303Y27932263D01*
X29561359Y27901818D01*
X29562953Y27901501D01*
X29562956Y27901500D01*
X29562958Y27901500D01*
X29720644Y27901500D01*
X29720645Y27901501D01*
X29875297Y27932263D01*
X29997317Y27982805D01*
X30020972Y27992603D01*
X30020972Y27992604D01*
X30020979Y27992606D01*
X30152089Y28080211D01*
X30263589Y28191711D01*
X30351194Y28322821D01*
X30411537Y28468503D01*
X30442300Y28623158D01*
X30442300Y28780842D01*
X30442300Y28780845D01*
X30442299Y28780847D01*
X30430745Y28838934D01*
X30411537Y28935497D01*
X30398384Y28967252D01*
X30351197Y29081173D01*
X30351190Y29081186D01*
X30263589Y29212289D01*
X30263586Y29212293D01*
X30152092Y29323787D01*
X30152088Y29323790D01*
X30020985Y29411391D01*
X30020972Y29411398D01*
X29875301Y29471736D01*
X29875289Y29471739D01*
X29720645Y29502500D01*
X29720642Y29502500D01*
X29562958Y29502500D01*
X29562955Y29502500D01*
X29408310Y29471739D01*
X29408299Y29471736D01*
X29382446Y29461028D01*
X29312977Y29453562D01*
X29250499Y29484839D01*
X29217293Y29536585D01*
X29199814Y29589334D01*
X29107712Y29738656D01*
X28983656Y29862712D01*
X28834334Y29954814D01*
X28667797Y30009999D01*
X28667795Y30010000D01*
X28565010Y30020500D01*
X26964998Y30020500D01*
X26964981Y30020499D01*
X26862203Y30010000D01*
X26862200Y30009999D01*
X26695668Y29954815D01*
X26695663Y29954813D01*
X26546342Y29862711D01*
X26422289Y29738658D01*
X26330187Y29589337D01*
X26330185Y29589332D01*
X26324933Y29573481D01*
X26281743Y29443141D01*
X26275001Y29422796D01*
X26275000Y29422795D01*
X26265714Y29331897D01*
X26239317Y29267205D01*
X26182136Y29227054D01*
X26142356Y29220500D01*
X25314998Y29220500D01*
X25314980Y29220499D01*
X25212203Y29210000D01*
X25212200Y29209999D01*
X25045668Y29154815D01*
X25045663Y29154813D01*
X24896342Y29062711D01*
X24852680Y29019049D01*
X24791357Y28985565D01*
X24721665Y28990550D01*
X24677320Y29019049D01*
X24633657Y29062711D01*
X24633656Y29062712D01*
X24484334Y29154814D01*
X24317797Y29209999D01*
X24317795Y29210000D01*
X24215016Y29220500D01*
X23387642Y29220500D01*
X23358991Y29228913D01*
X23329725Y29234857D01*
X23325823Y29238653D01*
X23320603Y29240185D01*
X23301052Y29262748D01*
X23279642Y29283574D01*
X23277693Y29289706D01*
X23274848Y29292989D01*
X23266852Y29316469D01*
X23265080Y29324102D01*
X23254999Y29422797D01*
X23212216Y29551905D01*
X23210928Y29557458D01*
X23211700Y29570868D01*
X23208780Y29601677D01*
X23219493Y29683013D01*
X23219494Y29716918D01*
X23219499Y29716938D01*
X23219499Y29797480D01*
X23219502Y29867572D01*
X23228942Y29915017D01*
X23234736Y29929003D01*
X23265499Y30083658D01*
X23265499Y30241342D01*
X23265499Y30241345D01*
X23265498Y30241347D01*
X23257767Y30280211D01*
X23234736Y30395997D01*
X23207397Y30462000D01*
X23174396Y30541673D01*
X23174389Y30541686D01*
X23086788Y30672789D01*
X23086785Y30672793D01*
X22975291Y30784287D01*
X22975287Y30784290D01*
X22844184Y30871891D01*
X22844171Y30871898D01*
X22698500Y30932236D01*
X22698488Y30932239D01*
X22543844Y30963000D01*
X22543841Y30963000D01*
X22386157Y30963000D01*
X22386154Y30963000D01*
X22231509Y30932239D01*
X22231497Y30932236D01*
X22085826Y30871898D01*
X22085813Y30871891D01*
X21954710Y30784290D01*
X21852680Y30682260D01*
X21791357Y30648776D01*
X21721665Y30653760D01*
X21677318Y30682261D01*
X21575292Y30784287D01*
X21575288Y30784290D01*
X21444185Y30871891D01*
X21444170Y30871899D01*
X21404459Y30888348D01*
X21350056Y30932189D01*
X21327992Y30998484D01*
X21345272Y31066183D01*
X21364236Y31090593D01*
X21366799Y31093155D01*
X21515268Y31286644D01*
X21637212Y31497856D01*
X21730544Y31723179D01*
X21793666Y31958756D01*
X21825500Y32200556D01*
X21825500Y32964444D01*
X21805860Y33113621D01*
X23814500Y33113621D01*
X23814500Y32926380D01*
X23851025Y32742757D01*
X23851027Y32742749D01*
X23922676Y32569772D01*
X23922681Y32569763D01*
X24026697Y32414093D01*
X24026700Y32414089D01*
X24159088Y32281701D01*
X24159092Y32281698D01*
X24314762Y32177682D01*
X24314771Y32177677D01*
X24353956Y32161446D01*
X24487749Y32106027D01*
X24671379Y32069501D01*
X24671383Y32069500D01*
X24671384Y32069500D01*
X24858617Y32069500D01*
X24858618Y32069501D01*
X25042251Y32106027D01*
X25215231Y32177678D01*
X25370908Y32281698D01*
X25503302Y32414092D01*
X25607322Y32569769D01*
X25678973Y32742749D01*
X25715500Y32926384D01*
X25715500Y33113616D01*
X25678973Y33297251D01*
X25607322Y33470231D01*
X25607321Y33470232D01*
X25607318Y33470238D01*
X25503302Y33625908D01*
X25503299Y33625912D01*
X25370911Y33758300D01*
X25370907Y33758303D01*
X25215237Y33862319D01*
X25215228Y33862324D01*
X25042251Y33933973D01*
X25042243Y33933975D01*
X24858620Y33970500D01*
X24858616Y33970500D01*
X24671384Y33970500D01*
X24671379Y33970500D01*
X24487756Y33933975D01*
X24487748Y33933973D01*
X24314771Y33862324D01*
X24314762Y33862319D01*
X24159092Y33758303D01*
X24159088Y33758300D01*
X24026700Y33625912D01*
X24026697Y33625908D01*
X23922681Y33470238D01*
X23922676Y33470229D01*
X23851027Y33297252D01*
X23851025Y33297244D01*
X23814500Y33113621D01*
X21805860Y33113621D01*
X21793666Y33206244D01*
X21730544Y33441821D01*
X21637212Y33667144D01*
X21637210Y33667147D01*
X21637208Y33667152D01*
X21515272Y33878349D01*
X21515268Y33878356D01*
X21366799Y34071845D01*
X21366794Y34071851D01*
X21194350Y34244295D01*
X21194343Y34244301D01*
X21000864Y34392762D01*
X21000862Y34392764D01*
X21000856Y34392768D01*
X21000851Y34392771D01*
X21000848Y34392773D01*
X20789651Y34514709D01*
X20789640Y34514714D01*
X20564330Y34608041D01*
X20564323Y34608043D01*
X20564321Y34608044D01*
X20328744Y34671166D01*
X20288333Y34676487D01*
X20086951Y34703000D01*
X20086944Y34703000D01*
X19843056Y34703000D01*
X19843048Y34703000D01*
X19612896Y34672699D01*
X19601256Y34671166D01*
X19365679Y34608044D01*
X19365669Y34608041D01*
X19140359Y34514714D01*
X19140348Y34514709D01*
X18929151Y34392773D01*
X18929135Y34392762D01*
X18735656Y34244301D01*
X18735649Y34244295D01*
X18563205Y34071851D01*
X18563199Y34071844D01*
X18414738Y33878365D01*
X18414727Y33878349D01*
X18292791Y33667152D01*
X18292786Y33667141D01*
X18199459Y33441831D01*
X18199456Y33441821D01*
X18136335Y33206247D01*
X18136333Y33206236D01*
X18104500Y32964452D01*
X18104500Y32744441D01*
X18084815Y32677402D01*
X18032011Y32631647D01*
X17962853Y32621703D01*
X17899297Y32650728D01*
X17892819Y32656760D01*
X17860292Y32689287D01*
X17860288Y32689290D01*
X17729185Y32776891D01*
X17729172Y32776898D01*
X17583501Y32837236D01*
X17583489Y32837239D01*
X17428845Y32868000D01*
X17428842Y32868000D01*
X17271158Y32868000D01*
X17271155Y32868000D01*
X17116510Y32837239D01*
X17116498Y32837236D01*
X16994374Y32786651D01*
X16924904Y32779182D01*
X16862425Y32810458D01*
X16826774Y32870547D01*
X16825443Y32920268D01*
X16824903Y32920321D01*
X16825326Y32924626D01*
X16825306Y32925409D01*
X16825500Y32926385D01*
X16825500Y33113617D01*
X16825499Y33113621D01*
X16807075Y33206244D01*
X16788973Y33297251D01*
X16717322Y33470231D01*
X16717321Y33470232D01*
X16717318Y33470238D01*
X16613302Y33625908D01*
X16613299Y33625912D01*
X16480911Y33758300D01*
X16480907Y33758303D01*
X16325237Y33862319D01*
X16325228Y33862324D01*
X16152251Y33933973D01*
X16152243Y33933975D01*
X15968620Y33970500D01*
X15968616Y33970500D01*
X15781384Y33970500D01*
X15781379Y33970500D01*
X15597756Y33933975D01*
X15597748Y33933973D01*
X15424771Y33862324D01*
X15424762Y33862319D01*
X15269092Y33758303D01*
X15269088Y33758300D01*
X15136700Y33625912D01*
X15136697Y33625908D01*
X15032681Y33470238D01*
X15032676Y33470229D01*
X14961027Y33297252D01*
X14961025Y33297244D01*
X14924500Y33113621D01*
X13625860Y33113621D01*
X13613666Y33206244D01*
X13550544Y33441821D01*
X13457212Y33667144D01*
X13457210Y33667147D01*
X13457208Y33667152D01*
X13335272Y33878349D01*
X13335268Y33878356D01*
X13186799Y34071845D01*
X13186794Y34071851D01*
X13014350Y34244295D01*
X13014343Y34244301D01*
X12820864Y34392762D01*
X12820862Y34392764D01*
X12820856Y34392768D01*
X12820851Y34392771D01*
X12820848Y34392773D01*
X12609651Y34514709D01*
X12609640Y34514714D01*
X12384330Y34608041D01*
X12384323Y34608043D01*
X12384321Y34608044D01*
X12148744Y34671166D01*
X12108333Y34676487D01*
X11906951Y34703000D01*
X11906944Y34703000D01*
X11663056Y34703000D01*
X11663050Y34703000D01*
X11663045Y34702999D01*
X11590216Y34693411D01*
X11521180Y34704177D01*
X11468925Y34750557D01*
X11450040Y34817826D01*
X11454108Y34844167D01*
X11453548Y34844278D01*
X11485498Y35004904D01*
X11485499Y35004906D01*
X11485499Y35162595D01*
X11485498Y35162597D01*
X11454738Y35317239D01*
X11454737Y35317242D01*
X11454736Y35317247D01*
X11448936Y35331249D01*
X11447312Y35339412D01*
X11444528Y35343742D01*
X11439509Y35378622D01*
X11439499Y35378676D01*
X11439499Y35378697D01*
X11439499Y35514688D01*
X11439476Y35514804D01*
X11439475Y35520985D01*
X11439476Y35520989D01*
X11439475Y35521010D01*
X11439476Y35546237D01*
X11437179Y35563686D01*
X11442412Y35618865D01*
X11474999Y35717203D01*
X11485500Y35819991D01*
X11485499Y37020008D01*
X11481262Y37061481D01*
X11474999Y37122797D01*
X11474998Y37122800D01*
X11455381Y37182000D01*
X11419814Y37289334D01*
X11327712Y37438656D01*
X11203656Y37562712D01*
X11054334Y37654814D01*
X10887797Y37709999D01*
X10887795Y37710000D01*
X10785010Y37720500D01*
X9184998Y37720500D01*
X9184981Y37720499D01*
X9082203Y37710000D01*
X9082200Y37709999D01*
X8915668Y37654815D01*
X8915663Y37654813D01*
X8766342Y37562711D01*
X8642289Y37438658D01*
X8550187Y37289337D01*
X8550185Y37289332D01*
X8522349Y37205330D01*
X8495001Y37122797D01*
X8495001Y37122796D01*
X8495000Y37122796D01*
X8484500Y37020017D01*
X8077599Y37020017D01*
X8097547Y37059168D01*
X8155940Y37238882D01*
X8185500Y37425514D01*
X8185500Y37614487D01*
X8155940Y37801119D01*
X8097545Y37980837D01*
X8017561Y38137814D01*
X8011760Y38149199D01*
X7900690Y38302073D01*
X7767073Y38435690D01*
X7614199Y38546760D01*
X7475333Y38617516D01*
X7424538Y38665489D01*
X7407743Y38733310D01*
X7430280Y38799445D01*
X7484995Y38842897D01*
X7531629Y38852000D01*
X15328371Y38852000D01*
X15395410Y38832315D01*
X15441165Y38779511D01*
X15451109Y38710353D01*
X15422084Y38646797D01*
X15384666Y38617515D01*
X15245800Y38546760D01*
X15166351Y38489036D01*
X15092927Y38435690D01*
X15092925Y38435688D01*
X15092924Y38435688D01*
X14959312Y38302076D01*
X14959312Y38302075D01*
X14959310Y38302073D01*
X14911610Y38236421D01*
X14848240Y38149200D01*
X14762454Y37980837D01*
X14704059Y37801119D01*
X14674500Y37614487D01*
X14674500Y37425514D01*
X14704059Y37238882D01*
X14762454Y37059164D01*
X14848240Y36890801D01*
X14959310Y36737927D01*
X15092927Y36604310D01*
X15245801Y36493240D01*
X15325347Y36452710D01*
X15414163Y36407455D01*
X15414165Y36407455D01*
X15414168Y36407453D01*
X15510497Y36376154D01*
X15593881Y36349060D01*
X15780514Y36319500D01*
X15780519Y36319500D01*
X15969486Y36319500D01*
X16156118Y36349060D01*
X16335832Y36407453D01*
X16504199Y36493240D01*
X16657073Y36604310D01*
X16790690Y36737927D01*
X16901760Y36890801D01*
X16987547Y37059168D01*
X17045940Y37238882D01*
X17075500Y37425514D01*
X17075500Y37520017D01*
X20264500Y37520017D01*
X20264500Y36319999D01*
X20264501Y36319982D01*
X20275000Y36217204D01*
X20275001Y36217200D01*
X20312710Y36103403D01*
X20313544Y36097471D01*
X20315300Y36094478D01*
X20316213Y36078488D01*
X20318902Y36059369D01*
X20318674Y36053769D01*
X20310500Y35991670D01*
X20310500Y35964313D01*
X20310500Y35964312D01*
X20310500Y35852430D01*
X20310398Y35849917D01*
X20308217Y35843470D01*
X20301062Y35807499D01*
X20295263Y35793497D01*
X20295262Y35793494D01*
X20295260Y35793489D01*
X20264500Y35638847D01*
X20264500Y35481154D01*
X20295261Y35326511D01*
X20295264Y35326499D01*
X20355602Y35180828D01*
X20355609Y35180815D01*
X20443210Y35049712D01*
X20443213Y35049708D01*
X20554707Y34938214D01*
X20554711Y34938211D01*
X20685814Y34850610D01*
X20685827Y34850603D01*
X20831498Y34790265D01*
X20831503Y34790263D01*
X20986153Y34759501D01*
X20986156Y34759500D01*
X20986158Y34759500D01*
X21143844Y34759500D01*
X21143845Y34759501D01*
X21298497Y34790263D01*
X21444179Y34850606D01*
X21575289Y34938211D01*
X21677319Y35040242D01*
X21738640Y35073725D01*
X21808332Y35068741D01*
X21852680Y35040240D01*
X21954706Y34938214D01*
X21954710Y34938211D01*
X22085813Y34850610D01*
X22085826Y34850603D01*
X22231497Y34790265D01*
X22231502Y34790263D01*
X22386152Y34759501D01*
X22386155Y34759500D01*
X22386157Y34759500D01*
X22543843Y34759500D01*
X22543844Y34759501D01*
X22698496Y34790263D01*
X22844178Y34850606D01*
X22975288Y34938211D01*
X23086788Y35049711D01*
X23174393Y35180821D01*
X23234736Y35326503D01*
X23265499Y35481158D01*
X23265499Y35638842D01*
X23265499Y35638845D01*
X23265498Y35638847D01*
X23234738Y35793489D01*
X23234737Y35793492D01*
X23234736Y35793497D01*
X23228936Y35807499D01*
X23227311Y35815671D01*
X23224522Y35820010D01*
X23219499Y35854947D01*
X23219499Y35879517D01*
X23219499Y35887120D01*
X23219499Y35964313D01*
X23219497Y35964324D01*
X23219497Y35991672D01*
X23212053Y36048208D01*
X23217285Y36103395D01*
X23254999Y36217203D01*
X23265500Y36319991D01*
X23265499Y37520008D01*
X23254999Y37622797D01*
X23199814Y37789334D01*
X23107712Y37938656D01*
X22983656Y38062712D01*
X22844910Y38148291D01*
X22834336Y38154813D01*
X22834331Y38154815D01*
X22824339Y38158126D01*
X22667797Y38209999D01*
X22667795Y38210000D01*
X22565010Y38220500D01*
X20964998Y38220500D01*
X20964981Y38220499D01*
X20862203Y38210000D01*
X20862200Y38209999D01*
X20695668Y38154815D01*
X20695663Y38154813D01*
X20546342Y38062711D01*
X20422289Y37938658D01*
X20330187Y37789337D01*
X20330185Y37789332D01*
X20329709Y37787896D01*
X20275001Y37622797D01*
X20275001Y37622796D01*
X20275000Y37622796D01*
X20264500Y37520017D01*
X17075500Y37520017D01*
X17075500Y37614487D01*
X17045940Y37801119D01*
X16987545Y37980837D01*
X16907561Y38137814D01*
X16901760Y38149199D01*
X16790690Y38302073D01*
X16657073Y38435690D01*
X16504199Y38546760D01*
X16365333Y38617516D01*
X16314538Y38665489D01*
X16297743Y38733310D01*
X16320280Y38799445D01*
X16374995Y38842897D01*
X16421629Y38852000D01*
X24218371Y38852000D01*
X24285410Y38832315D01*
X24331165Y38779511D01*
X24341109Y38710353D01*
X24312084Y38646797D01*
X24274666Y38617515D01*
X24135800Y38546760D01*
X24056351Y38489036D01*
X23982927Y38435690D01*
X23982925Y38435688D01*
X23982924Y38435688D01*
X23849312Y38302076D01*
X23849312Y38302075D01*
X23849310Y38302073D01*
X23801610Y38236421D01*
X23738240Y38149200D01*
X23652454Y37980837D01*
X23594059Y37801119D01*
X23564500Y37614487D01*
X23564500Y37425514D01*
X23594059Y37238882D01*
X23652454Y37059164D01*
X23738240Y36890801D01*
X23849310Y36737927D01*
X23982927Y36604310D01*
X24135801Y36493240D01*
X24215347Y36452710D01*
X24304163Y36407455D01*
X24304165Y36407455D01*
X24304168Y36407453D01*
X24400497Y36376154D01*
X24483881Y36349060D01*
X24670514Y36319500D01*
X24670519Y36319500D01*
X24859486Y36319500D01*
X25046118Y36349060D01*
X25225832Y36407453D01*
X25394199Y36493240D01*
X25547073Y36604310D01*
X25680690Y36737927D01*
X25791760Y36890801D01*
X25877547Y37059168D01*
X25935940Y37238882D01*
X25965500Y37425514D01*
X25965500Y37614487D01*
X25935940Y37801119D01*
X25877545Y37980837D01*
X25797561Y38137814D01*
X25791760Y38149199D01*
X25680690Y38302073D01*
X25547073Y38435690D01*
X25394199Y38546760D01*
X25255333Y38617516D01*
X25204538Y38665489D01*
X25187743Y38733310D01*
X25210280Y38799445D01*
X25264995Y38842897D01*
X25311629Y38852000D01*
X30440118Y38852000D01*
X30474588Y38852000D01*
X30485395Y38851528D01*
X30654907Y38836698D01*
X30676192Y38832945D01*
X30706008Y38824956D01*
X30835317Y38790308D01*
X30855618Y38782919D01*
X31004925Y38713296D01*
X31023626Y38702499D01*
X31158582Y38608003D01*
X31175132Y38594114D01*
X31291613Y38477633D01*
X31305502Y38461081D01*
X31399996Y38326130D01*
X31410797Y38307422D01*
X31451329Y38220500D01*
X31480415Y38158126D01*
X31487808Y38137814D01*
X31530444Y37978693D01*
X31534197Y37957408D01*
X31549028Y37787897D01*
X31549500Y37777089D01*
X31549500Y33536606D01*
X31529815Y33469567D01*
X31477011Y33423812D01*
X31407853Y33413868D01*
X31344297Y33442893D01*
X31310939Y33489153D01*
X31276070Y33573331D01*
X31237212Y33667144D01*
X31237209Y33667149D01*
X31237208Y33667152D01*
X31115272Y33878349D01*
X31115268Y33878356D01*
X30966799Y34071845D01*
X30966794Y34071851D01*
X30794350Y34244295D01*
X30794343Y34244301D01*
X30600864Y34392762D01*
X30600862Y34392764D01*
X30600856Y34392768D01*
X30600851Y34392771D01*
X30600848Y34392773D01*
X30389651Y34514709D01*
X30389640Y34514714D01*
X30164330Y34608041D01*
X30164323Y34608043D01*
X30164321Y34608044D01*
X29928744Y34671166D01*
X29888333Y34676487D01*
X29686951Y34703000D01*
X29686944Y34703000D01*
X29443056Y34703000D01*
X29443050Y34703000D01*
X29443045Y34702999D01*
X29370216Y34693411D01*
X29301180Y34704177D01*
X29248925Y34750557D01*
X29230040Y34817826D01*
X29234108Y34844167D01*
X29233548Y34844278D01*
X29265498Y35004904D01*
X29265499Y35004906D01*
X29265499Y35162595D01*
X29265498Y35162597D01*
X29234738Y35317239D01*
X29234737Y35317242D01*
X29234736Y35317247D01*
X29228936Y35331249D01*
X29227311Y35339418D01*
X29224525Y35343752D01*
X29219504Y35378658D01*
X29219499Y35378686D01*
X29219499Y35378697D01*
X29219499Y35476188D01*
X29219490Y35476231D01*
X29219490Y35482390D01*
X29219491Y35501646D01*
X29212989Y35551042D01*
X29218222Y35606220D01*
X29254999Y35717203D01*
X29265500Y35819991D01*
X29265499Y37020008D01*
X29261262Y37061481D01*
X29254999Y37122797D01*
X29254998Y37122800D01*
X29235381Y37182000D01*
X29199814Y37289334D01*
X29107712Y37438656D01*
X28983656Y37562712D01*
X28834334Y37654814D01*
X28667797Y37709999D01*
X28667795Y37710000D01*
X28565010Y37720500D01*
X26964998Y37720500D01*
X26964981Y37720499D01*
X26862203Y37710000D01*
X26862200Y37709999D01*
X26695668Y37654815D01*
X26695663Y37654813D01*
X26546342Y37562711D01*
X26422289Y37438658D01*
X26330187Y37289337D01*
X26330185Y37289332D01*
X26302349Y37205330D01*
X26275001Y37122797D01*
X26275001Y37122796D01*
X26275000Y37122796D01*
X26264500Y37020017D01*
X26264500Y35819999D01*
X26264501Y35819982D01*
X26275000Y35717204D01*
X26275001Y35717201D01*
X26311767Y35606249D01*
X26312657Y35599730D01*
X26314592Y35596372D01*
X26315533Y35578675D01*
X26317915Y35561234D01*
X26317666Y35556119D01*
X26310497Y35501644D01*
X26310500Y35411446D01*
X26310500Y35408440D01*
X26310500Y35378697D01*
X26301062Y35331249D01*
X26295263Y35317247D01*
X26295262Y35317244D01*
X26295260Y35317239D01*
X26264500Y35162597D01*
X26264500Y35004904D01*
X26295261Y34850261D01*
X26295264Y34850249D01*
X26355602Y34704578D01*
X26355609Y34704565D01*
X26443210Y34573462D01*
X26443213Y34573458D01*
X26554707Y34461964D01*
X26554711Y34461961D01*
X26685814Y34374360D01*
X26685827Y34374353D01*
X26782991Y34334107D01*
X26831503Y34314013D01*
X26986153Y34283251D01*
X26986156Y34283250D01*
X26986158Y34283250D01*
X27143844Y34283250D01*
X27143845Y34283251D01*
X27298497Y34314013D01*
X27444179Y34374356D01*
X27575289Y34461961D01*
X27677319Y34563992D01*
X27738640Y34597475D01*
X27808332Y34592491D01*
X27852680Y34563990D01*
X27954706Y34461964D01*
X27954710Y34461961D01*
X28085813Y34374360D01*
X28085826Y34374353D01*
X28182990Y34334107D01*
X28237394Y34290267D01*
X28259459Y34223973D01*
X28242180Y34156273D01*
X28223220Y34131865D01*
X28163198Y34071843D01*
X28014738Y33878365D01*
X28014727Y33878349D01*
X27892791Y33667152D01*
X27892786Y33667141D01*
X27799459Y33441831D01*
X27799456Y33441821D01*
X27736335Y33206247D01*
X27736333Y33206236D01*
X27704500Y32964452D01*
X27704500Y32200549D01*
X27730640Y32002007D01*
X27736334Y31958756D01*
X27796279Y31735037D01*
X27799456Y31723180D01*
X27799459Y31723170D01*
X27892786Y31497860D01*
X27892791Y31497849D01*
X28014727Y31286652D01*
X28014738Y31286636D01*
X28163199Y31093157D01*
X28163205Y31093150D01*
X28335649Y30920706D01*
X28335656Y30920700D01*
X28433514Y30845611D01*
X28529144Y30772232D01*
X28529151Y30772228D01*
X28740348Y30650292D01*
X28740353Y30650290D01*
X28740356Y30650288D01*
X28882437Y30591436D01*
X28943359Y30566201D01*
X28965679Y30556956D01*
X29201256Y30493834D01*
X29443056Y30462000D01*
X29443063Y30462000D01*
X29686937Y30462000D01*
X29686944Y30462000D01*
X29928744Y30493834D01*
X30164321Y30556956D01*
X30389644Y30650288D01*
X30600856Y30772232D01*
X30794345Y30920701D01*
X30966799Y31093155D01*
X31115268Y31286644D01*
X31237212Y31497856D01*
X31310939Y31675848D01*
X31354780Y31730251D01*
X31421074Y31752316D01*
X31488773Y31735037D01*
X31536384Y31683900D01*
X31549500Y31628395D01*
X31549500Y1275412D01*
X31549028Y1264605D01*
X31549028Y1264604D01*
X31534197Y1095093D01*
X31530444Y1073808D01*
X31487808Y914687D01*
X31480415Y894375D01*
X31410798Y745081D01*
X31399992Y726366D01*
X31310048Y597912D01*
X31305507Y591425D01*
X31291613Y574868D01*
X31175132Y458387D01*
X31158574Y444493D01*
X31023634Y350008D01*
X31004919Y339202D01*
X30855625Y269585D01*
X30835313Y262192D01*
X30676192Y219556D01*
X30654907Y215803D01*
X30502758Y202492D01*
X30485394Y200972D01*
X30474588Y200500D01*
X1275412Y200500D01*
X1264605Y200972D01*
X1245194Y202671D01*
X1095092Y215803D01*
X1073807Y219556D01*
X914686Y262192D01*
X894374Y269585D01*
X745080Y339202D01*
X726370Y350004D01*
X591419Y444498D01*
X574867Y458387D01*
X458386Y574868D01*
X444497Y591418D01*
X350001Y726374D01*
X339204Y745075D01*
X269581Y894382D01*
X262191Y914687D01*
X219555Y1073808D01*
X215802Y1095094D01*
X208189Y1182107D01*
X200972Y1264605D01*
X200500Y1275412D01*
X200500Y1681089D01*
X12774500Y1681089D01*
X12774500Y1248902D01*
X12780568Y1182118D01*
X12780571Y1182107D01*
X12828467Y1028402D01*
X12911766Y890609D01*
X13025608Y776767D01*
X13025610Y776766D01*
X13025612Y776764D01*
X13163398Y693469D01*
X13317113Y645570D01*
X13383909Y639500D01*
X14216090Y639501D01*
X14216097Y639501D01*
X14282882Y645569D01*
X14282885Y645570D01*
X14282887Y645570D01*
X14436602Y693469D01*
X14574388Y776764D01*
X14688236Y890612D01*
X14771531Y1028398D01*
X14819430Y1182113D01*
X14825500Y1248909D01*
X14825499Y1681090D01*
X14825499Y1681091D01*
X14825499Y1681099D01*
X14819431Y1747883D01*
X14819428Y1747894D01*
X14771532Y1901599D01*
X14771531Y1901600D01*
X14771531Y1901602D01*
X14688236Y2039388D01*
X14688234Y2039390D01*
X14688233Y2039392D01*
X14574391Y2153234D01*
X14436602Y2236531D01*
X14341014Y2266317D01*
X14282887Y2284430D01*
X14282885Y2284431D01*
X14282883Y2284431D01*
X14236117Y2288681D01*
X14216091Y2290500D01*
X14216088Y2290500D01*
X13383901Y2290500D01*
X13317117Y2284432D01*
X13317106Y2284429D01*
X13163401Y2236533D01*
X13025608Y2153234D01*
X12911766Y2039392D01*
X12828469Y1901603D01*
X12780569Y1747884D01*
X12774500Y1681089D01*
X200500Y1681089D01*
X200500Y31628395D01*
X220185Y31695434D01*
X272989Y31741189D01*
X342147Y31751133D01*
X405703Y31722108D01*
X439061Y31675848D01*
X512786Y31497860D01*
X512791Y31497849D01*
X634727Y31286652D01*
X634738Y31286636D01*
X783199Y31093157D01*
X783205Y31093150D01*
X955649Y30920706D01*
X955656Y30920700D01*
X1053514Y30845611D01*
X1149144Y30772232D01*
X1149151Y30772228D01*
X1360348Y30650292D01*
X1360353Y30650290D01*
X1360356Y30650288D01*
X1502437Y30591436D01*
X1563359Y30566201D01*
X1585679Y30556956D01*
X1821256Y30493834D01*
X2063056Y30462000D01*
X2063063Y30462000D01*
X2275035Y30462000D01*
X2342074Y30442315D01*
X2387829Y30389511D01*
X2397773Y30320353D01*
X2368748Y30256797D01*
X2362717Y30250320D01*
X2328537Y30216140D01*
X2129964Y29974179D01*
X2129954Y29974165D01*
X1956063Y29713921D01*
X1956057Y29713911D01*
X1808505Y29437862D01*
X1808502Y29437856D01*
X1688717Y29148674D01*
X1597854Y28849149D01*
X1536788Y28542162D01*
X1536786Y28542152D01*
X1506101Y28230638D01*
X1506100Y28135940D01*
X1506100Y28135937D01*
X1506100Y28135933D01*
X1506100Y28111961D01*
X1506100Y28074137D01*
X1506099Y27997945D01*
X1506100Y27997941D01*
X1506100Y12572304D01*
X1506099Y12572282D01*
X1506099Y12541348D01*
X1506092Y12541325D01*
X1506092Y12266004D01*
X1506093Y12265991D01*
X1541240Y11819428D01*
X1541242Y11819410D01*
X1600845Y11443100D01*
X1611319Y11376972D01*
X1715895Y10941389D01*
X1838595Y10563758D01*
X1854323Y10515355D01*
X1854327Y10515343D01*
X2020761Y10113540D01*
X2025751Y10101493D01*
X2227294Y9705945D01*
X2229125Y9702352D01*
X2229131Y9702341D01*
X2463171Y9320424D01*
X2463185Y9320402D01*
X2625172Y9097447D01*
X2721848Y8964384D01*
X2726489Y8957997D01*
X2726491Y8957995D01*
X2992369Y8646692D01*
X3017413Y8617369D01*
X3132086Y8502696D01*
X3132089Y8502692D01*
X3158351Y8476430D01*
X3158352Y8476428D01*
X3236731Y8398049D01*
X3236737Y8398044D01*
X4280307Y7354474D01*
X4313792Y7293151D01*
X4314243Y7290985D01*
X4335661Y7183309D01*
X4335664Y7183299D01*
X4396002Y7037628D01*
X4396009Y7037615D01*
X4483610Y6906512D01*
X4483613Y6906508D01*
X4595107Y6795014D01*
X4595111Y6795011D01*
X4726214Y6707410D01*
X4726227Y6707403D01*
X4794361Y6679182D01*
X4871903Y6647063D01*
X4979585Y6625644D01*
X5041492Y6593261D01*
X5043072Y6591709D01*
X6508865Y5125916D01*
X6514413Y5119993D01*
X6647959Y4967711D01*
X6657817Y4954863D01*
X6768078Y4789846D01*
X6776184Y4775805D01*
X6863955Y4597823D01*
X6870163Y4582837D01*
X6933954Y4394910D01*
X6938151Y4379243D01*
X6976864Y4184621D01*
X6978982Y4168540D01*
X6982630Y4112874D01*
X6986646Y4051602D01*
X6992235Y3966340D01*
X6992500Y3958230D01*
X6992500Y3561958D01*
X6972815Y3494919D01*
X6971602Y3493067D01*
X6910609Y3401786D01*
X6910602Y3401773D01*
X6850264Y3256102D01*
X6850261Y3256090D01*
X6819500Y3101447D01*
X6819500Y2943754D01*
X6850261Y2789111D01*
X6850264Y2789099D01*
X6910602Y2643428D01*
X6910609Y2643415D01*
X6998210Y2512312D01*
X6998213Y2512308D01*
X7109707Y2400814D01*
X7109711Y2400811D01*
X7240814Y2313210D01*
X7240827Y2313203D01*
X7354022Y2266317D01*
X7386503Y2252863D01*
X7498220Y2230641D01*
X7541153Y2222101D01*
X7541156Y2222100D01*
X7541158Y2222100D01*
X7698844Y2222100D01*
X7698845Y2222101D01*
X7853497Y2252863D01*
X7999179Y2313206D01*
X8130289Y2400811D01*
X8241789Y2512311D01*
X8329394Y2643421D01*
X8389737Y2789103D01*
X8420500Y2943758D01*
X8420500Y3101442D01*
X8420500Y3101445D01*
X8420499Y3101447D01*
X8405192Y3178398D01*
X8389737Y3256097D01*
X8383123Y3272065D01*
X8329397Y3401773D01*
X8329390Y3401786D01*
X8268398Y3493067D01*
X8247520Y3559745D01*
X8247500Y3561958D01*
X8247500Y4030088D01*
X8247493Y4030234D01*
X8247493Y4104686D01*
X8245204Y4127924D01*
X8219600Y4387898D01*
X8164082Y4667009D01*
X8081473Y4939334D01*
X8081335Y4939667D01*
X8036585Y5047704D01*
X7972571Y5202251D01*
X7838422Y5453228D01*
X7838420Y5453231D01*
X7838412Y5453244D01*
X7680322Y5689845D01*
X7680319Y5689848D01*
X7590732Y5799011D01*
X7499786Y5909831D01*
X7499785Y5909832D01*
X7499781Y5909837D01*
X7449945Y5959672D01*
X7442874Y5966743D01*
X7442872Y5966747D01*
X7399174Y6010445D01*
X7345298Y6064322D01*
X7345297Y6064323D01*
X7340973Y6068647D01*
X7340962Y6068657D01*
X5930491Y7479128D01*
X5897006Y7540451D01*
X5896583Y7542477D01*
X5875137Y7650297D01*
X5842100Y7730056D01*
X5814797Y7795973D01*
X5814790Y7795986D01*
X5727189Y7927089D01*
X5727186Y7927093D01*
X5615692Y8038587D01*
X5615688Y8038590D01*
X5484585Y8126191D01*
X5484572Y8126198D01*
X5338901Y8186536D01*
X5338891Y8186539D01*
X5231215Y8207957D01*
X5214458Y8216723D01*
X5195980Y8220742D01*
X5170943Y8239485D01*
X5169304Y8240342D01*
X5167726Y8241893D01*
X5023458Y8386161D01*
X4989973Y8447484D01*
X4994957Y8517176D01*
X5036829Y8573109D01*
X5086953Y8595460D01*
X5092242Y8596512D01*
X5092242Y8596513D01*
X5092247Y8596513D01*
X5237929Y8656856D01*
X5369039Y8744461D01*
X5480539Y8855961D01*
X5568144Y8987071D01*
X5628487Y9132753D01*
X5659250Y9287408D01*
X5659250Y9445092D01*
X5659250Y9445095D01*
X5659249Y9445097D01*
X5628489Y9599739D01*
X5628488Y9599742D01*
X5628487Y9599747D01*
X5622687Y9613749D01*
X5621061Y9621923D01*
X5618273Y9626262D01*
X5613250Y9661197D01*
X5613250Y9713376D01*
X5632935Y9780415D01*
X5649569Y9801057D01*
X5656718Y9808206D01*
X5745753Y9952553D01*
X5799099Y10113542D01*
X5809250Y10212905D01*
X5809249Y10721447D01*
X6184500Y10721447D01*
X6184500Y10563754D01*
X6215261Y10409111D01*
X6215264Y10409099D01*
X6275602Y10263428D01*
X6275609Y10263415D01*
X6363210Y10132312D01*
X6363213Y10132308D01*
X6474707Y10020814D01*
X6474711Y10020811D01*
X6605814Y9933210D01*
X6605827Y9933203D01*
X6748635Y9874051D01*
X6751503Y9872863D01*
X6906153Y9842101D01*
X6906156Y9842100D01*
X6906158Y9842100D01*
X7063844Y9842100D01*
X7063845Y9842101D01*
X7139629Y9857175D01*
X7224472Y9874051D01*
X7225000Y9871394D01*
X7283143Y9871955D01*
X7342283Y9834751D01*
X7354897Y9817745D01*
X7360779Y9808209D01*
X7360781Y9808207D01*
X7360782Y9808206D01*
X7480706Y9688282D01*
X7480708Y9688281D01*
X7480709Y9688280D01*
X7625044Y9599252D01*
X7625047Y9599251D01*
X7625053Y9599247D01*
X7786042Y9545901D01*
X7885405Y9535750D01*
X8432094Y9535751D01*
X8432102Y9535752D01*
X8432105Y9535752D01*
X8486510Y9541310D01*
X8531458Y9545901D01*
X8692447Y9599247D01*
X8836794Y9688282D01*
X8956718Y9808206D01*
X8958102Y9810451D01*
X8959453Y9811666D01*
X8961199Y9813873D01*
X8961576Y9813575D01*
X9010047Y9857175D01*
X9079009Y9868400D01*
X9098237Y9864432D01*
X9256041Y9818586D01*
X9256044Y9818586D01*
X9256046Y9818585D01*
X9292069Y9815750D01*
X9513393Y9815751D01*
X9546475Y9806038D01*
X9579537Y9796636D01*
X9579901Y9796223D01*
X9580432Y9796067D01*
X9603004Y9770017D01*
X9625742Y9744226D01*
X9625825Y9743681D01*
X9626187Y9743263D01*
X9631092Y9709144D01*
X9636277Y9675155D01*
X9636068Y9674543D01*
X9636131Y9674105D01*
X9626624Y9641207D01*
X9623994Y9635317D01*
X9604979Y9602380D01*
X9549466Y9468356D01*
X9548764Y9466783D01*
X9527152Y9441407D01*
X9506253Y9415471D01*
X9503567Y9413713D01*
X9503463Y9413589D01*
X9503308Y9413543D01*
X9500632Y9411789D01*
X9419454Y9361717D01*
X9299529Y9241791D01*
X9210501Y9097456D01*
X9210496Y9097445D01*
X9157151Y8936460D01*
X9147000Y8837103D01*
X9147000Y7990413D01*
X9147001Y7990395D01*
X9157150Y7891043D01*
X9157151Y7891040D01*
X9210496Y7730056D01*
X9210501Y7730045D01*
X9299529Y7585710D01*
X9299532Y7585706D01*
X9419455Y7465783D01*
X9419459Y7465780D01*
X9563794Y7376752D01*
X9563797Y7376751D01*
X9563803Y7376747D01*
X9724792Y7323401D01*
X9824155Y7313250D01*
X10370844Y7313251D01*
X10370852Y7313252D01*
X10370855Y7313252D01*
X10425260Y7318810D01*
X10470208Y7323401D01*
X10631197Y7376747D01*
X10775544Y7465782D01*
X10895468Y7585706D01*
X10984503Y7730053D01*
X11037849Y7891042D01*
X11048000Y7990405D01*
X11047999Y8837094D01*
X11046819Y8848642D01*
X11037849Y8936458D01*
X11037848Y8936461D01*
X11032968Y8951189D01*
X10984503Y9097447D01*
X10984497Y9097456D01*
X10969186Y9122279D01*
X10937447Y9173736D01*
X10919007Y9241125D01*
X10935600Y9300832D01*
X11003749Y9418863D01*
X11070661Y9580392D01*
X11115918Y9749273D01*
X11138746Y9922616D01*
X11138747Y9948249D01*
X11138750Y9948263D01*
X11138750Y10001683D01*
X11138781Y10001792D01*
X11156017Y10064795D01*
X11234119Y10196857D01*
X11278915Y10351046D01*
X11281750Y10387069D01*
X11281749Y10885430D01*
X11278915Y10921454D01*
X11234119Y11075643D01*
X11152385Y11213848D01*
X11152383Y11213850D01*
X11152380Y11213854D01*
X11038853Y11327381D01*
X11038845Y11327387D01*
X10900643Y11409119D01*
X10900638Y11409121D01*
X10746458Y11453915D01*
X10746452Y11453916D01*
X10710431Y11456750D01*
X10312080Y11456750D01*
X10312058Y11456749D01*
X10276044Y11453915D01*
X10121861Y11409121D01*
X10121854Y11409118D01*
X10064369Y11375122D01*
X9996645Y11357941D01*
X9938131Y11375122D01*
X9880645Y11409118D01*
X9880638Y11409121D01*
X9726458Y11453915D01*
X9726452Y11453916D01*
X9690431Y11456750D01*
X9292080Y11456750D01*
X9292058Y11456749D01*
X9256048Y11453916D01*
X9098236Y11408067D01*
X9028367Y11408267D01*
X8969697Y11446210D01*
X8958104Y11462047D01*
X8956718Y11464294D01*
X8836794Y11584218D01*
X8836790Y11584221D01*
X8692455Y11673249D01*
X8692449Y11673252D01*
X8692447Y11673253D01*
X8692444Y11673254D01*
X8531459Y11726599D01*
X8432096Y11736750D01*
X7885412Y11736750D01*
X7885394Y11736749D01*
X7786042Y11726600D01*
X7786039Y11726599D01*
X7625055Y11673254D01*
X7625044Y11673249D01*
X7480709Y11584221D01*
X7360779Y11464292D01*
X7356304Y11458631D01*
X7355033Y11459636D01*
X7309530Y11418722D01*
X7240565Y11407512D01*
X7219967Y11411891D01*
X7218490Y11412339D01*
X7063845Y11443100D01*
X7063842Y11443100D01*
X6906158Y11443100D01*
X6906155Y11443100D01*
X6751510Y11412339D01*
X6751498Y11412336D01*
X6605827Y11351998D01*
X6605814Y11351991D01*
X6474711Y11264390D01*
X6474707Y11264387D01*
X6363213Y11152893D01*
X6363210Y11152889D01*
X6275609Y11021786D01*
X6275602Y11021773D01*
X6215264Y10876102D01*
X6215261Y10876090D01*
X6184500Y10721447D01*
X5809249Y10721447D01*
X5809249Y11059594D01*
X5807609Y11075644D01*
X5799099Y11158958D01*
X5799098Y11158961D01*
X5787224Y11194795D01*
X5745753Y11319947D01*
X5745749Y11319953D01*
X5745748Y11319956D01*
X5656720Y11464291D01*
X5656717Y11464295D01*
X5536794Y11584218D01*
X5536790Y11584221D01*
X5392455Y11673249D01*
X5392449Y11673252D01*
X5392447Y11673253D01*
X5392444Y11673254D01*
X5231459Y11726599D01*
X5132096Y11736750D01*
X4585412Y11736750D01*
X4585394Y11736749D01*
X4486042Y11726600D01*
X4486039Y11726599D01*
X4325055Y11673254D01*
X4325044Y11673249D01*
X4180709Y11584221D01*
X4180705Y11584218D01*
X4060782Y11464295D01*
X4060779Y11464291D01*
X3971751Y11319956D01*
X3971746Y11319945D01*
X3918401Y11158960D01*
X3908250Y11059603D01*
X3908250Y10212913D01*
X3908251Y10212895D01*
X3918400Y10113543D01*
X3918401Y10113540D01*
X3971746Y9952556D01*
X3971751Y9952545D01*
X4060779Y9808210D01*
X4060782Y9808206D01*
X4067931Y9801057D01*
X4082634Y9774130D01*
X4099227Y9748311D01*
X4100118Y9742111D01*
X4101416Y9739734D01*
X4104250Y9713376D01*
X4104250Y9661197D01*
X4094812Y9613749D01*
X4090104Y9602380D01*
X4089012Y9599744D01*
X4087995Y9596391D01*
X4086986Y9594852D01*
X4086683Y9594120D01*
X4086544Y9594178D01*
X4049693Y9537956D01*
X3985878Y9509504D01*
X3916812Y9520070D01*
X3877917Y9548621D01*
X3804830Y9628380D01*
X3797906Y9636634D01*
X3568389Y9935745D01*
X3562184Y9944606D01*
X3517123Y10015337D01*
X3359611Y10262582D01*
X3354204Y10271949D01*
X3334549Y10309705D01*
X3227501Y10515343D01*
X3180125Y10606352D01*
X3175553Y10616156D01*
X3104014Y10788864D01*
X3031273Y10964473D01*
X3027576Y10974631D01*
X3018859Y11002279D01*
X2914204Y11334202D01*
X2911410Y11344628D01*
X2829802Y11712730D01*
X2827929Y11723357D01*
X2778715Y12097164D01*
X2777775Y12107906D01*
X2761218Y12487097D01*
X2761100Y12492506D01*
X2761100Y26469973D01*
X2780785Y26537012D01*
X2833589Y26582767D01*
X2902747Y26592711D01*
X2932548Y26584536D01*
X3051503Y26535263D01*
X3162622Y26513160D01*
X3206153Y26504501D01*
X3206156Y26504500D01*
X3206158Y26504500D01*
X3363844Y26504500D01*
X3363845Y26504501D01*
X3518497Y26535263D01*
X3664179Y26595606D01*
X3795289Y26683211D01*
X3897319Y26785242D01*
X3903352Y26788536D01*
X3907277Y26794178D01*
X3933619Y26805063D01*
X3958640Y26818725D01*
X3965497Y26818235D01*
X3971851Y26820860D01*
X3999900Y26815775D01*
X4028332Y26813741D01*
X4035475Y26809325D01*
X4040600Y26808395D01*
X4062246Y26792771D01*
X4069574Y26788240D01*
X4071162Y26786759D01*
X4174710Y26683211D01*
X4201075Y26665594D01*
X4208416Y26658748D01*
X4221310Y26636974D01*
X4237536Y26617558D01*
X4238809Y26607422D01*
X4244016Y26598629D01*
X4243090Y26573338D01*
X4246244Y26548233D01*
X4241834Y26539017D01*
X4241461Y26528806D01*
X4227011Y26508034D01*
X4216090Y26485205D01*
X4207397Y26479836D01*
X4201563Y26471448D01*
X4178176Y26461785D01*
X4161256Y26451333D01*
X4161683Y26450021D01*
X3947396Y26380397D01*
X3947393Y26380396D01*
X3750974Y26280313D01*
X3572641Y26150748D01*
X3572636Y26150744D01*
X3416756Y25994864D01*
X3416752Y25994859D01*
X3287187Y25816526D01*
X3187104Y25620107D01*
X3187103Y25620104D01*
X3118985Y25410453D01*
X3084500Y25192722D01*
X3084500Y24972279D01*
X3118985Y24754548D01*
X3187103Y24544897D01*
X3187104Y24544894D01*
X3235000Y24450896D01*
X3269854Y24382491D01*
X3287187Y24348475D01*
X3416752Y24170142D01*
X3416756Y24170137D01*
X3572636Y24014257D01*
X3572641Y24014253D01*
X3750978Y23884685D01*
X3755130Y23882140D01*
X3754395Y23880943D01*
X3760858Y23874839D01*
X3774703Y23868516D01*
X3785742Y23851339D01*
X3800590Y23837316D01*
X3804832Y23821634D01*
X3812477Y23809738D01*
X3817500Y23774803D01*
X3817500Y23596272D01*
X3797815Y23529233D01*
X3758599Y23490735D01*
X3741958Y23480471D01*
X3622029Y23360541D01*
X3533001Y23216206D01*
X3532996Y23216195D01*
X3479651Y23055210D01*
X3469500Y22955853D01*
X3469500Y22409163D01*
X3469501Y22409145D01*
X3479650Y22309793D01*
X3479651Y22309790D01*
X3532996Y22148806D01*
X3533001Y22148795D01*
X3622029Y22004460D01*
X3622032Y22004456D01*
X3631307Y21995181D01*
X3664792Y21933858D01*
X3659808Y21864166D01*
X3631307Y21819819D01*
X3622032Y21810545D01*
X3622029Y21810541D01*
X3533001Y21666206D01*
X3532996Y21666195D01*
X3479651Y21505210D01*
X3469500Y21405853D01*
X3469500Y20859163D01*
X3469501Y20859145D01*
X3479650Y20759793D01*
X3479651Y20759790D01*
X3532996Y20598806D01*
X3533001Y20598795D01*
X3622029Y20454460D01*
X3622032Y20454456D01*
X3741955Y20334533D01*
X3741959Y20334530D01*
X3886294Y20245502D01*
X3886297Y20245501D01*
X3886303Y20245497D01*
X4047292Y20192151D01*
X4146655Y20182000D01*
X4743344Y20182001D01*
X4743352Y20182002D01*
X4743355Y20182002D01*
X4812497Y20189065D01*
X4842708Y20192151D01*
X5003697Y20245497D01*
X5014282Y20252027D01*
X5122543Y20318802D01*
X5189935Y20337243D01*
X5256599Y20316321D01*
X5275321Y20300945D01*
X5296146Y20280120D01*
X5296150Y20280117D01*
X5296152Y20280115D01*
X5434357Y20198381D01*
X5455801Y20192151D01*
X5588541Y20153586D01*
X5588544Y20153586D01*
X5588546Y20153585D01*
X5624569Y20150750D01*
X6122930Y20150751D01*
X6158954Y20153585D01*
X6313143Y20198381D01*
X6445205Y20276482D01*
X6508326Y20293750D01*
X9569007Y20293750D01*
X9636046Y20274065D01*
X9681801Y20221261D01*
X9691745Y20152103D01*
X9667383Y20094264D01*
X9524738Y19908365D01*
X9524727Y19908349D01*
X9402791Y19697152D01*
X9402786Y19697141D01*
X9309459Y19471831D01*
X9309456Y19471821D01*
X9248087Y19242784D01*
X9246335Y19236247D01*
X9246333Y19236236D01*
X9214500Y18994452D01*
X9214500Y18230549D01*
X9239242Y18042622D01*
X9246334Y17988756D01*
X9300741Y17785706D01*
X9309456Y17753180D01*
X9309459Y17753170D01*
X9402786Y17527860D01*
X9402791Y17527849D01*
X9524727Y17316652D01*
X9524738Y17316636D01*
X9673199Y17123157D01*
X9673205Y17123150D01*
X9845649Y16950706D01*
X9845656Y16950700D01*
X9924657Y16890081D01*
X10039144Y16802232D01*
X10039151Y16802228D01*
X10250348Y16680292D01*
X10250353Y16680290D01*
X10250356Y16680288D01*
X10346640Y16640406D01*
X10461944Y16592645D01*
X10475679Y16586956D01*
X10711256Y16523834D01*
X10953056Y16492000D01*
X10953063Y16492000D01*
X11196937Y16492000D01*
X11196944Y16492000D01*
X11438744Y16523834D01*
X11674321Y16586956D01*
X11899644Y16680288D01*
X11903145Y16682309D01*
X11912916Y16687952D01*
X12110856Y16802232D01*
X12304345Y16950701D01*
X12351429Y16997785D01*
X12355646Y17000089D01*
X12358260Y17004121D01*
X12386016Y17016673D01*
X12412752Y17031271D01*
X12417544Y17030929D01*
X12421923Y17032908D01*
X12452060Y17028460D01*
X12482443Y17026287D01*
X12486289Y17023408D01*
X12491044Y17022706D01*
X12513998Y17002666D01*
X12538377Y16984416D01*
X12541053Y16979045D01*
X12543677Y16976754D01*
X12549839Y16961411D01*
X12558218Y16944594D01*
X12559696Y16939490D01*
X12565263Y16911503D01*
X12573693Y16891151D01*
X12575607Y16884542D01*
X12575570Y16874835D01*
X12580500Y16850053D01*
X12580500Y16682309D01*
X12575576Y16647714D01*
X12537402Y16516324D01*
X12537401Y16516318D01*
X12534500Y16479452D01*
X12534500Y15847000D01*
X12514815Y15779961D01*
X12462011Y15734206D01*
X12410500Y15723000D01*
X12303655Y15723000D01*
X12149010Y15692239D01*
X12148998Y15692236D01*
X12003327Y15631898D01*
X12003314Y15631891D01*
X11872211Y15544290D01*
X11872207Y15544287D01*
X11760713Y15432793D01*
X11760710Y15432789D01*
X11673109Y15301686D01*
X11673102Y15301673D01*
X11612764Y15156002D01*
X11612761Y15155990D01*
X11582000Y15001347D01*
X11582000Y14843654D01*
X11612761Y14689011D01*
X11612763Y14689003D01*
X11618561Y14675006D01*
X11620187Y14666829D01*
X11622977Y14662488D01*
X11628000Y14627553D01*
X11628000Y14577000D01*
X11608315Y14509961D01*
X11555511Y14464206D01*
X11504000Y14453000D01*
X11351155Y14453000D01*
X11196510Y14422239D01*
X11196498Y14422236D01*
X11050827Y14361898D01*
X11050814Y14361891D01*
X10919711Y14274290D01*
X10919707Y14274287D01*
X10808213Y14162793D01*
X10808210Y14162789D01*
X10720609Y14031686D01*
X10720602Y14031673D01*
X10660264Y13886002D01*
X10660261Y13885990D01*
X10629500Y13731347D01*
X10629500Y13573654D01*
X10660261Y13419011D01*
X10660264Y13418999D01*
X10720602Y13273328D01*
X10720609Y13273315D01*
X10808210Y13142212D01*
X10808213Y13142208D01*
X10919707Y13030714D01*
X10919711Y13030711D01*
X11050814Y12943110D01*
X11050827Y12943103D01*
X11187662Y12886425D01*
X11196503Y12882763D01*
X11325313Y12857141D01*
X11351153Y12852001D01*
X11351156Y12852000D01*
X11351158Y12852000D01*
X11508841Y12852000D01*
X11508842Y12852000D01*
X11534685Y12857141D01*
X11604274Y12850915D01*
X11659452Y12808054D01*
X11665609Y12798645D01*
X11716916Y12711889D01*
X11716923Y12711880D01*
X11833129Y12595674D01*
X11833133Y12595671D01*
X11833135Y12595669D01*
X11974602Y12512006D01*
X11984904Y12509013D01*
X12132426Y12466153D01*
X12132429Y12466153D01*
X12132431Y12466152D01*
X12169306Y12463250D01*
X12169314Y12463250D01*
X12469841Y12463250D01*
X12536880Y12443565D01*
X12582635Y12390761D01*
X12592579Y12321603D01*
X12563554Y12258047D01*
X12542726Y12238932D01*
X12462640Y12180748D01*
X12306756Y12024864D01*
X12306752Y12024859D01*
X12177187Y11846526D01*
X12077104Y11650107D01*
X12077103Y11650104D01*
X12008985Y11440453D01*
X11992155Y11334190D01*
X11974500Y11222722D01*
X11974500Y11002278D01*
X11980489Y10964466D01*
X12008985Y10784548D01*
X12077103Y10574897D01*
X12077104Y10574894D01*
X12107442Y10515354D01*
X12172811Y10387062D01*
X12177187Y10378475D01*
X12306752Y10200142D01*
X12306756Y10200137D01*
X12462636Y10044257D01*
X12462641Y10044253D01*
X12594781Y9948249D01*
X12640978Y9914685D01*
X12733799Y9867390D01*
X12837393Y9814605D01*
X12837399Y9814603D01*
X13050443Y9745382D01*
X13108119Y9705945D01*
X13135318Y9641587D01*
X13123404Y9572740D01*
X13076160Y9521264D01*
X13031247Y9506268D01*
X13031408Y9505515D01*
X13024789Y9504099D01*
X12863805Y9450754D01*
X12863794Y9450749D01*
X12719459Y9361721D01*
X12719455Y9361718D01*
X12599532Y9241795D01*
X12599529Y9241791D01*
X12510501Y9097456D01*
X12510496Y9097445D01*
X12457151Y8936460D01*
X12447000Y8837103D01*
X12447000Y7990413D01*
X12447001Y7990395D01*
X12457150Y7891043D01*
X12457151Y7891040D01*
X12510496Y7730056D01*
X12510501Y7730045D01*
X12599529Y7585710D01*
X12599532Y7585706D01*
X12719456Y7465782D01*
X12821948Y7402564D01*
X12831480Y7392946D01*
X12840587Y7388482D01*
X12856044Y7368163D01*
X12862960Y7361185D01*
X12865291Y7357330D01*
X12911756Y7266136D01*
X12963433Y7195008D01*
X12966154Y7190508D01*
X12973788Y7161602D01*
X12983840Y7133429D01*
X12982617Y7128172D01*
X12983995Y7122955D01*
X12974789Y7094509D01*
X12968014Y7065375D01*
X12964143Y7061614D01*
X12962482Y7056480D01*
X12939355Y7037525D01*
X12917908Y7016681D01*
X12911598Y7014774D01*
X12908445Y7012188D01*
X12899697Y7011175D01*
X12872644Y7002993D01*
X12822291Y6997849D01*
X12822289Y6997849D01*
X12661305Y6944504D01*
X12661294Y6944499D01*
X12516959Y6855471D01*
X12516955Y6855468D01*
X12484807Y6823319D01*
X12457879Y6808616D01*
X12432061Y6792023D01*
X12425860Y6791132D01*
X12423484Y6789834D01*
X12397126Y6787000D01*
X12359947Y6787000D01*
X12312498Y6796438D01*
X12298497Y6802237D01*
X12298493Y6802238D01*
X12298488Y6802240D01*
X12143845Y6833000D01*
X12143842Y6833000D01*
X11986158Y6833000D01*
X11986155Y6833000D01*
X11831510Y6802239D01*
X11831498Y6802236D01*
X11685827Y6741898D01*
X11685814Y6741891D01*
X11554711Y6654290D01*
X11554707Y6654287D01*
X11443213Y6542793D01*
X11443210Y6542789D01*
X11355609Y6411686D01*
X11355602Y6411673D01*
X11295264Y6266002D01*
X11295261Y6265990D01*
X11264500Y6111347D01*
X11264500Y5953654D01*
X11295261Y5799011D01*
X11295264Y5798999D01*
X11355602Y5653328D01*
X11355609Y5653315D01*
X11443210Y5522212D01*
X11443213Y5522208D01*
X11554707Y5410714D01*
X11554711Y5410711D01*
X11685814Y5323110D01*
X11685827Y5323103D01*
X11794717Y5278000D01*
X11831503Y5262763D01*
X11937489Y5241681D01*
X11986153Y5232001D01*
X11986156Y5232000D01*
X11986158Y5232000D01*
X12143844Y5232000D01*
X12143845Y5232001D01*
X12234434Y5250020D01*
X12298488Y5262761D01*
X12298489Y5262762D01*
X12298497Y5262763D01*
X12312498Y5268563D01*
X12320672Y5270189D01*
X12325012Y5272977D01*
X12359947Y5278000D01*
X12397126Y5278000D01*
X12464165Y5258315D01*
X12484807Y5241681D01*
X12516955Y5209533D01*
X12516959Y5209530D01*
X12661294Y5120502D01*
X12661297Y5120501D01*
X12661303Y5120497D01*
X12822292Y5067151D01*
X12921655Y5057000D01*
X13385641Y5057001D01*
X13452680Y5037317D01*
X13498435Y4984513D01*
X13508379Y4915354D01*
X13484015Y4857512D01*
X13415109Y4767718D01*
X13415102Y4767708D01*
X13319752Y4602568D01*
X13319746Y4602557D01*
X13262394Y4464107D01*
X13218551Y4409705D01*
X13184727Y4393179D01*
X13163405Y4386535D01*
X13163400Y4386533D01*
X13025608Y4303234D01*
X12911766Y4189392D01*
X12828469Y4051603D01*
X12780569Y3897884D01*
X12774500Y3831089D01*
X12774500Y3398902D01*
X12780568Y3332118D01*
X12780571Y3332107D01*
X12828467Y3178402D01*
X12828468Y3178400D01*
X12828469Y3178398D01*
X12911764Y3040612D01*
X12911766Y3040609D01*
X13025608Y2926767D01*
X13025610Y2926766D01*
X13025612Y2926764D01*
X13163398Y2843469D01*
X13317113Y2795570D01*
X13383909Y2789500D01*
X14216090Y2789501D01*
X14216097Y2789501D01*
X14282882Y2795569D01*
X14282885Y2795570D01*
X14282887Y2795570D01*
X14436602Y2843469D01*
X14574388Y2926764D01*
X14688236Y3040612D01*
X14771531Y3178398D01*
X14819430Y3332113D01*
X14825500Y3398909D01*
X14825499Y3831090D01*
X14825499Y3831091D01*
X14825499Y3831099D01*
X14819431Y3897883D01*
X14819428Y3897894D01*
X14771532Y4051599D01*
X14771531Y4051600D01*
X14771531Y4051602D01*
X14696359Y4175951D01*
X14678524Y4243502D01*
X14700041Y4309976D01*
X14714786Y4327769D01*
X14954129Y4567111D01*
X14954130Y4567115D01*
X14958273Y4571256D01*
X14958743Y4571777D01*
X14983498Y4596528D01*
X15109399Y4760588D01*
X15200879Y4919019D01*
X15212802Y4939667D01*
X15212802Y4939670D01*
X15212808Y4939678D01*
X15275468Y5090935D01*
X15319312Y5145335D01*
X15324930Y5149015D01*
X15423044Y5209532D01*
X15542968Y5329456D01*
X15573498Y5378954D01*
X15625441Y5425676D01*
X15640726Y5431789D01*
X15642567Y5432388D01*
X15642573Y5432388D01*
X15809027Y5486458D01*
X15936294Y5551292D01*
X16004964Y5564182D01*
X16027175Y5559879D01*
X16066046Y5548585D01*
X16102069Y5545750D01*
X16600430Y5545751D01*
X16636454Y5548585D01*
X16790643Y5593381D01*
X16928848Y5675115D01*
X17042385Y5788652D01*
X17092237Y5872949D01*
X17143303Y5920629D01*
X17212044Y5933133D01*
X17276634Y5906489D01*
X17305698Y5872948D01*
X17339330Y5816080D01*
X17339332Y5816078D01*
X17339334Y5816075D01*
X17451074Y5704335D01*
X17451078Y5704332D01*
X17451080Y5704330D01*
X17587110Y5623882D01*
X17738873Y5579791D01*
X17774337Y5577000D01*
X19275662Y5577001D01*
X19302775Y5579134D01*
X19316382Y5576275D01*
X19330147Y5578254D01*
X19349900Y5569233D01*
X19371151Y5564768D01*
X19381052Y5555007D01*
X19393703Y5549229D01*
X19405443Y5530960D01*
X19420907Y5515715D01*
X19424732Y5500946D01*
X19431477Y5490451D01*
X19436500Y5455516D01*
X19436500Y5289703D01*
X19419232Y5226583D01*
X19404633Y5201898D01*
X19404629Y5201889D01*
X19359835Y5047709D01*
X19359834Y5047703D01*
X19357000Y5011689D01*
X19357000Y4513331D01*
X19357001Y4513309D01*
X19359834Y4477299D01*
X19368844Y4446288D01*
X19368644Y4376419D01*
X19330701Y4317749D01*
X19273959Y4290077D01*
X19134008Y4262239D01*
X19133998Y4262236D01*
X18988328Y4201898D01*
X18988312Y4201889D01*
X18975467Y4193306D01*
X18908789Y4172429D01*
X18841409Y4190915D01*
X18818897Y4208728D01*
X18724391Y4303234D01*
X18713238Y4309976D01*
X18586602Y4386531D01*
X18432887Y4434430D01*
X18432885Y4434431D01*
X18432883Y4434431D01*
X18386117Y4438681D01*
X18366091Y4440500D01*
X18366088Y4440500D01*
X17533901Y4440500D01*
X17467117Y4434432D01*
X17467106Y4434429D01*
X17313401Y4386533D01*
X17175608Y4303234D01*
X17061766Y4189392D01*
X16978469Y4051603D01*
X16930569Y3897884D01*
X16924500Y3831089D01*
X16924500Y3398902D01*
X16930568Y3332118D01*
X16930571Y3332107D01*
X16978467Y3178402D01*
X16978468Y3178400D01*
X16978469Y3178398D01*
X17061764Y3040612D01*
X17061766Y3040609D01*
X17175607Y2926768D01*
X17175611Y2926765D01*
X17175612Y2926764D01*
X17185084Y2921038D01*
X17288923Y2858264D01*
X17336110Y2806736D01*
X17347245Y2771548D01*
X17348955Y2760750D01*
X17348957Y2760741D01*
X17401211Y2599903D01*
X17401212Y2599901D01*
X17480203Y2444868D01*
X17479207Y2444361D01*
X17496061Y2382037D01*
X17474941Y2315436D01*
X17421166Y2270827D01*
X17408981Y2266317D01*
X17313400Y2236532D01*
X17313398Y2236532D01*
X17313398Y2236531D01*
X17267469Y2208766D01*
X17175608Y2153234D01*
X17061766Y2039392D01*
X16978469Y1901603D01*
X16930569Y1747884D01*
X16924500Y1681089D01*
X16924500Y1248902D01*
X16930568Y1182118D01*
X16930571Y1182107D01*
X16978467Y1028402D01*
X17061766Y890609D01*
X17175608Y776767D01*
X17175610Y776766D01*
X17175612Y776764D01*
X17313398Y693469D01*
X17467113Y645570D01*
X17533909Y639500D01*
X18366090Y639501D01*
X18366097Y639501D01*
X18432882Y645569D01*
X18432885Y645570D01*
X18432887Y645570D01*
X18586602Y693469D01*
X18724388Y776764D01*
X18838236Y890612D01*
X18921531Y1028398D01*
X18969430Y1182113D01*
X18975500Y1248909D01*
X18975500Y1349057D01*
X29879500Y1349057D01*
X29879500Y1190943D01*
X29908080Y1084283D01*
X29920423Y1038217D01*
X29920426Y1038210D01*
X29999475Y901291D01*
X29999479Y901286D01*
X29999480Y901284D01*
X30111284Y789480D01*
X30111286Y789479D01*
X30111290Y789476D01*
X30248209Y710427D01*
X30248216Y710423D01*
X30400943Y669500D01*
X30400945Y669500D01*
X30559055Y669500D01*
X30559057Y669500D01*
X30711784Y710423D01*
X30848716Y789480D01*
X30960520Y901284D01*
X31039577Y1038216D01*
X31080500Y1190943D01*
X31080500Y1349057D01*
X31039577Y1501784D01*
X31039573Y1501791D01*
X30960524Y1638710D01*
X30960518Y1638718D01*
X30848717Y1750519D01*
X30848709Y1750525D01*
X30711790Y1829574D01*
X30711786Y1829576D01*
X30711784Y1829577D01*
X30559057Y1870500D01*
X30400943Y1870500D01*
X30248216Y1829577D01*
X30248209Y1829574D01*
X30111290Y1750525D01*
X30111282Y1750519D01*
X29999481Y1638718D01*
X29999475Y1638710D01*
X29920426Y1501791D01*
X29920423Y1501784D01*
X29879500Y1349057D01*
X18975500Y1349057D01*
X18975499Y1501784D01*
X18975499Y1681099D01*
X18969431Y1747883D01*
X18969428Y1747894D01*
X18960356Y1777010D01*
X18959204Y1846870D01*
X18996005Y1906262D01*
X19059074Y1936330D01*
X19078741Y1937900D01*
X20691736Y1937900D01*
X20699346Y1937900D01*
X20699364Y1937895D01*
X20724202Y1937897D01*
X20724228Y1937890D01*
X20775556Y1937893D01*
X20775556Y1937892D01*
X20854214Y1937896D01*
X21009591Y1962512D01*
X21159204Y2011130D01*
X21299371Y2082553D01*
X21426640Y2175021D01*
X21428381Y2176763D01*
X21428384Y2176764D01*
X21482260Y2230640D01*
X21536136Y2284516D01*
X21536137Y2284519D01*
X21537797Y2286178D01*
X21537865Y2286258D01*
X21537873Y2286265D01*
X21630340Y2413533D01*
X21701762Y2553699D01*
X21750380Y2703311D01*
X21774996Y2858687D01*
X21774996Y2858694D01*
X21774997Y2858700D01*
X21775379Y2863546D01*
X21776511Y2863457D01*
X21792264Y2921038D01*
X21805700Y2943758D01*
X21870369Y3053107D01*
X21915165Y3207296D01*
X21918000Y3243319D01*
X21917999Y3741680D01*
X21915165Y3777704D01*
X21870369Y3931893D01*
X21861910Y3946197D01*
X21792268Y4063956D01*
X21787917Y4079858D01*
X21780023Y4092142D01*
X21775000Y4127077D01*
X21775000Y4127924D01*
X21792268Y4191045D01*
X21798686Y4201898D01*
X21870369Y4323107D01*
X21903351Y4436635D01*
X21915164Y4477292D01*
X21915165Y4477298D01*
X21916950Y4499981D01*
X21918000Y4513319D01*
X21917999Y5011680D01*
X21915165Y5047704D01*
X21870369Y5201893D01*
X21841909Y5250017D01*
X25454500Y5250017D01*
X25454500Y4499999D01*
X25454501Y4499981D01*
X25465000Y4397204D01*
X25465001Y4397201D01*
X25494245Y4308950D01*
X25494715Y4306018D01*
X25495578Y4304670D01*
X25496975Y4291935D01*
X25500539Y4269726D01*
X25500531Y4265550D01*
X25500503Y4265332D01*
X25500502Y4249000D01*
X25500502Y4248866D01*
X25500500Y4248860D01*
X25500500Y4243936D01*
X25500500Y4184902D01*
X25500500Y4169650D01*
X25500499Y4126866D01*
X25500497Y4083832D01*
X25500500Y4083775D01*
X25500500Y3946197D01*
X25491062Y3898749D01*
X25485263Y3884747D01*
X25485262Y3884744D01*
X25485260Y3884739D01*
X25454500Y3730097D01*
X25454500Y3572404D01*
X25485261Y3417761D01*
X25485264Y3417749D01*
X25545602Y3272078D01*
X25545609Y3272065D01*
X25633210Y3140962D01*
X25633213Y3140958D01*
X25744707Y3029464D01*
X25744711Y3029461D01*
X25875814Y2941860D01*
X25875827Y2941853D01*
X25973812Y2901267D01*
X26021503Y2881513D01*
X26138383Y2858264D01*
X26176153Y2850751D01*
X26176156Y2850750D01*
X26176158Y2850750D01*
X26333844Y2850750D01*
X26333845Y2850751D01*
X26488497Y2881513D01*
X26634179Y2941856D01*
X26765289Y3029461D01*
X26876789Y3140961D01*
X26964394Y3272071D01*
X27024737Y3417753D01*
X27055500Y3572408D01*
X27055500Y3675501D01*
X27075185Y3742540D01*
X27127989Y3788295D01*
X27179500Y3799501D01*
X27430499Y3799501D01*
X27497538Y3779816D01*
X27543293Y3727012D01*
X27554499Y3675501D01*
X27554499Y3572404D01*
X27585260Y3417761D01*
X27585263Y3417749D01*
X27645601Y3272078D01*
X27645608Y3272065D01*
X27733209Y3140962D01*
X27733212Y3140958D01*
X27844706Y3029464D01*
X27844710Y3029461D01*
X27975813Y2941860D01*
X27975826Y2941853D01*
X28073811Y2901267D01*
X28121502Y2881513D01*
X28238382Y2858264D01*
X28276152Y2850751D01*
X28276155Y2850750D01*
X28276157Y2850750D01*
X28433843Y2850750D01*
X28433844Y2850751D01*
X28588496Y2881513D01*
X28734178Y2941856D01*
X28865288Y3029461D01*
X28976788Y3140961D01*
X29064393Y3272071D01*
X29124736Y3417753D01*
X29155499Y3572408D01*
X29155499Y3730092D01*
X29155499Y3730095D01*
X29155498Y3730097D01*
X29124738Y3884739D01*
X29124737Y3884742D01*
X29124736Y3884747D01*
X29118936Y3898749D01*
X29117310Y3906923D01*
X29114522Y3911262D01*
X29109499Y3946197D01*
X29109499Y4170504D01*
X29109504Y4170617D01*
X29109503Y4177097D01*
X29109505Y4177103D01*
X29109502Y4205022D01*
X29109522Y4205090D01*
X29109517Y4256404D01*
X29109518Y4256404D01*
X29109516Y4270109D01*
X29115808Y4309114D01*
X29144999Y4397203D01*
X29155500Y4499991D01*
X29155499Y5250008D01*
X29154650Y5258315D01*
X29144999Y5352797D01*
X29144998Y5352800D01*
X29131401Y5393833D01*
X29089814Y5519334D01*
X28997712Y5668656D01*
X28873656Y5792712D01*
X28768076Y5857834D01*
X28724336Y5884813D01*
X28724331Y5884815D01*
X28658923Y5906489D01*
X28557797Y5939999D01*
X28557795Y5940000D01*
X28455010Y5950500D01*
X26154998Y5950500D01*
X26154981Y5950499D01*
X26052203Y5940000D01*
X26052200Y5939999D01*
X25885668Y5884815D01*
X25885663Y5884813D01*
X25736342Y5792711D01*
X25612289Y5668658D01*
X25520187Y5519337D01*
X25520185Y5519332D01*
X25514093Y5500946D01*
X25465001Y5352797D01*
X25465001Y5352796D01*
X25465000Y5352796D01*
X25454500Y5250017D01*
X21841909Y5250017D01*
X21788635Y5340098D01*
X21761951Y5366782D01*
X21754827Y5377780D01*
X21748449Y5399215D01*
X21737734Y5418838D01*
X21734974Y5444500D01*
X21734901Y5444748D01*
X21734935Y5444867D01*
X21734900Y5445196D01*
X21734900Y5481162D01*
X21754585Y5548201D01*
X21807389Y5593956D01*
X21876547Y5603900D01*
X21893486Y5600241D01*
X21963873Y5579791D01*
X21999337Y5577000D01*
X23500662Y5577001D01*
X23536127Y5579791D01*
X23687890Y5623882D01*
X23823920Y5704330D01*
X23935670Y5816080D01*
X23940524Y5824289D01*
X23991591Y5871972D01*
X24060332Y5884478D01*
X24124922Y5857834D01*
X24138892Y5844008D01*
X24138903Y5844018D01*
X24140974Y5841947D01*
X24143115Y5839828D01*
X24143215Y5839706D01*
X24254707Y5728214D01*
X24254711Y5728211D01*
X24385814Y5640610D01*
X24385827Y5640603D01*
X24531498Y5580265D01*
X24531503Y5580263D01*
X24633985Y5559878D01*
X24686153Y5549501D01*
X24686156Y5549500D01*
X24686158Y5549500D01*
X24843844Y5549500D01*
X24843845Y5549501D01*
X24998497Y5580263D01*
X25144179Y5640606D01*
X25275289Y5728211D01*
X25386789Y5839711D01*
X25474394Y5970821D01*
X25534737Y6116503D01*
X25565500Y6271158D01*
X25565500Y6428842D01*
X25565500Y6428845D01*
X25565499Y6428847D01*
X25534739Y6583489D01*
X25534738Y6583492D01*
X25534737Y6583497D01*
X25528937Y6597499D01*
X25527311Y6605673D01*
X25524523Y6610012D01*
X25519500Y6644947D01*
X25519500Y6699453D01*
X25526993Y6735625D01*
X25525317Y6736112D01*
X25531825Y6758512D01*
X25554093Y6835161D01*
X25591699Y6894044D01*
X25655171Y6923251D01*
X25724358Y6913505D01*
X25738265Y6906103D01*
X25885659Y6815190D01*
X25885660Y6815190D01*
X25885666Y6815186D01*
X26052203Y6760001D01*
X26154991Y6749500D01*
X28455008Y6749501D01*
X28557797Y6760001D01*
X28724334Y6815186D01*
X28873656Y6907288D01*
X28997712Y7031344D01*
X29089814Y7180666D01*
X29144999Y7347203D01*
X29155500Y7449991D01*
X29155499Y8200008D01*
X29153937Y8215295D01*
X29144999Y8302797D01*
X29144998Y8302800D01*
X29113437Y8398044D01*
X29089814Y8469334D01*
X28997712Y8618656D01*
X28873656Y8742712D01*
X28728097Y8832493D01*
X28724336Y8834813D01*
X28724331Y8834815D01*
X28718057Y8836894D01*
X28557797Y8889999D01*
X28557795Y8890000D01*
X28455010Y8900500D01*
X26154998Y8900500D01*
X26154981Y8900499D01*
X26052203Y8890000D01*
X26052200Y8889999D01*
X25885668Y8834815D01*
X25885663Y8834813D01*
X25782726Y8771321D01*
X25736344Y8742712D01*
X25736343Y8742711D01*
X25687760Y8694129D01*
X25671474Y8685238D01*
X25658200Y8672276D01*
X25641446Y8668842D01*
X25626436Y8660645D01*
X25607928Y8661970D01*
X25589754Y8658243D01*
X25566167Y8664957D01*
X25556744Y8665631D01*
X25555359Y8666157D01*
X25549440Y8668446D01*
X25475829Y8705956D01*
X25329189Y8753612D01*
X25326016Y8754839D01*
X25324071Y8756331D01*
X25307617Y8763762D01*
X25191397Y8832493D01*
X25191390Y8832496D01*
X25035997Y8877643D01*
X25035991Y8877644D01*
X24999697Y8880500D01*
X24999690Y8880500D01*
X24530310Y8880500D01*
X24530302Y8880500D01*
X24494008Y8877644D01*
X24399735Y8850255D01*
X24329866Y8850455D01*
X24308849Y8858846D01*
X24236543Y8895686D01*
X24236540Y8895687D01*
X24087733Y8944032D01*
X24087734Y8944032D01*
X23933195Y8968503D01*
X23933194Y8968503D01*
X23894077Y8968502D01*
X23854960Y8968500D01*
X23742727Y8968500D01*
X23693480Y8978699D01*
X23687888Y8981119D01*
X23530405Y9026872D01*
X23471519Y9064478D01*
X23442313Y9127951D01*
X23441000Y9145948D01*
X23441000Y11317470D01*
X23441009Y11317505D01*
X23441009Y11368842D01*
X23441010Y11368842D01*
X23441009Y11587866D01*
X23409756Y12024798D01*
X23347413Y12458388D01*
X23347412Y12458394D01*
X23254298Y12886423D01*
X23192130Y13098143D01*
X23130883Y13306730D01*
X22977799Y13717159D01*
X22795827Y14115621D01*
X22585892Y14500087D01*
X22349065Y14868597D01*
X22349062Y14868602D01*
X22086559Y15219266D01*
X21863020Y15477242D01*
X21799691Y15550328D01*
X21692943Y15657077D01*
X21692941Y15657080D01*
X21644818Y15705203D01*
X21644819Y15705203D01*
X21589765Y15760256D01*
X21561056Y15778296D01*
X21552571Y15786152D01*
X21551925Y15787234D01*
X21549137Y15789457D01*
X21013962Y16324633D01*
X20980477Y16385956D01*
X20985461Y16455648D01*
X21027333Y16511581D01*
X21069547Y16532088D01*
X21274321Y16586956D01*
X21499644Y16680288D01*
X21503145Y16682309D01*
X21512916Y16687952D01*
X21710856Y16802232D01*
X21904345Y16950701D01*
X22076799Y17123155D01*
X22225268Y17316644D01*
X22347212Y17527856D01*
X22440544Y17753179D01*
X22503666Y17988756D01*
X22535500Y18230556D01*
X22535500Y18994444D01*
X22503666Y19236244D01*
X22440544Y19471821D01*
X22359242Y19668101D01*
X24443750Y19668101D01*
X24446649Y19631261D01*
X24446650Y19631255D01*
X24492466Y19473557D01*
X24492467Y19473554D01*
X24576064Y19332198D01*
X24576071Y19332189D01*
X24692188Y19216072D01*
X24692197Y19216065D01*
X24833551Y19132469D01*
X24991264Y19086650D01*
X24991261Y19086650D01*
X24993748Y19086455D01*
X24993750Y19086455D01*
X24993750Y19958750D01*
X24443750Y19958750D01*
X24443750Y19668101D01*
X22359242Y19668101D01*
X22347212Y19697144D01*
X22347210Y19697147D01*
X22347208Y19697152D01*
X22225272Y19908349D01*
X22225268Y19908356D01*
X22205109Y19934628D01*
X22076800Y20101844D01*
X22076794Y20101851D01*
X21904350Y20274295D01*
X21904343Y20274301D01*
X21710864Y20422762D01*
X21710862Y20422764D01*
X21710856Y20422768D01*
X21710851Y20422771D01*
X21710848Y20422773D01*
X21499651Y20544709D01*
X21499640Y20544714D01*
X21274330Y20638041D01*
X21274323Y20638043D01*
X21274321Y20638044D01*
X21038744Y20701166D01*
X20998333Y20706487D01*
X20796951Y20733000D01*
X20796944Y20733000D01*
X20553056Y20733000D01*
X20553048Y20733000D01*
X20322896Y20702699D01*
X20311256Y20701166D01*
X20172374Y20663953D01*
X20075679Y20638044D01*
X20075669Y20638041D01*
X19850359Y20544714D01*
X19850348Y20544709D01*
X19639151Y20422773D01*
X19639135Y20422762D01*
X19445656Y20274301D01*
X19445649Y20274295D01*
X19273205Y20101851D01*
X19273199Y20101844D01*
X19124738Y19908365D01*
X19124727Y19908349D01*
X19002791Y19697152D01*
X19002786Y19697141D01*
X18909459Y19471831D01*
X18909456Y19471821D01*
X18848087Y19242784D01*
X18846335Y19236247D01*
X18846333Y19236236D01*
X18814500Y18994452D01*
X18814500Y18823457D01*
X18794815Y18756418D01*
X18742011Y18710663D01*
X18672853Y18700719D01*
X18609297Y18729744D01*
X18602819Y18735776D01*
X18235629Y19102966D01*
X18230042Y19108934D01*
X18223554Y19116339D01*
X18206428Y19143595D01*
X18151926Y19198096D01*
X18149232Y19201171D01*
X18149161Y19201323D01*
X18148211Y19202351D01*
X18147032Y19203731D01*
X18090246Y19270217D01*
X18065649Y19299016D01*
X18054212Y19314758D01*
X17990348Y19418971D01*
X17981513Y19436309D01*
X17977706Y19445499D01*
X17934735Y19549238D01*
X17928723Y19567742D01*
X17913473Y19631261D01*
X17900186Y19686601D01*
X17897143Y19705817D01*
X17892985Y19758643D01*
X17887195Y19832217D01*
X17886813Y19841946D01*
X17886813Y19965748D01*
X17886812Y19965749D01*
X17885578Y19976700D01*
X17858072Y20220818D01*
X17800952Y20471069D01*
X17716171Y20713352D01*
X17604796Y20944618D01*
X17468227Y21161960D01*
X17308181Y21362644D01*
X17217426Y21453395D01*
X17208875Y21461946D01*
X17184223Y21486598D01*
X17146006Y21524816D01*
X17112522Y21586140D01*
X17117507Y21655831D01*
X17128148Y21677592D01*
X17142003Y21700053D01*
X17195349Y21861042D01*
X17205500Y21960405D01*
X17205499Y22807094D01*
X17202749Y22834011D01*
X17195349Y22906458D01*
X17195348Y22906461D01*
X17168111Y22988658D01*
X17142003Y23067447D01*
X17141999Y23067453D01*
X17141998Y23067456D01*
X17052970Y23211791D01*
X17052967Y23211795D01*
X16933044Y23331718D01*
X16933040Y23331721D01*
X16788705Y23420749D01*
X16788699Y23420752D01*
X16788697Y23420753D01*
X16710436Y23446686D01*
X16627709Y23474099D01*
X16528346Y23484250D01*
X15981662Y23484250D01*
X15981644Y23484249D01*
X15882292Y23474100D01*
X15882289Y23474099D01*
X15721305Y23420754D01*
X15721294Y23420749D01*
X15576959Y23331721D01*
X15576955Y23331718D01*
X15457032Y23211795D01*
X15457029Y23211791D01*
X15368001Y23067456D01*
X15367996Y23067445D01*
X15314651Y22906460D01*
X15304500Y22807103D01*
X15304500Y21960413D01*
X15304501Y21960395D01*
X15314650Y21861043D01*
X15314651Y21861040D01*
X15367996Y21700056D01*
X15368001Y21700045D01*
X15457029Y21555710D01*
X15457032Y21555706D01*
X15576956Y21435782D01*
X15594680Y21424850D01*
X15641405Y21372903D01*
X15649357Y21351410D01*
X15657492Y21321055D01*
X15657492Y21321053D01*
X15749388Y21099207D01*
X15749390Y21099203D01*
X15749392Y21099199D01*
X15788386Y21031662D01*
X15805000Y20969661D01*
X15805000Y18593955D01*
X15805001Y18593955D01*
X15807486Y18594150D01*
X15965198Y18639969D01*
X16106552Y18723565D01*
X16106561Y18723572D01*
X16222678Y18839689D01*
X16222685Y18839698D01*
X16306282Y18981054D01*
X16306283Y18981057D01*
X16352099Y19138755D01*
X16352100Y19138762D01*
X16353880Y19161381D01*
X16378762Y19226670D01*
X16434992Y19268142D01*
X16504718Y19272631D01*
X16565801Y19238710D01*
X16594539Y19192611D01*
X16668566Y18981057D01*
X16675428Y18961449D01*
X16786803Y18730183D01*
X16923373Y18512841D01*
X16984866Y18435734D01*
X17072768Y18325512D01*
X17099177Y18260826D01*
X17086422Y18192130D01*
X17038553Y18141236D01*
X16981979Y18124667D01*
X16981997Y18124440D01*
X16980914Y18124355D01*
X16980707Y18124294D01*
X16979572Y18124250D01*
X16943544Y18121415D01*
X16789361Y18076621D01*
X16789354Y18076618D01*
X16731869Y18042622D01*
X16664145Y18025441D01*
X16605631Y18042622D01*
X16548145Y18076618D01*
X16548138Y18076621D01*
X16393958Y18121415D01*
X16393952Y18121416D01*
X16357931Y18124250D01*
X15959580Y18124250D01*
X15959558Y18124249D01*
X15923545Y18121415D01*
X15923537Y18121414D01*
X15887385Y18110911D01*
X15874099Y18110950D01*
X15861652Y18106305D01*
X15839837Y18111048D01*
X15817516Y18111112D01*
X15804839Y18118658D01*
X15793378Y18121149D01*
X15765137Y18142288D01*
X15765123Y18142296D01*
X15629334Y18278085D01*
X15629243Y18278146D01*
X15626548Y18280840D01*
X15624838Y18282551D01*
X15624836Y18282554D01*
X15624824Y18282565D01*
X15607146Y18300246D01*
X15607142Y18300249D01*
X15456608Y18409633D01*
X15413946Y18464965D01*
X15405500Y18509946D01*
X15405500Y18606937D01*
X15405499Y18606952D01*
X15402937Y18639505D01*
X15402598Y18643819D01*
X15397658Y18660821D01*
X15359556Y18791970D01*
X15356744Y18801648D01*
X15322267Y18859946D01*
X15305000Y18923066D01*
X15305000Y19578750D01*
X14755000Y19578750D01*
X14755000Y19315750D01*
X14752449Y19307065D01*
X14753738Y19298103D01*
X14742759Y19274063D01*
X14735315Y19248711D01*
X14728474Y19242784D01*
X14724713Y19234547D01*
X14702478Y19220258D01*
X14682511Y19202956D01*
X14671996Y19200669D01*
X14665935Y19196773D01*
X14631000Y19191750D01*
X14579500Y19191750D01*
X14512461Y19211435D01*
X14466706Y19264239D01*
X14455500Y19315750D01*
X14455500Y20481900D01*
X14755000Y20481900D01*
X14755000Y20078750D01*
X15305000Y20078750D01*
X15305000Y21063547D01*
X15302503Y21063350D01*
X15144806Y21017534D01*
X15144803Y21017533D01*
X15003447Y20933936D01*
X15003438Y20933929D01*
X14887321Y20817812D01*
X14887314Y20817803D01*
X14803717Y20676447D01*
X14803716Y20676444D01*
X14757900Y20518746D01*
X14757899Y20518740D01*
X14755000Y20481900D01*
X14455500Y20481900D01*
X14455500Y20481937D01*
X14455499Y20481952D01*
X14452598Y20518818D01*
X14452597Y20518824D01*
X14406745Y20676644D01*
X14406744Y20676647D01*
X14406744Y20676648D01*
X14323081Y20818115D01*
X14323079Y20818117D01*
X14323076Y20818121D01*
X14206870Y20934327D01*
X14206867Y20934329D01*
X14206865Y20934331D01*
X14199684Y20938578D01*
X14152328Y20989003D01*
X14127219Y21038271D01*
X14027954Y21174873D01*
X13971626Y21231193D01*
X13968320Y21234499D01*
X13968319Y21234499D01*
X13968249Y21234569D01*
X13968249Y21234570D01*
X13966514Y21236305D01*
X13950891Y21251928D01*
X13950883Y21251933D01*
X13914369Y21288442D01*
X13914365Y21288444D01*
X13908993Y21293816D01*
X13908993Y21293817D01*
X13908971Y21293836D01*
X13908609Y21294198D01*
X13782750Y21385651D01*
X13740087Y21440984D01*
X13734112Y21510598D01*
X13750103Y21551063D01*
X13752965Y21555704D01*
X13752968Y21555706D01*
X13842003Y21700053D01*
X13895349Y21861042D01*
X13905500Y21960405D01*
X13905499Y22807094D01*
X13902749Y22834011D01*
X13895349Y22906458D01*
X13895348Y22906461D01*
X13868111Y22988658D01*
X13842003Y23067447D01*
X13841999Y23067453D01*
X13841998Y23067456D01*
X13752970Y23211791D01*
X13752967Y23211795D01*
X13745819Y23218943D01*
X13712334Y23280266D01*
X13709500Y23306624D01*
X13709500Y24000876D01*
X13729185Y24067915D01*
X13745819Y24088557D01*
X13746766Y24089504D01*
X13752968Y24095706D01*
X13842003Y24240053D01*
X13895349Y24401042D01*
X13905500Y24500405D01*
X13905499Y25347094D01*
X13895349Y25446458D01*
X13842003Y25607447D01*
X13841999Y25607453D01*
X13841998Y25607456D01*
X13752970Y25751791D01*
X13752967Y25751795D01*
X13719419Y25785343D01*
X13685934Y25846666D01*
X13683100Y25873024D01*
X13683100Y26171853D01*
X13692539Y26219306D01*
X13698337Y26233303D01*
X13729100Y26387958D01*
X13729100Y26545642D01*
X13729100Y26545645D01*
X13729099Y26545647D01*
X13724061Y26570976D01*
X13698337Y26700297D01*
X13683078Y26737136D01*
X13637997Y26845973D01*
X13637990Y26845986D01*
X13550389Y26977089D01*
X13550386Y26977093D01*
X13438892Y27088587D01*
X13438888Y27088590D01*
X13307785Y27176191D01*
X13307772Y27176198D01*
X13162101Y27236536D01*
X13162089Y27236539D01*
X13007445Y27267300D01*
X13007442Y27267300D01*
X12849758Y27267300D01*
X12849755Y27267300D01*
X12695110Y27236539D01*
X12695098Y27236536D01*
X12549427Y27176198D01*
X12549414Y27176191D01*
X12418311Y27088590D01*
X12418307Y27088587D01*
X12306813Y26977093D01*
X12306810Y26977089D01*
X12219209Y26845986D01*
X12219202Y26845973D01*
X12158864Y26700302D01*
X12158861Y26700290D01*
X12128100Y26545647D01*
X12128100Y26387954D01*
X12149512Y26280313D01*
X12158863Y26233303D01*
X12164580Y26219500D01*
X12164661Y26219306D01*
X12174100Y26171853D01*
X12174100Y25814632D01*
X12155638Y25749535D01*
X12068001Y25607456D01*
X12067996Y25607445D01*
X12014651Y25446460D01*
X12004500Y25347103D01*
X12004500Y24500413D01*
X12004501Y24500395D01*
X12014650Y24401043D01*
X12014651Y24401040D01*
X12067996Y24240056D01*
X12068001Y24240045D01*
X12157029Y24095710D01*
X12157032Y24095706D01*
X12164181Y24088557D01*
X12197666Y24027234D01*
X12200500Y24000876D01*
X12200500Y23306624D01*
X12180815Y23239585D01*
X12164181Y23218943D01*
X12157032Y23211795D01*
X12157029Y23211791D01*
X12068001Y23067456D01*
X12067996Y23067445D01*
X12014651Y22906460D01*
X12004500Y22807103D01*
X12004500Y21960413D01*
X12004501Y21960395D01*
X12014650Y21861043D01*
X12014651Y21861040D01*
X12064120Y21711754D01*
X12066522Y21641926D01*
X12030790Y21581884D01*
X11968270Y21550691D01*
X11946414Y21548750D01*
X7556199Y21548750D01*
X7489160Y21568435D01*
X7443405Y21621239D01*
X7433461Y21690397D01*
X7436558Y21704338D01*
X7457683Y21810541D01*
X7468000Y21862408D01*
X7468000Y22020092D01*
X7468000Y22020095D01*
X7467999Y22020097D01*
X7461812Y22051202D01*
X7437237Y22174747D01*
X7399025Y22267000D01*
X7376897Y22320423D01*
X7376890Y22320436D01*
X7289289Y22451539D01*
X7289286Y22451543D01*
X7177792Y22563037D01*
X7177788Y22563040D01*
X7046685Y22650641D01*
X7046672Y22650648D01*
X6901001Y22710986D01*
X6900989Y22710989D01*
X6746345Y22741750D01*
X6746342Y22741750D01*
X6588658Y22741750D01*
X6588655Y22741750D01*
X6434011Y22710990D01*
X6434006Y22710988D01*
X6434004Y22710988D01*
X6434003Y22710987D01*
X6420001Y22705188D01*
X6411827Y22703562D01*
X6407488Y22700773D01*
X6372553Y22695750D01*
X6221915Y22695750D01*
X6187320Y22700674D01*
X6177069Y22703652D01*
X6158955Y22708915D01*
X6158952Y22708916D01*
X6122931Y22711750D01*
X5624580Y22711750D01*
X5624558Y22711749D01*
X5588543Y22708915D01*
X5579087Y22706168D01*
X5509218Y22706371D01*
X5450550Y22744316D01*
X5421710Y22807956D01*
X5420499Y22825246D01*
X5420499Y22955838D01*
X5420498Y22955856D01*
X5410349Y23055208D01*
X5410348Y23055211D01*
X5406290Y23067456D01*
X5357003Y23216197D01*
X5356999Y23216203D01*
X5356998Y23216206D01*
X5267970Y23360541D01*
X5267969Y23360542D01*
X5267968Y23360544D01*
X5148044Y23480468D01*
X5148043Y23480469D01*
X5148041Y23480471D01*
X5131401Y23490735D01*
X5124578Y23498321D01*
X5115297Y23502559D01*
X5101607Y23523860D01*
X5084678Y23542683D01*
X5082034Y23554318D01*
X5077523Y23561337D01*
X5072500Y23596272D01*
X5072500Y23734041D01*
X5092185Y23801080D01*
X5140203Y23844526D01*
X5219022Y23884685D01*
X5397365Y24014258D01*
X5553242Y24170135D01*
X5634682Y24282230D01*
X5690011Y24324894D01*
X5759624Y24330873D01*
X5821420Y24298268D01*
X5835313Y24282235D01*
X5914905Y24172685D01*
X5916758Y24170135D01*
X6072636Y24014257D01*
X6072641Y24014253D01*
X6154881Y23954503D01*
X6250978Y23884685D01*
X6357500Y23830409D01*
X6447393Y23784605D01*
X6447396Y23784604D01*
X6517243Y23761910D01*
X6657049Y23716485D01*
X6874778Y23682000D01*
X6874779Y23682000D01*
X7095221Y23682000D01*
X7095222Y23682000D01*
X7312951Y23716485D01*
X7522606Y23784605D01*
X7719022Y23884685D01*
X7897365Y24014258D01*
X7980580Y24097474D01*
X8041899Y24130956D01*
X8111591Y24125972D01*
X8167525Y24084101D01*
X8173792Y24074895D01*
X8242288Y23963844D01*
X8366344Y23839788D01*
X8515666Y23747686D01*
X8682203Y23692501D01*
X8784991Y23682000D01*
X10185008Y23682001D01*
X10287797Y23692501D01*
X10454334Y23747686D01*
X10603656Y23839788D01*
X10727712Y23963844D01*
X10819814Y24113166D01*
X10874999Y24279703D01*
X10885500Y24382491D01*
X10885499Y25782508D01*
X10885209Y25785343D01*
X10874999Y25885297D01*
X10874998Y25885300D01*
X10861156Y25927071D01*
X10819814Y26051834D01*
X10727712Y26201156D01*
X10603656Y26325212D01*
X10454334Y26417314D01*
X10287797Y26472499D01*
X10287795Y26472500D01*
X10185016Y26483000D01*
X10185009Y26483000D01*
X9185975Y26483000D01*
X9118936Y26502685D01*
X9073181Y26555489D01*
X9063237Y26624647D01*
X9068269Y26646004D01*
X9073984Y26663251D01*
X9124999Y26817203D01*
X9135500Y26919991D01*
X9135499Y27295502D01*
X9155183Y27362540D01*
X9207987Y27408295D01*
X9259494Y27419501D01*
X10785008Y27419501D01*
X10887797Y27430001D01*
X11054334Y27485186D01*
X11203656Y27577288D01*
X11327712Y27701344D01*
X11419814Y27850666D01*
X11474999Y28017203D01*
X11485500Y28119991D01*
X11485499Y29012514D01*
X13325001Y29012514D01*
X13335494Y28909803D01*
X13390641Y28743381D01*
X13390643Y28743376D01*
X13482684Y28594155D01*
X13606654Y28470185D01*
X13753713Y28379478D01*
X13800437Y28327530D01*
X13811660Y28258567D01*
X13807694Y28239349D01*
X13803586Y28225208D01*
X13803584Y28225198D01*
X13800750Y28189189D01*
X13800750Y27690831D01*
X13800751Y27690809D01*
X13803585Y27654796D01*
X13803586Y27654788D01*
X13811822Y27626438D01*
X13816745Y27591856D01*
X13816747Y27557039D01*
X13841554Y27368650D01*
X13841556Y27368639D01*
X13890738Y27185104D01*
X13950498Y27040836D01*
X13963458Y27009549D01*
X14058468Y26844988D01*
X14058470Y26844985D01*
X14058474Y26844979D01*
X14174136Y26694244D01*
X14174142Y26694237D01*
X14174143Y26694236D01*
X14188776Y26679602D01*
X14188784Y26679591D01*
X14269360Y26599015D01*
X14269362Y26599012D01*
X14304461Y26563913D01*
X14304467Y26563908D01*
X15287265Y25581110D01*
X15320750Y25519787D01*
X15317292Y25454430D01*
X15314651Y25446460D01*
X15304500Y25347103D01*
X15304500Y24500413D01*
X15304501Y24500395D01*
X15314650Y24401043D01*
X15314651Y24401040D01*
X15367996Y24240056D01*
X15368001Y24240045D01*
X15457029Y24095710D01*
X15457032Y24095706D01*
X15576955Y23975783D01*
X15576959Y23975780D01*
X15721294Y23886752D01*
X15721297Y23886751D01*
X15721303Y23886747D01*
X15882292Y23833401D01*
X15981655Y23823250D01*
X16528344Y23823251D01*
X16528352Y23823252D01*
X16528355Y23823252D01*
X16582760Y23828810D01*
X16627708Y23833401D01*
X16788697Y23886747D01*
X16933044Y23975782D01*
X17052968Y24095706D01*
X17142003Y24240053D01*
X17195349Y24401042D01*
X17205500Y24500405D01*
X17205499Y25347094D01*
X17195349Y25446458D01*
X17142003Y25607447D01*
X17141999Y25607453D01*
X17141998Y25607456D01*
X17052970Y25751791D01*
X17052969Y25751792D01*
X17052968Y25751794D01*
X16933044Y25871718D01*
X16933043Y25871719D01*
X16927383Y25876194D01*
X16929067Y25878325D01*
X16890739Y25920970D01*
X16888017Y25927071D01*
X16840710Y26041294D01*
X16840708Y26041298D01*
X16840707Y26041301D01*
X16731400Y26230644D01*
X16598315Y26404101D01*
X16573555Y26428863D01*
X16573542Y26428883D01*
X16511676Y26490749D01*
X16464951Y26537479D01*
X16464949Y26537480D01*
X16460645Y26541785D01*
X16460591Y26541834D01*
X16001981Y27000444D01*
X15990300Y27021835D01*
X15975033Y27040836D01*
X15973853Y27051956D01*
X15968496Y27061767D01*
X15970234Y27086079D01*
X15967664Y27110316D01*
X15972682Y27120306D01*
X15973480Y27131459D01*
X15988087Y27150973D01*
X15999028Y27172750D01*
X16012486Y27183564D01*
X16015352Y27187392D01*
X16026541Y27194857D01*
X16070273Y27220720D01*
X16137997Y27237903D01*
X16196515Y27220720D01*
X16268804Y27177969D01*
X16415000Y27135496D01*
X16415000Y27690000D01*
X15715250Y27690000D01*
X15648211Y27709685D01*
X15602456Y27762489D01*
X15591250Y27814000D01*
X15591250Y27940000D01*
X15465749Y27940000D01*
X15457282Y27942487D01*
X15448551Y27941198D01*
X15424271Y27952180D01*
X15398710Y27959685D01*
X15392931Y27966355D01*
X15384890Y27969991D01*
X15370401Y27992356D01*
X15352955Y28012489D01*
X15350699Y28022765D01*
X15346900Y28028630D01*
X15341943Y28062665D01*
X15341750Y28063546D01*
X15341749Y28063751D01*
X15341749Y28189180D01*
X15341267Y28195295D01*
X15341251Y28199939D01*
X15341265Y28199991D01*
X15341250Y28200393D01*
X15341250Y28766000D01*
X15360935Y28833039D01*
X15413739Y28878794D01*
X15454794Y28887726D01*
X15457943Y28890000D01*
X15464506Y28909805D01*
X15474999Y29012514D01*
X15475000Y29012527D01*
X15475000Y29912500D01*
X13325001Y29912500D01*
X13325001Y29012514D01*
X11485499Y29012514D01*
X11485499Y29320008D01*
X11481869Y29355539D01*
X11474999Y29422797D01*
X11474998Y29422800D01*
X11468255Y29443148D01*
X11419814Y29589334D01*
X11327712Y29738656D01*
X11203656Y29862712D01*
X11054334Y29954814D01*
X10887797Y30009999D01*
X10887795Y30010000D01*
X10785016Y30020500D01*
X10785009Y30020500D01*
X10624847Y30020500D01*
X10557808Y30040185D01*
X10512053Y30092989D01*
X10510287Y30097045D01*
X10434420Y30280194D01*
X10434412Y30280211D01*
X10319090Y30479948D01*
X10319079Y30479965D01*
X10178661Y30662959D01*
X10168827Y30672793D01*
X10150987Y30690633D01*
X10150986Y30690634D01*
X10097110Y30744510D01*
X10043234Y30798386D01*
X10043233Y30798387D01*
X10037964Y30803656D01*
X10037730Y30803863D01*
X10015546Y30826047D01*
X10015538Y30826054D01*
X9832550Y30966468D01*
X9832547Y30966470D01*
X9632801Y31081796D01*
X9632784Y31081804D01*
X9419689Y31170076D01*
X9196893Y31229781D01*
X9196889Y31229782D01*
X8968201Y31259897D01*
X8920790Y31259898D01*
X8920790Y31259899D01*
X8914653Y31259900D01*
X8914649Y31259900D01*
X8852872Y31259900D01*
X8852860Y31259901D01*
X8776679Y31259903D01*
X8776677Y31259903D01*
X8769103Y31259903D01*
X8769055Y31259900D01*
X4775662Y31259900D01*
X4768058Y31259901D01*
X4768055Y31259901D01*
X4750643Y31259901D01*
X4743232Y31259901D01*
X4743191Y31259913D01*
X4535361Y31259911D01*
X4223846Y31229226D01*
X4223836Y31229224D01*
X3916854Y31168159D01*
X3915040Y31167609D01*
X3914053Y31167309D01*
X3844187Y31166688D01*
X3785075Y31203938D01*
X3755486Y31267233D01*
X3764814Y31336477D01*
X3770667Y31347959D01*
X3857212Y31497856D01*
X3950544Y31723179D01*
X4013666Y31958756D01*
X4045500Y32200556D01*
X4045500Y32964444D01*
X4025860Y33113621D01*
X6034500Y33113621D01*
X6034500Y32926380D01*
X6071025Y32742757D01*
X6071027Y32742749D01*
X6142676Y32569772D01*
X6142681Y32569763D01*
X6246697Y32414093D01*
X6246700Y32414089D01*
X6379088Y32281701D01*
X6379092Y32281698D01*
X6534762Y32177682D01*
X6534771Y32177677D01*
X6573956Y32161446D01*
X6707749Y32106027D01*
X6891379Y32069501D01*
X6891383Y32069500D01*
X6891384Y32069500D01*
X7078617Y32069500D01*
X7078618Y32069501D01*
X7262251Y32106027D01*
X7435231Y32177678D01*
X7590908Y32281698D01*
X7723302Y32414092D01*
X7827322Y32569769D01*
X7898973Y32742749D01*
X7935500Y32926384D01*
X7935500Y33113616D01*
X7898973Y33297251D01*
X7827322Y33470231D01*
X7827321Y33470232D01*
X7827318Y33470238D01*
X7723302Y33625908D01*
X7723299Y33625912D01*
X7590911Y33758300D01*
X7590907Y33758303D01*
X7435237Y33862319D01*
X7435228Y33862324D01*
X7262251Y33933973D01*
X7262243Y33933975D01*
X7078620Y33970500D01*
X7078616Y33970500D01*
X6891384Y33970500D01*
X6891379Y33970500D01*
X6707756Y33933975D01*
X6707748Y33933973D01*
X6534771Y33862324D01*
X6534762Y33862319D01*
X6379092Y33758303D01*
X6379088Y33758300D01*
X6246700Y33625912D01*
X6246697Y33625908D01*
X6142681Y33470238D01*
X6142676Y33470229D01*
X6071027Y33297252D01*
X6071025Y33297244D01*
X6034500Y33113621D01*
X4025860Y33113621D01*
X4013666Y33206244D01*
X3950544Y33441821D01*
X3857212Y33667144D01*
X3857210Y33667147D01*
X3857208Y33667152D01*
X3735272Y33878349D01*
X3735268Y33878356D01*
X3586799Y34071845D01*
X3586794Y34071851D01*
X3414350Y34244295D01*
X3414343Y34244301D01*
X3220864Y34392762D01*
X3220862Y34392764D01*
X3220856Y34392768D01*
X3220851Y34392771D01*
X3220848Y34392773D01*
X3009651Y34514709D01*
X3009640Y34514714D01*
X2784330Y34608041D01*
X2784323Y34608043D01*
X2784321Y34608044D01*
X2548744Y34671166D01*
X2508333Y34676487D01*
X2306951Y34703000D01*
X2306944Y34703000D01*
X2063056Y34703000D01*
X2063048Y34703000D01*
X1832896Y34672699D01*
X1821256Y34671166D01*
X1585679Y34608044D01*
X1585669Y34608041D01*
X1360359Y34514714D01*
X1360348Y34514709D01*
X1149151Y34392773D01*
X1149135Y34392762D01*
X955656Y34244301D01*
X955649Y34244295D01*
X783205Y34071851D01*
X783199Y34071844D01*
X634738Y33878365D01*
X634727Y33878349D01*
X512791Y33667152D01*
X512786Y33667140D01*
X439061Y33489153D01*
X395220Y33434750D01*
X328926Y33412685D01*
X261226Y33429964D01*
X213616Y33481102D01*
X200500Y33536606D01*
X200500Y37777089D01*
X200972Y37787896D01*
X207417Y37861557D01*
X669500Y37861557D01*
X669500Y37703443D01*
X709206Y37555260D01*
X710423Y37550717D01*
X710426Y37550710D01*
X789475Y37413791D01*
X789479Y37413786D01*
X789480Y37413784D01*
X901284Y37301980D01*
X901286Y37301979D01*
X901290Y37301976D01*
X1010574Y37238882D01*
X1038216Y37222923D01*
X1190943Y37182000D01*
X1190945Y37182000D01*
X1349055Y37182000D01*
X1349057Y37182000D01*
X1501784Y37222923D01*
X1638716Y37301980D01*
X1750520Y37413784D01*
X1811853Y37520017D01*
X2484500Y37520017D01*
X2484500Y36319999D01*
X2484501Y36319982D01*
X2495000Y36217204D01*
X2524206Y36129070D01*
X2524656Y36126277D01*
X2525477Y36125000D01*
X2530500Y36090065D01*
X2530500Y35854947D01*
X2521062Y35807499D01*
X2515263Y35793497D01*
X2515262Y35793494D01*
X2515260Y35793489D01*
X2484500Y35638847D01*
X2484500Y35481154D01*
X2515261Y35326511D01*
X2515264Y35326499D01*
X2575602Y35180828D01*
X2575609Y35180815D01*
X2663210Y35049712D01*
X2663213Y35049708D01*
X2774707Y34938214D01*
X2774711Y34938211D01*
X2905814Y34850610D01*
X2905827Y34850603D01*
X3051498Y34790265D01*
X3051503Y34790263D01*
X3206153Y34759501D01*
X3206156Y34759500D01*
X3206158Y34759500D01*
X3363844Y34759500D01*
X3363845Y34759501D01*
X3518497Y34790263D01*
X3664179Y34850606D01*
X3795289Y34938211D01*
X3897319Y35040242D01*
X3958640Y35073725D01*
X4028332Y35068741D01*
X4072680Y35040240D01*
X4174706Y34938214D01*
X4174710Y34938211D01*
X4305813Y34850610D01*
X4305826Y34850603D01*
X4451497Y34790265D01*
X4451502Y34790263D01*
X4606152Y34759501D01*
X4606155Y34759500D01*
X4606157Y34759500D01*
X4763843Y34759500D01*
X4763844Y34759501D01*
X4918496Y34790263D01*
X5064178Y34850606D01*
X5195288Y34938211D01*
X5306788Y35049711D01*
X5394393Y35180821D01*
X5454736Y35326503D01*
X5485499Y35481158D01*
X5485499Y35638842D01*
X5485499Y35638845D01*
X5485498Y35638847D01*
X5454738Y35793489D01*
X5454737Y35793492D01*
X5454736Y35793497D01*
X5448936Y35807499D01*
X5447310Y35815673D01*
X5444522Y35820012D01*
X5439499Y35854947D01*
X5439499Y35887116D01*
X5439500Y35887120D01*
X5439499Y35915055D01*
X5439503Y35915070D01*
X5439503Y35966421D01*
X5439504Y35966421D01*
X5439503Y36078375D01*
X5439503Y36078383D01*
X5439351Y36080702D01*
X5439503Y36081891D01*
X5439503Y36082435D01*
X5439572Y36082436D01*
X5445379Y36127817D01*
X5449379Y36139889D01*
X5474999Y36217203D01*
X5485500Y36319991D01*
X5485499Y37520008D01*
X5474999Y37622797D01*
X5419814Y37789334D01*
X5327712Y37938656D01*
X5203656Y38062712D01*
X5064910Y38148291D01*
X5054336Y38154813D01*
X5054331Y38154815D01*
X5044339Y38158126D01*
X4887797Y38209999D01*
X4887795Y38210000D01*
X4785010Y38220500D01*
X3184998Y38220500D01*
X3184981Y38220499D01*
X3082203Y38210000D01*
X3082200Y38209999D01*
X2915668Y38154815D01*
X2915663Y38154813D01*
X2766342Y38062711D01*
X2642289Y37938658D01*
X2550187Y37789337D01*
X2550185Y37789332D01*
X2549709Y37787896D01*
X2495001Y37622797D01*
X2495001Y37622796D01*
X2495000Y37622796D01*
X2484500Y37520017D01*
X1811853Y37520017D01*
X1829577Y37550716D01*
X1870500Y37703443D01*
X1870500Y37861557D01*
X1829577Y38014284D01*
X1801618Y38062711D01*
X1750524Y38151210D01*
X1750518Y38151218D01*
X1638717Y38263019D01*
X1638709Y38263025D01*
X1501790Y38342074D01*
X1501786Y38342076D01*
X1501784Y38342077D01*
X1349057Y38383000D01*
X1190943Y38383000D01*
X1038216Y38342077D01*
X1038209Y38342074D01*
X901290Y38263025D01*
X901282Y38263019D01*
X789481Y38151218D01*
X789475Y38151210D01*
X710426Y38014291D01*
X710423Y38014284D01*
X669500Y37861557D01*
X207417Y37861557D01*
X215802Y37957410D01*
X219555Y37978693D01*
X220128Y37980832D01*
X262193Y38137822D01*
X269579Y38158115D01*
X339207Y38307431D01*
X349998Y38326122D01*
X444502Y38461089D01*
X458380Y38477627D01*
X574873Y38594120D01*
X591411Y38607998D01*
X726378Y38702502D01*
X745069Y38713293D01*
X894385Y38782921D01*
X914678Y38790307D01*
X1073807Y38832946D01*
X1095090Y38836698D01*
X1264605Y38851528D01*
X1275412Y38852000D01*
X1309882Y38852000D01*
X6438371Y38852000D01*
X6505410Y38832315D01*
G37*
%TD.AperFunction*%
%TD*%
M02*
